<?xml version="1.0" encoding="utf-8"?>
<!-- Generator: Adobe Illustrator 28.0.0, SVG Export Plug-In . SVG Version: 6.00 Build 0)  -->
<svg version="1.1" id="Capa_1" xmlns="http://www.w3.org/2000/svg" xmlns:xlink="http://www.w3.org/1999/xlink" x="0px" y="0px"
	 viewBox="0 0 280 192" style="enable-background:new 0 0 280 192;" xml:space="preserve">
<style type="text/css">
	.st0{fill:#C4C4C4;}
	.st1{clip-path:url(#SVGID_00000114761563584968502750000002241769703420460715_);}
	.st2{fill:#EEEEEE;}
	.st3{fill:#380091;}
	.st4{fill:#FFFFFF;}
	.st5{fill:#FF007C;}
	.st6{fill:#E6E6E6;}
	.st7{fill:#30D7CF;}
	.st8{fill:#790033;}
</style>
<g>
	<path class="st0" d="M183.3,46.8h-1V18.5c0-4.3-1.7-8.5-4.8-11.6c-3.1-3.1-7.3-4.8-11.7-4.8h-60.4c-4.4,0-8.6,1.7-11.7,4.8
		c-3.1,3.1-4.8,7.2-4.8,11.6v155c0,4.3,1.7,8.5,4.8,11.6c3.1,3.1,7.3,4.8,11.7,4.8h60.4c4.4,0,8.6-1.7,11.7-4.8
		c3.1-3.1,4.8-7.2,4.8-11.6V66.9h1V46.8z"/>
	<g>
		<defs>
			<rect id="SVGID_1_" x="93.1" y="6.4" width="85" height="179"/>
		</defs>
		<clipPath id="SVGID_00000159470933848701223750000002238956209835761043_">
			<use xlink:href="#SVGID_1_"  style="overflow:visible;"/>
		</clipPath>
		<g style="clip-path:url(#SVGID_00000159470933848701223750000002238956209835761043_);">
			<path class="st2" d="M178.1,18.6v154.6c0,3.2-1.3,6.3-3.6,8.6c-2.3,2.3-5.4,3.6-8.7,3.6h-60.4c-3.3,0-6.4-1.3-8.7-3.6
				c-2.3-2.3-3.6-5.4-3.6-8.6V18.6c0-3.2,1.3-6.3,3.6-8.6c2.3-2.3,5.4-3.6,8.7-3.6h7.3c-0.7,1.8-0.5,3.8,0.6,5.4
				c0.5,0.8,1.3,1.4,2.1,1.9c0.8,0.4,1.8,0.7,2.7,0.7h34.5c1,0,1.9-0.2,2.7-0.7c0.8-0.4,1.6-1.1,2.1-1.9c1.1-1.6,1.3-3.6,0.6-5.4
				h7.9c3.3,0,6.4,1.3,8.7,3.6C176.8,12.2,178.1,15.3,178.1,18.6L178.1,18.6z"/>
		</g>
	</g>
	<path class="st3" d="M211.9,164.8h-75.8v-24.9h2.9v-6.5l6.5,6.5h66.4L211.9,164.8L211.9,164.8z"/>
	<path class="st4" d="M209.5,142.8h-71v19.7h71V142.8z"/>
	<path class="st5" d="M183.3,146.5h-29.4v1h29.4L183.3,146.5L183.3,146.5z"/>
	<path class="st6" d="M204.8,149.4h-51v1.1h51V149.4z M204.8,152.9h-51v1.1h51V152.9z M173,156.3h-18.7v1.1H173L173,156.3L173,156.3
		z"/>
	<path class="st7" d="M149.6,157.7c-1.5,0.3-3,0.2-4.4-0.3c-1.4-0.5-2.7-1.4-3.6-2.6c0.4-0.3,0.8-0.6,1.2-0.8
		c0.7-0.3,1.4-0.5,2.2-0.5c1.5,0,2.9,0.8,3.8,2C149.2,156.2,149.5,156.9,149.6,157.7L149.6,157.7z"/>
	<path class="st7" d="M148,153.7c1.1,0,2-0.9,2-2c0-1.1-0.9-2-2-2c-1.1,0-2,0.9-2,2C146,152.8,146.9,153.7,148,153.7z"/>
	<path class="st8" d="M146.1,156.8c-1.2,0-2.3-0.4-3.2-1.2c-1.8-1.6-2.2-4.3-0.9-6.3c0.6-1,1.6-1.7,2.7-2c1.1-0.3,2.3-0.2,3.4,0.2
		c1.1,0.5,1.9,1.3,2.4,2.4c0.5,1.1,0.6,2.3,0.2,3.4c-0.3,1.1-1.1,2.1-2,2.7C147.9,156.6,147,156.8,146.1,156.8z M146.1,147.2
		c-1.9,0-3.7,1.2-4.4,2.9c-0.7,1.8-0.3,3.8,1,5.2c0.7,0.7,1.5,1.1,2.4,1.3c0.9,0.2,1.9,0.1,2.7-0.3c0.9-0.4,1.6-1,2.1-1.8
		c0.5-0.8,0.8-1.7,0.8-2.7c0-1.3-0.5-2.5-1.4-3.4C148.5,147.7,147.3,147.2,146.1,147.2L146.1,147.2z"/>
	<path class="st3" d="M254.1,84h-89.6v29.5h3.4v7.7l7.7-7.7h78.5L254.1,84L254.1,84z"/>
	<path class="st4" d="M251.6,87.1h-84.7v23.6h84.7L251.6,87.1L251.6,87.1z"/>
	<path class="st5" d="M220.4,91.5h-35.1v1.2h35.1V91.5z"/>
	<path class="st6" d="M246,95h-60.8v1.3H246V95z M246,99.2h-60.8v1.3H246V99.2z M208,103.3h-22.3v1.3H208V103.3z"/>
	<path class="st7" d="M177.5,102.6c-0.9,1.5-1.9,2.3-2.9,2.4c-1,0-2-0.7-2.9-2.1c0.1-0.7,0.3-1.4,0.6-2.1c0.4-1,0.8-1.7,1.3-2.2
		c0.5-0.5,1-0.6,1.5-0.4c0.5,0.2,1,0.7,1.4,1.4c0.4,0.8,0.8,1.8,1,3C177.5,102.5,177.5,102.6,177.5,102.6z"/>
	<path class="st7" d="M174.6,97.5c0.9,0,1.7-0.8,1.7-1.7c0-0.9-0.8-1.7-1.7-1.7c-0.9,0-1.7,0.8-1.7,1.7
		C172.9,96.8,173.7,97.5,174.6,97.5z"/>
	<path class="st8" d="M175.9,103.9c-1.4,0-2.7-0.5-3.8-1.4c-1.1-0.9-1.7-2.2-1.9-3.6c-0.2-1.4,0.1-2.8,0.9-4c0.8-1.2,1.9-2,3.2-2.4
		c1.3-0.4,2.8-0.3,4,0.3c1.3,0.6,2.3,1.6,2.9,2.9c0.6,1.3,0.7,2.7,0.3,4.1c-0.4,1.3-1.3,2.5-2.4,3.3
		C178.1,103.6,177,103.9,175.9,103.9L175.9,103.9z M175.9,92.3c-1.1,0-2.2,0.3-3.2,1c-0.9,0.6-1.7,1.5-2.1,2.6
		c-0.4,1-0.5,2.2-0.3,3.3c0.2,1.1,0.8,2.1,1.6,2.9c0.8,0.8,1.8,1.3,2.9,1.6c1.1,0.2,2.2,0.1,3.3-0.3c1-0.4,1.9-1.2,2.5-2.1
		c1.5-2.3,1.2-5.3-0.7-7.2C178.9,92.9,177.4,92.3,175.9,92.3L175.9,92.3z"/>
	<path class="st3" d="M29,39.4h91.6v30.1h-3.5v7.9l-7.9-7.9H29V39.4z"/>
	<path class="st4" d="M118,42.5H31.5v24.1H118V42.5z"/>
	<path class="st5" d="M86.1,47.1H50.3v1.3h35.9V47.1z"/>
	<path class="st6" d="M112.4,50.7H50.3v1.4h62.1C112.4,52.1,112.4,50.7,112.4,50.7z M112.4,54.9H50.3v1.4h62.1
		C112.4,56.3,112.4,54.9,112.4,54.9z M73.5,59.1H50.8v1.4h22.8V59.1z"/>
	<path class="st7" d="M45,60.8c-1.8,0.4-3.7,0.3-5.4-0.3c-1.7-0.6-3.3-1.8-4.4-3.2c0.5-0.4,1-0.7,1.5-1c0.8-0.4,1.7-0.6,2.7-0.6
		c0.9,0,1.8,0.3,2.6,0.7c0.8,0.4,1.5,1.1,2,1.8C44.5,59,44.9,59.8,45,60.8C45,60.8,45,60.8,45,60.8z"/>
	<path class="st7" d="M43.1,55.9c1.3,0,2.4-1.1,2.4-2.5c0-1.4-1.1-2.5-2.4-2.5c-1.3,0-2.4,1.1-2.4,2.5
		C40.6,54.8,41.7,55.9,43.1,55.9z"/>
	<path class="st8" d="M40.7,59.7c-1.4,0-2.8-0.5-3.9-1.5c-2.2-2-2.7-5.3-1.1-7.8c0.8-1.2,1.9-2.1,3.3-2.5c1.4-0.4,2.8-0.3,4.1,0.3
		c1.3,0.6,2.3,1.7,2.9,3c0.6,1.3,0.7,2.8,0.3,4.2c-0.4,1.4-1.3,2.6-2.5,3.3C43,59.4,41.9,59.7,40.7,59.7z M40.7,47.9
		c-1.1,0-2.3,0.3-3.2,1c-1,0.6-1.7,1.6-2.1,2.6c-0.4,1.1-0.6,2.2-0.3,3.4c0.2,1.1,0.8,2.2,1.6,3c0.8,0.8,1.8,1.4,3,1.6
		c1.1,0.2,2.3,0.1,3.3-0.3c1.1-0.4,2-1.2,2.6-2.2c1.5-2.3,1.2-5.4-0.7-7.4C43.7,48.5,42.3,47.9,40.7,47.9z"/>
	<path class="st3" d="M0.1,143.7h114.4v-37.6h-4.3v-9.8l-9.8,9.8H0.1V143.7z"/>
	<path class="st4" d="M110.9,110.5H3.7v29.8h107.2V110.5z"/>
	<path class="st5" d="M71.3,116.1H26.9v1.6h44.4C71.3,117.7,71.3,116.1,71.3,116.1z"/>
	<path class="st6" d="M103.8,120.6h-77v1.7h77V120.6z M103.8,125.8h-77v1.7h77V125.8z M55.7,131H27.5v1.7h28.2V131z"/>
	<path class="st7" d="M21,131.2c-1.8,1.2-3.9,1.8-6,1.9c-2.1,0-4.2-0.6-6.1-1.7c0.3-0.6,0.7-1.2,1.2-1.7c0.7-0.8,1.6-1.4,2.6-1.7
		c1-0.4,2.1-0.5,3.1-0.3c1,0.1,2,0.5,2.9,1.1C19.7,129.3,20.5,130.1,21,131.2C21,131.1,21,131.2,21,131.2z"/>
	<path class="st7" d="M14.8,126.6c2,0,3.6-1.6,3.6-3.6c0-2-1.6-3.6-3.6-3.6c-2,0-3.6,1.6-3.6,3.6C11.2,125,12.9,126.6,14.8,126.6z"
		/>
	<path class="st8" d="M15.1,131.8c-1.8,0-3.5-0.6-4.8-1.8c-1.3-1.2-2.2-2.8-2.5-4.5c-0.3-1.8,0.1-3.6,1.1-5c1-1.5,2.4-2.6,4.1-3.1
		c1.7-0.5,3.5-0.4,5.1,0.4c1.6,0.7,2.9,2,3.6,3.7c0.7,1.6,0.9,3.4,0.4,5.2c-0.5,1.7-1.6,3.2-3.1,4.1
		C17.8,131.4,16.5,131.8,15.1,131.8L15.1,131.8z M15.1,117.1c-1.4,0-2.8,0.4-4,1.2c-1.2,0.8-2.1,1.9-2.6,3.2
		c-1.1,2.7-0.5,5.8,1.6,7.9c1,1,2.3,1.7,3.7,2c1.4,0.3,2.8,0.1,4.2-0.4c1.3-0.5,2.4-1.5,3.2-2.7c1.9-2.9,1.5-6.7-0.9-9.1
		C18.8,117.9,17,117.1,15.1,117.1z"/>
	<path class="st3" d="M279.9,12.7H138.2v46.5h5.4v12.2l12.2-12.2h124.2V12.7z"/>
	<path class="st4" d="M276,17.4H142.1v37.2H276V17.4z"/>
	<path class="st5" d="M226.6,24.4h-55.5v2h55.5V24.4z"/>
	<path class="st6" d="M267.2,30h-96.1v2.1h96.1V30z M267.2,36.5h-96.1v2.1h96.1V36.5z M207.1,43h-35.2v2.1h35.2V43z"/>
	<path class="st7" d="M163.8,43.2c-2.2,1.5-4.8,2.3-7.5,2.3c-2.7,0-5.3-0.7-7.6-2.1c0.4-0.8,0.9-1.5,1.5-2.1c0.9-1,2-1.7,3.3-2.1
		c1.2-0.4,2.6-0.6,3.9-0.4c1.3,0.2,2.6,0.7,3.6,1.4C162.2,40.9,163.1,41.9,163.8,43.2L163.8,43.2L163.8,43.2z"/>
	<path class="st7" d="M156.1,37.5c2.5,0,4.5-2,4.5-4.5c0-2.5-2-4.5-4.5-4.5s-4.5,2-4.5,4.5C151.6,35.5,153.6,37.5,156.1,37.5z"/>
	<path class="st8" d="M156.4,43.9c-2.2,0-4.3-0.8-6-2.3c-1.7-1.5-2.8-3.5-3.1-5.7c-0.3-2.2,0.2-4.4,1.4-6.3c1.2-1.9,3-3.2,5.1-3.9
		c2.1-0.6,4.4-0.5,6.4,0.5c2,0.9,3.6,2.5,4.5,4.6c0.9,2,1.1,4.3,0.5,6.4c-0.6,2.1-2,4-3.8,5.1C159.8,43.4,158.1,43.9,156.4,43.9
		L156.4,43.9z M156.4,25.7c-1.8,0-3.5,0.5-5,1.5c-1.5,1-2.6,2.4-3.3,4c-1.4,3.4-0.6,7.2,1.9,9.8c1.3,1.3,2.9,2.1,4.6,2.5
		c1.7,0.3,3.5,0.2,5.2-0.5c1.6-0.7,3-1.8,4-3.3c2.4-3.6,1.9-8.3-1.1-11.4C161,26.7,158.8,25.7,156.4,25.7z"/>
</g>
</svg>
