<?xml version="1.0" encoding="utf-8"?>
<!-- Generator: Adobe Illustrator 28.0.0, SVG Export Plug-In . SVG Version: 6.00 Build 0)  -->
<svg version="1.1" id="Capa_1" xmlns="http://www.w3.org/2000/svg" xmlns:xlink="http://www.w3.org/1999/xlink" x="0px" y="0px"
	 viewBox="0 0 260 182" style="enable-background:new 0 0 260 182;" xml:space="preserve">
<style type="text/css">
	.st0{clip-path:url(#SVGID_00000003073400891982922510000011065774665737955456_);}
	.st1{opacity:0.1;fill:#30D7CF;enable-background:new    ;}
	.st2{fill:url(#SVGID_00000137826431325487403740000016606130592602128052_);}
	.st3{fill:#D38884;}
	.st4{fill:#380091;}
	.st5{fill:#B07473;}
	.st6{opacity:0.1;fill:#571AFF;enable-background:new    ;}
	.st7{fill:#FFFFFF;}
	.st8{fill:#571AFF;}
	.st9{fill:#000A2C;}
	.st10{fill:#E1E7EF;}
	.st11{fill:#EAEAEA;}
	.st12{fill:#790033;}
	.st13{fill:url(#SVGID_00000018222007376151060450000016024728102451976348_);}
	.st14{fill:#A27772;}
	.st15{fill:#CC818C;}
	.st16{fill:#30D7CF;}
	.st17{fill:#4D26B9;}
	.st18{fill:#BE707B;}
	.st19{fill:#7A7A7A;}
	.st20{fill:#F6F8FB;}
	.st21{fill:url(#SVGID_00000142169377577140508320000013575922399898851752_);}
	.st22{fill:#950080;}
	.st23{fill:#FBBEBE;}
	.st24{opacity:5.000000e-02;fill:#571AFF;enable-background:new    ;}
	.st25{fill:#7C5C5C;}
	.st26{fill:#865A61;}
	.st27{fill:url(#SVGID_00000134956874639253087200000010105993511074855836_);}
	.st28{fill:#FDC2CC;}
	.st29{fill:#D39999;}
	.st30{fill:#7E5659;}
	.st31{fill:#60454B;}
	.st32{opacity:0.1;}
	.st33{fill:#A8A8A8;}
	.st34{opacity:0.2;fill:#571AFF;enable-background:new    ;}
</style>
<g>
	<g>
		<defs>
			<rect id="SVGID_1_" y="0.2" width="260" height="181.5"/>
		</defs>
		<clipPath id="SVGID_00000092427995937349239380000006133114770771811262_">
			<use xlink:href="#SVGID_1_"  style="overflow:visible;"/>
		</clipPath>
		<g style="clip-path:url(#SVGID_00000092427995937349239380000006133114770771811262_);">
			<path class="st1" d="M2.9,93c4.1,16,12.8,29.8,26.5,36.5c28.6,14,93,6.8,141.1-1.5c24.8-4.3,46.7-16,62.6-32.7L2.9,93L2.9,93z
				 M255.1,17.7h-26.4c-1.2,0-2.3-0.9-2.3-2s1-2,2.3-2h4.5c-1.2,0-2.3-0.9-2.3-2s1-2,2.3-2h-3.3c-1.2,0-2.3-0.9-2.3-2s1-2,2.3-2
				h13.7c-3.1-1.2-6.6-2.3-10.8-2.7c-37.5-4.4-50.9-1.5-55.7,1.5c-5.9,3.7-12.5,6.4-19.3,7.7c-23.1,4.3-66.5,9.6-105.7-1.7
				C32.8,4.4,18.3,13.9,9.6,29.7h250.1c-0.3-4.7-1.2-8.8-3.1-12.6C256.1,17.5,255.7,17.7,255.1,17.7L255.1,17.7z M0.7,59.6
				c-0.9,9.3-0.6,18.7,1.1,28l231.6,7.7c6.4-6.7,11.8-14.2,16.1-22.3L0.7,59.6z M92.3,79.5h-4.5c1.2,0,2.3,0.9,2.3,2
				c0,1.1-1,2-2.3,2H61.4c-1.2,0-2.3-0.9-2.3-2c0-1.1,1-2,2.3-2h4.5c-1.2,0-2.3-0.9-2.3-2c0-1.1,1-2,2.3-2h-3.3
				c-1.2,0-2.3-0.9-2.3-2c0-1.1,1-2,2.3-2H89c1.2,0,2.3,0.9,2.3,2c0,1.1-1,2-2.3,2h3.3c1.2,0,2.3,0.9,2.3,2
				C94.6,78.6,93.6,79.5,92.3,79.5z M259.7,29.9L6.8,35.5c-3.1,7.3-5.1,15.3-6,23.8h254.6c1.7-5,2.8-10,3.6-15.2
				C259.7,39.2,260,34.4,259.7,29.9L259.7,29.9z M52.1,48.2h-4.5c1.2,0,2.3,0.9,2.3,2s-1,2-2.3,2H21.2c-1.2,0-2.3-0.9-2.3-2
				s1-2,2.3-2h4.5c-1.2,0-2.3-0.9-2.3-2s1-2,2.3-2h-3.3c-1.2,0-2.3-0.9-2.3-2s1-2,2.3-2h26.4c1.2,0,2.3,0.9,2.3,2s-1,2-2.3,2h3.3
				c1.2,0,2.3,0.9,2.3,2S53.3,48.2,52.1,48.2z M151.8,175.3c9.5,0,17.1-1.7,17.1-3.9c0-2.2-7.7-3.9-17.1-3.9
				c-9.5,0-17.1,1.7-17.1,3.9C134.7,173.6,142.4,175.3,151.8,175.3z M191.7,186.2c17.1,0,31-1.1,31-2.5s-13.8-2.5-31-2.5
				s-31,1.1-31,2.5C160.7,185,174.6,186.2,191.7,186.2L191.7,186.2z M67.3,183.7c17.1,0,31-1.7,31-3.9c0-2.2-13.8-3.9-31-3.9
				s-31,1.7-31,3.9C36.3,182,50.3,183.7,67.3,183.7z M114.6,164.4c12.8,0,23.3-1.7,23.3-3.9c0-2.2-10.4-3.9-23.3-3.9
				s-23.3,1.7-23.3,3.9C91.3,162.7,101.6,164.4,114.6,164.4z"/>
			
				<linearGradient id="SVGID_00000016788401085047823750000010524255231341780144_" gradientUnits="userSpaceOnUse" x1="110.1359" y1="1080.3525" x2="110.1359" y2="945.2993" gradientTransform="matrix(1 0 0 1 0 -918)">
				<stop  offset="0" style="stop-color:#808080;stop-opacity:0.25"/>
				<stop  offset="0.54" style="stop-color:#808080;stop-opacity:0.12"/>
				<stop  offset="1" style="stop-color:#808080;stop-opacity:0.1"/>
			</linearGradient>
			<path style="fill:url(#SVGID_00000016788401085047823750000010524255231341780144_);" d="M131.9,68.8c-0.5-3.3-3.5-11.1-3.5-11.1
				c0-0.2-0.1-0.5-0.2-0.7c-2.2-7.4-5.1-7.9-5.1-7.9l-10.5-2.3c0.1,0,0.1,0.1,0.2,0.2c-0.1,0-0.1,0-0.1,0c-0.5-0.6-0.8-1.2-0.9-2
				c0-0.1,0-0.2,0-0.3c2.9-2.8,3.1-7.6,0.1-10.5c-0.3-0.3-0.7-0.7-1.1-0.9c0.5-0.6,0.6-1.2,0.1-2c-0.8-1.7-2.6-2.8-4.5-3.4
				c-1.5-0.5-2.9-0.6-4.4-0.1c-0.8,0.2-1.6,0.7-2.3,1c-1.4,0.7-2.9,1.2-4,2.4c-0.2,0.2-0.5,0.6-0.5,1c0,0.2,0.2,0.5,0.5,0.7
				c0.3,0.6,0.2,1.1,0,1.8c-0.2,0.6-0.5,1.1-0.7,1.7c-0.1,0.6-0.1,1.2,0.3,1.7c0.2,0.1,0.5,0.3,0.7,0.5c0.2,0.2,0.5,0.5,0.7,0.7
				c0.5,0.6,0.8,1.1,1.2,1.7c0.6,0.8,1.1,1.6,1.6,2.4c0.3,0.6,0.6,1.2,1,1.8c0.1,0.1,0.2,0.3,0.5,0.5h-0.1c0.3,0.3,0.9,0.6,1.4,0.6
				h0.1c0.1,0,0.2,0,0.2-0.1v0.2c0,0.8,0,1.7,0,2.5h-0.1c-0.3-0.1-0.7-0.1-0.9,0.1l-9.8,7.8c0,0-2.2,2.9-1.8,7.9l-1.7,7.5
				c0,0-2.2,6.4-0.5,10.9c1.6,4.5,2.6,7.1,2.6,7.1s0.7,5.2,1.6,5.6c1,0.5,1.4,0.7,1.4,0.7l0.2,1.2c0,0,0.1,0.1,0.2,0.3
				c0.7,1.2,3.4,5.7,4.9,5.2c0.2,1.2,0.2,2.4,0.2,3.6l1.5,10.3c0,0,1,2.8,1,4.3c-0.1,1.5,1.2,3.5,1.2,3.5c-0.8,1.5-1,3.2-0.7,4.8
				c0.7,2.7,1.4,15.3,1.4,15.3l1.1,3.1v3.6c-0.1,0.6-0.3,1.1-0.7,1.6c-0.8,0.8-0.7,1.7-2.5,2.8c-1.8,1.1-2.9,1.5-2.9,2.9
				c0,0.2,0,0.5,0,0.6c-0.1,1-0.5,1.7,2.8,1.9c3.9,0.3,6.5-2.2,6.5-2.2s0.6-1,3.2-1.5c0,0,0.9,0,0.9-0.9c0-0.5,0-0.9,0-1.4
				c0-1.1-0.1-2.4-0.3-2.5c-0.2-0.1-0.5-1.2-0.6-1.6h0.8c0,0,0.7-5.2,0-8.5c-0.7-3.4-0.1-5.7-0.1-5.7l-0.1-8.8c0,0-0.9-1-0.2-2.7
				c0.7-1.7,0-10.2,0-10.2s0.2-3.1,1-3.7c0.8-0.7,0-4.4,0-4.7l1.4,4.5c0,0,0.6,9,1.8,10.5l0.3,4.1c0,0,2.6,3.7,2,5.8
				c-0.5,2,0.6,9.3,0.6,9.3v7.5c0,0-1.1,2.9,0.5,4.1h0.7c-0.2,0.2-0.5,0.6-0.7,0.8c-0.3,0.3-0.5,1.5-0.6,2.6
				c-0.1,0.9-0.1,1.6-0.1,1.6s0.7,1.1,1.9,1.1c1.2,0.1,5.6,3.3,5.6,3.3s4.2,0,5.3-0.2h0.1c0.3-0.1,0.7-0.3,0.8-0.7
				c0.2-0.3,0.3-0.8,0.2-1.2c-0.1-0.7-0.7-1.4-1.8-1.9c-2.8-1.5-3.2-2.8-3.2-2.8l-1.8-2.7h0.2c0,0-0.1-2.9,1.8-6.2l-0.1-14.5
				c0,0,0.8-5-0.6-7.7c0,0-0.1-2.8,0.8-3.7c0.9-0.9-1.2-9.8-1.2-9.8s-0.5-4.8-1-9.1c2.3,2.2,4.5-5.4,4.9-6.8h0.1v-0.1v-0.1
				c0,0-0.5-1.7-0.1-1.4s1.2-1,1.2-1s-0.1-7.3,1.4-10.9S131.9,68.8,131.9,68.8L131.9,68.8z M125.3,73.4L125.3,73.4
				c0.2,4.4,0,13.8,0,13.8s-0.3,1.2-0.7,2.6l-0.2-9l-0.2-8.5L125.3,73.4L125.3,73.4z M97,70.4c0,0,1.1,14,0,16
				c-0.3,0.6-0.6,1.6-0.8,2.7c-0.3-1-1.1-3.3-0.9-4.4c0.3-1.6-0.7-5.7-0.7-5.8c0-0.1-0.1-2.3,0.7-4s0.2-2.4,0.2-2.4
				S96.2,69.8,97,70.4L97,70.4z"/>
			<path class="st3" d="M99.7,101.9c-1,4.3-4.9-2.2-5.8-3.7l-0.1-0.3l0.5-1.9l2.3-0.9c0.3,0.2,0.7,0.5,1,0.7
				C98.7,96.6,100.5,98.6,99.7,101.9z M129.8,94.9L129.8,94.9c0,0.1,0,0.1,0,0.2c-0.3,1.4-2.6,8.8-4.9,6.8c-2.4-2.3-1.2-7.6-1.2-7.6
				l0,0l5-0.6L129.8,94.9L129.8,94.9L129.8,94.9z"/>
			<path class="st4" d="M126.9,132l0.1,14.4c-1.9,3.3-1.8,6.1-1.8,6.1l-6.5,0.2c-1.6-1-0.5-4.1-0.5-4.1v-7.4c0,0-1-7.3-0.6-9.2
				c0.5-2-2-5.7-2-5.7l-0.3-4.1c-1.2-1.6-1.8-10.5-1.8-10.5l-1.4-4.5c0,0.2,0.7,4,0,4.7c-0.7,0.7-1,3.7-1,3.7s0.7,8.5,0,10.2
				s0.2,2.7,0.2,2.7l0.1,8.7c0,0-0.6,2.4,0.1,5.7c0.7,3.3,0,8.5,0,8.5h-6.9v-3.6l-1.1-3.1c0,0-0.8-12.5-1.4-15.2
				c-0.3-1.6-0.1-3.3,0.7-4.8c0,0-1.2-2-1.2-3.5c0.1-1.5-1-4.2-1-4.2l-1.5-10.2c0-1.9-0.2-4-0.8-5.8c-0.9-2.9-2.2-6.7-2.2-6.7
				l1.5,0.1l7.4,0.7c0,0,17.9-1.2,18.7-0.2c0.1,0.3,0.2,0.7,0.3,1c0.8,3.6,1.8,14.9,1.8,14.9s2.2,8.8,1.2,9.6
				c-0.9,0.9-0.8,3.7-0.8,3.7C127.7,127,126.9,132,126.9,132L126.9,132z"/>
			<path class="st5" d="M111.7,156.9c0,0.8-0.9,0.8-0.9,0.8c-2.6,0.5-3.2,1.5-3.2,1.5s-2.5,2.5-6.4,2.2c-3.2-0.3-2.9-0.9-2.7-1.9
				c0-0.2,0-0.5,0-0.6c0-1.5,1.1-1.8,2.8-2.9c1.7-1.1,1.7-2,2.4-2.8c0.7-0.8,0.8-2.4,0.8-2.4c0.8-1.5,2.9,0.2,2.9,0.2
				c0.1,0.5,3.2,0.5,3.2,0.5s0.5,1.7,0.6,1.7c0.1,0.1,0.2,1.4,0.3,2.5C111.8,156.1,111.8,156.6,111.7,156.9L111.7,156.9z"/>
			<path class="st6" d="M111.7,156.9c0,0.8-0.9,0.8-0.9,0.8c-2.6,0.5-3.2,1.5-3.2,1.5s-2.5,2.5-6.4,2.2c-3.2-0.3-2.9-0.9-2.7-1.9
				c1.5,0.3,4.2,0.9,5.8,0c2.3-1.2,3.9-2,3.9-2l3.5-1.8C111.8,156.1,111.8,156.6,111.7,156.9L111.7,156.9z"/>
			<path class="st5" d="M131.5,161.2c-0.2,0.3-0.5,0.6-0.8,0.7h-0.1c-1,0.2-5.2,0.2-5.2,0.2s-4.2-3.2-5.4-3.3
				c-1.2-0.1-1.9-1.1-1.9-1.1s0-0.8,0.1-1.6c0.1-1,0.2-2.3,0.6-2.5c0.6-0.6,0.7-1.4,1.9-0.9c0,0,1.8-3.2,3.9-0.7l2.2,3.3
				c0,0,0.5,1.4,3.2,2.8c1.1,0.6,1.6,1.2,1.7,1.9C131.8,160.4,131.7,160.9,131.5,161.2z"/>
			<path class="st6" d="M131.5,161.2c-0.2,0.2-0.6,0.5-0.8,0.7h-0.1c-1,0.2-5.2,0.2-5.2,0.2s-4.2-3.2-5.4-3.3
				c-1.2-0.1-1.9-1.1-1.9-1.1s0-0.8,0.1-1.6c1.2,0.3,3.2,1,3.7,1.8c0.8,1.1,3.2,2.6,3.2,2.6s4.5-0.5,6.6-0.5
				C131.8,160.4,131.7,160.9,131.5,161.2L131.5,161.2z"/>
			<path class="st3" d="M113.9,48.5l-6,6.2c0,0-7.3-0.6-6-2.6c0.7-1.1,0.8-3.4,0.7-5.3c0-1.9-0.2-3.5-0.2-3.5s10.1-5,9.3-0.3
				c-0.1,0.9-0.2,1.8,0,2.7C112.2,48,113.9,48.5,113.9,48.5z"/>
			<path class="st6" d="M111.7,42.9c-0.1,0.9-0.2,1.8,0,2.7c-1.4,1.4-3.3,2.3-5.3,2.3c-1.4,0-2.8-1.1-4-1.8c0-1.9-0.1-2.7-0.1-2.7
				S112.5,38.3,111.7,42.9z"/>
			<path class="st3" d="M113.9,40c0,4.1-3.3,7.5-7.5,7.5c-2.8,0-5.4-1.6-6.7-4.2c-1.8-3.7-0.2-8.2,3.5-10c3.7-1.8,8.2-0.2,10,3.5
				C113.7,37.8,113.9,38.8,113.9,40z"/>
			<path class="st6" d="M124,96c-1.8,4.4-13.8,4.5-13.8,4.5v-4.8h-0.7c0.3,1.4-0.5,4.8-0.5,4.8c-9.4,1.4-11.8-4.1-11.8-4.1l0.3-1.8
				l7.4,0.7c0,0,17.9-1.2,18.7-0.2C123.9,95.2,124,95.7,124,96z"/>
			<path class="st7" d="M110.3,99.8v-4.8h-0.7c0.3,1.4-0.5,4.8-0.5,4.8c-7.1,1-10.2-1.8-11.2-3.3c-0.2-0.2-0.3-0.6-0.5-0.8l2.8-16.2
				l0.7-23.9l1-4.2l0.2-2l0,0l0,0l0.7,0.3l4.4,1.9l5-3.7h0.1l0.2-0.2l0.5,0.3l1,0.8l3.3,21.3c0,0,5.7,16.3,6.8,23
				c0,0.2,0.1,0.6,0.1,0.8C125,99.7,110.3,99.8,110.3,99.8z"/>
			<path class="st8" d="M107.9,52.5c0.2,0,0.5-0.2,0.5-0.5c0-0.2-0.2-0.5-0.5-0.5s-0.5,0.2-0.5,0.5
				C107.4,52.3,107.7,52.5,107.9,52.5L107.9,52.5z M108.1,56.4c0.2,0,0.5-0.2,0.5-0.5c0-0.2-0.2-0.5-0.5-0.5c-0.2,0-0.5,0.2-0.5,0.5
				C107.7,56.2,107.8,56.4,108.1,56.4L108.1,56.4z M108.4,62.6c0.2,0,0.5-0.2,0.5-0.5c0-0.2-0.2-0.5-0.5-0.5S108,62,108,62.2
				C108,62.4,108.2,62.6,108.4,62.6z M109.1,69.4c0.2,0,0.5-0.2,0.5-0.5c0-0.2-0.2-0.5-0.5-0.5c-0.2,0-0.5,0.2-0.5,0.5
				C108.7,69.2,108.9,69.4,109.1,69.4L109.1,69.4z M109.6,75.8c0.2,0,0.5-0.2,0.5-0.5c0-0.2-0.2-0.5-0.5-0.5l0,0
				c-0.2,0-0.5,0.2-0.5,0.5C109.1,75.6,109.4,75.8,109.6,75.8z M110,82.5c0.2,0,0.5-0.2,0.5-0.5s-0.2-0.5-0.5-0.5s-0.5,0.2-0.5,0.5
				C109.6,82.3,109.8,82.5,110,82.5z M109.8,89.2c0.2,0,0.5-0.2,0.5-0.5s-0.2-0.5-0.5-0.5s-0.5,0.2-0.5,0.5S109.6,89.2,109.8,89.2z"
				/>
			<path class="st6" d="M102.4,81.8c0,0-0.5,6.2-1.4,8.1c-0.9,1.8-1.2,6.9-1.2,6.9l-2-0.2c-0.2-0.2-0.3-0.6-0.5-0.8l2.8-16.2
				l0.7-23.9l1-4.2l0.2-2l0,0c0.2-0.1,0.5-0.1,0.7,0h0.1c0,0.1-0.1,0.1-0.1,0.2c-0.8,2.5-1.1,7-1.1,7s1.1,8.3,1.2,12.3
				C103.2,72.8,102.4,81.8,102.4,81.8z"/>
			<path class="st6" d="M97.4,95.5c0,0,0,0.1-0.1,0.1c-0.8,1.4-2.7,2.2-3.4,2.4l-0.1-0.2l0.5-1.9l2.3-0.9
				C96.9,95.1,97.2,95.3,97.4,95.5z"/>
			<path class="st4" d="M92.1,63.9l-1.8,1l-1.7,7.5c0,0-2,6.4-0.5,10.9c0.8,2.4,1.7,4.8,2.5,7.1c0,0,0.7,5.1,1.6,5.6
				c1,0.5,1.4,0.7,1.4,0.7l0.2,1.2c0,0,2.6-0.9,3.5-2.5c0.9-1.6-0.7-5.4-0.7-5.4s-1.4-3.3-1-4.9c0.3-1.6-0.7-5.7-0.7-5.7
				c0-0.1-0.1-2.3,0.7-4c0.8-1.7,0.2-2.4,0.2-2.4l-0.5-4.8C95.4,68.2,92.1,63.9,92.1,63.9z"/>
			<path class="st6" d="M124.2,94.5c0,0-4.9,1.8-6.5,0.2c-1.6-1.6-1.4-9.2-1.4-9.2s-1.5-14-2.4-16.2c-0.9-2.3-0.5-18.8-0.5-18.8
				s-0.7-2.2-1.1-2.7l-0.1-0.1h0.2l0.7,0.1l1,0.8l3.3,21.3c0,0,5.7,16.3,6.8,23L124.2,94.5z"/>
			<path class="st6" d="M129.8,95.1L129.8,95.1c-0.7,0.1-6.1,0.7-6.1-0.3c0-0.1,0-0.2,0-0.3l5-0.6l1,1
				C129.8,94.9,129.8,94.9,129.8,95.1C129.8,95,129.8,95.1,129.8,95.1z"/>
			<path class="st4" d="M124.7,56.4l3.5,1.8c0,0,2.9,7.7,3.4,11c0,0,2.2,8.8,0.7,12.5c-1.5,3.6-1.4,10.8-1.4,10.8s-0.9,1.4-1.2,1
				c-0.3-0.3,0.1,1.4,0.1,1.4s-6.1,0.8-6.1-0.3c0-1.2,1.4-6.9,1.4-6.9s0.3-13.6-0.1-15.8C124.4,69.7,124.7,56.4,124.7,56.4z"/>
			<path class="st6" d="M114,70.8c0,0-2,4.9-2.6,5.2c-0.7,0.3,0.1,1.6,0.1,1.6S115.1,72.6,114,70.8z M112.8,53.7
				c0-0.1-2.4,2.4-3.1,2.7C109.1,56.7,112.1,56.4,112.8,53.7z M106.1,70.5c0,0-3.6,2.4-3.2,3.3C103.3,74.8,106.1,70.5,106.1,70.5z
				 M112.8,105.2c0,0,3.2,2,8.1,2.5L112.8,105.2z M105.3,110.1c0,0,2.9,3.6,4.2,3.7C110.8,113.9,105.3,110.1,105.3,110.1
				L105.3,110.1z M109.4,124.4c-0.1,0.1-1.7,3.3-3.2,3.4C104.6,127.9,109.4,124.4,109.4,124.4z M122.7,131.5c0,0,2.8-0.7,3.5,1.5
				C126.3,132.9,126.1,132.2,122.7,131.5z M120.8,143.3c0,0,3.5-0.7,4.2,0.2C125.8,144.5,120.8,143.3,120.8,143.3z M110.9,144.9
				c0,0-3.5,0.7-3.4,1.1s3.7,0.3,4-0.3C111.5,145.5,111.3,145,110.9,144.9L110.9,144.9z M119.7,147.9c0,0,5.8-0.7,5.4,0.6
				C124.8,149.8,119.7,147.9,119.7,147.9z M89.2,76.1c0,0.1,3.9,0.6,4.3,1.8C93.5,78,89.7,76.1,89.2,76.1 M94.5,86.1
				c0,0-3.2,1-2.9,2.5C91.8,90.1,91.2,87.9,94.5,86.1L94.5,86.1z M93,93.7c0,0,1.1-1.6,2.3-1.2C96.3,92.7,93,93.7,93,93.7L93,93.7z
				 M111.1,34.2c-0.1,0.1-0.2,0.2-0.3,0.2c-0.9,0.6-1.1,1.4-1.6,2.3c-0.5,0.9-0.8,1.8-1.7,2.3c-1,0.7-2.4,0.5-3.5,1
				c-1,0.6-1.6,1.6-1.5,2.7c0.1,0.5,0.2,0.8,0.3,1.2c0.2,0.9,0.3,1.8,0.3,2.7c0,0,0,0,0,0.1c-3.6-1.8-5.2-6.4-3.3-10
				c1.9-3.6,6.4-5.2,10-3.3C110.3,33.5,110.7,33.8,111.1,34.2L111.1,34.2L111.1,34.2z"/>
			<path class="st9" d="M110.9,31.9c-0.8-1.7-2.6-2.8-4.4-3.3c-1.4-0.5-2.9-0.6-4.3-0.1c-0.8,0.2-1.5,0.7-2.3,1
				c-1.4,0.7-2.9,1.2-4,2.4c-0.2,0.2-0.5,0.6-0.3,1c0,0.2,0.2,0.5,0.3,0.7c0.3,0.6,0.2,1.1,0,1.7c-0.2,0.6-0.5,1.1-0.7,1.7
				c-0.1,0.6-0.1,1.2,0.3,1.7c0.2,0.2,0.5,0.3,0.7,0.5c0.2,0.2,0.5,0.5,0.6,0.7l1.2,1.7c0.6,0.8,1.1,1.6,1.6,2.4
				c0.3,0.6,0.6,1.2,0.9,1.8c0.5,0.6,1,1,1.7,0.9c0.1,0,0.2,0,0.2-0.1c0,0,0-0.1,0-0.2c0-0.9-0.1-1.8-0.3-2.7
				c-0.1-0.5-0.2-0.8-0.3-1.2c-0.1-1.1,0.5-2.2,1.5-2.7c1.1-0.6,2.5-0.3,3.5-0.9c0.8-0.5,1.2-1.4,1.7-2.3c0.5-0.9,0.7-1.8,1.6-2.3
				C111.3,33.7,111.4,32.8,110.9,31.9z"/>
			<path class="st6" d="M107.5,153.8c0,0,1.1,1.5,0.8,2.3C108.1,156.9,107.5,153.8,107.5,153.8z M123,157.5c0,0,0.2-1.9,1.2-1.9
				s1-0.1,1.8,0.2c0.8,0.3,1.5,0.8,1.2,0.8c-0.2,0.1-1.4-1.1-2.5-0.5C124.2,156.5,123.5,156.9,123,157.5z M104.1,54l3.2-2.3
				c0,0-4.7-2.7-5.2-2.4c-0.6,0.3-0.9,3.9-0.9,3.9L104.1,54L104.1,54z"/>
			<path class="st10" d="M104.1,53.9l3.2-2.3c0,0-4.7-2.7-5.2-2.4c-0.6,0.3-0.9,4.1-0.9,4.1L104.1,53.9z"/>
			<path class="st11" d="M104.1,53.9l3.2-2.3c0,0-4.7-2.7-5.2-2.4c-0.6,0.3-0.9,4.1-0.9,4.1L104.1,53.9z"/>
			<path class="st12" d="M102.7,49.3L102.7,49.3c-0.3-0.2-0.8-0.1-1,0l-9.5,7.8c0,0-2,2.8-1.8,7.8L96,73c0,0,0.7-2.7,1.5-2.2
				c0,0,1.1,13.8,0,15.9c-1.1,2-1.6,9.5-1.6,9.5l3.7,0.5c0,0,0.3-5.1,1.2-6.9c0.9-1.8,1.4-8.1,1.4-8.1s0.8-9.1,0.7-12.9
				c-0.1-3.9-1.2-12.3-1.2-12.3S101.8,51.6,102.7,49.3L102.7,49.3z"/>
			<path class="st6" d="M112.2,52.7l-4-1.5c0,0,5.1-5.6,5.7-2.5L112.2,52.7z"/>
			<path class="st10" d="M112.2,52.4l-4-1.5c0,0,5.1-5.6,5.7-2.5L112.2,52.4z"/>
			<path class="st11" d="M112.2,52.4l-4-1.5c0,0,5.1-5.6,5.7-2.5L112.2,52.4z"/>
			<path class="st6" d="M112.1,47.7c0.1,0,0.1,0,0.1,0H112.1L112.1,47.7z"/>
			<path class="st12" d="M112.4,47.3l10.5,2.3c0,0,2.9,0.7,5,7.9c2,7.3-2.8,16.2-2.8,16.2l-1.1-0.9l0.6,21.3c0,0-4.9,1.8-6.5,0.2
				s-1.4-9.2-1.4-9.2s-1.5-14-2.4-16.2c-0.9-2.3-0.5-18.8-0.5-18.8S113,47.2,112.4,47.3z"/>
			<path class="st9" d="M110.8,31.9c-0.6-1-1.4-1.8-2.4-2.4c0.8,0.6,1.4,1.2,1.7,2c0.5,0.9,0.3,1.8-0.6,2.3s-1.1,1.4-1.6,2.3
				c-0.5,0.9-0.8,1.8-1.7,2.3c-1,0.7-2.4,0.5-3.5,0.9c-1,0.6-1.6,1.6-1.5,2.7c0.1,0.5,0.2,0.8,0.3,1.2c0.2,0.9,0.3,1.8,0.3,2.7
				c0,0.1,0,0.1,0,0.2c-0.1,0.1-0.1,0.1-0.2,0.1c-0.2,0-0.6,0-0.8-0.1c0.3,0.3,0.9,0.6,1.4,0.6c0.1,0,0.3-0.1,0.3-0.2c0,0,0,0,0-0.1
				c0-0.9-0.1-1.8-0.3-2.7c-0.1-0.5-0.2-0.8-0.3-1.2c-0.1-1.1,0.5-2.2,1.5-2.7c1.1-0.6,2.5-0.3,3.5-0.9c0.8-0.5,1.2-1.4,1.7-2.3
				c0.5-0.9,0.7-1.8,1.6-2.3C111.2,33.7,111.3,32.8,110.8,31.9z"/>
			
				<linearGradient id="SVGID_00000105415457766644211670000002800637775715329683_" gradientUnits="userSpaceOnUse" x1="153.5951" y1="109959.8906" x2="153.5951" y2="24808.1875" gradientTransform="matrix(1 0 0 1 0 -918)">
				<stop  offset="0" style="stop-color:#808080;stop-opacity:0.25"/>
				<stop  offset="0.54" style="stop-color:#808080;stop-opacity:0.12"/>
				<stop  offset="1" style="stop-color:#808080;stop-opacity:0.1"/>
			</linearGradient>
			<path style="fill:url(#SVGID_00000105415457766644211670000002800637775715329683_);" d="M175.8,60.6c-3.2-0.1-5.9-2.3-7.5-5
				c-0.5-0.7-0.7-1.4-0.8-2.2c0-0.2,0-0.3,0.1-0.6c0.1-0.2,0.2-0.6,0.2-0.8c0-0.1,0-0.2,0-0.3l0,0c0.1-0.6-0.2-1.1-0.7-1.6
				c-0.5-0.3-0.9-0.7-1.4-1.1c-1.4-1.1-1.8-3.1-1.8-4.9V44c0-0.8,0.1-1.6,0.1-2.4c0-0.5,0-0.9-0.1-1.4c-0.1-1.1-0.6-2.3-1.4-2.9
				c-2.3-1.8-6,0.1-8.4-1.7c-0.6-0.5-1-1-1.7-1.2c-0.6-0.1-1,0-1.6,0.2c-1.7,0.6-3.6,1.4-4.3,2.9c-0.3,0.9-0.2,2-0.7,2.9
				c-0.2,0.7-0.7,1.2-1,1.8c-0.2,0.5-0.3,1-0.3,1.5c0,0.2,0,0.6,0.1,0.8c0.1,0.3,0.3,0.6,0.6,0.8c-0.1,0.2-0.2,0.3-0.3,0.6
				c-0.5,0.6-1.1,0.9-1.6,1.5c-0.8,1-0.8,2.3-0.3,3.4s1.1,2.2,1.7,3.3c0.2,0.5,0.5,1,0.2,1.5c-0.1,0.3-0.5,0.6-0.8,0.9
				c-0.3,0.5-0.6,0.9-0.7,1.5c-5.1,1.1-5.1,5.3-5.1,5.3l-2.7,7c0,0-0.5,1.1-1,2.7l-3.3-0.6l2.3,3.9c-0.5,1.6-0.8,2.9-0.7,3.7
				c0,0-1,4.8,0.8,5.7l4,1.8c0.2,0.1,0.3,0.2,0.6,0.2l0.1,0.1c0.1,0.1,0.2,0.1,0.3,0l0,0c0.1,0,0.1,0,0.2,0s0.1-0.1,0.2-0.2l0,0
				l1.2-0.3l1,1.2c0.5,0.3,0.9,0.6,1.4,0.9l-1.5,15.8c0,0-0.2,20.8-1,25.5c-0.2,1.7-0.3,2.9-0.2,3.7l0,0c0.2,1.4,0.7,1.6,0.7,1.6
				l0,0l0,0c0.2-0.6,0.5-1.2,0.8-1.8v0.3c0,1.8-0.1,4.2-0.2,5.8c-0.3,2.7,0.8,11.8,0.8,11.8l0.3,8.2c0.1,1.4-0.2,2.8-0.9,4
				c-0.9,1.6-2,4-2.2,5v0.1l-1.9,2.4c0,0-0.8,1.1,0.9,1.7c0.9,0.2,2.5,0,3.9-0.3c1.1-0.2,1.9-1.2,1.9-2.5c0.3-1.1,0.9-2.2,1.6-3.1
				l0.3,1.9l2.2,0.6l0.2-5.2c0.1-0.3,0.1-0.6,0.1-0.9c0.5-3.7-1-3.4-1-3.4l0.1,0.1l-0.1-0.1c-0.9-1.7-0.5-4.5-0.5-4.5
				s1.1-8.2,1.6-10.4c0.2-1.6,0.1-6.6,0.1-9.3c0-0.1,0-0.2,0-0.3c3.3,0,7.5-0.1,10.3-0.5v0.3l-0.6,19.4c0,1.2-0.3,2.5-0.8,3.6
				c0,0,0,0,0,0.1c-0.7,1.6-1,3.3-1,5.1l-0.2,6.1v0.2c-0.5,0.1-1.1,0.7-1.1,2c0,2,3.5,1.4,3.5,1.4c3.5,0,3.6-3.7,3.6-3.7
				s0.1-3.4,0.2-5.7c0.2-2.3-0.6-1.8-0.6-1.8v6.5l0,0v-5.7v-0.8v-0.2l0.5-6.7c0,0,3.3-11.1,3.7-13.3c0.3-1.5,0.2-6.1,0.1-8.6
				c0-0.1,0-0.2,0-0.3c1-0.1,1.9-0.1,2.3-0.1h0.1c0,0-0.1-17.9-0.6-24.6c-0.5-6.7-1.1-12.9-2.8-14.7c-1-1.1-2.5-4.5-3.4-7.1
				c2,0.9,4.1,1.6,6.2,2c5.3,1.1,4.7-3.5,4.7-3.5l-0.6-8.8l0,0c0-2.3-0.2-4.7-0.6-6.9c-0.3-1.7-0.7-3.5-1.4-5
				c0.6-0.2,1.1-0.5,1.7-0.7c1.5-0.7,3.1-1.6,3.3-3.2h-0.1C175.8,60.8,175.8,60.7,175.8,60.6L175.8,60.6z M142.5,73.3
				c0,0.9,0,2.5-0.1,4.2l-1.7-2.3l1.7-2.8C142.4,72.5,142.5,73.3,142.5,73.3z M166.1,81.5l-2.8-0.9c0.5-0.8,1.1-1.5,1.8-2.2l0.2-0.2
				h-0.1l0.1-0.1h0.1l-0.1,0.1h0.1c0.2,0.7,0.5,1.4,1,1.9C167.4,81.1,166.1,81.5,166.1,81.5L166.1,81.5L166.1,81.5z"/>
			<path class="st14" d="M148.8,163.6l-0.3,6.4l-2.2-0.6l-0.5-2.6L148.8,163.6L148.8,163.6z"/>
			<path class="st6" d="M148.8,163.6l-0.3,6.4l-2.2-0.6l-0.5-2.6L148.8,163.6L148.8,163.6z"/>
			<path class="st15" d="M156.5,170.7l3.3,0.7l2.4-2.2v-6v-0.8v-0.2l0.5-6.7c0,0,3.3-11.1,3.7-13.2c0.3-1.5,0.2-6,0.1-8.6
				c0-1-0.1-1.7-0.1-1.7l-7.1-1.7l-0.1,5.4l-0.6,19.3c0,1.2-0.2,2.5-0.7,3.6v0.1c-0.6,1.6-1,3.3-1,5.1l-0.2,6.1v0.1L156.5,170.7
				L156.5,170.7z"/>
			<path class="st6" d="M156.5,170.7l3.3,0.7l2.4-2.2v-0.5c0,0.2-0.1,0.5-0.3,0.6l0,0c-1.1,0.6-2.4,0.8-3.6,0.7L157,170
				c-0.1,0-0.2,0-0.3,0.1v0.1L156.5,170.7L156.5,170.7z"/>
			<path class="st5" d="M161.9,169.5L161.9,169.5c0.2-0.1,0.3-0.3,0.3-0.6v-6.5c0,0,0.7-0.5,0.6,1.8c-0.1,2.3-0.2,5.7-0.2,5.7
				s0,3.7-3.5,3.7c0,0-3.5,0.7-3.5-1.4s1.5-2,1.5-2l1.2,0.1C159.5,170.4,160.7,170.1,161.9,169.5L161.9,169.5z"/>
			<path class="st15" d="M139.8,169.4c0.1,1.5,4.3,0.6,4.3,0.6l2.8-5.6c0,0,2.4-1.8,1.2-3.5c-0.1-0.1-0.1-0.2-0.2-0.2l0,0
				c0,0,0-0.1-0.1-0.1c-0.9-1.7-0.5-4.5-0.5-4.5s1.1-8.2,1.5-10.3c0.2-1.5,0.1-6.5,0.1-9.3c0-0.7,0-1.2-0.1-1.9l-7.1-1.9v2.2
				c0,1.7-0.1,4.2-0.2,5.8c-0.3,2.7,0.8,11.7,0.8,11.7l0.3,8.2c0.1,1.4-0.2,2.7-0.9,4c-0.9,1.6-2,4-2.2,5
				C139.8,169.3,139.8,169.3,139.8,169.4L139.8,169.4z"/>
			<path class="st6" d="M139.8,169.4c0.1,1.5,4.3,0.6,4.3,0.6l2.8-5.6c0,0,2.4-1.8,1.2-3.5c-0.1-0.1-0.1-0.2-0.2-0.2
				c0,0.8-1,2.9-1,2.9s-2.4,4.8-3.2,5.9s-4.1-0.2-4.2-0.2C139.8,169.3,139.8,169.3,139.8,169.4L139.8,169.4z"/>
			<path class="st5" d="M147.9,160.5c0,0,1.4-0.3,1,3.3c0,0.8-0.3,1.7-1.1,2c-1,0.7-2.6,2-3.3,4.7c0,1.1-0.8,2.2-1.9,2.5
				c-1.2,0.3-2.8,0.6-3.7,0.3c-1.7-0.5-0.9-1.7-0.9-1.7l1.9-2.3c0,0,3.4,1.4,4.2,0.2c0.8-1.1,3.2-5.8,3.2-5.8
				S148.3,160.8,147.9,160.5L147.9,160.5z"/>
			<path class="st6" d="M159.4,131.2l-0.1,5.4c1.9-0.2,3.3-0.5,3.5-0.8c0.5-0.8,2.4-1.1,3.9-1.2c0-1-0.1-1.7-0.1-1.7L159.4,131.2z
				 M141.9,135.4c0.2-0.3,0.5-0.7,0.8-0.9c0.8-0.5,0.7,2.7,0.7,2.7s2.5,0,5.7,0c0-1.1-0.1-1.9-0.1-1.9l-7.1-1.9
				C141.9,133.2,141.9,134.1,141.9,135.4z"/>
			<path class="st16" d="M141,136c0,0,0.8-2.3,1.6-2.7c0.8-0.5,0.7,2.7,0.7,2.7s18.5,0.1,19.4-1.2c0.9-1.5,6.2-1.4,6.2-1.4
				s-0.1-17.8-0.6-24.5c-0.5-6.7-1.1-12.8-2.7-14.6c-1.1-1.2-2.6-5.1-3.6-7.6c-0.3-0.8-0.6-1.6-0.9-2.4l-17.5,0.9l-0.1,1.5
				l-1.8,18.7c0,0-0.2,20.6-1,25.3C139.9,135.4,141,136,141,136z"/>
			<path class="st6" d="M161.2,134.8c0.9-1.5,6.2-1.4,6.2-1.4s-0.1-17.8-0.6-24.5c-0.5-6.7-1.1-12.8-2.7-14.6
				c-1.1-1.2-2.6-5.1-3.6-7.6c-0.3-0.8-0.6-1.6-0.8-2.4l1.4-0.1c0,0,0.3,1,0.9,2.4c0.9,2.6,2.5,6.5,3.6,7.6
				c1.7,1.8,2.4,7.9,2.7,14.6c0.5,6.7,0.6,24.5,0.6,24.5s-5.3-0.1-6.2,1.4c-0.8,1.2-14.4,1.2-18.3,1.2
				C149.4,136,160.5,135.9,161.2,134.8z M141.2,133.4c0.3-0.2,0.5,0.3,0.6,1c-0.3,0.6-0.6,1.1-0.8,1.7c0,0-0.5-0.2-0.7-1.6
				C140.5,134,140.9,133.5,141.2,133.4z"/>
			<path class="st17" d="M146.4,41.2c-1.2,1.7,0,4-1.2,5.7c-0.5,0.6-1.1,0.9-1.6,1.5c-0.8,1-0.8,2.3-0.3,3.4s1.1,2.2,1.7,3.3
				c0.2,0.5,0.5,1,0.1,1.5c-0.1,0.3-0.5,0.6-0.8,0.9c-0.8,0.9-0.9,2.3-0.5,3.4s1.4,2,2.2,2.9c0.3,0.3,0.8,0.8,1.4,0.8
				c0.3,0,0.6-0.1,0.8-0.2c4-2,5.7-6.9,3.9-11c-0.7-1.7-1.9-3.3-1.9-5.1c0-1.5,0.7-2.8,0.9-4.2c0.1-1.7-0.9-4.4-2.9-5.2
				C148.3,39.8,147.1,40.4,146.4,41.2L146.4,41.2z"/>
			<path class="st9" d="M146.4,41.2c-1.2,1.7,0,4-1.2,5.7c-0.5,0.6-1.1,0.9-1.6,1.5c-0.8,1-0.8,2.3-0.3,3.4s1.1,2.2,1.7,3.3
				c0.2,0.5,0.5,1,0.1,1.5c-0.1,0.3-0.5,0.6-0.8,0.9c-0.8,0.9-0.9,2.3-0.5,3.4s1.4,2,2.2,2.9c0.3,0.3,0.8,0.8,1.4,0.8
				c0.3,0,0.6-0.1,0.8-0.2c4-2,5.7-6.9,3.9-11c-0.7-1.7-1.9-3.3-1.9-5.1c0-1.5,0.7-2.8,0.9-4.2c0.1-1.7-0.9-4.4-2.9-5.2
				C148.3,39.8,147.1,40.4,146.4,41.2L146.4,41.2z"/>
			<path class="st18" d="M158.8,51.2c0,1.9,0.2,3.9,0.5,5.8c0.2,1.4,0.6,2.6,1,3.2c1.4,1.6-6.6,3.7-6.6,3.7l-4.7-3.6
				c0,0,3.7-3.4,1.9-6.7C149.4,50.2,158.8,51.2,158.8,51.2z"/>
			<path class="st6" d="M143.4,86.7H162c-0.6-1.4-0.9-2.4-0.9-2.4l-17.5,0.9L143.4,86.7L143.4,86.7z"/>
			<path class="st19" d="M142.3,86.3h19.9c-0.6-2,0-3.9,0.8-5.3c0.6-1,1.2-1.9,2-2.7l0.1-0.1l6.9-1.6l0.3-0.1c0,0,0.1-12.6-4.4-14.4
				c-4.4-1.7-7.1-4.1-7.1-4.1l-6.1,1.9l-4.5-2.3c-1.5,1.6-5.3,0.9-5.3,0.9c-6.4,0.7-6.4,5.4-6.4,5.4s3.7,8.6,4,8.6
				C142.8,72.8,142.3,86.3,142.3,86.3L142.3,86.3z"/>
			<path class="st6" d="M149.1,78.3c0,0-4.1-0.9-5.4-2.5L149.1,78.3z M169.6,73.6l-4.7,3.9c0,0.3,0.1,0.6,0.1,0.9l0.1-0.1l6.9-1.6
				L169.6,73.6L169.6,73.6z M156.8,85c0,0,1,0.6,2.6,1.4h2.7c-0.6-2,0-3.9,0.8-5.3l-4.8-1.6C159.7,81,156.8,85,156.8,85z"/>
			<path class="st19" d="M141.3,62.8l-2.8,1.5l-2.7,6.9c0,0-2.8,7.6-2.6,9.6c0,0-1,4.8,0.8,5.6l4.7,2.2c0.2,0.1,0.5,0,0.6-0.2
				c0-0.1,0-0.2,0-0.3c-0.7-1.2-1.4-3.2-0.2-4.3l-1.4-2.8l4.9-7.9l1.6-2.7L141.3,62.8L141.3,62.8z"/>
			<path class="st6" d="M147.6,76.7c0.2,1,1,2.5,3.7,3.1l2.9,2.4l3.2,1.5l1.2,0.6l0.6-4l-1.2-0.7l-1.5-0.8c0,0-3.3-5.9-8.4-3.4
				C147.7,75.7,147.5,76.1,147.6,76.7L147.6,76.7z"/>
			<path class="st18" d="M147.8,76.4c0.2,1,1,2.5,3.7,3.1l2.9,2.4l3.2,1.5l1.2,0.6l0.6-4l-1.2-0.7l-1.5-0.8c0,0-3.3-5.9-8.4-3.4
				C147.9,75.3,147.6,75.9,147.8,76.4L147.8,76.4z"/>
			<path class="st6" d="M153.6,56.3c4,0,7.3-3.2,7.3-7.3c0-4-3.2-7.3-7.3-7.3l0,0c-4,0-7.3,3.2-7.3,7.3
				C146.3,53,149.6,56.3,153.6,56.3z"/>
			<path class="st18" d="M153.6,56.1c4,0,7.3-3.2,7.3-7.3c0-4-3.2-7.3-7.3-7.3c-4,0-7.3,3.2-7.3,7.3
				C146.3,52.9,149.6,56.1,153.6,56.1L153.6,56.1z"/>
			<path class="st6" d="M158,64.2l-2.2-4.2c0,0,3.2-1.2,3.4-2.7c0.2-1.5,3.1,1.7,2.4,2.8C161.1,61.2,158,64.2,158,64.2z"/>
			<path class="st20" d="M158,63.9l-2.2-4.2c0,0,3.2-1.2,3.4-2.7c0.2-1.5,3.1,1.7,2.4,2.8C161.1,60.8,158,63.9,158,63.9L158,63.9z"
				/>
			<path class="st20" d="M140.3,74.8l12,16.1c0,0-4.4,2.4-10.5-1.9l-2.6-3.2l-7.5-12.6L140.3,74.8L140.3,74.8z"/>
			<path class="st18" d="M137.9,83.6h1.1c0,0,6.7-6.5,8.3-3.2c1.6,3.3-4.2,6.4-4.2,6.4l-1.8,0.9l-2.3,0.7l-1.5-1.9L137.9,83.6
				L137.9,83.6z"/>
			<path class="st6" d="M139.5,87c0.1,0.3,0.2,0.8,0,1.1c0,0.1-0.1,0.1-0.2,0.2c-0.1,0-0.1,0-0.2,0c-0.6,0-1.1-0.3-1.5-0.8
				s-0.7-0.9-1-1.4c-0.3-0.6-0.6-1.1-0.5-1.7c0.1-0.7,0.7-1.1,1.2-1.5c1.1-0.7,1.1,0.1,1.4,1C139.1,85.2,139.3,86.1,139.5,87z"/>
			<path class="st20" d="M139.4,87c0.1,0.3,0.2,0.8,0,1.1c0,0.1-0.1,0.1-0.2,0.2c-0.1,0-0.1,0-0.2,0c-0.6,0-1.1-0.3-1.5-0.8
				s-0.7-0.9-1-1.4c-0.3-0.6-0.6-1.1-0.5-1.7c0.1-0.7,0.7-1.1,1.2-1.5c1.1-0.7,1.1,0.1,1.4,1C138.8,85.2,139.1,86.1,139.4,87z"/>
			<path class="st6" d="M142.6,72.8l0.6-0.9l-0.5,1.7L142.6,72.8L142.6,72.8z M157.7,83.3l1.2,0.6l0.6-4l-1.2-0.7
				C159.2,80.2,158.4,82,157.7,83.3z M162.8,78.7c0,0-4.2,0.2-5.9-0.9L162.8,78.7z"/>
			<path class="st6" d="M162.3,81.4c0.6-1,1.2-1.9,2-2.7c0.2-0.1,0.5-0.2,0.6-0.3l6.5-1.4l0.3-0.1c0,0,0.1-12.6-4.4-14.4
				c-2.5-0.9-4.9-2.3-6.9-4l0.5-0.1c0,0,2.7,2.4,7.1,4.1c4.4,1.7,4.4,14.4,4.4,14.4h-0.7l-6.6,1.2c0,0-0.3,0.2-0.3,0.3
				c-0.8,0.8-1.6,1.8-2.2,2.8c-0.9,1.6-1,3.5-0.6,5.3h-0.7C161,84.6,161.5,82.8,162.3,81.4L162.3,81.4z M144.6,59.1
				c0.1,0,0.2,0,0.3,0c0.5,0.1,0.9,0.1,1.4,0.1C145.8,59.2,145.2,59.1,144.6,59.1L144.6,59.1z M154.2,60.4l-4.1-2
				c0.1-0.1,0.1-0.1,0.2-0.2l4.3,2.2C154.5,60.3,154.2,60.4,154.2,60.4z"/>
			<path class="st19" d="M169.7,73.3l2.7,3.4l0.6,9.1c0,0,0.7,4.7-4.5,3.5c-5.2-1.1-11.5-4.5-11.5-4.5s2.9-4,1.4-5.4l7.6,2.5
				c0,0,1.2-0.2,0.2-1.4c-1-1.1-1.1-3.2-1.1-3.2L169.7,73.3L169.7,73.3z"/>
			<path class="st6" d="M171,82.8l1.5,1.7C171.6,84.4,171.1,83.7,171,82.8z M168.3,82.6l2.4,3.1l-1.1,0.2L168.3,82.6L168.3,82.6z
				 M145,45.5c-0.2-0.7-0.1-1.4,0.2-1.9c0.3-0.6,0.7-1.1,1-1.8c0.3-0.9,0.2-2,0.6-2.9c0.7-1.7,2.5-2.4,4.2-2.9
				c0.5-0.1,1-0.3,1.6-0.2c0.7,0.1,1.1,0.8,1.7,1.2c2.3,1.7,6-0.2,8.3,1.6c0.8,0.7,1.2,1.8,1.4,2.9c0.1,1.1,0,2.2,0,3.3
				c0,1.9,0.3,4,1.8,5.3c0.5,0.3,0.9,0.7,1.4,1c0.5,0.3,0.8,0.9,0.7,1.5c0,0.2-0.1,0.6-0.2,0.8c-0.3,1,0.1,2,0.7,2.9
				c1.6,2.7,4.3,4.9,7.4,5c-0.2,1.6-1.8,2.5-3.3,3.1c-1.8,0.8-3.7,1.6-5.8,1.5c-2-0.1-4.1-1.4-4.4-3.4c-0.1-0.7-0.1-1.5-0.7-1.8
				c-0.3-0.2-0.8-0.1-1.2-0.3c-0.6-0.2-0.8-0.9-1-1.5c-0.3-1.1-0.6-2.4-0.6-3.6c0-1.5,0.1-3.1-0.7-4.3c-0.8-1.1-2.2-1.7-3.1-2.7
				c-0.8-0.9-1.7-2.2-3.1-2.3C150,45.7,146.1,48.2,145,45.5L145,45.5z"/>
			<path class="st9" d="M145,45.2c-0.2-0.7-0.1-1.4,0.2-1.9c0.3-0.6,0.7-1.1,1-1.8c0.3-0.9,0.2-2,0.6-2.9c0.7-1.7,2.5-2.4,4.2-2.9
				c0.5-0.1,1-0.3,1.6-0.2c0.7,0.1,1.1,0.8,1.7,1.2c2.3,1.7,6-0.2,8.3,1.6c0.8,0.7,1.2,1.8,1.4,2.9c0.1,1.1,0,2.2,0,3.3
				c0,1.9,0.3,4,1.8,5.3c0.5,0.3,0.9,0.7,1.4,1c0.5,0.3,0.8,0.9,0.7,1.5c0,0.2-0.1,0.6-0.2,0.8c-0.3,1,0.1,2,0.7,2.9
				c1.6,2.7,4.3,4.9,7.4,5c-0.2,1.6-1.8,2.5-3.3,3.1c-1.8,0.8-3.7,1.6-5.8,1.5c-2-0.1-4.1-1.4-4.4-3.4c-0.1-0.7-0.1-1.5-0.7-1.8
				c-0.3-0.2-0.8-0.1-1.2-0.3c-0.6-0.2-0.8-0.9-1-1.5c-0.3-1.1-0.6-2.4-0.6-3.6c0-1.5,0.1-3.1-0.7-4.3c-0.8-1.1-2.2-1.7-3.1-2.7
				c-0.8-0.9-1.7-2.2-3.1-2.3C150,45.4,146.1,47.9,145,45.2L145,45.2z"/>
			<path class="st6" d="M150.1,63.8l4.1-3.4c0,0-2.8-1.6-3.2-2.8c-0.3-1.4-2.6,0.6-2.4,1.8C148.9,60.5,150.1,63.8,150.1,63.8z"/>
			<path class="st20" d="M150.2,63.2l4.1-3.4c0,0-2.8-1.6-3.2-2.8c-0.3-1.4-2.6,0.6-2.4,1.8S150.2,63.2,150.2,63.2L150.2,63.2z"/>
			<path class="st9" d="M154.5,63c0.2,0,0.3-0.1,0.3-0.3s-0.1-0.3-0.3-0.3c-0.2,0-0.3,0.1-0.3,0.3S154.4,63,154.5,63z M154.5,64.9
				c0.2,0,0.3-0.1,0.3-0.3c0-0.2-0.1-0.3-0.3-0.3c-0.2,0-0.3,0.1-0.3,0.3C154.2,64.8,154.4,64.9,154.5,64.9z M154.5,66.7
				c0.2,0,0.3-0.1,0.3-0.3s-0.1-0.3-0.3-0.3c-0.2,0-0.3,0.1-0.3,0.3S154.4,66.7,154.5,66.7z M146.7,40.5c0.3-0.9,0.2-1.9,0.6-2.8
				c-0.1,0.2-0.2,0.5-0.3,0.7c-0.3,0.9-0.2,2-0.6,2.9l0,0C146.3,41.2,146.6,40.9,146.7,40.5z M172.8,63.2c-1.8,0.8-3.7,1.6-5.8,1.5
				c-2-0.1-4.1-1.4-4.4-3.4c-0.1-0.7-0.1-1.5-0.7-1.8c-0.3-0.2-0.8-0.1-1.2-0.3c-0.6-0.2-0.8-0.9-1-1.5c-0.3-1.1-0.6-2.4-0.6-3.6
				c0-1.5,0.2-3.1-0.7-4.3c-0.8-1.1-2.2-1.7-3.1-2.7c-0.8-0.9-1.7-2.2-3.1-2.3c-1.8-0.2-5.7,2.3-6.8-0.5c-0.2-0.6-0.1-1,0.1-1.6
				c-0.1,0.1-0.1,0.2-0.2,0.5c-0.3,0.6-0.5,1.4-0.2,1.9c1.1,2.7,5,0.1,6.8,0.5c1.4,0.2,2.3,1.4,3.1,2.3c0.9,1,2.3,1.6,3.1,2.7
				c0.8,1.2,0.7,2.8,0.7,4.3c0,1.2,0.2,2.5,0.6,3.6c0.2,0.6,0.5,1.1,1,1.5c0.3,0.1,0.8,0.1,1.2,0.3c0.6,0.3,0.6,1.1,0.7,1.8
				c0.3,1.9,2.5,3.3,4.4,3.4c2,0.1,4-0.7,5.8-1.5c1.4-0.6,2.8-1.4,3.2-2.7C174.9,62.1,173.8,62.6,172.8,63.2L172.8,63.2z"/>
			
				<linearGradient id="SVGID_00000003084345567357754160000011959076562975210377_" gradientUnits="userSpaceOnUse" x1="193.0076" y1="111923.9609" x2="193.0076" y2="33121.3789" gradientTransform="matrix(1 0 0 1 0 -918)">
				<stop  offset="0" style="stop-color:#808080;stop-opacity:0.25"/>
				<stop  offset="0.54" style="stop-color:#808080;stop-opacity:0.12"/>
				<stop  offset="1" style="stop-color:#808080;stop-opacity:0.1"/>
			</linearGradient>
			<path style="fill:url(#SVGID_00000003084345567357754160000011959076562975210377_);" d="M213,76c-4.9-2.7-6.7-3.5-6.7-3.5
				l-0.1-0.1c-0.6-0.5-0.9-0.9-1.2-1.6c0-0.1,0-0.2,0-0.3c0.1-1.5,1.1-2.8,2.2-4l2.5-2.9c0.3-0.3,0.6-0.7,0.7-1
				c0-0.2,0.1-0.5,0.1-0.7v-0.2c0-0.8,0-1.5-0.1-2.3c0-0.7-0.2-1.5-0.8-1.6c-0.3-0.1-0.8,0-0.9-0.2c-0.1-0.1-0.1-0.2,0-0.3l0,0l0,0
				c0.1-0.5,0.2-1,0.2-1.5c0-0.2,0-0.6-0.1-0.8c-0.3-1-1.7-1.5-2.8-1.7c-1.1-0.2-2.4-0.3-3.2-1.2c-0.2-0.3-0.5-0.6-0.7-0.9
				c-0.3-0.3-0.7-0.5-1.1-0.6c-1.5-0.3-2.9-0.2-4.2,0.3c-0.6,0.2-1.1,0.6-1.7,0.6c-0.6,0-1.1-0.5-1.8-0.6c-1-0.2-1.9,0.6-2.5,1.5
				c-0.3,0.6-0.5,1.1-0.5,1.7v0.1c0,0.7,0.2,1.2,0.7,1.7c0.5,0.5,1,0.8,1.2,1.4c0.1,0.2,0,0.5,0.1,0.8v0.1l0,0
				c-1,1.4-1.6,2.9-1.6,4.7c0,3.4,2.2,6.4,5.4,7.3v0.2c0,0.9-0.2,1.8-1,2.6l-6.8,2.7c0,0-4.1-0.5-5.6,5.6c-0.2,1-0.3,2-0.2,3.1
				c0,0.9-0.1,2.5-1.1,4.5c-1.7,3.3-1.4,10.9,2.2,11.7c3.3,0.7,4.5,0.5,4.7,0.3v0.1c0,1.5-0.6,13.7-2.5,15.2c-0.6,0.5-0.5,0.7,0,0.9
				c0,0,0,0.1,0,0.2c-0.1,0.9-0.3,4.3-1.6,6.2c-1.5,2.3-1.4,15.3-1.4,15.3l-1,7.7c0,0,0.6,4.8,0,5.6c-0.6,0.7-1.2,18.3-1.5,22.1
				h-0.1c-0.6,0-1.1,0.3-1.5,0.9c-0.8,1.4-3.6,3.7-3.6,3.7c-0.6,0.9-2.8,1.7-4.1,2.2c-0.1,0-0.3,0.1-0.5,0.2c-0.5,0.2-0.8,0.7-1,1.1
				c-0.1,0.2-0.2,0.6-0.1,0.9c0.3,0.8,6.7,1.2,8.3,0.6c1.2-0.6,6.4-1.4,8.4-1.7c0.8-0.1,1.4-0.7,1.5-1.5c0-0.2,0-0.6-0.2-0.8
				c-0.5-0.5-0.6-1.8-0.7-2.7c0.1-0.1,0.3-0.1,0.5-0.2c-0.2-2.7,0.2-5.4,1.1-8.1c1.6-4.1,2-11.6,1.6-16.4c0,0,4.7-20.2,8.4-22.1
				c0.1,0.1,1.8,2.4,2,9.5c0.2,7.3,2.8,12,2.8,12s-1.1,12.3,0,16.9l-1.5,7.3c-0.1,0-0.1-0.1-0.2-0.1c0,0,0,0.2,0.1,0.6v0.1h0.1
				c0.2,0.9,0.5,2.5,0.3,3.4c-0.1,0.6-0.2,1.2-0.3,1.9c-0.1,1.1-0.2,2.2,0.3,2.4c0.9,0.3,6.6,0.9,7.6-0.3c0.2-0.2,0.3-0.6,0.5-0.9
				c0-0.3,0-0.7-0.1-1c-0.1-0.2-0.1-0.3-0.2-0.5c0,0-1.5-2.5-1-4.2c0.1-0.3,0-0.7-0.2-1c0.1-0.8,0.5-4.8,1.2-8.2
				c0.9-3.6,2.9-11.6,1.5-16.8c0-0.2-0.1-0.5-0.2-0.6c-0.9-2.8-1.1-5.9-0.8-8.8c-0.6-2.5-0.6-5.1,0-7.7c0.9-4.2,1.6-8.4,1.6-8.4
				s0.5-5.6,0.1-9c0-0.1,0-0.1,0-0.2h0.2c0,0-1.4-5.8-1.8-9.5c-0.1-1-0.2-2.2-0.5-3.2c0.5-0.1,0.8-0.2,1.2-0.3
				c4.2-1.5,5.4-14.4,5.4-14.4v-4.1C216.6,85.1,217.9,78.9,213,76L213,76z M182.1,176.1c-0.1,0-0.1-0.1-0.2-0.1L182.1,176.1z"/>
			<path class="st22" d="M210.5,150.8c1.8,5.2-0.3,13.6-1.2,17.4c-0.9,3.7-1.2,8.3-1.2,8.3c-3.9,0.6-6.6-0.1-6.6-0.1l1.6-7.7
				c-1.1-4.5,0-16.8,0-16.8s-2.5-4.8-2.7-11.9c-0.2-7.1-1.9-9.4-2-9.4c-3.6,1.9-8.2,22-8.2,22c0.3,4.9-0.1,12.4-1.6,16.4
				c-0.9,2.6-1.2,5.3-1.1,8.1c-0.6,0.5-1.2,0.6-2,0.3c-2.2-0.3-4.8-2.2-4.8-2.2s0.8-21.9,1.5-22.7c0.6-0.8,0-5.6,0-5.6l1-7.6
				c0,0-0.1-12.9,1.2-15.2c1.2-1.9,1.5-5.3,1.6-6.2v-0.2l2.2-2.6c0,0,21-1.6,22.6,0c0.3,0.3,0.7,1.2,0.8,2.4c0.5,3.4-0.1,9-0.1,9
				s-0.7,4.1-1.6,8.3c-0.6,2.5-0.6,5.1,0,7.7C209.4,145,209.7,147.9,210.5,150.8L210.5,150.8z"/>
			<path class="st14" d="M209.2,183.7c-0.9,1.2-6.5,0.7-7.4,0.3c-0.6-0.2-0.6-1.4-0.3-2.4c0.1-0.7,0.2-1.5,0.3-1.9
				c0.1-1.4-0.5-4.1-0.5-4.1s1.2,1.4,1.6,0c0.1-0.6,0.6-0.9,1-1c0.7-0.2,1.4-0.1,1.9,0.1c1,0.5,2.6,1.4,2.3,2.5
				c-0.5,1.7,1,4.2,1,4.2c0.1,0.1,0.2,0.3,0.2,0.5C209.7,182.4,209.6,183.2,209.2,183.7L209.2,183.7z"/>
			<path class="st6" d="M209.2,183.7c-0.9,1.2-6.5,0.7-7.4,0.3c-0.6-0.2-0.6-1.4-0.3-2.4c0.6,0.2,1.6,0.5,3.3,0.3c0.3,0,0.8,0,1.1,0
				c1.2,0,2.4,0,3.6-0.1C209.7,182.4,209.6,183.2,209.2,183.7L209.2,183.7z M190,152.3c0.3,4.9-0.1,12.4-1.6,16.4
				c-0.9,2.6-1.2,5.3-1.1,8.1c-0.6,0.5-1.2,0.6-2,0.3c0.5-3.2,2.4-16.8,3.6-27.6c1.4-12.3,7.9-20.8,7.9-20.8l1.4,1.5
				C194.5,132.2,190,152.3,190,152.3L190,152.3z"/>
			<path class="st23" d="M207,73.4l-0.9,4.5l-4.5,7.6l-5.6-2.4c0,0-7.5-7.8-2.8-9c0.6-0.1,1.1-0.3,1.6-0.7c0.9-0.7,1.2-1.7,1.2-2.7
				c0-1.1-0.3-2.3-0.8-3.2l9.6-3.1c-0.3,1.2-0.7,2.6-0.7,4c-0.1,2.6,0.9,4,1.7,4.5C206.2,73.1,206.6,73.3,207,73.4L207,73.4z"/>
			<path class="st6" d="M205,64.3c-0.3,1.2-0.7,2.6-0.7,4c-2,2.4-5.2,3.3-8.2,2.4c0-1.1-0.3-2.3-0.8-3.2L205,64.3z"/>
			<path class="st23" d="M206.1,63.2c0,3.1-1.8,5.9-4.8,7c-3.9,1.6-8.4-0.2-10-4.2c-1.6-3.9,0.2-8.4,4.2-10c0.9-0.3,1.9-0.6,2.9-0.6
				C202.6,55.5,206,58.9,206.1,63.2C206.1,63.1,206.1,63.1,206.1,63.2z"/>
			<path class="st6" d="M207,73.4l-0.9,4.5l-4.5,7.6l-5.6-2.4c0,0-7.5-7.8-2.8-9c0.6-0.1,1.1-0.3,1.6-0.7c-0.9,2.4,2.7,7.3,2.7,7.3
				c0.5,0.6,1.4,0.2,1.4,0.2c2.3-0.3,6.5-6.9,7.1-7.9C206.2,73.1,206.6,73.3,207,73.4L207,73.4z M211.3,117.1
				c-1.4,0.3-8.7,1.9-11.5,1.5c-3.1-0.5-9.1-0.8-9.1-0.8s-3.9,0.2-5-0.3v-0.2l2.2-2.6c0,0,21-1.6,22.6,0
				C210.9,115,211.2,116,211.3,117.1z"/>
			<path class="st7" d="M197.5,80.8c0,0-4-5.4-2.5-7.6l-6.7,2.7c0,0-4-0.5-5.4,5.6c-0.2,1-0.3,2-0.2,3.1c0,0.9-0.1,2.5-1.1,4.5
				c-1.7,3.3-1.2,10.9,2.2,11.7s4.5,0.3,4.5,0.3s-0.5,13.7-2.4,15.3c-1.9,1.6,5,1.2,5,1.2s6,0.3,9.1,0.8c3.1,0.5,11.7-1.6,11.7-1.6
				s-1.2-5.8-1.7-9.4c-0.5-3.9-1-7.7-1.5-11.5l7.6-10.3c0,0,1.4-6.2-3.4-9.1c-4.8-2.7-6.5-3.4-6.5-3.4s-4.8,7.7-7.3,8.2
				C198.9,81,197.8,81.5,197.5,80.8L197.5,80.8z"/>
			<path class="st6" d="M188.6,83.1c0,0-0.1,2.5,0.3,3.4c0.5,1,2.2,6.4,2.2,6.4h-3.7c0,0,2-2.2,1.9-3.2
				C189.1,88.6,188.6,83.1,188.6,83.1L188.6,83.1z"/>
			<path class="st23" d="M199.8,101.7c0,0-8.3-2-9.1-3.7c-0.8-1.7-2.9-5.6-2.9-5.6l0.9-1.1l4.1,3.2c0,0,4.8,3.9,7,4.2
				C202,98.9,199.8,101.7,199.8,101.7L199.8,101.7z"/>
			<path class="st24" d="M199.8,101.7c0,0-8.3-2-9.1-3.7c-0.8-1.7-2.9-5.6-2.9-5.6l0.9-1.1l4.1,3.2c0,0,4.8,3.9,7,4.2
				C202,98.9,199.8,101.7,199.8,101.7L199.8,101.7z"/>
			<path class="st23" d="M207,91.9v4.5h-0.7c-3.5,0-7,0.9-10.2,2.6l-1.4,0.8l-0.3,0.2l-2.4-5.2l2.2-1.9h0.1c0.6,0,2.8,0.2,3.9-0.1
				c0.9-0.3,2-1.4,4.8-0.6c1.4,0.3,2.5,1.8,3.7,1.4C206.7,93.5,207,91.9,207,91.9z"/>
			<path class="st6" d="M214.2,83.7l1.5,1.7v4.1c0,0-1.2,12.9-5.3,14.3c-4.1,1.5-11.3-0.8-11.3-0.8s-1.8-5-1-5.2
				c0.9-0.3,7.7-2.2,7.7-2.2s-0.1-7.6,1.4-9.9c0,0-1-7,2.4-7.3C213,78.5,214.2,83.7,214.2,83.7L214.2,83.7z"/>
			<path class="st7" d="M214.4,83.7l1.5,1.7v4.1c0,0-1.2,12.9-5.3,14.3c-4.1,1.5-11.3-0.8-11.3-0.8s-1.8-5-1-5.2
				c0.9-0.3,7.7-2.2,7.7-2.2s-0.1-7.6,1.4-9.9c0,0-1-7,2.4-7.3C213.3,78.5,214.4,83.7,214.4,83.7L214.4,83.7z"/>
			<path class="st6" d="M204,66.4c0.1-0.5,0-1-0.1-1.5c-0.2-0.5-0.7-0.8-1.2-0.7c-0.7,0.1-0.9,1-1.6,1.1c-0.6,0.2-1.1-0.2-1.4-0.7
				c-0.2-0.5-0.2-1-0.2-1.6v-1.9c0-0.7,0-1.5-0.5-1.9c-0.6-0.7-1.7-0.9-2.6-0.9c-0.6,0-1,0.2-1.5,0.6c-0.5,0.3-0.9,0.7-1.6,0.6
				c-0.5-0.1-0.9-0.5-1-0.9l0,0c1.2-1.7,3.3-2.8,5.3-3.1c4.2-0.5,7.9,2.6,8.4,6.8c0.2,2.4-0.7,4.7-2.4,6.4
				C203.8,68,204,67.2,204,66.4L204,66.4z"/>
			<path class="st25" d="M193.4,59.2c-0.5-0.1-0.9-0.5-1.1-0.9c-0.1-0.2,0-0.5-0.1-0.8c-0.2-0.6-0.8-0.9-1.2-1.4
				c-0.8-0.9-0.8-2.4-0.2-3.4c0.5-0.9,1.5-1.6,2.4-1.5c0.6,0.1,1.1,0.6,1.7,0.6c0.6,0,1.1-0.3,1.7-0.6c1.2-0.6,2.7-0.7,4.2-0.3
				c0.5,0.1,0.8,0.3,1.1,0.6c0.2,0.2,0.5,0.6,0.6,0.9c0.7,0.9,1.9,1,3.1,1.2c1.1,0.2,2.4,0.7,2.7,1.7c0.2,0.7,0,1.5-0.1,2.3
				c0,0.1,0,0.3,0,0.5c0.2,0.3,0.6,0.1,0.9,0.2c0.7,0.1,0.8,0.9,0.8,1.6c0,0.8,0,1.5,0.1,2.3c0,0.2,0,0.6-0.1,0.8
				c-0.1,0.3-0.3,0.8-0.7,1l-2.5,2.9c-1.1,1.4-2.3,2.8-2,4.5c-0.6,0.2-1.1-0.2-1.4-0.8c-0.2-0.6,0-1.1,0.1-1.7
				c0.2-1,0.3-1.9,0.5-2.9c0.1-0.5,0-1-0.1-1.5c-0.2-0.5-0.7-0.8-1.2-0.7c-0.7,0.1-0.9,1-1.6,1.1c-0.6,0.2-1.1-0.2-1.4-0.7
				c-0.2-0.5-0.2-1-0.2-1.6v-1.9c0-0.7,0-1.5-0.5-1.9c-0.6-0.7-1.7-0.9-2.6-0.9c-0.6,0-1,0.2-1.5,0.6
				C194.5,59.1,194,59.4,193.4,59.2L193.4,59.2z"/>
			<path class="st6" d="M195.1,82.8l2.4,9.6C197.5,92.5,199.3,92.5,195.1,82.8z M203.2,81.2c0,0-3.1,5-1.9,10.2h0.6
				C201.8,91.5,200.8,89.1,203.2,81.2z M205.1,109.7c0,0,3.7-1.2,4.1,1.7C209.2,111.4,208.4,109.4,205.1,109.7z M194.2,93
				c0,0-0.8,5.2,0.6,7.4c0,0-2.7,1.1-6.6,0.9l-0.5-8.3H194.2L194.2,93z"/>
			<path class="st6" d="M194.7,99.8l-0.3,0.2l-2.4-5.2l2.2-1.9h0.1C194.2,93,193.6,97.6,194.7,99.8z"/>
			<path class="st7" d="M194.2,92.8c0,0-0.8,5.2,0.6,7.4c0,0-2.7,1.1-6.6,0.9l-2.6-8.3H194.2z"/>
			<path class="st14" d="M187.7,180.5c-0.1,0.8-0.7,1.4-1.5,1.5c-2,0.3-6.9,1.1-8.2,1.7c-1.6,0.8-7.8,0.2-8.1-0.6
				c-0.1-0.3,0-0.7,0.1-0.9c0.2-0.5,0.6-0.8,1-1.1c0.1-0.1,0.3-0.1,0.5-0.2c1.1-0.3,3.4-1.2,4-2c0,0,2.7-2.4,3.5-3.7
				c0.3-0.6,0.8-0.9,1.5-0.9s1.4,0.3,1.7,1.7c0,0,3.6,2,4.5,0.2c0,0,0.1,2.7,0.8,3.5C187.6,179.9,187.7,180.3,187.7,180.5
				L187.7,180.5z"/>
			<path class="st26" d="M187.7,180.5c-0.1,0.8-0.7,1.4-1.5,1.5c-2,0.3-6.9,1.1-8.2,1.7c-1.6,0.8-7.8,0.2-8.1-0.6
				c-0.1-0.3,0-0.7,0.1-0.9c0.2-0.5,0.6-0.8,1-1.1c1,0.7,3.3,1.4,8.3,0.6c4.8-0.8,7-1.5,8.2-1.9
				C187.6,179.9,187.7,180.3,187.7,180.5L187.7,180.5z M208.2,57.8L208.2,57.8c0.1-0.6,0.2-1.1,0.2-1.7c0,0.5-0.1,0.9-0.2,1.4
				C208.2,57.5,208.2,57.6,208.2,57.8z M203.7,64.8c0.1,0.2,0.2,0.6,0.2,0.9c0-0.5,0-0.8-0.2-1.2c-0.2-0.5-0.7-0.8-1.1-0.7
				c-0.7,0.1-0.9,1-1.6,1.1c-0.6,0.1-1.1-0.2-1.4-0.7c-0.2-0.5-0.2-1.1-0.2-1.6v-1.9c0-0.7,0-1.5-0.5-1.9c-0.6-0.7-1.7-0.9-2.6-0.9
				c-0.6,0-1,0.2-1.5,0.6c-0.5,0.3-0.9,0.7-1.6,0.6c-0.5-0.1-0.9-0.5-1-0.9c-0.1-0.2,0-0.5-0.1-0.8c-0.2-0.6-0.8-0.9-1.2-1.4
				c-0.3-0.5-0.6-1-0.7-1.6c-0.1,0.7,0.1,1.4,0.7,1.9c0.5,0.5,1,0.8,1.2,1.4c0.1,0.2,0,0.5,0.1,0.8c0.1,0.5,0.6,0.9,1,0.9
				c0.6,0.1,1.1-0.2,1.6-0.6s0.9-0.6,1.5-0.6c0.8,0,2,0.2,2.6,0.9c0.5,0.6,0.5,1.2,0.5,1.9V63c0,0.6,0,1.1,0.2,1.6
				c0.2,0.5,0.8,0.9,1.4,0.7c0.7-0.2,0.9-1,1.6-1.1C203.1,64,203.6,64.3,203.7,64.8z M210,62.8c-0.1,0.3-0.3,0.8-0.7,1l-2.5,2.9
				c-1,1.2-2.2,2.7-2,4.3c0.1-1.5,1.1-2.8,2-4l2.5-2.9c0.2-0.3,0.5-0.7,0.7-1c0.1-0.2,0.1-0.6,0.1-0.8C210,62.4,210,62.5,210,62.8z
				 M203.5,70.6c0-0.1-0.1-0.2-0.1-0.5c0,0.2,0,0.5,0.1,0.8c0.1,0.6,0.8,1,1.4,0.8c0-0.1,0-0.2,0-0.3
				C204.3,71.5,203.6,71,203.5,70.6z M178.6,175.9c0,0,0.8,1.4,3.6,0.1L178.6,175.9z M202.6,176.2c0,0,2.5,2.8,5.6,0.9L202.6,176.2z
				 M209.7,142c0,0-1.7,1.1-1.8,1.7c0,0.6,0.9-0.5,0.9-0.5L209.7,142z M210.4,150.3c-0.6,0.5-1.4,0.8-2.2,0.8
				c-1.2,0.1-1.1,1.7-0.3,1.2C208.7,151.9,210.4,150.3,210.4,150.3L210.4,150.3z M210.8,151.3c0,0-0.8,4.1-1.5,3.3L210.8,151.3z"/>
			
				<linearGradient id="SVGID_00000044177138308772346540000006638606427431590529_" gradientUnits="userSpaceOnUse" x1="72.9049" y1="110982.4219" x2="72.9049" y2="31858.0254" gradientTransform="matrix(1 0 0 1 0 -918)">
				<stop  offset="0" style="stop-color:#808080;stop-opacity:0.25"/>
				<stop  offset="0.54" style="stop-color:#808080;stop-opacity:0.12"/>
				<stop  offset="1" style="stop-color:#808080;stop-opacity:0.1"/>
			</linearGradient>
			<path style="fill:url(#SVGID_00000044177138308772346540000006638606427431590529_);" d="M50.3,182c0,0,5.2,1.5,7.7-0.5
				c2.5-1.9,3.6-1.2,3.6-1.2s6-0.3,6.5-1.7c0.5-1.4-2.3-6.6-2.3-6.6c-0.2-0.5-0.5-1-0.6-1v-2.2l0.9-9.1c2-5.1,0-11.8,0-11.8
				l-0.3-1.7c-0.2-0.9-0.1-1.9,0.3-2.7l3.6-7.3c0.2-0.5,0.5-0.9,0.7-1.4c0.5-0.7,0.8-1.5,1.2-2.2c0.5-0.7,1-1.5,1.6-2.4
				c1.6-2.3,2.5-5,2.9-7l0.2,0.7l0,0l0,0h0.1h0.1l0,0l1.1,14.2c0.1,5.6,2.2,8.6,2.2,8.6l-0.3,12.3c0.3,2.9-0.5,6.9-0.8,8.5l-0.9,2
				c-0.7,0.3-1.1,1-1.2,1.8c-0.2,1.5-1.7,4.7-1.7,4.7c-0.6,0.8-1.9,2.8-1.9,2.8s-0.6,1.9-0.2,2.7c0.3,0.8,3.5,0.7,3.5,0.7
				c3.6,0.8,6.4-1.1,6.2-2.5c-0.2-1.4,0.6-1.7,0.6-1.7c1.5-0.5,1.2-1.5,1.2-1.5c0.3-2-0.1-4.1-1.1-5.8l-0.2,0.6
				c-0.1-1,0.1-2.2,0.5-3.1l-0.1,0.1l0,0l0,0c0.2-2,2.4-5.7,2.4-5.7c3.9-6.8,2.5-16,2.5-16l-0.6-2.8v-1.1c-0.1-2.6,0.1-5.1,0.6-7.7
				c0.2-1.1,0.5-2.5,0.6-4c0.3-3.2,1.5-6.5,1.9-7.8h0.1l0,0c0.2,0,0.5-0.1,0.7-0.1l0,0c0,0,0.1-0.7,0.2-1.8c0.1-0.7,0.1-1.6,0.1-2.7
				c0-3.2-0.5-6.4-1.5-9.4l0.1-0.1c0,0,0.2-0.3,0.8-1c1.4-1.7,2.7-3.4,4.2-5c3.2-3.6,2.3-7.3,2.3-7.3s-2.3-8.4-3.3-13.5
				c-0.6-2.8-1.7-4.9-2.5-6c0.2-0.8,0.3-1.6,0.3-2.5c0.1-1.5,0-3.1-0.7-4.4c-0.7-1.4-2.2-2.4-3.6-2.3c-0.2,0-0.5,0-0.7,0
				c-0.2-0.1-0.3-0.2-0.5-0.3C86,65.6,86,64,86.2,62.5c0.2-1.5,0.8-2.8,1.1-4.3c0.2-1.5,0.1-3.1-0.8-4.3c-1.1-1.4-3.1-1.7-4.4-2.8
				c-1-0.7-1.8-1.8-2.8-2.4c-1-0.7-2-0.3-3.2-0.1c-1.9,0.5-3.7,0.6-5.6,1.5c-1.8,0.8-3.5,2-4.9,3.5c-0.5,0.5-0.9,1-1.1,1.7
				c-0.5,1.5,0.5,3.1,0.2,4.7c-0.1,1.1-0.8,2-1.2,3.1c-0.6,1-0.9,2.2-0.5,3.2c0.7,1.6,2.7,1.9,4.2,2.8c0.2,0.1,0.3,0.2,0.5,0.5
				c0.3,0.7-0.3,1.4-0.9,1.9c-0.2,0.3-0.5,0.7-0.6,1.1c-1.2,0.6-2.2,1.7-2.5,2.9c-0.6,2.3,0.2,5.2,1,7.1c-0.8,4.3,0.2,5.9,0.9,6.6
				c0.7,0.7,1.2,1.5,1.2,2.5v0.1c0,0.6,0.1,1.2,0.2,1.8c-0.6,1.1-1.7,4-2.4,8.6c-0.1,1-0.3,2-0.6,3.1c-0.5,1.8-0.6,3.6-0.5,5.4
				l0.1,1.6c-0.1,0-0.2,0-0.3-0.1l0.8,1.5v2.5c0,1.1-0.2,2.3-0.6,3.3c0,0.1-0.1,0.3-0.2,0.5c-0.2,0.5-0.3,0.9-0.2,1.4
				c-1.7,2.6-5.7,17.5-5.7,17.5c-2.2,4.9,0.2,7.9,0.2,7.9s1.1,13.5,1.4,14.2c0.2,0.7,0.7,9,0.7,9v0.7c-0.1,0-0.2-0.1-0.3-0.1
				c-1.9-0.1-2.4,2.8-2.4,2.8l-3.9,3.6c0,0-1.7-0.3-4.3,1.6C45.9,180.3,50.3,182,50.3,182L50.3,182z M88.6,103.9L88.6,103.9h-0.1
				l0,0l0,0l-1.8-6.2c-0.5-1.7-0.6-3.4-0.1-5.1l1.4-6v-1.5l4.3,11.6C92.6,98.3,90,102.1,88.6,103.9z"/>
			<path class="st28" d="M90.5,122.8c0,0-1.7,4.3-2.2,8.4c-0.1,1.4-0.3,2.6-0.6,4c-0.5,2.5-0.7,5.1-0.6,7.6v1l0.6,2.8
				c0,0,1.4,9.1-2.4,15.8c0,0-2.3,4-2.3,5.9l-1.5,0.6l-3.1-0.9c0,0,1.5-5.3,1-9.1l0.2-12.1c0,0-2-3.1-2-8.5l-1.1-15.1
				C76.5,123.2,90.5,122.8,90.5,122.8z M76.5,120.6c0,0-0.3,5.9-3.3,9.9c-2.9,4.1-3.5,5.8-3.5,5.8l-3.5,7.3
				c-0.5,0.8-0.6,1.8-0.3,2.7l0.3,1.6c0,0,1.9,6.6,0,11.6l-0.9,9.8h-5.4c0,0-0.5-8.2-0.7-8.8c-0.2-0.7-1.4-14.1-1.4-14.1
				s-2.3-3.1-0.2-7.9c0,0,4.8-17.9,6-17.6S76.5,120.6,76.5,120.6z"/>
			<path class="st6" d="M65.6,147.8l-0.3-1.6c-0.2-0.9-0.1-1.9,0.3-2.7l3.5-7.3c0,0,0.6-1.7,3.5-5.8c2.8-3.9,3.3-9.4,3.3-9.9h0.6
				c0,0-0.3,5.9-3.3,9.9c-2.9,4.1-3.5,5.8-3.5,5.8l-3.5,7.3c-0.5,0.8-0.6,1.8-0.3,2.7l0.3,1.6c0,0,1.9,6.6,0,11.6l-0.9,9.8h-0.6
				l0.9-9.8C67.5,154.4,65.6,147.8,65.6,147.8L65.6,147.8z M82.5,168.3c0.1-1.9,2.3-5.9,2.3-5.9c3.7-6.7,2.4-15.8,2.4-15.8l-0.6-2.8
				v-1c-0.1-2.5,0.1-5.1,0.6-7.6c0.2-1.1,0.5-2.5,0.6-4c0.5-4,2-8.1,2.2-8.4h0.6c0,0-1.7,4.3-2.2,8.4c-0.1,1.4-0.3,2.6-0.6,4
				c-0.5,2.5-0.7,5.1-0.6,7.6v1l0.6,2.8c0,0,1.4,9.1-2.4,15.8c0,0-2.3,4-2.3,5.9l-1.5,0.6l-0.3-0.1
				C81.2,168.7,82.5,168.3,82.5,168.3z"/>
			<path class="st29" d="M80.8,168.1c0.8,0.3,1.8,0.2,2.5-0.3c-0.5,1.5-0.6,3.1-0.2,4.5c0.6,2.5-5.8-2-5.8-2l1.4-3.2
				C78.6,167.2,79.2,168.3,80.8,168.1L80.8,168.1z"/>
			<path class="st6" d="M81.2,168.3c0.7,0.1,1.5,0,2-0.5c-0.5,1.5-0.6,3.1-0.2,4.5c0.6,2.5-5.8-2-5.8-2l1.4-3.2c0,0,0.3,0.8,1.6,0.9
				C80.5,168.1,80.9,168.3,81.2,168.3z"/>
			<path class="st28" d="M66.2,110.2H69V95l-2-0.3L66.2,110.2L66.2,110.2z"/>
			<path class="st24" d="M66.2,110.2H69V95l-2-0.3L66.2,110.2L66.2,110.2z"/>
			<path class="st30" d="M79.2,169.3c0,0,1.7-0.1,2.5,1.4l0.9,0.7l0.5-1c1,1.7,1.4,3.7,1,5.8c0,0,0.1,0.9-1.2,1.4
				c0,0-0.7,0.3-0.6,1.7c0.1,1.4-2.5,3.3-6.1,2.5c0,0-3.1,0.1-3.5-0.7c-0.3-0.7,0.2-2.6,0.2-2.6s1.2-2,1.8-2.7c0,0,1.5-3.2,1.7-4.5
				C76.7,169.6,78.4,168.5,79.2,169.3L79.2,169.3z"/>
			<path class="st29" d="M65.2,170.6v-2.2c0,0-3.1,0.9-5.6-0.1c0,0,0.2,2.2-0.1,2.5s1.1,3.1,1.1,3.1l1.7,1.7l2.8-1l0.8-2.5
				C66,172.1,65.5,170.6,65.2,170.6L65.2,170.6z"/>
			<path class="st6" d="M65.2,170.6v-2.2c0,0-3.1,0.9-5.6-0.1c0,0,0.2,2.2-0.1,2.5s1.1,3.1,1.1,3.1l1.7,1.7l2.8-1l0.8-2.5
				C66,172.1,65.5,170.6,65.2,170.6L65.2,170.6z"/>
			<path class="st30" d="M59.3,169.8c0,0,1.6,0.2,1.5,2.3c-0.2,2,0.1,0,0.1,0s1.7,0.7,2.4,1.7c0.7,1,1.7-0.9,1.8-1.4
				c0.1-0.6,0.8-0.8,0.8-0.8s2.7,5.1,2.3,6.5c-0.5,1.4-6.4,1.7-6.4,1.7s-1-0.6-3.5,1.2c-2.5,1.8-7.6,0.5-7.6,0.5s-4.2-1.7-1.6-3.6
				c2.5-1.9,4.3-1.6,4.3-1.6l3.7-3.6C57.1,172.7,57.5,169.7,59.3,169.8z"/>
			<path class="st26" d="M79,49.8c1,0.7,1.8,1.7,2.7,2.4c1.4,1,3.3,1.4,4.4,2.7c0.9,1.1,1,2.7,0.8,4.2c-0.2,1.5-0.8,2.8-1,4.3
				s-0.2,3.1,0.7,4.3c0.1,0.1,0.2,0.3,0.5,0.3c0.2,0,0.5,0,0.7,0c1.5-0.2,2.8,0.9,3.5,2.2c0.7,1.4,0.7,2.8,0.7,4.3
				c-0.1,1.2-0.2,2.5-0.7,3.5c-0.9,1.8-2.8,3.1-4.7,3.9c-1.2,0.6-2.5,1-3.7,1.5c-0.9,0.3-1.8,0.6-2.7,0.5c-1.6-0.2-2.6-1.7-4.2-2.3
				c-1.2-0.5-2.6-0.3-3.9-0.2c-1.1,0.1-2.4,0.1-3.1-0.7c-1-1-0.6-2.7,0-4c-1.6-0.1-2.7-1.5-2.7-3.1c0-0.6,0.2-1.1,0.7-1.7
				c0.5-0.6,1.2-1.2,0.9-1.9c-0.1-0.2-0.3-0.3-0.5-0.5c-1.5-0.8-3.5-1.1-4.2-2.8c-0.5-1,0-2.2,0.5-3.2c0.5-1,1.1-1.9,1.2-3.1
				c0.2-1.6-0.7-3.2-0.2-4.7c0.2-0.7,0.6-1.2,1-1.7c1.4-1.5,2.9-2.7,4.8-3.5c1.8-0.8,3.6-1,5.6-1.4C76.9,49.4,77.9,49.1,79,49.8z"/>
			<path class="st28" d="M68.9,72.7c0,0-4.3-0.2-5.2,3.5c-0.8,3.7,1.8,9.1,1.8,9.1L68.9,72.7L68.9,72.7z"/>
			<path class="st24" d="M68.9,72.7c0,0-4.3-0.2-5.2,3.5c-0.8,3.7,1.8,9.1,1.8,9.1L68.9,72.7L68.9,72.7z"/>
			<path class="st28" d="M66.1,83.9l1.7,1.4l7.7,0.3l4.8-3.3l4.9-8.4c-2.9-0.8-4.2-2.8-4.7-4.8c-0.3-1.4-0.3-2.6-0.1-4
				c0,0-7.8-4.1-6.9,2.3c0.1,0.8,0.1,1.6,0.1,2.4c-0.5,3.7-4.1,3.1-4.1,3.1L68.2,75l-1.6,5.2C66.6,80,66.1,83.9,66.1,83.9z"/>
			<path class="st6" d="M73.5,67.3c0.1,0.8,0.1,1.6,0.1,2.4c2.3,1,4.9,0.8,6.9-0.7c-0.3-1.4-0.3-2.6-0.1-4
				C80.4,65,72.6,60.9,73.5,67.3z"/>
			<path class="st28" d="M76.6,70c3.9,0,7-3.1,7-6.9s-3.1-7-6.9-7c-0.1,0-0.1,0-0.2,0c-3.9,0-6.9,3.2-6.9,7
				C69.7,66.8,72.7,69.9,76.6,70z"/>
			<path class="st7" d="M71.6,82.5c0.1,0,0.3,0,0.5,0c0.9,0.1,4.8,0.3,6.9-2.3c2.4-2.9,5.7-6.5,5.8-6.6l3.3,1c0,0-2.6-0.9-4.3,4
				c-0.8,2-0.1,4.4,1.7,5.8c0.7,0.5,1.4,0.8,2.2,0.9l0,0l0,0v2.2l-1.4,5.8c-0.3,1.7-0.3,3.4,0.1,5.1l2,7.3c-0.3,0.2-13,8.8-21.6,2.9
				c0-0.2,1.1-8.7,0.3-12.9c-0.2-1-0.3-2.2-0.3-3.2v-0.1c-0.1-0.9-0.6-1.8-1.2-2.5c-0.8-0.7-1.8-2.5-0.8-7.4
				c0.2-1.2,0.7-2.4,1.1-3.5l2.8-6.5h2.6l0,0c-0.2,0.2-3.3,4.1-3.6,6.6C67.5,81.5,67.2,82.2,71.6,82.5z"/>
			<path class="st28" d="M90.3,75.7c0,0,2.6,2.2,3.6,7.3c1,5,3.3,13.4,3.3,13.4s0.9,3.6-2.2,7.3c-3.1,3.6-5.2,6.4-5.2,6.4l-2,3.1
				c-0.3,0.6-0.9,0.9-1.5,1c-0.9,0.2-2.4,0.5-3.6-0.2c-0.9-0.6-1.4-1.7-0.9-2.6l0.5-1c0,0-4.2,2.6-4.7,1.2c-0.3-1.5,4.9-2.9,4.9-2.9
				s4.3-0.7,5.2-2.8c0,0,4.7-6,4.3-8.1l-4.5-12.1c0,0-5.7-0.8-3.7-7.1C85.6,71.9,90.3,75.7,90.3,75.7z"/>
			<path class="st12" d="M63.2,121.5c0,0,10.3,2,12.8,1.8l0.2,0.9c0,0,4,0.9,12.8-0.6c0.6-0.1,1.1-0.2,1.8-0.3h0.2
				c0,0,0.1-0.7,0.2-1.8c0.2-2.5,0.3-7.5-1.5-12.5l-1.5-4.7c0,0-9.2,5.6-15.3,5c-0.6,0-1.1-0.1-1.6-0.1c-1.2,0-3.2,0-4.4-1l-2.8,0.6
				v7.5c0,1.1-0.2,2.2-0.6,3.2c0,0.1-0.1,0.3-0.2,0.5C63.2,120.5,63.2,120.9,63.2,121.5L63.2,121.5z"/>
			<path class="st6" d="M76.2,121.9v2.4c0,0,4.5,1,14.9-0.9c0,0,0.1-0.7,0.2-1.8C88.1,122.1,79.4,123.2,76.2,121.9z"/>
			<path class="st6" d="M63.2,121.5c0,0,10.3,2,12.8,1.8l0.2,0.9v-2.4c-1.1,0.5-9.6-1.6-12.6-2.3c0,0.1-0.1,0.3-0.2,0.5
				C63.2,120.5,63.2,120.9,63.2,121.5z"/>
			<path class="st8" d="M88.3,118.9l0.8,4.8c0.6-0.1,1.2-0.2,1.8-0.3c-0.2-1.4-0.8-4.5-0.6-5.1l-1-0.8
				C89.3,117.4,88.3,118.9,88.3,118.9z"/>
			<path class="st22" d="M88.4,118.8l0.8,4.8c0.6-0.1,1.2-0.2,1.8-0.3c-0.2-1.4-0.8-4.5-0.6-5.1l-1-0.8L88.4,118.8z"/>
			<path class="st24" d="M72.4,109.4c-0.6,0-1.1-0.1-1.6-0.1c-1.2,0-3.1,0-4.3-0.9l0.5-0.1c1.2,1,3.2,0.9,4.4,1
				c0.6,0,1.1,0.1,1.6,0.1c0.2,0,0.3,0,0.6,0C73.2,109.5,72.8,109.5,72.4,109.4L72.4,109.4z M88.5,123.7c0.6-0.1,1.1-0.2,1.8-0.3
				h0.2c0,0,0.1-0.7,0.2-1.8c0.2-2.5,0.3-7.5-1.5-12.5l-1.4-4.3c0.3-0.2,0.5-0.2,0.5-0.2l1.5,4.7c1.8,5,1.7,10,1.5,12.5
				c-0.1,1.1-0.2,1.8-0.2,1.8h-0.2c-0.6,0.1-1.2,0.2-1.8,0.3c-4.2,0.7-7.3,0.8-9.3,0.8C82.7,124.4,85.6,124.1,88.5,123.7L88.5,123.7
				z M75.4,123.3L75.4,123.3h-0.3C75.3,123.3,75.3,123.3,75.4,123.3z"/>
			<path class="st29" d="M89.6,119.8c0.2,0,0.3-0.3,0.3-0.8s-0.2-0.8-0.3-0.8c-0.1,0-0.3,0.3-0.3,0.8S89.4,119.8,89.6,119.8
				L89.6,119.8z"/>
			<path class="st28" d="M64.7,102.7c0.7-4.7,1.7-7.5,2.4-8.5c0,0.1,0.1,0.7,0.1,0.8c0.1,0.7,0,1.6,0,2.4l-0.6,10.5l0.8,3.3
				c0.7,2.6-2,0.6-2,0.6c-0.6,1.2-1.6,1.1-1.6,1.1l-0.1-1.9c-0.1-1.8,0-3.6,0.5-5.3C64.3,104.7,64.5,103.7,64.7,102.7L64.7,102.7z"
				/>
			<path class="st24" d="M64.7,102.7c0.7-4.7,1.7-7.5,2.4-8.5c0,0.1,0.1,0.7,0.1,0.8c0.1,0.7,0,1.6,0,2.4l-0.6,10.5l0.8,3.3
				c0.7,2.6-2,0.6-2,0.6c-0.6,1.2-1.6,1.1-1.6,1.1l-0.1-1.9c-0.1-1.8,0-3.6,0.5-5.3C64.3,104.7,64.5,103.7,64.7,102.7L64.7,102.7z"
				/>
			<path class="st28" d="M90.9,108.5c-0.5,0.7-0.8,1-0.8,1l-2,2.9c-0.3,0.6-0.9,0.9-1.5,1c-0.9,0.2-2.4,0.5-3.6-0.2
				c-0.9-0.6-1.4-1.7-0.9-2.6l0.5-1c0,0-4.2,2.6-4.7,1.2c-0.3-1.5,4.9-2.9,4.9-2.9s4.3-0.7,5.2-2.8c0,0,0.3-0.5,0.9-1.2"/>
			<path class="st8" d="M88.3,113.5c0,0-5-0.5-6.6-3.3l-0.7,2.4c0,0,5.2,3.6,6.5,3.2L88.3,113.5L88.3,113.5z"/>
			<path class="st22" d="M88.1,113.5c0,0-5-0.5-6.6-3.4l-0.7,2.4c0,0,5.2,3.6,6.5,3.2L88.1,113.5z"/>
			<path class="st8" d="M65.6,112.2c0,0-1.7,0.6-2,0.2l0.8,1.5l1.5-1.1L65.6,112.2z"/>
			<path class="st31" d="M65.6,112.2c0,0-1.7,0.6-2,0.2l0.8,1.5l1.5-1.1L65.6,112.2z M76.2,121.9v-3.1l-0.7,3.1H76.2z M83.4,59.4
				c-0.5,0.6-1.1,0.9-1.9,1s-1.5,0-2.2,0c-1.1,0-2.4,0.1-3.3,0.8c-0.6,0.5-1,1-1.5,1.6c-1.4,1.7-3.4,3.3-5.6,3.2
				c-0.3,0-0.8-0.1-1-0.5c-0.2-0.2-0.3-0.6-0.3-0.9c-0.1-1.5,0-2.8,0.1-4.3c0.1-0.9,0.3-1.7,0.7-2.5c0.3-0.8,0.9-1.6,1.6-2.2
				c0.8-0.9,1.7-1.6,2.7-2.2c1-0.6,2.3-0.7,3.4-0.5c1.4,0.3,2.4,1.4,3.6,1.9C81.1,55.5,85,57.1,83.4,59.4L83.4,59.4z"/>
			<path class="st26" d="M83.4,59c-0.5,0.6-1.1,0.9-1.9,1s-1.5,0-2.2,0c-1.1,0-2.4,0.1-3.3,0.8c-0.6,0.5-1,1-1.5,1.6
				c-1.4,1.7-3.4,3.3-5.6,3.2c-0.3,0-0.8-0.1-1-0.5c-0.2-0.2-0.3-0.6-0.3-0.9c-0.1-1.5,0-2.8,0.1-4.3c0.1-0.9,0.3-1.7,0.7-2.5
				c0.3-0.8,0.9-1.6,1.6-2.2c0.8-0.9,1.7-1.6,2.7-2.2c1-0.6,2.3-0.7,3.4-0.5c1.4,0.3,2.4,1.4,3.6,1.9C81.1,55.2,85,56.9,83.4,59
				L83.4,59z"/>
			<path class="st28" d="M66.9,108.4v0.8l-0.2-0.8H66.9z"/>
			<path class="st24" d="M66.9,108.4v0.8l-0.2-0.8H66.9z M84.5,77.6c-1.9,6.4,3.7,7.1,3.7,7.1l4.5,12.1c0.3,2-4.3,8.1-4.3,8.1
				c-0.3,0.8-1.1,1.4-2,1.8c0.6-0.3,0.9-0.8,1.2-1.4c0,0,4.7-6,4.3-8.1l-4.5-12.1c0,0-5.7-0.8-3.7-7.1c0.7-2.2,1.6-3.1,2.6-3.4
				C85.5,75.2,85,76.1,84.5,77.6L84.5,77.6z"/>
			<g class="st32">
				<path class="st6" d="M84.6,83.4c0.2,0.3,0.6,0.6,0.9,0.9c0.7,0.5,1.4,0.8,2.2,0.9v0.2c-0.7-0.1-1.4-0.5-1.9-0.9
					C85.3,84.3,84.9,83.9,84.6,83.4z M67,92.6L67,92.6c0.1,1.1,0.2,2.3,0.3,3.3c0.7,4-0.2,11.8-0.3,12.8l-0.2-0.1
					c0-0.2,1.1-8.7,0.3-12.9c-0.2-1-0.3-2.2-0.3-3.2v-0.1c0-0.7-0.2-1.2-0.6-1.7C66.7,91.1,67,91.8,67,92.6z M71.2,72.8H69l0,0
					l-2.8,6.5c-0.5,1.1-0.9,2.3-1.1,3.5c-0.8,3.9-0.3,5.9,0.3,6.8c-0.7-0.8-1.5-2.7-0.6-7c0.2-1.2,0.7-2.4,1.1-3.5l2.8-6.5h2.6l0,0
					C71.5,72.6,71.4,72.7,71.2,72.8L71.2,72.8z M88.1,74.6L88.1,74.6L88.1,74.6z"/>
				<path class="st6" d="M87.2,74.6L85,73.9l0,0c-0.1,0.1-3.4,3.7-5.8,6.6c-2.2,2.6-6,2.4-6.9,2.3c-0.1,0-0.3,0-0.5,0
					c-2.5-0.1-3.5-0.5-3.9-1.1c0.5,0.5,1.5,0.7,3.6,0.8c0.1,0,0.3,0,0.5,0c0.9,0.1,4.8,0.3,6.9-2.3c2.4-2.9,5.7-6.5,5.8-6.6l3.3,1
					C87.8,74.6,87.6,74.6,87.2,74.6z"/>
			</g>
			<path class="st6" d="M60.8,173.1c0,0-3.2,0.9-3.7-0.5L60.8,173.1z M80.8,172.4c0,0-3.6,0.9-4.5-0.6L80.8,172.4z"/>
			<path class="st1" d="M44.1,164.7c3.4,0,6.1-0.5,6.1-1c0-0.6-2.7-1-6.1-1s-6.1,0.5-6.1,1C38,164.3,40.7,164.7,44.1,164.7
				L44.1,164.7z M20,179.5c3.4,0,6.1-0.5,6.1-1c0-0.6-2.7-1-6.1-1s-6.1,0.5-6.1,1C13.7,179,16.6,179.5,20,179.5z"/>
			<path class="st16" d="M13.5,166.8c5.1,0,9.2-0.7,9.2-1.6c0-0.9-4.1-1.6-9.2-1.6s-9.2,0.7-9.2,1.6C4.3,166.1,8.4,166.8,13.5,166.8
				z"/>
			<path class="st16" d="M9.8,162.7c-0.5-0.3-0.7-0.8-0.9-1.4c-0.1-0.6,0.1-1.1,0.6-1.4c0.6-0.2,1.1,0.2,1.6,0.6s1,0.8,1.6,0.8
				c-0.6-0.6-0.9-1.4-0.8-2.3c0-0.1,0.1-0.3,0.2-0.5c0.3-0.3,0.9-0.2,1.2,0.1c1.1,0.8,1.5,2.5,1.5,3.9c0.1-0.6,0-1,0-1.6
				c0-0.6,0.1-1.1,0.6-1.5c0.2-0.1,0.6-0.2,0.9-0.2c0.6,0,1.1,0,1.5,0.5c0.5,0.5,0.3,1.2-0.1,1.8c-0.5,0.6-1,0.9-1.6,1.2
				c-0.5,0.2-0.8,0.6-1.1,1c0,0.1-0.1,0.1-0.1,0.2h-3.3C11,163.7,10.3,163.3,9.8,162.7L9.8,162.7z"/>
			<path class="st1" d="M235.3,173.4c3.4,0,6.1-0.5,6.1-1c0-0.6-2.7-1-6.1-1c-3.4,0-6.1,0.5-6.1,1
				C229,172.9,231.9,173.4,235.3,173.4z"/>
			<path class="st33" d="M231.1,167.6c0,0,3.5-0.1,4.5-0.9s5.4-1.7,5.7-0.5c0.2,1.2,5.2,6,1.4,6c-4,0-9.2-0.6-10.2-1.2
				C231.3,170.4,231.1,167.6,231.1,167.6z"/>
			<path class="st34" d="M242.6,171.9c-4,0-9.2-0.6-10.2-1.2c-0.8-0.5-1.1-2.3-1.2-3.1h-0.1c0,0,0.2,2.8,1.2,3.5
				c1,0.7,6.2,1.2,10.2,1.2c1.1,0,1.6-0.5,1.5-1C244,171.7,243.6,171.9,242.6,171.9z"/>
		</g>
	</g>
</g>
</svg>
