<?xml version="1.0" encoding="utf-8"?>
<!-- Generator: Adobe Illustrator 28.0.0, SVG Export Plug-In . SVG Version: 6.00 Build 0)  -->
<svg version="1.1" id="Capa_1" xmlns="http://www.w3.org/2000/svg" xmlns:xlink="http://www.w3.org/1999/xlink" x="0px" y="0px"
	 viewBox="0 0 127 48" style="enable-background:new 0 0 127 48;" xml:space="preserve">
<style type="text/css">
	.st0{fill:#950080;}
	.st1{fill:#333333;}
</style>
<g>
	<path class="st0" d="M1.8,20.3c0-0.2,0-0.4,0.1-0.6c0.1-0.3,0.2-0.5,0.3-0.8c0.2-0.2,0.4-0.4,0.7-0.6c0.2-0.1,0.4-0.2,0.6-0.3
		c0.3-0.1,0.7-0.1,1-0.1c0.3,0,0.6,0.1,0.8,0.2c0.1,0.1,0.3,0.1,0.4,0.2c0,0,0.1,0,0.1,0c0.1-0.2,0.1-0.3,0.2-0.5
		c0.1-0.1,0.1-0.2,0.2-0.3c0.1-0.1,0.1-0.2,0.2-0.3c0.1-0.2,0.3-0.3,0.5-0.5c0.4-0.4,0.9-0.7,1.4-0.9c0.2-0.1,0.4-0.2,0.6-0.2
		c0.2,0,0.4-0.1,0.6-0.1c0.2,0,0.3,0,0.5,0c0,0,0,0,0,0c0,0,0,0,0,0c0,0,0,0,0.1,0c0,0,0,0,0,0c0.1,0,0.3,0,0.4,0
		c0.3,0.1,0.6,0.1,0.9,0.2c0.1,0,0.3,0.1,0.4,0.1c0.4,0.1,0.8,0.3,1.1,0.5c0.4,0.2,0.7,0.5,0.9,0.9c0.3,0.4,0.5,0.9,0.7,1.3
		c0.1,0.2,0.2,0.3,0.2,0.5c0,0.2,0.2,0.5,0.2,0.7c0,0.1,0,0.1,0,0.2c0,0.1,0,0.2,0,0.3c0,0,0,0,0,0c0,0.3,0.1,0.6,0.3,0.9
		c0.1,0.1,0.2,0.3,0.3,0.5c0.1,0.1,0.2,0.2,0.3,0.4c0,0.1,0.1,0.2,0.1,0.3c0,0.1-0.1,0.1-0.1,0.2c-0.2,0.1-0.4,0.2-0.6,0.3
		c-0.2,0.1-0.2,0.3-0.2,0.5c0,0.1,0,0.1,0.1,0.2c0,0.1,0,0.2-0.1,0.2c-0.1,0-0.1,0.1-0.2,0.1c0,0,0.1,0,0.1,0.1
		c0.1,0.1,0.1,0.2,0.1,0.3c0,0.1-0.1,0.2-0.2,0.4c0,0,0,0.1,0,0.1c0.1,0.2,0.2,0.5,0.1,0.8c-0.1,0.1-0.2,0.2-0.3,0.3
		c-0.1,0.1-0.3,0.1-0.5,0.1c-0.3,0-0.6,0-0.9,0c-0.1,0-0.3,0.1-0.4,0.1c-0.3,0.1-0.5,0.3-0.7,0.6c-0.1,0.2-0.2,0.4-0.3,0.6
		c-0.1,0.3-0.2,0.5-0.4,0.8c0,0,0,0.1,0,0.1c0.2,0.3,0.3,0.7,0.4,1c0,0.1,0,0.2,0,0.3c0,0,0,0.1,0.1,0c0,0,0.1,0,0.1,0
		c0.1,0,0.2,0,0.2,0.2c0.1,0.3,0.1,0.7,0.1,1c0,0.1,0,0.2,0,0.4c0,0.1,0.1,0.2,0.1,0.2c0.2,0.4,0.5,0.9,0.7,1.3c0,0,0,0,0,0
		c-0.2-0.1-0.3-0.1-0.5-0.2c-0.3-0.1-0.6-0.2-0.9-0.3c-0.2-0.1-0.5-0.1-0.7-0.2c-0.3-0.1-0.5-0.2-0.8-0.3c-0.3-0.1-0.6-0.2-0.8-0.3
		c-0.5-0.2-1-0.3-1.6-0.5c-0.3-0.1-0.6-0.2-0.9-0.3c-0.2-0.1-0.4-0.1-0.6-0.2C5.9,30,5.5,29.9,5,29.7c0,0,0,0-0.1,0
		c-0.1,0-0.1,0-0.1-0.2c0.1-0.2,0.2-0.3,0.2-0.5c0.1-0.2,0.2-0.5,0.4-0.7c0.2-0.3,0.3-0.6,0.5-1c0.1-0.2,0.2-0.4,0.3-0.6
		c0-0.1,0.1-0.2,0.1-0.3c0.1-0.2,0.2-0.4,0.3-0.5c0.1-0.2,0.3-0.3,0.5-0.4c0.1,0,0.2,0,0.2,0c0.1,0,0.2-0.1,0.3-0.2
		c0.1-0.1,0.2-0.3,0.2-0.4c0-0.2,0-0.4-0.1-0.5c-0.1-0.1-0.1-0.2-0.2-0.3c-0.2-0.3-0.5-0.5-0.7-0.8c-0.1-0.2-0.3-0.3-0.4-0.5
		c-0.1-0.2-0.3-0.4-0.4-0.6C6,22.2,5.9,22.1,5.9,22c-0.1-0.1-0.1-0.3-0.2-0.4c0-0.1-0.1-0.2-0.1-0.3c-0.1-0.4-0.1-0.8-0.1-1.2
		c0,0,0,0,0,0c0-0.2,0-0.2-0.2-0.2c-0.2,0-0.3,0.1-0.4,0.3c-0.1,0.2-0.1,0.4-0.1,0.6c0,0.2,0,0.3,0,0.5c0,0.2,0,0.4,0.1,0.5
		c0,0.2,0.1,0.4,0.1,0.6c0,0.3,0.1,0.5,0.1,0.8c0,0.2,0,0.4,0,0.6c0,0.2,0,0.5-0.1,0.7c0,0.2-0.1,0.3-0.1,0.5
		c-0.1,0.2-0.2,0.5-0.3,0.7c-0.1,0.2-0.3,0.4-0.5,0.6c-0.3,0.4-0.5,0.8-0.5,1.2c0,0.2-0.1,0.4-0.1,0.6c0-0.1-0.1-0.1-0.1-0.1
		c0,0,0,0,0,0c0,0,0,0,0,0c0.1,0.1,0,0.3,0.1,0.4c0,0,0,0.1,0,0.2c0,0.4,0,0.8-0.3,1.2c0,0,0,0,0,0c0.1-0.8-0.1-1.6-0.5-2.3
		c0,0.3,0.1,0.5,0.1,0.7c-0.3-0.5-0.4-0.8-0.4-1.2c0,0-0.1,0.1-0.1,0.1c0,0.2,0,0.3,0,0.5c-0.1,0,0,0.1,0,0.1c0,0.3-0.2,0.5-0.4,0.7
		c0,0,0,0,0,0C2,28.2,2,28,2,27.9c0-0.2,0-0.4,0-0.6c0,0,0,0,0,0c0,0,0,0,0,0c0-0.1,0-0.2,0-0.3c0-0.2,0.1-0.4,0.1-0.6
		c0,0,0,0,0-0.1c0,0.1-0.1,0.1-0.1,0.2C2,26.7,2,27,2,27.4c0,0,0,0,0,0c0-0.1-0.1-0.2-0.1-0.3c0,0,0,0,0-0.1c0-0.2,0-0.4,0-0.6
		c0-0.2,0.1-0.3,0.1-0.4c0,0,0,0,0,0c-0.1,0.1-0.1,0.2-0.3,0.2c0.1-0.1,0.2-0.3,0.3-0.4c0.1-0.2,0.2-0.5,0.2-0.7
		c0-0.2,0-0.4,0.1-0.6c0-0.2,0-0.5,0-0.7c0,0,0-0.1,0-0.1c0-0.4-0.1-0.9-0.2-1.3C2,22,1.9,21.7,1.9,21.4c-0.1-0.2-0.1-0.5-0.1-0.7
		c0,0,0-0.1,0-0.1C1.8,20.5,1.8,20.4,1.8,20.3C1.8,20.3,1.8,20.3,1.8,20.3z"/>
	<g>
		<path class="st1" d="M25.1,20.3c-2.3,0-4.2,1.8-4.2,4.1s1.8,4.1,4.2,4.1c1.2,0,2.4-0.5,3.2-1.4l1.2,1.3c-1.2,1.2-2.9,1.9-4.5,1.9
			c-3.4,0-6.1-2.6-6.1-5.9c0-3.3,2.7-5.9,6.1-5.9c1.6,0,3.3,0.7,4.4,1.8l-1.1,1.4C27.5,20.9,26.3,20.3,25.1,20.3z"/>
		<path class="st1" d="M33.4,17.9v12.3h-1.9V17.9H33.4z"/>
		<path class="st1" d="M41.6,30.2v-1.1c-0.6,0.8-1.6,1.2-2.9,1.2c-1.9,0-3.1-1.2-3.1-2.7c0-1.6,1.2-2.6,3.3-2.7h2.7v-0.3
			c0-1.1-0.7-1.8-2.1-1.8c-0.8,0-1.7,0.3-2.6,0.9l-0.8-1.3c1.2-0.7,2.1-1.1,3.8-1.1c2.3,0,3.6,1.2,3.6,3.1l0,5.8H41.6z M41.6,27.1
			v-0.8h-2.4c-1.2,0-1.8,0.3-1.8,1.2c0,0.8,0.6,1.3,1.7,1.3C40.5,28.8,41.5,28.1,41.6,27.1z"/>
		<path class="st1" d="M54.1,21.4v8.8h-1.9v-1.7c-0.6,1.2-1.7,1.8-3.2,1.8c-2,0-3.2-1.3-3.2-3.4v-5.5h1.9v5c0,1.3,0.8,2.1,2.1,2.1
			c1.5,0,2.4-1.2,2.4-2.8v-4.4H54.1z"/>
		<path class="st1" d="M65.4,17.9v12.3h-1.9v-1.5c-0.6,1-1.7,1.6-3.1,1.6c-2.5,0-4.2-1.8-4.2-4.5c0-2.7,1.7-4.5,4.2-4.5
			c1.4,0,2.5,0.6,3.1,1.6v-5H65.4z M63.4,25.9c0-1.7-1.1-2.9-2.7-2.9c-1.6,0-2.7,1.2-2.7,2.9c0,1.7,1.1,2.9,2.7,2.9
			C62.3,28.7,63.4,27.5,63.4,25.9z"/>
		<path class="st1" d="M70.3,18.9c0,0.7-0.5,1.1-1.1,1.1c-0.6,0-1.1-0.5-1.1-1.1c0-0.7,0.5-1.2,1.1-1.2
			C69.8,17.7,70.3,18.2,70.3,18.9z M70.2,21.4v8.8h-1.9v-8.8H70.2z"/>
		<path class="st1" d="M78.3,30.2v-1.1c-0.6,0.8-1.6,1.2-2.9,1.2c-1.9,0-3.1-1.2-3.1-2.7c0-1.6,1.2-2.6,3.3-2.7h2.7v-0.3
			c0-1.1-0.7-1.8-2.1-1.8c-0.8,0-1.7,0.3-2.6,0.9l-0.8-1.3c1.2-0.7,2.1-1.1,3.8-1.1c2.3,0,3.6,1.2,3.6,3.1l0,5.8H78.3z M78.3,27.1
			v-0.8h-2.4c-1.2,0-1.8,0.3-1.8,1.2c0,0.8,0.6,1.3,1.7,1.3C77.1,28.8,78.2,28.1,78.3,27.1z"/>
		<path class="st1" d="M84.7,17.9v12.3h-1.9V17.9H84.7z"/>
		<path class="st1" d="M91.2,18.5l-2,1.6h-1.7l1.8-2.5L91.2,18.5z M89.5,21.4v8.8h-1.9v-8.8H89.5z"/>
		<path class="st1" d="M91.7,30.2v-1.3l5.1-6h-4.9v-1.6l7.3,0v1.3l-5.1,6l5.2,0v1.6L91.7,30.2z"/>
		<path class="st1" d="M106.4,30.2v-1.1c-0.6,0.8-1.6,1.2-2.9,1.2c-1.9,0-3.1-1.2-3.1-2.7c0-1.6,1.2-2.6,3.3-2.7h2.7v-0.3
			c0-1.1-0.7-1.8-2.1-1.8c-0.8,0-1.7,0.3-2.6,0.9l-0.8-1.3c1.2-0.7,2.1-1.1,3.8-1.1c2.3,0,3.6,1.2,3.6,3.1l0,5.8H106.4z M106.4,27.1
			v-0.8H104c-1.2,0-1.8,0.3-1.8,1.2c0,0.8,0.6,1.3,1.7,1.3C105.3,28.8,106.3,28.1,106.4,27.1z"/>
		<path class="st1" d="M115.9,29.7c-0.7,0.4-1.4,0.6-2.2,0.6c-1.3,0-2.5-0.8-2.5-2.6v-4.6H110v-1.4h1.2v-2.4h1.9v2.4h2.6v1.4h-2.6
			v4.2c0,0.9,0.3,1.2,0.9,1.2c0.4,0,0.8-0.1,1.3-0.4L115.9,29.7z"/>
		<path class="st1" d="M125.3,26.6h-6.7c0.3,1.4,1.3,2.2,2.7,2.2c1,0,1.8-0.4,2.5-1l1,1.1c-0.9,0.9-2.1,1.5-3.7,1.5
			c-2.7,0-4.5-1.8-4.5-4.5c0-2.7,1.8-4.5,4.5-4.5C124.3,21.3,125.5,23.4,125.3,26.6z M123.6,25.2c-0.1-1.4-1-2.3-2.5-2.3
			c-1.4,0-2.4,0.9-2.6,2.3H123.6z"/>
	</g>
</g>
</svg>
