<?xml version="1.0" encoding="UTF-8"?>
<svg id="Capa_1" data-name="Capa 1" xmlns="http://www.w3.org/2000/svg" viewBox="0 0 50 41.3">
  <defs>
    <style>
      .cls-1 {
        fill: #950080;
      }

      .cls-1, .cls-2 {
        stroke-width: 0px;
      }

      .cls-2 {
        fill: #333;
      }
    </style>
  </defs>
  <path class="cls-1" d="m17.5,11.7c0-.2,0-.5,0-.7,0-.3.2-.6.4-.8.2-.3.4-.5.7-.6.2-.1.4-.2.7-.3.4-.1.7-.2,1.1-.1.3,0,.6,0,.9.2.1,0,.3.1.4.2,0,0,0,0,0,0,0-.2.1-.3.2-.5,0-.1.1-.2.2-.3,0-.1.2-.2.2-.3.2-.2.3-.3.5-.5.4-.5,1-.7,1.5-1,.2,0,.4-.2.6-.2.2,0,.5-.1.7-.1.2,0,.4,0,.5,0,0,0,0,0,0,0,0,0,0,0,0,0,0,0,0,0,0,0,0,0,0,0,0,0,.1,0,.3,0,.4,0,.3,0,.7.1,1,.2.1,0,.3,0,.4.1.4.1.8.3,1.2.5.4.2.7.5,1,.9.3.4.5,1,.8,1.4,0,.2.2.4.2.5,0,.3.2.5.2.8,0,0,0,.1,0,.2,0,0,0,.2,0,.3h0c0,.4.1.7.3,1,.1.2.3.3.4.5,0,.2.2.3.3.4,0,.1,0,.2,0,.4,0,0,0,.1-.1.2-.2.1-.4.2-.6.4-.2.1-.3.3-.2.5,0,0,0,.1,0,.2,0,0,0,.2,0,.3,0,0-.1,0-.2.1,0,0,0,0,0,0,.1,0,.1.2,0,.3,0,.1,0,.3-.2.4,0,0,0,0,0,.1.1.3.2.5,0,.8,0,.1-.2.3-.3.3-.2,0-.3,0-.5.1-.3,0-.6,0-1,0-.2,0-.3,0-.5.1-.3.1-.5.3-.7.6-.1.2-.3.4-.4.6-.1.3-.3.6-.4.9,0,0,0,0,0,.1.2.3.3.7.4,1.1,0,0,0,.2,0,.3,0,0,0,0,0,0,0,0,0,0,.1,0,.2,0,.2,0,.3.2,0,.3,0,.7,0,1,0,.1,0,.3,0,.4,0,0,0,.2.1.3.2.5.5.9.7,1.4,0,0,0,0,0,0-.2,0-.4-.1-.6-.2-.3-.1-.7-.2-1-.3-.3,0-.5-.1-.8-.3-.3-.1-.6-.2-.9-.3-.3,0-.6-.2-.9-.3-.6-.2-1.1-.4-1.7-.6-.3-.1-.7-.2-1-.3-.2,0-.4-.2-.7-.2-.5-.2-1-.3-1.4-.5,0,0,0,0,0,0-.1,0-.1,0,0-.2,0-.2.2-.3.2-.5.1-.3.3-.5.4-.8.2-.3.3-.7.5-1,.1-.2.2-.4.3-.6,0-.1,0-.2.1-.3,0-.2.2-.4.3-.6.1-.2.3-.3.5-.4,0,0,.2,0,.2,0,.2,0,.3,0,.3-.2,0-.1.2-.3.2-.5,0-.2,0-.4-.2-.6,0-.1-.1-.2-.2-.3-.2-.3-.5-.5-.7-.8-.1-.2-.3-.3-.5-.5-.2-.2-.3-.4-.4-.6,0-.1-.1-.3-.2-.4,0-.1-.1-.3-.2-.4,0-.1,0-.2,0-.3-.1-.4-.2-.9-.1-1.3,0,0,0,0,0,0,0-.2,0-.2-.2-.2-.2,0-.3,0-.4.3,0,.2-.1.4-.1.6,0,.2,0,.4,0,.6,0,.2,0,.4,0,.6,0,.2,0,.4,0,.7,0,.3,0,.6,0,.9,0,.2,0,.4,0,.7,0,.3,0,.5,0,.8,0,.2,0,.4-.1.5,0,.3-.2.5-.3.7-.2.2-.3.5-.5.7-.3.4-.5.8-.6,1.3,0,.2,0,.4,0,.6,0,0,0-.1,0-.2,0,0,0,0,0,0,0,0,0,0,0,0,0,.1,0,.3,0,.4,0,0,0,.1,0,.2,0,.5,0,.9-.4,1.3,0,0,0,0,0,0,.1-.9-.1-1.7-.5-2.5,0,.3,0,.5.1.8-.3-.5-.4-.9-.4-1.3,0,0,0,0,0,.1,0,.2,0,.4,0,.6,0,0,0,0,0,.1,0,.3-.2.6-.4.8,0,0,0,0,0,0,0-.2,0-.4.1-.6,0-.2,0-.4,0-.7,0,0,0,0,0,0,0,0,0,0,0,0,0-.1,0-.2,0-.4,0-.2,0-.4.1-.7,0,0,0,0,0,0,0,0,0,.1-.1.2-.1.4-.1.8-.1,1.1,0,0,0,0,0,0,0-.1,0-.2-.1-.3,0,0,0,0,0,0,0-.2,0-.4,0-.6,0-.2,0-.3.1-.5,0,0,0,0,0,0-.1,0-.1.3-.3.2.1-.2.2-.3.3-.5.1-.3.2-.5.3-.8,0-.2,0-.4,0-.6,0-.2,0-.5,0-.7,0,0,0,0,0,0,0-.5,0-.9-.2-1.4,0-.3-.2-.6-.2-1,0-.3,0-.5,0-.8,0,0,0,0,0-.1,0,0,0-.1,0-.2,0,0,0,0,0,0Z"/>
  <g>
    <path class="cls-2" d="m2.9,30.1c-1.1,0-2,.8-2,1.9s.9,1.9,2,1.9,1.1-.2,1.5-.6l.5.6c-.6.5-1.3.9-2.1.9-1.6,0-2.8-1.2-2.8-2.8s1.3-2.7,2.9-2.7,1.5.3,2.1.8l-.5.7c-.4-.4-1-.7-1.5-.7Z"/>
    <path class="cls-2" d="m6.8,28.9v5.8h-.9v-5.8h.9Z"/>
    <path class="cls-2" d="m10.7,34.7v-.5c-.3.4-.8.5-1.4.5-.9,0-1.5-.6-1.5-1.3s.6-1.2,1.6-1.2h1.3c0-.6-.3-1-1-1s-.8.1-1.2.4l-.4-.6c.6-.3,1-.5,1.8-.5s1.7.5,1.7,1.5v2.7s-.9,0-.9,0Zm0-1.5v-.4h-1.1c-.6,0-.9.2-.9.6s.3.6.8.6,1.1-.3,1.2-.8Z"/>
    <path class="cls-2" d="m16.5,30.6v4.2h-.9v-.8c-.3.6-.8.8-1.5.8-1,0-1.5-.6-1.5-1.6v-2.6h.9v2.3c0,.6.4,1,1,1,.7,0,1.1-.6,1.1-1.3v-2h.9Z"/>
    <path class="cls-2" d="m21.8,28.9v5.8h-.9v-.7c-.3.5-.8.7-1.5.7-1.2,0-2-.9-2-2.1s.8-2.1,2-2.1,1.2.3,1.5.8v-2.4h.9Zm-.9,3.7c0-.8-.5-1.4-1.3-1.4s-1.3.6-1.3,1.4c0,.8.5,1.4,1.3,1.4s1.3-.6,1.3-1.4Z"/>
    <path class="cls-2" d="m24.2,29.4c0,.3-.2.5-.5.5s-.5-.2-.5-.5.2-.5.5-.5.5.2.5.5Zm0,1.2v4.2h-.9v-4.2h.9Z"/>
    <path class="cls-2" d="m27.9,34.7v-.5c-.3.4-.8.5-1.4.5-.9,0-1.5-.6-1.5-1.3s.6-1.2,1.6-1.2h1.3c0-.6-.3-1-1-1s-.8.1-1.2.4l-.4-.6c.6-.3,1-.5,1.8-.5s1.7.5,1.7,1.5v2.7s-.9,0-.9,0Zm0-1.5v-.4h-1.1c-.6,0-.9.2-.9.6s.3.6.8.6,1.1-.3,1.2-.8Z"/>
    <path class="cls-2" d="m30.9,28.9v5.8h-.9v-5.8h.9Z"/>
    <path class="cls-2" d="m34,29.2l-1,.8h-.8l.8-1.2.9.4Zm-.8,1.4v4.2h-.9v-4.2h.9Z"/>
    <path class="cls-2" d="m34.2,34.7v-.6l2.4-2.8h-2.3v-.7h3.4v.6l-2.4,2.8h2.4v.7h-3.6Z"/>
    <path class="cls-2" d="m41.1,34.7v-.5c-.3.4-.8.5-1.4.5-.9,0-1.5-.6-1.5-1.3s.6-1.2,1.6-1.2h1.3c0-.6-.3-1-1-1s-.8.1-1.2.4l-.4-.6c.6-.3,1-.5,1.8-.5s1.7.5,1.7,1.5v2.7s-.9,0-.9,0Zm0-1.5v-.4h-1.1c-.6,0-.9.2-.9.6s.3.6.8.6,1.1-.3,1.2-.8Z"/>
    <path class="cls-2" d="m45.5,34.5c-.3.2-.7.3-1,.3-.6,0-1.2-.4-1.2-1.2v-2.2h-.6v-.7h.6v-1.1h.9v1.1h1.2v.7h-1.2v2c0,.4.2.6.4.6s.4,0,.6-.2l.2.7Z"/>
    <path class="cls-2" d="m50,33h-3.1c.1.6.6,1,1.3,1s.9-.2,1.2-.5l.5.5c-.4.4-1,.7-1.7.7-1.3,0-2.1-.9-2.1-2.1s.9-2.1,2.1-2.1c1.5,0,2.1,1,1.9,2.5Zm-.8-.7c0-.7-.5-1.1-1.2-1.1s-1.1.4-1.2,1.1h2.4Z"/>
  </g>
</svg>