<?xml version="1.0" encoding="UTF-8"?>
<svg id="Capa_1" data-name="Capa 1" xmlns="http://www.w3.org/2000/svg" viewBox="0 0 76 27.7">
  <defs>
    <style>
      .cls-1 {
        fill: #950080;
      }

      .cls-1, .cls-2 {
        stroke-width: 0px;
      }

      .cls-2 {
        fill: #333;
      }
    </style>
  </defs>
  <path class="cls-1" d="m.1,11.7c0-.1,0-.3,0-.4,0-.2.1-.3.2-.5.1-.2.2-.3.4-.4.1,0,.3-.1.4-.2.2,0,.4,0,.6,0,.2,0,.3,0,.5.1,0,0,.2,0,.2.1,0,0,0,0,0,0,0,0,0-.2.1-.3,0,0,0-.1.1-.2,0,0,0-.1.1-.2,0-.1.2-.2.3-.3.2-.3.5-.4.9-.6.1,0,.2,0,.4-.1.1,0,.3,0,.4,0,.1,0,.2,0,.3,0,0,0,0,0,0,0,0,0,0,0,0,0,0,0,0,0,0,0,0,0,0,0,0,0,0,0,.2,0,.3,0,.2,0,.4,0,.6.1,0,0,.2,0,.3,0,.2,0,.5.2.7.3.2.1.4.3.6.5.2.3.3.5.4.8,0,.1.1.2.1.3,0,.2.1.3.1.4,0,0,0,0,0,.1,0,0,0,.1,0,.2h0c0,.2,0,.4.2.6,0,0,.1.2.2.3,0,0,.1.1.2.2,0,0,0,.1,0,.2,0,0,0,0,0,0-.1,0-.2.1-.3.2-.1,0-.2.2-.1.3,0,0,0,0,0,0,0,0,0,.1,0,.1,0,0,0,0,0,0,0,0,0,0,0,0,0,0,0,.1,0,.2,0,0,0,.2,0,.2,0,0,0,0,0,0,0,.1.1.3,0,.5,0,0,0,.2-.2.2,0,0-.2,0-.3,0-.2,0-.4,0-.6,0,0,0-.2,0-.3,0-.2,0-.3.2-.4.4,0,.1-.1.2-.2.4,0,.2-.1.3-.2.5,0,0,0,0,0,0,.1.2.2.4.2.6,0,0,0,.1,0,.2,0,0,0,0,0,0,0,0,0,0,0,0,0,0,.1,0,.1.1,0,.2,0,.4,0,.6,0,0,0,.2,0,.2,0,0,0,0,0,.1.1.3.3.5.4.8,0,0,0,0,0,0-.1,0-.2,0-.3-.1-.2,0-.4-.1-.6-.2-.1,0-.3,0-.4-.1-.2,0-.3-.1-.5-.2-.2,0-.3-.1-.5-.2-.3-.1-.6-.2-1-.3-.2,0-.4-.1-.6-.2-.1,0-.2,0-.4-.1-.3,0-.5-.2-.8-.3,0,0,0,0,0,0,0,0,0,0,0,0,0,0,0-.2.1-.3,0-.2.2-.3.2-.4.1-.2.2-.4.3-.6,0-.1.1-.2.2-.4,0,0,0-.1,0-.2,0-.1.1-.2.2-.3,0,0,.2-.2.3-.2,0,0,0,0,.1,0,0,0,.1,0,.2-.1,0,0,.1-.2.1-.3,0-.1,0-.2,0-.3,0,0,0-.1-.1-.2-.1-.2-.3-.3-.4-.5,0-.1-.2-.2-.3-.3,0-.1-.2-.2-.3-.4,0,0,0-.2-.1-.2,0,0,0-.2-.1-.3,0,0,0-.1,0-.2,0-.2,0-.5,0-.8,0,0,0,0,0,0,0-.1,0-.1,0-.1-.1,0-.2,0-.2.2,0,.1,0,.2,0,.4,0,.1,0,.2,0,.3,0,.1,0,.2,0,.3,0,.1,0,.3,0,.4,0,.2,0,.3,0,.5,0,.1,0,.2,0,.4,0,.1,0,.3,0,.4,0,.1,0,.2,0,.3,0,.1-.1.3-.2.4,0,.1-.2.3-.3.4-.2.2-.3.5-.3.7,0,.1,0,.2,0,.4,0,0,0,0,0,0,0,0,0,0,0,0,0,0,0,0,0,0,0,0,0,.2,0,.2,0,0,0,0,0,0,0,.3,0,.5-.2.7,0,0,0,0,0,0,0-.5,0-1-.3-1.4,0,.2,0,.3,0,.5-.2-.3-.2-.5-.2-.7,0,0,0,0,0,0,0,.1,0,.2,0,.3,0,0,0,0,0,0,0,.2-.1.3-.2.5,0,0,0,0,0,0,0-.1,0-.2,0-.3,0-.1,0-.3,0-.4,0,0,0,0,0,0,0,0,0,0,0,0,0,0,0-.1,0-.2,0-.1,0-.3,0-.4,0,0,0,0,0,0,0,0,0,0,0,.1,0,.2,0,.4,0,.6,0,0,0,0,0,0,0,0,0-.1,0-.2,0,0,0,0,0,0,0-.1,0-.2,0-.4,0,0,0-.2,0-.3,0,0,0,0,0,0,0,0,0,.2-.2.1,0,0,.1-.2.2-.3,0-.1.1-.3.1-.5,0-.1,0-.2,0-.4,0-.1,0-.3,0-.4,0,0,0,0,0,0,0-.3,0-.5-.1-.8,0-.2,0-.4-.1-.5,0-.1,0-.3,0-.4,0,0,0,0,0,0,0,0,0,0,0-.1,0,0,0,0,0,0Z"/>
  <g>
    <path class="cls-2" d="m14.4,11.7c-1.4,0-2.6,1.1-2.6,2.5s1.1,2.5,2.6,2.5,1.5-.3,2-.8l.7.8c-.7.7-1.8,1.2-2.8,1.2-2.1,0-3.7-1.6-3.7-3.6s1.6-3.6,3.8-3.6,2,.4,2.7,1.1l-.7.9c-.5-.6-1.3-.9-2-.9Z"/>
    <path class="cls-2" d="m19.5,10.2v7.6h-1.2v-7.6h1.2Z"/>
    <path class="cls-2" d="m24.6,17.8v-.7c-.4.5-1,.7-1.8.7-1.2,0-1.9-.7-1.9-1.7s.7-1.6,2.1-1.6h1.6v-.2c0-.7-.4-1.1-1.3-1.1s-1.1.2-1.6.6l-.5-.8c.8-.4,1.3-.7,2.3-.7s2.2.7,2.2,1.9v3.6s-1.1,0-1.1,0Zm0-1.9v-.5h-1.5c-.8,0-1.1.2-1.1.7s.4.8,1.1.8,1.5-.4,1.5-1Z"/>
    <path class="cls-2" d="m32.2,12.4v5.4h-1.2v-1.1c-.4.8-1.1,1.1-1.9,1.1-1.2,0-2-.8-2-2.1v-3.4h1.2v3.1c0,.8.5,1.3,1.3,1.3.9,0,1.5-.7,1.5-1.7v-2.7h1.2Z"/>
    <path class="cls-2" d="m39.1,10.2v7.6h-1.2v-.9c-.4.6-1,1-1.9,1-1.6,0-2.6-1.1-2.6-2.8s1.1-2.7,2.6-2.7,1.5.4,1.9,1v-3.1h1.2Zm-1.2,4.9c0-1.1-.7-1.8-1.7-1.8s-1.7.7-1.7,1.8c0,1,.7,1.8,1.7,1.8s1.7-.7,1.7-1.8Z"/>
    <path class="cls-2" d="m42.2,10.8c0,.4-.3.7-.7.7s-.7-.3-.7-.7.3-.7.7-.7.7.3.7.7Zm-.1,1.6v5.4h-1.2v-5.4h1.2Z"/>
    <path class="cls-2" d="m47.1,17.8v-.7c-.4.5-1,.7-1.8.7-1.2,0-1.9-.7-1.9-1.7s.7-1.6,2.1-1.6h1.6v-.2c0-.7-.4-1.1-1.3-1.1s-1.1.2-1.6.6l-.5-.8c.8-.4,1.3-.7,2.3-.7s2.2.7,2.2,1.9v3.6s-1.1,0-1.1,0Zm0-1.9v-.5h-1.5c-.8,0-1.1.2-1.1.7s.4.8,1.1.8,1.5-.4,1.5-1Z"/>
    <path class="cls-2" d="m51,10.2v7.6h-1.2v-7.6h1.2Z"/>
    <path class="cls-2" d="m55,10.6l-1.2,1h-1l1.1-1.5,1.2.5Zm-1,1.8v5.4h-1.2v-5.4h1.2Z"/>
    <path class="cls-2" d="m55.3,17.8v-.8l3.1-3.7h-3v-1h4.5v.8l-3.1,3.7h3.2v1h-4.6Z"/>
    <path class="cls-2" d="m64.4,17.8v-.7c-.4.5-1,.7-1.8.7-1.2,0-1.9-.7-1.9-1.7s.7-1.6,2.1-1.6h1.6v-.2c0-.7-.4-1.1-1.3-1.1s-1.1.2-1.6.6l-.5-.8c.8-.4,1.3-.7,2.3-.7s2.2.7,2.2,1.9v3.6s-1.1,0-1.1,0Zm0-1.9v-.5h-1.5c-.8,0-1.1.2-1.1.7s.4.8,1.1.8,1.5-.4,1.5-1Z"/>
    <path class="cls-2" d="m70.2,17.5c-.4.3-.9.4-1.3.4-.8,0-1.5-.5-1.5-1.6v-2.8h-.8v-.9h.8v-1.5h1.2v1.5h1.6v.9h-1.6v2.6c0,.6.2.7.6.7s.5,0,.8-.2l.3.9Z"/>
    <path class="cls-2" d="m76,15.5h-4.1c.2.8.8,1.4,1.7,1.4s1.1-.2,1.5-.6l.6.7c-.5.6-1.3.9-2.2.9-1.7,0-2.8-1.1-2.8-2.7s1.1-2.8,2.7-2.8c1.9,0,2.7,1.2,2.5,3.2Zm-1-.9c0-.9-.6-1.4-1.5-1.4s-1.5.5-1.6,1.4h3.1Z"/>
  </g>
</svg>