<?xml version="1.0" encoding="utf-8"?>
<!-- Generator: Adobe Illustrator 28.0.0, SVG Export Plug-In . SVG Version: 6.00 Build 0)  -->
<svg version="1.1" id="Capa_1" xmlns="http://www.w3.org/2000/svg" xmlns:xlink="http://www.w3.org/1999/xlink" x="0px" y="0px"
	 viewBox="0 0 170 50" style="enable-background:new 0 0 170 50;" xml:space="preserve">
<style type="text/css">
	.st0{fill:none;}
	.st1{fill:#FFFFFF;}
	.st2{fill:#70C9F3;}
	.st3{fill:url(#SVGID_1_);}
	.st4{fill:url(#SVGID_00000033356207519007440650000012273460412943424422_);}
	.st5{fill:url(#SVGID_00000131358201746699924370000002313237562598521762_);}
</style>
<g>
	<path class="st0" d="M0,0h170v50H0V0z"/>
	<path d="M162.6,50H7.4C3.3,50,0,46.7,0,42.6V7.4C0,3.3,3.3,0,7.4,0h155.2c4.1,0,7.4,3.3,7.4,7.4v35.2C170,46.7,166.7,50,162.6,50z"
		/>
	<g>
		<path class="st1" d="M85.4,20.2c-3,0-5.4,2.3-5.4,5.4c0,3.1,2.4,5.4,5.4,5.4c3,0,5.4-2.3,5.4-5.4C90.8,22.4,88.4,20.2,85.4,20.2z
			 M85.4,28.8c-1.6,0-3-1.3-3-3.3c0-1.9,1.4-3.3,3-3.3c1.6,0,3,1.3,3,3.3C88.4,27.5,87,28.8,85.4,28.8z M73.6,20.2
			c-3,0-5.4,2.3-5.4,5.4c0,3.1,2.4,5.4,5.4,5.4c3,0,5.4-2.3,5.4-5.4C79,22.4,76.6,20.2,73.6,20.2z M73.6,28.8c-1.6,0-3-1.3-3-3.3
			c0-1.9,1.4-3.3,3-3.3c1.6,0,3,1.3,3,3.3C76.6,27.5,75.2,28.8,73.6,28.8z M59.6,21.8v2.3h5.5c-0.2,1.3-0.6,2.2-1.2,2.9
			c-0.8,0.8-2,1.7-4.2,1.7c-3.4,0-6-2.7-6-6.1s2.6-6.1,6-6.1c1.8,0,3.1,0.7,4.1,1.6l1.6-1.6c-1.4-1.3-3.2-2.3-5.7-2.3
			c-4.6,0-8.5,3.7-8.5,8.4c0,4.6,3.9,8.4,8.5,8.4c2.5,0,4.4-0.8,5.8-2.3c1.5-1.5,2-3.6,2-5.3c0-0.5,0-1-0.1-1.4H59.6z M116.9,23.6
			c-0.4-1.2-1.8-3.4-4.6-3.4c-2.8,0-5.1,2.2-5.1,5.4c0,3,2.3,5.4,5.3,5.4c2.5,0,3.9-1.5,4.5-2.4l-1.8-1.2c-0.6,0.9-1.4,1.5-2.6,1.5
			c-1.2,0-2.1-0.6-2.6-1.6l7.2-3L116.9,23.6z M109.6,25.4c-0.1-2.1,1.6-3.1,2.8-3.1c0.9,0,1.7,0.5,2,1.1L109.6,25.4z M103.7,30.6
			h2.4V14.8h-2.4V30.6z M99.8,21.4L99.8,21.4c-0.6-0.6-1.6-1.2-2.9-1.2c-2.7,0-5.2,2.4-5.2,5.4c0,3,2.5,5.4,5.2,5.4
			c1.3,0,2.3-0.6,2.8-1.2h0.1v0.8c0,2.1-1.1,3.2-2.9,3.2c-1.4,0-2.3-1-2.7-1.9l-2.1,0.9c0.6,1.4,2.2,3.2,4.8,3.2
			c2.8,0,5.1-1.6,5.1-5.6v-9.7h-2.2V21.4z M97.1,28.8c-1.6,0-3-1.4-3-3.2c0-1.9,1.4-3.3,3-3.3c1.6,0,2.9,1.4,2.9,3.3
			C100,27.5,98.7,28.8,97.1,28.8z M128,14.8h-5.7v15.8h2.4v-6h3.3c2.6,0,5.2-1.9,5.2-4.9S130.6,14.8,128,14.8z M128,22.4h-3.4V17
			h3.4c1.8,0,2.8,1.5,2.8,2.7C130.8,20.9,129.8,22.4,128,22.4z M142.6,20.2c-1.7,0-3.5,0.8-4.2,2.4l2.1,0.9c0.4-0.9,1.3-1.2,2.2-1.2
			c1.2,0,2.5,0.7,2.5,2v0.2c-0.4-0.2-1.3-0.6-2.5-0.6c-2.3,0-4.6,1.2-4.6,3.6c0,2.1,1.9,3.5,3.9,3.5c1.6,0,2.5-0.7,3-1.5h0.1v1.2
			h2.3v-6.1C147.4,21.7,145.3,20.2,142.6,20.2z M142.3,28.8c-0.8,0-1.9-0.4-1.9-1.3c0-1.2,1.3-1.7,2.5-1.7c1,0,1.5,0.2,2.2,0.5
			C144.9,27.8,143.7,28.8,142.3,28.8z M155.7,20.5l-2.7,6.9h-0.1l-2.8-6.9h-2.5l4.2,9.6l-2.4,5.3h2.5l6.5-14.9H155.7z M134.5,30.6
			h2.4V14.8h-2.4V30.6z"/>
		<g>
			<path class="st2" d="M12.3,9.3c-0.4,0.4-0.6,1-0.6,1.8V39c0,0.8,0.2,1.4,0.6,1.8l0.1,0.1L28,25.2V25v-0.2L12.3,9.3L12.3,9.3z"/>
			<linearGradient id="SVGID_1_" gradientUnits="userSpaceOnUse" x1="38.3711" y1="25.0004" x2="7.7975" y2="25.0004">
				<stop  offset="0" style="stop-color:#FFE000"/>
				<stop  offset="0.1941" style="stop-color:#FED000"/>
				<stop  offset="0.5469" style="stop-color:#F9B400"/>
				<stop  offset="0.8279" style="stop-color:#F6A200"/>
				<stop  offset="1" style="stop-color:#F59B00"/>
			</linearGradient>
			<path class="st3" d="M33.2,30.4L28,25.2V25v-0.2l5.2-5.2l0.1,0.1l6.2,3.5c1.8,1,1.8,2.6,0,3.6l-6.2,3.5L33.2,30.4z"/>
			
				<linearGradient id="SVGID_00000114062351076341762330000010577288639573578400_" gradientUnits="userSpaceOnUse" x1="30.4368" y1="27.8999" x2="1.681" y2="56.6557">
				<stop  offset="0" style="stop-color:#E7383D"/>
				<stop  offset="1" style="stop-color:#C81166"/>
			</linearGradient>
			<path style="fill:url(#SVGID_00000114062351076341762330000010577288639573578400_);" d="M33.3,30.3L28,25L12.3,40.7
				c0.6,0.6,1.5,0.7,2.6,0.1L33.3,30.3"/>
			
				<linearGradient id="SVGID_00000171679889915239721290000000526188582089520826_" gradientUnits="userSpaceOnUse" x1="1.5528" y1="-6.784" x2="25.0313" y2="16.6944">
				<stop  offset="0" style="stop-color:#229966"/>
				<stop  offset="0.3168" style="stop-color:#4EA663"/>
				<stop  offset="0.7398" style="stop-color:#70B65D"/>
				<stop  offset="1" style="stop-color:#7CBC5B"/>
			</linearGradient>
			<path style="fill:url(#SVGID_00000171679889915239721290000000526188582089520826_);" d="M33.3,19.7L14.9,9.2
				c-1.1-0.6-2-0.5-2.6,0.1L28,25L33.3,19.7z"/>
		</g>
	</g>
</g>
</svg>
