<?xml version="1.0" encoding="utf-8"?>
<!-- Generator: Adobe Illustrator 28.0.0, SVG Export Plug-In . SVG Version: 6.00 Build 0)  -->
<svg version="1.1" id="Capa_1" xmlns="http://www.w3.org/2000/svg" xmlns:xlink="http://www.w3.org/1999/xlink" x="0px" y="0px"
	 viewBox="0 0 176 48" style="enable-background:new 0 0 176 48;" xml:space="preserve">
<style type="text/css">
	.st0{fill:#CD1428;}
	.st1{fill:#03684A;}
</style>
<g>
	<g>
		<g>
			<path class="st0" d="M47.5,29.1c0-0.5,0-1.1-0.1-1.6c-0.1-0.6-0.3-1.1-0.5-1.6c0.1-0.2,0.2-0.5,0.3-0.8s0.1-0.6,0.2-0.9
				s0.1-0.6,0.1-0.9c0-0.3,0-0.6,0-0.8v-5.1c0-0.3-0.1-0.6-0.4-0.8c-0.3-0.2-0.5-0.4-0.8-0.5h3.3l4.6,11.3l4.3-11.3h3.8
				c-0.3,0.1-0.6,0.3-0.8,0.5c-0.3,0.3-0.4,0.6-0.4,0.9v4.8c0,0.3,0,0.5,0,0.9c0,0.3,0.1,0.6,0.1,1c0,0.3,0.1,0.6,0.2,0.9
				c0.1,0.3,0.2,0.6,0.3,0.8c-0.3,0.6-0.5,1.2-0.5,1.9c0,0.7-0.1,1.3-0.1,2c0,0.2,0.1,0.4,0.3,0.6s0.6,0.4,1.2,0.7h-5.9
				c0.5-0.2,0.9-0.5,1.2-0.7c0.3-0.2,0.4-0.5,0.4-0.8c0-0.6,0-1.2-0.1-1.9c-0.1-0.7-0.2-1.3-0.5-1.8c0.1-0.2,0.2-0.4,0.3-0.7
				c0.1-0.3,0.1-0.5,0.2-0.8c0-0.3,0.1-0.6,0.1-0.9c0-0.3,0-0.6,0-0.8v-3.3L53.9,31h-1.2l-4.2-10.3v1.9c0,0.3,0,0.5,0,0.8
				s0.1,0.6,0.1,0.9c0,0.3,0.1,0.6,0.2,0.9c0.1,0.3,0.2,0.5,0.3,0.7c-0.3,0.5-0.4,1-0.5,1.6c-0.1,0.6-0.1,1.1-0.1,1.6
				c0,0.3,0.1,0.6,0.2,0.8c0.1,0.2,0.3,0.4,0.4,0.5c0.2,0.1,0.3,0.3,0.5,0.3c0.2,0.1,0.3,0.2,0.4,0.2h-4.1c0.3-0.1,0.5-0.3,0.7-0.4
				c0.2-0.1,0.4-0.3,0.5-0.4c0.1-0.1,0.2-0.3,0.3-0.5C47.4,29.6,47.5,29.3,47.5,29.1z M48,28.9c0-0.5,0.1-1,0.1-1.5
				c0.1-0.5,0.1-1,0.3-1.5c-0.1-0.6-0.2-1.2-0.3-1.7c0-0.6-0.1-1.2-0.1-1.7c0,0.6-0.1,1.2-0.1,1.8c0,0.6-0.1,1.2-0.3,1.7
				c0.1,0.5,0.2,1,0.3,1.5C47.9,27.9,48,28.4,48,28.9z M59.1,26.1c0.2,0.6,0.3,1.3,0.3,1.9c0,0.6,0.1,1.3,0.2,1.9
				c0.1-0.6,0.2-1.3,0.2-1.9c0-0.6,0.1-1.3,0.2-1.9c0-0.3-0.1-0.6-0.1-1c0-0.4-0.1-0.8-0.1-1.2c0-0.4-0.1-0.8-0.1-1.3
				c0-0.4-0.1-0.8-0.1-1.2s-0.1-0.7-0.1-1c0-0.3,0-0.5,0-0.7c-0.1,1-0.1,2-0.2,3.2C59.3,24,59.2,25.1,59.1,26.1z"/>
			<path class="st0" d="M63.9,31c0.5-0.2,0.9-0.5,1.2-0.7s0.4-0.5,0.4-0.8c0-0.6,0-1.3-0.1-2c-0.1-0.7-0.2-1.3-0.5-1.9
				c0.1-0.2,0.2-0.5,0.3-0.9c0.1-0.3,0.1-0.7,0.2-1.1c0-0.4,0.1-0.7,0.1-1.1c0-0.4,0-0.7,0-0.9c0-0.2-0.1-0.4-0.1-0.5
				c-0.1-0.1-0.2-0.2-0.4-0.3c-0.1-0.1-0.3-0.2-0.5-0.3c-0.2-0.1-0.4-0.2-0.5-0.3h5.7c-0.1,0-0.2,0-0.3,0.1
				c-0.1,0.1-0.3,0.1-0.4,0.2c-0.2,0.1-0.3,0.2-0.4,0.4c-0.1,0.2-0.2,0.4-0.2,0.6c0,0.3,0,0.6,0,0.9c0,0.4,0,0.7,0.1,1.1
				c0.1,0.4,0.1,0.7,0.2,1.1c0.1,0.3,0.2,0.6,0.3,0.9c-0.3,0.6-0.5,1.3-0.6,2c0,0.7-0.1,1.4-0.1,2.1c0,0.2,0.1,0.4,0.4,0.6
				c0.2,0.2,0.6,0.4,1.1,0.7H63.9z M66.9,17.1c0.4,0,0.7,0.1,0.9,0.4c0.3,0.3,0.4,0.6,0.4,1c0,0.4-0.1,0.7-0.4,1
				c-0.3,0.3-0.6,0.4-0.9,0.4c-0.4,0-0.7-0.1-0.9-0.4c-0.3-0.3-0.4-0.6-0.4-1c0-0.4,0.1-0.7,0.4-1S66.6,17.1,66.9,17.1z M66.8,29.7
				c0-0.3,0-0.6,0.1-0.9c0-0.3,0.1-0.7,0.1-1.1c0-0.4,0.1-0.7,0.1-1.1c0-0.3,0.1-0.7,0.2-0.9c-0.1-0.6-0.2-1.1-0.3-1.7
				c0-0.6-0.1-1.2-0.1-1.8c0,0.6-0.1,1.2-0.1,1.8c0,0.6-0.1,1.2-0.3,1.7c0.1,0.3,0.1,0.6,0.2,0.9s0.1,0.7,0.1,1.1
				c0,0.4,0.1,0.7,0.1,1.1C66.8,29.1,66.8,29.4,66.8,29.7z"/>
			<path class="st0" d="M78.6,29.5c0-0.6,0-1.2-0.1-1.9c-0.1-0.6-0.2-1.2-0.5-1.7c0.1-0.2,0.2-0.5,0.3-0.7c0.1-0.3,0.1-0.6,0.2-0.9
				c0-0.3,0.1-0.6,0.1-0.9c0-0.3,0-0.6,0-0.8v-5.1c0-0.3-0.2-0.6-0.4-0.8c-0.3-0.2-0.5-0.4-0.8-0.5h1.2c0.6,0,1.3,0,2-0.1
				c0.8-0.1,1.5-0.1,2.3-0.1c0.7,0,1.5,0.1,2.2,0.1c0.7,0.1,1.3,0.3,1.8,0.6c0.5,0.3,1,0.7,1.3,1.3c0.3,0.6,0.5,1.3,0.4,2.2
				c0,0.7-0.2,1.2-0.5,1.7c-0.3,0.5-0.7,0.8-1.2,1.1c-0.5,0.3-1,0.5-1.6,0.6c-0.6,0.1-1.1,0.2-1.7,0.2c-0.5,0-0.9,0-1.3-0.1
				c-0.4-0.1-0.7-0.2-0.9-0.3c0,0.5,0.1,0.9,0.2,1.4c0.1,0.5,0.2,0.9,0.4,1.2c-0.2,0.3-0.3,0.6-0.4,0.9c-0.1,0.3-0.1,0.6-0.2,1
				c0,0.3-0.1,0.7-0.1,1c0,0.3,0,0.7,0,1c0,0.2,0.2,0.4,0.4,0.6c0.2,0.2,0.6,0.4,1.1,0.7H77c0.5-0.2,0.9-0.5,1.2-0.7
				C78.4,30.1,78.6,29.8,78.6,29.5z M79.9,29.5c0.1-0.7,0.1-1.4,0.2-2.1c0.1-0.6,0.2-1.2,0.3-1.7c-0.1-0.5-0.1-1.1-0.2-1.7
				c-0.1-0.6-0.1-1.3-0.1-1.9c0-0.6-0.1-1.2-0.1-1.7c0-0.5,0-0.9-0.1-1.1c-0.1,1-0.1,2-0.2,3.2c-0.1,1.1-0.2,2.2-0.3,3.2
				c0.2,0.6,0.3,1.3,0.3,1.9C79.8,28.2,79.9,28.8,79.9,29.5z M81.4,22.8c0.5,0,1,0,1.5-0.1c0.5-0.1,0.9-0.2,1.3-0.4
				c0.4-0.2,0.7-0.4,1-0.8c0.3-0.3,0.4-0.8,0.4-1.3c0.1-0.8,0-1.4-0.3-1.9c-0.3-0.4-0.6-0.8-1-1c-0.4-0.2-0.9-0.3-1.4-0.4
				s-1,0-1.5,0.1c0,0.6,0,1.1,0,1.6c0,0.5,0,0.9,0,1.4c0,0.4,0,0.9,0,1.3C81.3,21.8,81.3,22.3,81.4,22.8z"/>
			<path class="st0" d="M90,28.3c0-0.6,0.2-1.1,0.5-1.4c0.3-0.4,0.7-0.7,1.1-0.9c0.4-0.2,0.8-0.4,1.2-0.5c0.4-0.1,0.7-0.2,0.9-0.2
				c0.7-0.1,1.3-0.3,1.6-0.5c0.4-0.2,0.6-0.5,0.8-0.8c0.1-0.3,0.2-0.6,0.1-0.9c-0.1-0.3-0.2-0.6-0.3-0.9c-0.2-0.3-0.4-0.5-0.6-0.7
				c-0.2-0.2-0.5-0.3-0.7-0.4c-0.3,0-0.6,0-0.8,0c-0.3,0.1-0.5,0.1-0.7,0.3c-0.2,0.1-0.3,0.3-0.4,0.5c-0.1,0.2-0.1,0.4,0,0.5
				c0.1,0.4,0.2,0.7,0.2,1c0,0.3-0.1,0.5-0.2,0.7c-0.1,0.2-0.2,0.4-0.4,0.5c-0.2,0.1-0.4,0.2-0.6,0.2c-0.1,0-0.3,0-0.4,0
				c-0.2,0-0.4-0.1-0.5-0.2c-0.2-0.1-0.3-0.3-0.4-0.5c-0.1-0.2-0.2-0.5-0.2-0.8c0-0.6,0.1-1.1,0.4-1.5c0.3-0.4,0.6-0.7,1.1-1
				c0.4-0.2,0.9-0.4,1.5-0.5c0.5-0.1,1.1-0.1,1.6-0.1c1.1,0,2.1,0.3,2.8,0.9c0.8,0.6,1.3,1.3,1.5,2.3c0.1,0.4,0.2,0.8,0.3,1.2
				c0.1,0.4,0.2,0.8,0.4,1.1c-0.1,0.3-0.3,0.7-0.4,1.2s-0.2,1-0.3,1.5c0,0.5,0,0.9,0.2,1.3c0.2,0.4,0.5,0.5,1,0.5l0,0.8
				c-0.4,0-0.8,0-1.3,0.1c-0.3,0.1-0.7,0.1-1.1,0.2c-0.4,0.1-0.7,0.3-1,0.5l-0.6-0.8V30v-0.2c-0.4,0.5-0.9,0.9-1.6,1.2
				c-0.6,0.3-1.3,0.4-1.9,0.4c-0.4,0-0.8-0.1-1.2-0.2c-0.4-0.1-0.7-0.3-1-0.6c-0.3-0.3-0.5-0.6-0.6-1C90,29.3,90,28.8,90,28.3z
				 M96.3,27.7c0-0.3-0.1-0.6-0.2-1c-0.1-0.3-0.2-0.6-0.4-0.9c0-0.1,0.1-0.2,0.1-0.3c0-0.1,0.1-0.2,0.1-0.3
				c-0.3,0.2-0.6,0.4-0.9,0.6c-0.4,0.2-0.7,0.4-1,0.7c-0.3,0.2-0.6,0.5-0.8,0.8c-0.2,0.3-0.4,0.6-0.4,1c0,0.5,0.1,0.9,0.4,1.2
				c0.3,0.3,0.6,0.4,1,0.4c0.2,0,0.5,0,0.7-0.2c0.2-0.1,0.5-0.2,0.7-0.4c0.2-0.2,0.3-0.4,0.5-0.7C96.3,28.4,96.3,28.1,96.3,27.7z
				 M97.3,22.3c0.4,1.1,0.4,2.3,0,3.4c0.1,0.5,0.2,1,0.3,1.5c0.1,0.5,0.1,1,0.1,1.5c0-0.5,0.1-1,0.1-1.5c0.1-0.5,0.2-1,0.3-1.5
				c-0.1-0.3-0.1-0.6-0.2-0.9c-0.1-0.3-0.1-0.6-0.1-0.8c0-0.3-0.1-0.6-0.2-0.8S97.4,22.6,97.3,22.3z"/>
			<path class="st0" d="M101.6,31c0.5-0.2,0.9-0.5,1.2-0.7c0.3-0.2,0.4-0.5,0.4-0.8c0-0.6,0-1.3-0.1-2c-0.1-0.7-0.2-1.3-0.5-1.9
				c0.1-0.2,0.2-0.5,0.3-0.9c0.1-0.3,0.1-0.7,0.2-1.1c0-0.4,0.1-0.7,0.1-1.1c0-0.4,0-0.7,0-0.9c0-0.2-0.1-0.4-0.1-0.5
				c-0.1-0.1-0.2-0.2-0.4-0.3c-0.1-0.1-0.3-0.2-0.5-0.3c-0.2-0.1-0.4-0.2-0.5-0.3h5.7c-0.1,0-0.2,0-0.3,0.1
				c-0.1,0.1-0.3,0.1-0.4,0.2s-0.3,0.2-0.4,0.4c-0.1,0.2-0.2,0.4-0.2,0.6c0,0.3,0,0.6,0,0.9c0,0.4,0,0.7,0.1,1.1
				c0.1,0.4,0.1,0.7,0.2,1.1c0.1,0.3,0.2,0.6,0.3,0.9c-0.3,0.6-0.5,1.3-0.6,2c0,0.7-0.1,1.4-0.1,2.1c0,0.2,0.1,0.4,0.4,0.6
				c0.2,0.2,0.6,0.4,1.1,0.7H101.6z M104.7,17.1c0.4,0,0.7,0.1,0.9,0.4c0.3,0.3,0.4,0.6,0.4,1c0,0.4-0.1,0.7-0.4,1
				c-0.3,0.3-0.6,0.4-0.9,0.4c-0.4,0-0.7-0.1-0.9-0.4c-0.3-0.3-0.4-0.6-0.4-1c0-0.4,0.1-0.7,0.4-1S104.3,17.1,104.7,17.1z
				 M104.6,29.7c0-0.3,0-0.6,0.1-0.9c0-0.3,0.1-0.7,0.1-1.1c0-0.4,0.1-0.7,0.1-1.1c0-0.3,0.1-0.7,0.2-0.9c-0.1-0.6-0.2-1.1-0.3-1.7
				c0-0.6-0.1-1.2-0.1-1.8c0,0.6-0.1,1.2-0.1,1.8c0,0.6-0.1,1.2-0.3,1.7c0.1,0.3,0.1,0.6,0.2,0.9c0,0.4,0.1,0.7,0.1,1.1
				c0,0.4,0.1,0.7,0.1,1.1C104.5,29.1,104.5,29.4,104.6,29.7z"/>
			<path class="st0" d="M110.7,27c0.3,0.2,0.4,0.4,0.4,0.6c0,0.2,0,0.4-0.2,0.6c-0.3,0.3-0.4,0.6-0.4,0.9c0,0.3,0.1,0.6,0.3,0.8
				c0.2,0.2,0.4,0.4,0.8,0.6c0.3,0.2,0.7,0.2,1.1,0.3c0.3,0,0.7-0.1,1-0.2c0.3-0.1,0.6-0.3,0.9-0.6c0.2-0.2,0.4-0.5,0.5-0.8
				c0.1-0.3,0.1-0.6,0-0.9c-0.1-0.3-0.4-0.6-0.8-0.8c-0.4-0.2-1-0.4-1.7-0.6c0.1-0.3,0-0.5-0.1-0.7c-0.1-0.2-0.3-0.4-0.5-0.6
				c-0.2-0.2-0.5-0.4-0.8-0.6c-0.3-0.2-0.6-0.4-0.8-0.7s-0.5-0.5-0.6-0.9c-0.2-0.3-0.3-0.7-0.3-1.2c0-0.8,0.2-1.5,0.7-1.9
				s1.2-0.7,2.1-0.7c0.5,0,1,0.1,1.4,0.2c0.1,0,0.3,0.1,0.5,0.1c0.2,0,0.5,0,0.8,0c0.3,0,0.6,0,0.8-0.1c0.2-0.1,0.4-0.2,0.6-0.3
				c0,0.2,0,0.4,0.1,0.7c0.1,0.3,0.1,0.6,0.2,0.9c0,0.3,0.1,0.6,0,0.8c0,0.2-0.1,0.4-0.3,0.5c-0.2,0.1-0.4,0.2-0.5,0.4
				c-0.1,0.2-0.2,0.4-0.2,0.5c0,0.2,0,0.3,0.1,0.4c0.1,0.1,0.2,0.1,0.4,0c0.1-0.1,0.2-0.1,0.4,0c0.1,0.1,0.2,0.2,0.2,0.4
				c0,0.2-0.1,0.3-0.3,0.4c-0.2,0.1-0.3,0.1-0.5,0.1c-0.4,0-0.6-0.1-0.8-0.3c-0.1-0.2-0.2-0.4-0.2-0.6c0-0.2,0-0.5,0-0.8
				c0-0.3,0.1-0.6,0.1-0.8c0-0.3-0.1-0.5-0.2-0.7s-0.3-0.4-0.7-0.6c-0.4-0.2-0.8-0.3-1.1-0.3c-0.3,0-0.6,0.1-0.8,0.2
				c-0.2,0.1-0.4,0.3-0.4,0.5c-0.1,0.2-0.1,0.5-0.1,0.7c0,0.3,0.2,0.6,0.3,0.8c0.2,0.3,0.5,0.6,0.9,0.9c0.4,0.3,0.7,0.6,1.2,0.8
				c0.4,0.2,0.8,0.4,1.2,0.5s0.8,0.2,1.2,0.1c0.1,0.3,0.2,0.5,0.4,0.7c0.2,0.2,0.3,0.4,0.5,0.6c0.2,0.2,0.3,0.4,0.4,0.7
				c0.1,0.3,0.2,0.6,0.2,1c0,0.6-0.2,1.2-0.5,1.7c-0.3,0.5-0.7,0.9-1.1,1.2c-0.4,0.3-0.9,0.6-1.4,0.7c-0.5,0.2-1,0.2-1.4,0.3
				c-0.5,0-1,0-1.6-0.2s-1-0.3-1.4-0.6c-0.4-0.3-0.8-0.6-1.1-1s-0.5-0.9-0.5-1.4c0-0.4,0-0.6,0-0.9c0-0.2,0.1-0.4,0.2-0.5
				c0.1-0.1,0.2-0.2,0.4-0.3c0.1-0.1,0.3-0.1,0.4-0.1C110.2,26.8,110.5,26.8,110.7,27z M112.4,24.4c0.2,0.2,0.4,0.4,0.7,0.6
				c0.2,0.2,0.5,0.4,0.7,0.5c0.2,0.2,0.5,0.4,0.7,0.6c0.2,0.2,0.4,0.4,0.5,0.7c0.2,0.1,0.4,0.4,0.6,0.6c0.1,0.3,0.2,0.6,0.3,0.9
				c0,0.3,0.1,0.6,0,1c0,0.3-0.1,0.6-0.1,0.8c0.2-0.2,0.3-0.5,0.4-0.9c0.1-0.4,0.1-0.7,0-1.1c0-0.4-0.1-0.7-0.2-1.1
				c-0.1-0.3-0.2-0.6-0.4-0.8c-0.5-0.3-1-0.6-1.6-0.8C113.4,25.1,112.9,24.8,112.4,24.4z"/>
			<path class="st0" d="M119.9,28.3c0-0.6,0.2-1.1,0.5-1.4c0.3-0.4,0.7-0.7,1.1-0.9c0.4-0.2,0.8-0.4,1.2-0.5
				c0.4-0.1,0.7-0.2,0.9-0.2c0.7-0.1,1.3-0.3,1.6-0.5c0.4-0.2,0.6-0.5,0.8-0.8c0.1-0.3,0.2-0.6,0.1-0.9c-0.1-0.3-0.2-0.6-0.3-0.9
				c-0.2-0.3-0.4-0.5-0.6-0.7c-0.2-0.2-0.5-0.3-0.7-0.4c-0.3,0-0.6,0-0.8,0c-0.3,0.1-0.5,0.1-0.7,0.3c-0.2,0.1-0.3,0.3-0.4,0.5
				c-0.1,0.2-0.1,0.4,0,0.5c0.1,0.4,0.2,0.7,0.2,1c0,0.3-0.1,0.5-0.2,0.7c-0.1,0.2-0.2,0.4-0.4,0.5c-0.2,0.1-0.4,0.2-0.6,0.2
				c-0.1,0-0.3,0-0.4,0c-0.2,0-0.4-0.1-0.5-0.2c-0.2-0.1-0.3-0.3-0.4-0.5c-0.1-0.2-0.2-0.5-0.2-0.8c0-0.6,0.1-1.1,0.4-1.5
				c0.3-0.4,0.6-0.7,1.1-1c0.4-0.2,0.9-0.4,1.5-0.5c0.5-0.1,1.1-0.1,1.6-0.1c1.1,0,2.1,0.3,2.8,0.9c0.8,0.6,1.3,1.3,1.5,2.3
				c0.1,0.4,0.2,0.8,0.3,1.2c0.1,0.4,0.2,0.8,0.4,1.1c-0.1,0.3-0.3,0.7-0.4,1.2s-0.2,1-0.3,1.5c0,0.5,0,0.9,0.2,1.3
				c0.2,0.4,0.5,0.5,1,0.5l0,0.8c-0.4,0-0.8,0-1.3,0.1c-0.3,0.1-0.7,0.1-1.1,0.2c-0.4,0.1-0.7,0.3-1,0.5l-0.6-0.8V30v-0.2
				c-0.4,0.5-0.9,0.9-1.6,1.2c-0.6,0.3-1.3,0.4-1.9,0.4c-0.4,0-0.8-0.1-1.2-0.2c-0.4-0.1-0.7-0.3-1-0.6c-0.3-0.3-0.5-0.6-0.6-1
				C119.9,29.3,119.9,28.8,119.9,28.3z M126.2,27.7c0-0.3-0.1-0.6-0.2-1c-0.1-0.3-0.2-0.6-0.4-0.9c0-0.1,0.1-0.2,0.1-0.3
				c0-0.1,0.1-0.2,0.1-0.3c-0.3,0.2-0.6,0.4-0.9,0.6c-0.4,0.2-0.7,0.4-1,0.7c-0.3,0.2-0.6,0.5-0.8,0.8c-0.2,0.3-0.4,0.6-0.4,1
				c0,0.5,0.1,0.9,0.4,1.2c0.3,0.3,0.6,0.4,1,0.4c0.2,0,0.5,0,0.7-0.2c0.2-0.1,0.5-0.2,0.7-0.4c0.2-0.2,0.3-0.4,0.5-0.7
				C126.2,28.4,126.2,28.1,126.2,27.7z M127.1,22.3c0.4,1.1,0.4,2.3,0,3.4c0.1,0.5,0.2,1,0.3,1.5c0.1,0.5,0.1,1,0.1,1.5
				c0-0.5,0.1-1,0.1-1.5c0.1-0.5,0.2-1,0.3-1.5c-0.1-0.3-0.1-0.6-0.2-0.9c-0.1-0.3-0.1-0.6-0.1-0.8c0-0.3-0.1-0.6-0.2-0.8
				S127.3,22.6,127.1,22.3z"/>
		</g>
		<g>
			<g>
				<path class="st1" d="M147,26.2c-0.1,0.2-0.3,0.3-0.5,0.3c-0.1,0-0.2,0-0.3-0.1l-3.1-1.7v3.5c0,0.3-0.2,0.5-0.5,0.5
					c-0.3,0-0.5-0.2-0.5-0.5v-3.5l-3.1,1.7c-0.1,0-0.2,0.1-0.3,0.1c-0.2,0-0.4-0.1-0.5-0.3c-0.1-0.3,0-0.6,0.2-0.7l3-1.6l-3-1.6
					c-0.3-0.1-0.4-0.5-0.2-0.7c0.1-0.3,0.5-0.4,0.7-0.2l3.1,1.7v-3.5c0-0.3,0.2-0.5,0.5-0.5c0.3,0,0.5,0.2,0.5,0.5V23l3.1-1.7
					c0.3-0.1,0.6,0,0.7,0.2c0.1,0.3,0,0.6-0.2,0.7l-3,1.6l3,1.6C147.1,25.6,147.2,26,147,26.2z"/>
			</g>
		</g>
		<g>
			<g>
				<path class="st1" d="M37.7,26.2c-0.1,0.2-0.3,0.3-0.5,0.3c-0.1,0-0.2,0-0.3-0.1l-3.1-1.7v3.5c0,0.3-0.2,0.5-0.5,0.5
					c-0.3,0-0.5-0.2-0.5-0.5v-3.5l-3.1,1.7c-0.1,0-0.2,0.1-0.3,0.1c-0.2,0-0.4-0.1-0.5-0.3c-0.1-0.3,0-0.6,0.2-0.7l3-1.6l-3-1.6
					c-0.3-0.1-0.4-0.5-0.2-0.7c0.1-0.3,0.5-0.4,0.7-0.2l3.1,1.7v-3.5c0-0.3,0.2-0.5,0.5-0.5c0.3,0,0.5,0.2,0.5,0.5V23l3.1-1.7
					c0.3-0.1,0.6,0,0.7,0.2c0.1,0.3,0,0.6-0.2,0.7l-3,1.6l3,1.6C37.7,25.6,37.8,26,37.7,26.2z"/>
			</g>
		</g>
	</g>
	<g>
		<path class="st1" d="M145.3,42.5H30.7c-4.2,0-7.6-2.9-7.6-6.5V12c0-3.6,3.4-6.5,7.6-6.5h114.5c4.2,0,7.6,2.9,7.6,6.5V36
			C152.9,39.6,149.5,42.5,145.3,42.5z M30.7,7.2C27.6,7.2,25,9.3,25,12V36c0,2.7,2.6,4.9,5.7,4.9h114.5c3.2,0,5.7-2.2,5.7-4.9V12
			c0-2.7-2.6-4.9-5.7-4.9H30.7z"/>
	</g>
</g>
</svg>
