<svg width="4096" height="1374" fill="none" xmlns="http://www.w3.org/2000/svg"><path d="M528 1257.08c-12.952-2.79-21.686-5.63-30.666-9.97-27.844-13.48-52.599-39.02-69.159-71.34-83.504-194.712-108.944-459.752-190.816-684.548-6.629-18.202-17.93-36.014-29.284-47.154-14.807-14.529-38.765-27.701-67.379-37.045-11.327-3.699-22.299-13.514-27.699-24.777-1.718-3.583-3.688-10.204-4.612-15.5-5.414-31.023 9.045-63.458 38.115-85.499 18.524-14.045 50.514-22.929 72.66-20.177 15.077 1.873 36.111 10.178 51.968 20.518 17.602 11.478 38.468 30.592 52.304 47.912 3.076 3.85 6.018 7.524 6.539 8.164.521.64 4.07 5.815 7.888 11.5 15.614 23.255 39.419 68.122 51.514 112.632 71.922 264.67 122.994 500.814 181.19 744.884 4.09 17.16 7.427 32.68 7.415 34.5-.012 1.83-.575 5.25-1.895 7.45-1.793 2.97-4.597 5.49-7.728 7-5.737 2.76-12.493 2.8-18.855 3.07-7.18.31-15.315-.3-21.5-1.62Z" fill="#049667"/><path d="M528 1257.08c-12.952-2.79-21.686-5.63-30.666-9.97-27.844-13.48-52.599-39.02-69.159-71.34-83.504-194.712-108.944-459.752-190.816-684.548-6.629-18.202-17.93-36.014-29.284-47.154-14.807-14.529-38.765-27.701-67.379-37.045-11.327-3.699-22.299-13.514-27.699-24.777-1.718-3.583-3.688-10.204-4.612-15.5-5.414-31.023 9.045-63.458 38.115-85.499 18.524-14.045 50.514-22.929 72.66-20.177 15.077 1.873 36.111 10.178 51.968 20.518 17.602 11.478 38.468 30.592 52.304 47.912 3.076 3.85 6.018 7.524 6.539 8.164.521.64 4.07 5.815 7.888 11.5 15.614 23.255 39.419 68.122 51.514 112.632 71.922 264.67 122.994 500.814 181.19 744.884 4.09 17.16 7.427 32.68 7.415 34.5-.012 1.83-.575 5.25-1.895 7.45-1.793 2.97-4.597 5.49-7.728 7-5.737 2.76-12.493 2.8-18.855 3.07-7.18.31-15.315-.3-21.5-1.62Z" fill="url(#a)"/><path d="M528 1257.08c-12.952-2.79-21.686-5.63-30.666-9.97-27.844-13.48-52.599-39.02-69.159-71.34-83.504-194.712-108.944-459.752-190.816-684.548-6.629-18.202-17.93-36.014-29.284-47.154-14.807-14.529-38.765-27.701-67.379-37.045-11.327-3.699-22.299-13.514-27.699-24.777-1.718-3.583-3.688-10.204-4.612-15.5-5.414-31.023 9.045-63.458 38.115-85.499 18.524-14.045 50.514-22.929 72.66-20.177 15.077 1.873 36.111 10.178 51.968 20.518 17.602 11.478 38.468 30.592 52.304 47.912 3.076 3.85 6.018 7.524 6.539 8.164.521.64 4.07 5.815 7.888 11.5 15.614 23.255 39.419 68.122 51.514 112.632 71.922 264.67 122.994 500.814 181.19 744.884 4.09 17.16 7.427 32.68 7.415 34.5-.012 1.83-.575 5.25-1.895 7.45-1.793 2.97-4.597 5.49-7.728 7-5.737 2.76-12.493 2.8-18.855 3.07-7.18.31-15.315-.3-21.5-1.62Z" fill="url(#b)"/><path d="M528 1257.08c-12.952-2.79-21.686-5.63-30.666-9.97-27.844-13.48-52.599-39.02-69.159-71.34-83.504-194.712-108.944-459.752-190.816-684.548-6.629-18.202-17.93-36.014-29.284-47.154-14.807-14.529-38.765-27.701-67.379-37.045-11.327-3.699-22.299-13.514-27.699-24.777-1.718-3.583-3.688-10.204-4.612-15.5-5.414-31.023 9.045-63.458 38.115-85.499 18.524-14.045 50.514-22.929 72.66-20.177 15.077 1.873 36.111 10.178 51.968 20.518 17.602 11.478 38.468 30.592 52.304 47.912 3.076 3.85 6.018 7.524 6.539 8.164.521.64 4.07 5.815 7.888 11.5 15.614 23.255 39.419 68.122 51.514 112.632 71.922 264.67 122.994 500.814 181.19 744.884 4.09 17.16 7.427 32.68 7.415 34.5-.012 1.83-.575 5.25-1.895 7.45-1.793 2.97-4.597 5.49-7.728 7-5.737 2.76-12.493 2.8-18.855 3.07-7.18.31-15.315-.3-21.5-1.62Z" fill="url(#c)"/><path d="M529.429 962.885C608.015 674.845 667.272 469.546 739.978 209c9.464-33.921 12.813-43.642 19.214-55.783 15.274-28.968 41.894-50.724 79.051-64.605 41.931-15.664 73.552-11.846 87.688 10.588 6.414 10.178 7.525 20.096 3.507 31.3L596.489 1240.35s-46.532-195.5-67.06-277.465Z" fill="url(#d)"/><path d="M529.429 962.885C608.015 674.845 667.272 469.546 739.978 209c9.464-33.921 12.813-43.642 19.214-55.783 15.274-28.968 41.894-50.724 79.051-64.605 41.931-15.664 73.552-11.846 87.688 10.588 6.414 10.178 7.525 20.096 3.507 31.3L596.489 1240.35s-46.532-195.5-67.06-277.465Z" fill="url(#e)"/><path d="m1933.5 137.5 58.83-.531.26 265.427L2063 403v52.971l-128.76.529-.74-319Zm291.74 318.452-.74-318.452h129l.53 55.5h-71.05l.52 78.5 50.53.535-.53 53.465-50.52.535.52 76.465 70 .154v53.342l-128.26-.044ZM1055.64 141l-.14-3.5 32.58-.279c17.92-.154 33.67.122 35 .613 1.37.505 2.53 1.824 2.67 3.03 4.21 21.38 9.95 44.333 14.25 62.136 5.53 22.825 10.29 42.625 10.58 44 .29 1.375 2.73 11.95 5.43 23.5 6.29 26.908 10.36 46.956 17.96 88.5 6.91 37.763 6.68 36.75 8.17 35.261.76-.765.61-8.65-.55-27.417-3-48.839-3.48-68.077-3.76-148.844l-.28-80.5h48.95l-.01 19.25c-.01 10.588-.12 82.25-.25 159.25l-.24 140h-73.92l-51.53-231.088L1104.23 456H1056s.48-197.296-.36-315Zm230.86 313.378c-18.35-4.022-29.52-15.633-35.22-36.635-1.54-5.667-1.73-16.707-1.99-119.743-.15-62.425.02-114.175.38-115 .37-.825.78-2.4.9-3.5.32-2.767 1.05-5.476 2.43-9 .65-1.65 1.34-3.784 1.53-4.741.53-2.636 6.92-11.873 11.09-16.048 3.85-3.847 14.58-9.655 18.63-10.087 1.29-.137 2.85-.565 3.47-.952.63-.386 17.93-.763 38.46-.837 37.94-.137 46.39.483 51.57 3.78 1.24.787 2.25 1.187 2.25.888 0-1.509 8.51 4.103 12.94 8.535 4.21 4.207 8.22 9.82 8.55 11.962.05.275.64 1.513 1.33 2.75.69 1.238.95 2.25.59 2.25s-.09.675.59 1.5c.68.825.91 1.5.5 1.5-.41 0-.27.578.32 1.284 2.91 3.501 3.19 15.93 2.88 126.216-.3 103.859-.45 112.509-2.12 119-5 19.522-14.24 30.237-30.87 35.818-5.79 1.945-8.73 2.103-43.71 2.34-30.7.207-38.77-.025-44.5-1.28Zm62-261.445-41-.433c-.05 3.843-.04 209.265-.04 209.265l41.04.735V192.933Zm121.84 261.972c-11.21-1.873-22.12-7.915-27.52-15.242-4.6-6.239-8.69-15.514-10.26-23.257-1.14-5.657-1.45-31.497-1.73-142.906l-.33-136 59.48-.53-.48 265.53h40v-265l59.05.773s.11 62.937-.37 138.266c-.96 151.274-.49 141.29-7.37 155.428-6.04 12.408-16.47 19.894-31.45 22.563-8.93 1.591-70 1.88-79.02.375ZM1600.04 137l60.5 1.058 23.43 253.28 6.41-.151L1713.5 137.5l60.47-.529-40.95 317.779-92.93 1.25-40.05-319Zm186.46.5 129.5-.514V193h-70l-.25 77.75 51.43 1.284-.72 53.011-50.96.455v77l70.5.526V456h-129l-.5-318.5Zm291.48-.5h60.16l-.45 265.5 71.81.471L2209 456h-129.88l-1.14-319Z" fill="url(#f)"/><path d="M2203.52 1265.75c-.44-1.31-3.52-22.11-3.52-23.78 0-.55-3.6-.97-8.29-.97-24.49 0-40.88-12.58-48.51-37.23-1.46-4.71-1.67-17.15-1.97-116.77-.24-79.46-.01-113.777.8-119.426 3.53-24.662 17.28-40.574 38.47-44.499 7.38-1.367 67.11-1.389 76.77-.029 19.32 2.72 32.68 12.62 38.76 28.711 4.99 13.213 5.06 15.164 4.71 134.033-.3 101.26-.47 111.26-2.06 117.12-4.36 16.13-12.33 26.92-24.03 32.55-3.93 1.89-9 3.73-11.26 4.09-2.26.37-4.58.95-5.15 1.31-1.02 8.66 2.45 14.85 2.75 24.39-9.53-.36-50.29 12.15-57.47.5ZM2241 977h-40v209h40V977Zm-1185.5-54.5h129c.18 18.167.35 36.334.53 54.5h-69.84c-.99 27.85-.33 56.65-.14 79H1165v54h-50v76c23.82.32 46 .41 69.5.5.18 18.17.35 36.33.53 54.5h-130.04l.51-318.5Zm178.06 316.9c-19.28-4.67-31.56-19.75-34.54-42.43-.77-5.91-1.02-43.42-.81-123.97l.29-115.5 2.32-6.5c4.28-12.004 9.85-18.329 20.68-23.471 3.85-1.828 9.96-3.82 13.58-4.426 9.9-1.659 70.41-1.391 80.21.355 20.9 3.727 32.21 14.997 36.26 36.126 1.97 24.123 1.27 72.416 1.27 72.416H1294v-55h-36v209h35.97l.53-69.5h59l.3 25c.34 28.34-1.07 56.42-3.22 64.37-4.91 18.08-17.56 30.24-35.38 34.01-8.25 1.74-74.04 1.36-81.64-.48Zm174.44.03c-8.96-2.45-14.14-5.45-20.51-11.87-6.85-6.9-10.73-14.16-13.58-25.45-1.9-7.5-1.95-11.38-1.68-123.18l.27-115.43 2.82-8c6.37-18.082 16.86-27.972 33.96-32.003 8.52-2.01 71.6-2.073 82.76-.081 7.8 1.392 17.51 5.654 22.56 9.903 4.59 3.861 10.35 12.949 12.96 20.456 4.24 12.202 4.58 23.187 4.18 135.725-.32 93.42-.55 105.75-2.02 111.84-4.57 18.91-14.49 31-30.22 36.85-5.79 2.15-7.41 2.24-46 2.49-33.08.21-40.95-.01-45.5-1.25Zm63.5-261.93-40.5-.541V1186h41.01l-.51-208.5Zm81.96 262.25.04-317.25h59l.51 263.47 71.49.53.53 54.5-131.57-1.25Zm180.54-.56c-16.51-4.32-27.54-16.19-33.19-35.72l-2.31-7.97v-113c0-105.744.12-113.498 1.82-120.753 4.91-20.951 17.14-33.867 36.25-38.3 5.81-1.346 12.67-1.535 44.4-1.219 35.49.354 37.89.494 44.18 2.582 15.8 5.246 25.24 15.389 30.48 32.733 1.68 5.557 1.82 13.611 2.11 119.897.35 126.4.49 123.22-6.12 137.15-6.35 13.37-18.28 22.69-32.51 25.39-3.09.58-21.01 1-42 .96-31.1-.05-37.59-.31-43.11-1.75ZM1798 977h-40v209h40V977Zm116 262.19c-16.94-4.43-28.6-17.24-32.49-35.69-1.25-5.94-1.48-24.8-1.49-124.7-.01-82.761.31-119.275 1.09-123.001 2.65-12.597 10.91-23.632 21.23-28.354 11.2-5.126 16.68-5.611 59.16-5.24 37.61.329 39.23.423 45.5 2.628 13.53 4.759 21.02 12.492 25.7 26.535 2.68 8.028 2.72 8.533 3.08 39.397l.37 31.265-58.65-.53-.54-44.5H1939v209h39v-76h-18v-48h76.08l-.29 69.25-.29 69.25-2.79 7.89c-3.65 10.32-6.71 15.4-12.6 20.91-11.54 10.79-16.49 11.71-62.67 11.64-31.41-.05-37.91-.31-43.44-1.75Zm145.5-316.69 58.5-.53V1241h-59.01l.51-318.5Zm299.5 316.91c-18.28-4.85-29.86-17.59-34.68-38.16-1.71-7.29-1.82-15.75-1.82-143.24V922.518l58.19.836L2382 1186h39l1-263h59l.25 86.75c.47 163.61.32 180.71-1.64 190.25-4.49 21.88-17.37 35.99-36.41 39.91-8.48 1.74-77.28 1.34-84.2-.5Zm145.07-315.805L2633 923v53l-70.5.5.66 79 49.84.27.94 54.23H2563v76h70v55h-130.26l1.33-317.395ZM2727 1082.27l63-.27v25.95l-34.5.55v40l25.5.56v25.88l-25.5.56.4 39 33.6.32-.05 25.23-62.48.81.03-158.59Zm94.01 157.67-.51-131.44-24.5-.56V1082h79v25.94l-24.5.56-1.26 131.46-28.23-.02Zm750.09.03 34.5-317.13s106.02-4.557 106.4 1.066a83494.94 83494.94 0 0 0 32.24 316.704l-58.74-.66-7.41-61.03c-.03-.17-41.59-.26-41.59-.26l-8.83 61.49-56.57-.18ZM3661.77 978l-7.38-.106-12.96 148.246 33.43-.24-13.09-147.9Zm95.73-55.5 58.5-.53.01 2.765c0 92.205-.02 261.265-.02 261.265H3888v55l-129.88-.39-.62-318.11Zm144.96 317.25.04-317.25 129.5-.515V977h-70v79h51v54h-51v76h70v55l-129.54-1.25Zm-897.35-1.3c-13.53-3.71-22.71-11.37-28.75-23.98-5.45-11.37-6.36-18.73-6.36-51.56V1134h56.97l-.02 52.5h36.55l.53-58.07-36.27-26.88c-42.85-31.78-46.05-34.38-50.24-40.99-6.9-10.89-6.9-10.84-7.29-55.08-.38-43.437.09-48.943 5.12-59.928 5.04-11.019 14.71-17.995 29.15-21.041 10.44-2.202 70.52-2.143 81.29.08 10.83 2.235 17.22 5.545 23.08 11.957 10 10.942 12.13 21.485 12.13 60.04V1025h-55.9l-.37-47.8h-38.46l.73 49.54 34.75 25.46c19.11 14 36.78 26.84 39.25 28.54 10.16 6.96 16.63 16.23 18.89 27.06 1.74 8.29 1.49 83.05-.3 92.36-3.77 19.61-12.63 31.23-28.29 37.15-5.55 2.09-7.42 2.2-43.3 2.4-30.47.17-38.51-.06-42.89-1.26Zm172.12 0c-20.24-5.45-31.45-20.86-34.28-47.11-.7-6.51-.95-46.11-.73-116.84.33-106.086.35-107.067 2.49-114.656 5.6-19.846 15.18-30.298 32.08-35.004 6.05-1.684 10.46-1.859 44.71-1.767 41.41.112 43.66.354 55.18 5.973 3.73 1.815 7.91 4.927 10.51 7.824 3.97 4.413 9.6 14.229 10.35 18.046.17.87.38 1.582.47 1.582.2 0 .68 2.472 1.94 10 .64 3.829.92 46.352.76 117.502l-.24 111.5-2.23 7.89c-5.78 20.45-15.77 30.93-33.47 35.1-8.9 2.1-79.72 2.06-87.54-.04Zm63.65-261.094-39.68-.158-.51 209.152 40.81.15-.62-209.144Zm116.23 261.064c-12.99-3.5-21.77-10.56-27.21-21.88-6.64-13.84-6.4-8.65-6.4-138.04 0-64.35.31-118.892.69-121.203.38-2.31 1.18-5.122 1.78-6.25.61-1.127.86-2.049.56-2.049-1.6 0 5.65-10.86 9.69-14.498 3.75-3.383 11.79-8.28 14.78-9.009.27-.067 2.3-.7 4.5-1.407 5.26-1.691 56.7-2.57 73-1.248 12.25.994 21.25 2.667 22.95 4.268.52.492 1.55.894 2.29.894 3.01 0 12.54 8.519 15.61 13.948 1.72 3.054 3.18 5.777 3.23 6.052.05.275.56 1.625 1.13 3 .96 2.279 2.94 11.346 3.28 15 .82 8.748.18 64.292.18 64.292l-58.17.65-1.25-53.723-35.11-.719-1.14 210.002h37l.53-69.5h58.47l-.59 41.25c-.65 44.93-.87 46.84-6.9 58.69-5.89 11.58-14.77 18.38-28.1 21.52-9.11 2.15-76.78 2.11-84.8-.04ZM3498.5 922.5h58l.29 317.5h-57.55l-.74-317.5ZM1095 896.778c0-1.753 13.04-42.127 13.9-43.038 30.73-.972 54.16-.439 87.15-.24-13.45 16.379-25.65 30.074-37.29 44.5-8-2.332-61.72 5.075-63.76-1.222Z" fill="url(#g)"/><path d="M1095.34 831.942c-16.2-2.823-27.07-11.204-34.37-26.507-6.18-12.949-5.97-7.428-5.97-156V514h60v264h39V514h60.05l-.29 137.25c-.27 127.227-.42 137.688-2.04 143.25-4.43 15.195-12.91 27.027-23.03 32.16-11.09 5.615-11.41 5.652-51.19 5.926-20.35.14-39.32-.15-42.16-.644ZM1235 514h70.63l57.1 259.599L1357.85 514H1407v319.024l-75.22-.524-49.88-227.969L1285.23 833H1235V514Zm195 0h60v319h-60V514Zm125.5 318.339c-10.57-1.531-19.93-5.92-25.87-12.133-8.09-8.45-11.23-13.998-14.39-25.416-1.61-5.808-1.74-15.133-1.74-121.79 0-108.709.11-115.877 1.82-121.92 3.87-13.622 11.97-25.237 21.52-30.834 9.85-5.769 14.08-6.247 55.14-6.231 29.24.011 38.88.335 43.67 1.464 18.83 4.442 29.87 15.802 35.08 36.122 1.64 6.404 1.77 15.116 1.77 121.399 0 106.172-.13 114.973-1.76 121-4.17 15.406-12.64 27.345-23.24 32.75-10.52 5.367-12.24 5.559-52 5.8-20.35.123-38.35.029-40-.211ZM1613 569h-40.91l-.13 209H1613V569Zm82-55 70 .479 56.81 258.041L1817 514h49v319h-74.92l-50.03-229.535L1744.23 833H1695V514Zm277-.07 64.25.285 64.25.285 5.5 2.596c9.08 4.287 14.02 10.468 17.36 21.734 3.2 10.791 3.79 28.837 3.42 103.67-.33 65.462-.55 73.62-2.1 79-5.8 20.179-16.21 29.704-35.51 32.495-3.67.531-18.26.974-32.42.985L2031 755v78h-59V513.93Zm95 55.07h-36v132h36V569Zm116.53 262.971c-21.66-3.783-35.64-19.354-39.48-43.971-.86-5.502-1.08-37.341-.83-119.5.33-104.226.48-112.412 2.15-117.937 5.85-19.363 18.42-32.094 35.12-35.561 3.68-.764 18.26-1.013 45.22-.774 38.16.339 40.03.444 45.71 2.567 12.08 4.518 18.88 10.596 24.67 22.035 6.62 13.091 6.41 8.581 6.41 134.67 0 106.12-.12 114.449-1.78 120.5-4.36 15.952-12.28 27.204-22.99 32.643-10.79 5.484-12.37 5.663-52.23 5.94-20.35.141-39.24-.135-41.97-.612ZM2243 569h-40v209h40V569Zm82-55.057 63.75.279 63.75.278 6.26 2.892c7.01 3.238 12.11 8.268 15 14.797 4.77 10.792 4.74 10.09 4.74 100.811 0 76.94-.17 86.001-1.66 90.5-4.18 12.619-8.52 19.041-16.17 23.932-9.96 6.374-12.87 6.833-46.42 7.322l-30.25.442V833h-59V513.943ZM2420 569h-36v132h36V569Zm117.5 262.927c-20-3.355-32.99-15.633-39.09-36.927-1.77-6.173-1.88-13.406-2.16-143.75l-.3-137.25H2556v264h39V514h60v135.042c0 150.839.33 143.494-7.03 158.606-6.73 13.827-17.71 21.643-34.15 24.311-7.47 1.212-69.06 1.187-76.32-.032ZM2677 514h60v263.975l71.5.525v54l-131.5.515V514Zm170 .701 106.49-.201 33.73 318.5H2926l-5-61.208-42.72-.792s-3.88 41.325-5.7 62h-60.76L2847 514.701Zm67.83 203.656L2904 570.653l-8 .097L2882.81 718l32.02.357ZM3000 514h59v319h-59V514Zm83-.07 63.75.285 63.75.285 4.88 2.272c7.48 3.476 11.99 7.57 15.37 13.933 6.78 12.76 6.59 10.458 6.99 87.716.23 44.666-.01 72.296-.66 76.5-2.33 14.916-6.8 23.721-14.73 28.97-2.49 1.652-5.02 3.167-5.62 3.366l26.89 104.008-59.04 1.235-25.54-98.29-16.54.29-.52 98.5H3083V513.93Zm97.02 55.07H3142l.69 110.355 36.81.145.52-110.5Zm77.98-55h130v55h-70v79h51v54h-51v76h70v55h-130V514Z" fill="#503B86" fill-opacity=".98"/><defs><linearGradient id="a" x1="266.5" y1="373" x2="177" y2="624" gradientUnits="userSpaceOnUse"><stop stop-color="#523F85"/><stop offset="1" stop-color="#523F85" stop-opacity="0"/></linearGradient><linearGradient id="b" x1="472.5" y1="1180" x2="207" y2="1102" gradientUnits="userSpaceOnUse"><stop stop-color="#E5BB2E"/><stop offset="1" stop-color="#E5BB2E" stop-opacity="0"/></linearGradient><linearGradient id="d" x1="628.5" y1="1083" x2="950" y2="100" gradientUnits="userSpaceOnUse"><stop stop-color="#E4B32E"/><stop offset=".299" stop-color="#D02D4A" stop-opacity=".98"/><stop offset=".656" stop-color="#C838A1" stop-opacity=".98"/></linearGradient><linearGradient id="e" x1="790.5" y1="162" x2="870" y2="456.5" gradientUnits="userSpaceOnUse"><stop stop-color="#523E87"/><stop offset="1" stop-color="#523E87" stop-opacity="0"/></linearGradient><linearGradient id="f" x1="1817" y1="514" x2="1933.5" y2="137.5" gradientUnits="userSpaceOnUse"><stop stop-color="#DD3BB3" stop-opacity=".98"/><stop offset="1" stop-color="#5C428C" stop-opacity=".98"/></linearGradient><linearGradient id="g" x1="2502.74" y1="1241" x2="3281.67" y2="441.108" gradientUnits="userSpaceOnUse"><stop stop-color="#009565" stop-opacity=".98"/><stop offset=".344" stop-color="#E89024" stop-opacity=".98"/><stop offset="1" stop-color="#B91B3E" stop-opacity=".98"/></linearGradient><radialGradient id="c" cx="0" cy="0" r="1" gradientUnits="userSpaceOnUse" gradientTransform="matrix(-57.49992 -6.50046 12.28766 -108.69063 521.5 903.5)"><stop stop-color="#D64D3E" stop-opacity=".74"/><stop offset="0" stop-color="#D64D3E" stop-opacity=".41"/><stop offset="1" stop-color="#D64D3E" stop-opacity="0"/></radialGradient></defs></svg>