<?xml version="1.0" encoding="utf-8"?>
<!-- Generator: Adobe Illustrator 28.0.0, SVG Export Plug-In . SVG Version: 6.00 Build 0)  -->
<svg version="1.1" id="Capa_1" xmlns="http://www.w3.org/2000/svg" xmlns:xlink="http://www.w3.org/1999/xlink" x="0px" y="0px"
	 viewBox="0 0 4096 1374" style="enable-background:new 0 0 4096 1374;" xml:space="preserve">
<style type="text/css">
	.st0{fill:#333333;}
	.st1{fill:#556B2F;}
	.st2{fill:#809D4A;}
</style>
<g>
	<g>
		<g>
			<path class="st0" d="M982,1257.8h-57.9l-24.9-65.1h-16.5v65.1h-52.3v-170.3h88.9c19.6,0,34.9,4.6,45.7,13.8
				c10.9,9.2,16.3,21.3,16.3,36.4c0,9.8-2,18.5-6,26c-4,7.5-12.1,14.2-24.2,19.9L982,1257.8z M882.7,1156.3H905
				c6.6,0,11.9-1.4,15.8-4.1s6-6.8,6-12.1c0-10.9-6.7-16.3-20.1-16.3h-24.1V1156.3z"/>
			<path class="st0" d="M1141.2,1217.2v40.7h-128.1v-170.3h128.1v39.3h-76.8v24.7h62.1v37.8h-62.1v27.8H1141.2z"/>
			<path class="st0" d="M1168.3,1257.8v-170.3h65.9c28.6,0,50,8.5,64.2,25.4c14.2,17,21.3,36.6,21.3,58.9c0,25.4-7.6,46.1-22.9,62.1
				c-15.3,15.9-35.1,23.9-59.4,23.9H1168.3z M1220.6,1218.7h13.6c8.6,0,15.9-4.2,21.9-12.6c5.9-8.4,8.9-19.8,8.9-34.3
				c0-12.4-2.6-23.1-7.9-32.1c-5.3-9-12.9-13.5-22.9-13.5h-13.6V1218.7z"/>
			<path class="st0" d="M1533.3,1087.6v170.3h-48.5v-121.7l-31.5,121.7h-33.2l-32.7-121.7v121.7h-39.2v-170.3h68.3l24.7,90.4
				l23.6-90.4H1533.3z"/>
			<path class="st0" d="M1621.6,1087.6v170.3h-52.3v-170.3H1621.6z"/>
			<path class="st0" d="M1804.8,1162.4v95.4h-25.6c-2.1-7.1-4.4-13-6.9-17.8c-10.6,13.6-26.2,20.5-46.9,20.5c-22,0-40-7.7-54.1-23
				c-14.1-15.3-21.2-36.1-21.2-62.3c0-25.4,6.8-46.8,20.5-64.2c13.7-17.3,34-26,61.1-26c20.3,0,36.6,5.2,49,15.5
				c12.4,10.3,20.4,24.9,24.1,43.9l-50.6,5c-2.5-17.7-10.3-26.6-23.3-26.6c-17.1,0-25.7,16.3-25.7,48.9c0,19.7,2.7,32.7,8.2,39
				c5.5,6.3,12.1,9.4,20,9.4c6.3,0,11.7-1.9,16.2-5.7c4.4-3.8,6.7-9.1,6.8-15.7h-28.2v-36.2H1804.8z"/>
			<path class="st0" d="M1990.3,1257.8h-57.9l-24.9-65.1H1891v65.1h-52.3v-170.3h88.9c19.6,0,34.9,4.6,45.7,13.8
				c10.9,9.2,16.3,21.3,16.3,36.4c0,9.8-2,18.5-6,26c-4,7.5-12.1,14.2-24.2,19.9L1990.3,1257.8z M1891,1156.3h22.3
				c6.6,0,11.9-1.4,15.8-4.1s6-6.8,6-12.1c0-10.9-6.7-16.3-20.1-16.3H1891V1156.3z"/>
			<path class="st0" d="M2115.3,1257.8l-9.6-33.6H2060l-10.2,33.6h-42.4l52.6-170.3h55.3l53.4,170.3H2115.3z M2068.9,1187.1h27.5
				l-13.8-49.4L2068.9,1187.1z"/>
			<path class="st0" d="M2336.2,1257.8h-42.5l-46.6-75.2c-6-9.6-12-21.4-18.1-35.2c2.7,11,4.1,20.3,4.1,27.9v82.5h-42.4v-170.3h49.4
				l39.7,62.4c7.9,12.4,13.9,23.3,18,32.7c-2.7-14.6-4-29.4-4-44.7v-50.4h42.5V1257.8z"/>
			<path class="st0" d="M2442.3,1128.4v129.5h-49.5v-129.5h-35.3v-40.8h120.1v40.8H2442.3z"/>
			<path class="st0" d="M2626.9,1217.2v40.7h-128.1v-170.3h128.1v39.3h-76.8v24.7h62.1v37.8h-62.1v27.8H2626.9z"/>
			<path class="st0" d="M2697.9,1212.3v45.5h-47.4v-45.5H2697.9z"/>
			<path class="st0" d="M2824.3,1192.9l47.8,2.9c-2.2,20.9-10,36.9-23.1,48c-13.2,11.1-29.4,16.7-48.6,16.7c-23.1,0-41.8-7.6-56-23
				c-14.2-15.3-21.3-36.4-21.3-63.4c0-26.7,6.7-48.2,20.2-64.6c13.5-16.4,32.3-24.6,56.4-24.6c22.5,0,39.9,6.2,52,18.7
				c12.1,12.5,18.9,29,20.5,49.6l-48.8,2.6c0-11.4-2.2-19.6-6.5-24.7c-4.4-5.1-9.5-7.6-15.4-7.6c-16.5,0-24.7,16.5-24.7,49.6
				c0,18.5,2.1,31.1,6.4,37.8c4.3,6.7,10.3,10,18,10C2814.9,1221,2822.6,1211.7,2824.3,1192.9z"/>
			<path class="st0" d="M2971.1,1260.5c-23.9,0-43.5-7.9-58.6-23.8c-15.1-15.9-22.6-37.1-22.6-63.7c0-25.4,7.2-46.5,21.6-63.1
				c14.4-16.6,34.4-24.9,60.1-24.9c23.7,0,43,7.8,57.9,23.5c14.9,15.6,22.4,36.5,22.4,62.6c0,27-7.5,48.7-22.6,65
				C3014.3,1252.3,2994.9,1260.5,2971.1,1260.5z M2970.9,1221.8c8.8,0,15.2-3.8,19-11.5c3.9-7.7,5.8-21.8,5.8-42.2
				c0-29.6-7.9-44.4-23.8-44.4c-17.1,0-25.7,16.9-25.7,50.6C2946.2,1206,2954.4,1221.8,2970.9,1221.8z"/>
			<path class="st0" d="M3265.5,1087.6v170.3H3217v-121.7l-31.5,121.7h-33.2l-32.7-121.7v121.7h-39.2v-170.3h68.3l24.7,90.4
				l23.6-90.4H3265.5z"/>
		</g>
		<g>
			<path class="st1" d="M1774.8,382.8c-0.3,5.3-0.8,10.5-0.8,15.8c0,157.4,127.6,285.1,285.1,285.1c157.4,0,285.1-127.6,285.1-285.1
				c0-5.3-0.5-10.6-0.8-15.8H1774.8z"/>
			<path class="st1" d="M2438.8,382.8c0.2,5.3,0.4,10.5,0.4,15.8c0,209.9-170.2,380.1-380.1,380.1S1679,608.5,1679,398.6
				c0-5.3,0.2-10.6,0.4-15.8h-221.9c0,2.6-0.2,5.3-0.2,7.9c0,328,265.9,593.9,593.9,593.9s593.9-265.9,593.9-593.9
				c0-2.7-0.2-5.3-0.2-7.9H2438.8z"/>
			<path class="st1" d="M1679,224.4c0,61.2-49.6,110.9-110.9,110.9c-61.2,0-110.9-49.6-110.9-110.9s49.6-110.9,110.9-110.9
				C1629.4,113.5,1679,163.2,1679,224.4z"/>
			<circle class="st1" cx="2051.2" cy="224.4" r="110.9"/>
			<circle class="st2" cx="2534.2" cy="224.4" r="110.9"/>
			<path class="st2" d="M2644.9,382.8h-206.1c0.2,5.3,0.4,10.5,0.4,15.8c0,182.8-129,335.4-300.9,371.8
				c-46.5,9.9-79.2,51.9-79.2,99.4v0c0,66,61.6,114.2,125.9,99.4c266-61.2,463.7-301,460-586.4C2645,382.9,2645,382.8,2644.9,382.8z
				"/>
		</g>
	</g>
</g>
</svg>
