<?xml version="1.0" standalone="no"?>
<!DOCTYPE svg PUBLIC "-//W3C//DTD SVG 20010904//EN"
 "http://www.w3.org/TR/2001/REC-SVG-20010904/DTD/svg10.dtd">
<svg version="1.0" xmlns="http://www.w3.org/2000/svg"
 width="1267.000000pt" height="471.000000pt" viewBox="0 0 1267.000000 471.000000"
 preserveAspectRatio="xMidYMid meet">

<g transform="translate(0.000000,471.000000) scale(0.100000,-0.100000)"
fill="#000000" stroke="none">
<path d="M4719 3466 c-116 -41 -189 -137 -189 -247 0 -30 -4 -39 -17 -39 -32
-1 -179 -66 -249 -112 -172 -111 -322 -302 -374 -475 -12 -40 -16 -43 -48 -43
-57 0 -111 -21 -158 -63 -118 -103 -125 -262 -17 -370 50 -50 129 -87 187 -87
31 0 33 -3 50 -57 81 -257 300 -481 572 -585 81 -30 82 -31 88 -70 9 -58 38
-108 88 -155 54 -49 104 -67 183 -66 134 2 239 97 260 234 7 45 7 46 63 64 89
27 200 89 290 160 113 91 201 204 270 347 54 111 59 117 88 118 176 2 299 201
225 365 -42 94 -115 145 -219 154 l-65 6 -17 50 c-62 181 -195 353 -362 466
-67 46 -199 110 -265 130 -38 11 -43 16 -43 42 0 60 -24 111 -76 164 -74 75
-176 101 -265 69z m184 -68 c23 -13 55 -43 72 -66 27 -39 30 -52 30 -116 0
-62 -4 -78 -27 -114 -74 -111 -239 -129 -331 -36 -40 39 -57 76 -64 134 -5 41
-1 59 22 105 55 114 186 155 298 93z m328 -318 c123 -62 254 -173 335 -286 48
-67 110 -192 119 -239 6 -28 3 -32 -39 -54 l-45 -23 -295 288 -294 288 24 48
24 48 63 -24 c35 -13 83 -34 108 -46z m-674 23 c7 -16 18 -36 25 -46 12 -17
-15 -45 -267 -291 l-279 -273 -53 26 c-62 31 -62 34 -3 156 96 195 249 337
459 426 84 36 103 36 118 2z m707 -380 c160 -158 292 -290 294 -293 1 -4 -4
-23 -13 -42 l-15 -36 -57 15 c-211 54 -419 214 -511 391 -36 69 -72 168 -72
196 0 9 64 54 79 56 2 0 135 -129 295 -287z m-529 207 c-13 -53 -97 -211 -143
-268 -84 -105 -181 -174 -339 -241 -132 -57 -134 -57 -159 -11 l-22 39 284
275 283 275 51 -22 c46 -19 50 -24 45 -47z m111 -40 c20 -80 96 -227 150 -290
120 -141 299 -251 473 -292 28 -6 51 -17 51 -24 0 -6 -38 -24 -85 -38 -90 -28
-194 -78 -235 -113 -14 -12 -49 -41 -77 -65 -107 -88 -206 -237 -249 -373 -18
-58 -26 -70 -45 -73 -21 -2 -30 9 -71 95 -87 182 -193 317 -337 428 -76 57
-222 135 -255 135 -21 0 -55 26 -45 34 2 1 40 15 84 30 190 67 327 160 443
301 55 66 107 169 146 288 12 36 38 14 52 -43z m-885 -416 c69 -38 102 -92
107 -174 3 -59 0 -70 -27 -112 -78 -122 -219 -141 -329 -44 -86 75 -94 191
-19 282 63 76 178 97 268 48z m1939 -16 c75 -46 103 -99 98 -189 -5 -85 -38
-137 -111 -174 -69 -34 -127 -33 -198 3 -161 81 -148 313 21 381 14 5 50 10
80 10 46 1 66 -5 110 -31z m-1672 -263 c205 -98 349 -244 467 -475 l55 -108
-46 -26 -45 -25 -299 281 -299 281 17 26 c10 14 23 38 30 54 15 35 32 34 120
-8z m1326 -36 l26 -51 -203 -196 c-392 -382 -373 -364 -386 -348 -7 9 -29 21
-48 28 -32 12 -34 15 -30 44 23 140 168 349 307 444 91 61 243 129 291 130 9
0 27 -21 43 -51z m-1234 -364 c140 -131 263 -246 274 -256 18 -17 18 -18 -2
-61 -11 -23 -22 -48 -23 -55 -5 -18 -148 42 -240 99 -136 86 -238 192 -313
329 -28 52 -76 168 -76 185 0 2 17 12 38 23 l37 19 25 -22 c14 -12 140 -130
280 -261z m1353 250 c20 -10 37 -22 37 -27 0 -19 -53 -124 -96 -190 -103 -161
-221 -265 -384 -341 -137 -64 -141 -65 -162 -16 l-17 40 192 187 c106 103 235
228 287 279 52 51 97 92 100 90 3 -1 22 -11 43 -22z m-782 -486 c172 -52 203
-283 51 -380 -38 -24 -56 -29 -109 -29 -76 0 -127 23 -172 77 -131 159 30 391
230 332z"/>
<path d="M4779 2342 c-27 -23 -30 -75 -6 -99 20 -20 73 -21 92 -2 28 29 29 66
1 93 -30 31 -55 33 -87 8z"/>
<path d="M3052 2848 c-9 -9 -12 -74 -12 -231 l0 -218 -49 41 c-68 57 -133 80
-231 80 -90 0 -154 -18 -217 -62 -153 -105 -178 -369 -48 -503 125 -128 363
-137 495 -18 l50 45 0 -51 c0 -40 4 -53 22 -65 29 -20 34 -20 58 4 19 19 20
33 20 486 0 302 -4 472 -10 485 -12 22 -59 26 -78 7z m-157 -437 c46 -20 98
-69 121 -113 41 -79 22 -215 -38 -277 -59 -60 -101 -75 -208 -75 -105 0 -154
17 -205 71 -57 61 -70 204 -27 290 35 67 86 104 177 127 35 8 138 -5 180 -23z"/>
<path d="M6670 2784 c-68 -19 -113 -48 -146 -96 -51 -73 -53 -88 -53 -458 -1
-190 3 -350 7 -356 15 -24 50 -26 71 -5 20 20 21 32 21 359 l0 338 25 51 c29
56 63 79 137 89 89 12 174 -33 209 -111 17 -36 19 -72 19 -372 0 -320 1 -334
20 -353 24 -24 32 -25 59 -2 20 17 21 26 23 362 3 377 3 377 65 434 55 51 179
59 249 15 66 -40 68 -55 74 -447 5 -336 6 -354 24 -368 21 -15 55 -10 69 10 4
6 6 173 5 371 l-3 360 -31 55 c-40 71 -101 113 -188 130 -111 21 -204 -8 -276
-86 l-40 -44 -40 44 c-73 79 -192 111 -300 80z"/>
<path d="M7760 2770 c-60 -60 27 -144 98 -94 28 19 30 74 4 97 -25 23 -78 21
-102 -3z"/>
<path d="M11082 2774 c-21 -14 -22 -22 -22 -140 l0 -124 -49 0 c-54 0 -74 -15
-69 -52 3 -21 9 -23 61 -26 l57 -3 0 -217 c0 -206 1 -220 23 -262 26 -53 71
-85 129 -94 113 -17 262 86 206 142 -19 19 -34 15 -84 -23 -58 -44 -112 -48
-149 -10 l-25 24 0 221 0 220 105 0 c93 0 105 2 115 19 13 25 13 27 -6 45 -12
12 -38 16 -115 16 l-99 0 0 120 c0 107 -2 122 -20 140 -24 24 -29 24 -58 4z"/>
<path d="M839 2757 c-69 -46 -69 -47 -69 -484 l0 -393 26 -17 c24 -15 29 -15
53 -2 l26 15 3 162 2 162 88 0 87 0 160 -170 c139 -148 164 -170 190 -170 36
0 55 16 55 43 0 12 -56 79 -131 158 l-131 139 45 0 c79 0 174 36 222 85 102
101 102 309 0 410 -71 72 -132 85 -385 85 -199 0 -208 -1 -241 -23z m500 -97
c60 -34 81 -80 81 -172 0 -92 -20 -133 -81 -168 -42 -24 -52 -25 -251 -28
l-208 -4 0 172 c0 166 6 203 34 223 6 4 94 6 196 5 176 -3 187 -4 229 -28z"/>
<path d="M1844 2504 c-76 -23 -143 -79 -179 -149 -25 -48 -31 -73 -34 -143 -8
-207 90 -326 292 -354 128 -18 303 31 357 99 18 23 19 29 6 47 -20 32 -38 30
-94 -8 -64 -43 -143 -60 -239 -53 -119 9 -204 73 -219 165 l-7 42 259 0 c239
0 261 2 291 20 73 44 61 182 -24 262 -15 15 -55 39 -88 55 -52 24 -75 28 -165
30 -73 2 -121 -2 -156 -13z m282 -98 c28 -13 61 -37 73 -54 22 -31 31 -88 17
-110 -5 -9 -76 -12 -248 -12 l-240 0 7 38 c15 80 79 144 166 162 65 13 166 3
225 -24z"/>
<path d="M7770 2501 c-6 -12 -10 -131 -10 -315 0 -283 1 -297 20 -316 24 -24
29 -24 58 -4 22 15 22 16 22 323 0 225 -3 310 -12 319 -19 19 -66 15 -78 -7z"/>
<path d="M8243 2501 c-144 -49 -220 -174 -211 -345 7 -133 60 -221 164 -272
45 -22 73 -28 152 -32 116 -5 181 15 264 80 l51 41 -6 -96 c-6 -114 -29 -165
-92 -209 -98 -69 -290 -54 -377 29 -33 32 -74 26 -84 -12 -18 -73 169 -154
330 -143 101 8 180 40 237 99 80 82 82 96 87 473 2 182 1 345 -3 363 -4 25
-12 34 -32 39 -41 11 -58 -7 -61 -64 l-3 -51 -58 45 c-32 25 -80 52 -106 60
-66 19 -188 17 -252 -5z m287 -99 c41 -20 62 -40 85 -76 28 -46 30 -56 30
-142 0 -87 -2 -95 -30 -135 -49 -70 -110 -101 -205 -107 -108 -6 -163 10 -217
64 -51 52 -67 103 -61 201 4 58 11 82 34 120 67 109 231 143 364 75z"/>
<path d="M8942 2508 c-9 -9 -12 -94 -12 -319 0 -307 0 -308 22 -323 29 -20 34
-20 58 4 19 19 20 33 20 203 0 156 3 188 19 222 37 81 111 125 208 125 60 0
103 19 103 45 0 70 -184 57 -285 -20 l-45 -35 0 36 c0 50 -15 74 -48 74 -16 0
-33 -5 -40 -12z"/>
<path d="M9580 2504 c-64 -17 -135 -57 -144 -79 -9 -23 11 -55 35 -55 11 0 42
11 69 25 68 35 172 50 239 36 97 -21 131 -63 131 -165 l0 -55 -36 24 c-49 33
-127 49 -222 43 -179 -10 -276 -113 -248 -263 10 -54 75 -120 139 -141 108
-36 268 -16 337 43 l30 25 0 -26 c0 -36 35 -69 63 -60 12 4 25 12 29 18 12 18
9 446 -3 491 -16 56 -84 120 -150 140 -66 19 -196 19 -269 -1z m212 -315 c97
-21 142 -94 103 -168 -48 -94 -307 -110 -375 -24 -24 31 -26 92 -5 132 31 61
151 87 277 60z"/>
<path d="M10190 2494 c-13 -32 -13 -574 -1 -607 12 -30 34 -39 65 -27 24 9 24
9 28 207 3 179 6 202 25 239 45 85 121 128 228 129 72 0 119 -24 150 -75 18
-32 20 -57 25 -262 3 -124 7 -228 10 -231 19 -17 51 -16 69 2 20 20 21 33 21
224 0 285 -23 352 -137 404 -49 22 -65 25 -141 21 -99 -5 -153 -27 -214 -86
l-38 -36 0 50 c0 57 -12 74 -52 74 -21 0 -31 -6 -38 -26z"/>
<path d="M11743 2501 c-137 -47 -206 -151 -206 -311 0 -190 95 -301 282 -330
82 -13 200 0 265 29 59 26 118 79 114 104 -5 34 -34 44 -65 24 -89 -58 -135
-72 -238 -72 -85 0 -107 4 -149 24 -57 28 -106 96 -106 148 l0 33 255 0 c282
0 302 4 325 60 7 18 11 53 8 85 -8 99 -87 178 -209 210 -76 21 -212 19 -276
-4z m294 -97 c32 -15 60 -38 72 -58 25 -40 28 -101 5 -110 -9 -3 -119 -6 -245
-6 l-229 0 0 25 c0 51 50 124 103 152 77 39 209 38 294 -3z"/>
</g>
</svg>
