<?xml version="1.0" encoding="utf-8"?>
<!-- Generator: Adobe Illustrator 28.0.0, SVG Export Plug-In . SVG Version: 6.00 Build 0)  -->
<svg version="1.1" id="Capa_1" xmlns="http://www.w3.org/2000/svg" xmlns:xlink="http://www.w3.org/1999/xlink" x="0px" y="0px"
	 viewBox="0 0 255 145" style="enable-background:new 0 0 255 145;" xml:space="preserve">
<style type="text/css">
	.st0{clip-path:url(#SVGID_00000005264011150531564430000004958608087373800615_);}
	.st1{fill:#FFFFFF;}
	.st2{fill:#FFD4FD;}
	.st3{fill:#EFEFF0;}
	.st4{fill:#565661;}
	.st5{opacity:0.1;fill:#4D26B9;enable-background:new    ;}
	.st6{fill:#950080;}
	.st7{fill:#C1C1C1;}
	.st8{fill:#E2E2E2;}
	.st9{fill:#FF948D;}
	.st10{fill:#C9CFDD;}
	.st11{fill:#A1616A;}
	.st12{fill:#30D7CF;}
	.st13{fill:#111111;}
	.st14{fill:#380091;}
	.st15{fill:#790033;}
	.st16{fill:#F2F2F2;}
	.st17{fill:#000A2C;}
	.st18{fill:#FF685F;}
	.st19{opacity:0.1;fill:#000A2C;enable-background:new    ;}
	.st20{fill:#571AFF;}
	.st21{fill:#60002C;}
	.st22{fill-rule:evenodd;clip-rule:evenodd;fill:#380091;}
</style>
<g>
	<defs>
		<rect id="SVGID_1_" width="255" height="145"/>
	</defs>
	<clipPath id="SVGID_00000026145960511392942070000000316405774061377173_">
		<use xlink:href="#SVGID_1_"  style="overflow:visible;"/>
	</clipPath>
	<g style="clip-path:url(#SVGID_00000026145960511392942070000000316405774061377173_);">
		<path class="st1" d="M0,0h255v145H0V0z"/>
		<path class="st2" d="M153.7,123.3H10v33.1h143.7C153.7,156.4,153.7,123.3,153.7,123.3z"/>
		<path class="st3" d="M223.4,124.6H156v142.6h67.4L223.4,124.6L223.4,124.6z"/>
		<path class="st4" d="M218,128.6h-56.6v109.6H218V128.6z"/>
		<path class="st5" d="M218,128.6h-56.6v109.6H218V128.6z"/>
		<path class="st4" d="M218,130.8h-56.6v24.3H218V130.8z"/>
		<path class="st3" d="M151.4,124.6v154.6h4.5V125.8L151.4,124.6z"/>
		<path class="st2" d="M22.6,114.2h175.1l25.5,8.4v4.9L4.8,125.8v-4.9C4.8,120.8,22.6,114.2,22.6,114.2z"/>
		<path class="st6" d="M4.8,120.8l218.5,1.8v4.9L4.8,125.8C4.8,125.8,4.8,120.8,4.8,120.8z"/>
		<path class="st7" d="M119.5,115.4H66c-0.9,0-1.7,0.8-1.7,1.7s0.8,1.7,1.7,1.7h53.5c0.9,0,1.7-0.8,1.7-1.7S120.4,115.4,119.5,115.4
			z"/>
		<path class="st5" d="M109.9,116.2v1.2H75.6v-0.9c0.9-0.4,1.8-0.8,2.6-1.4h29.5C108.4,115.5,109.1,115.9,109.9,116.2z"/>
		<path class="st8" d="M109.9,116.2v1.2H75.6v-0.9c0.9-0.4,1.8-0.8,2.6-1.4c1.5-1,2.6-2.4,3.5-4c0.8-1.6,1.2-3.3,1.2-5.1
			c0-2.6-0.9-5.2-2.6-7.2c-1.1-1.3-2.4-2.3-4-3h33.3c-1.5,0.7-2.9,1.7-4,3c-1.1,1.3-1.9,2.8-2.3,4.4c-0.2,0.9-0.3,1.8-0.3,2.8
			c0,1.8,0.4,3.5,1.2,5.1c0.8,1.6,2,3,3.5,4C108.4,115.5,109.1,115.9,109.9,116.2L109.9,116.2z"/>
		<path class="st9" d="M144.5,148.3c-0.8,1.7-2.1,3.1-3.1,4.7c-1.7,2.7-2.2,5.9-1.5,8.9c0.4,1.5,1.1,2.9,2,4.1
			c1,1.2,2.2,2.2,3.7,2.8c1.3,0.5,2.6,0.8,4,0.9c1.8,0.2,3.7,0.3,5.3-0.6c1.2-0.7,2.1-1.7,2.8-2.9c1.4-2.3,2.1-4.8,2.9-7.4
			c1.3-4.7,2.4-9.5,2.3-14.4c-0.1-1.7-0.4-3.6-1.8-4.5c-0.7-0.4-1.5-0.7-2.4-0.8l-6.7-1.2c-1.3-0.2-3.5-1.2-4.7-0.2
			c-1.1,0.9-1.2,3.7-1.4,5C145.5,144.6,145.3,146.6,144.5,148.3z"/>
		<path class="st10" d="M111.4,114.3c5.1-3,12.3-1.6,15.2-0.5c0.6,2.1,1.4,6.5,0,7.1c-1.4,0.6-13.6-0.6-19.5-1.3
			C106.4,119.1,106.3,117.4,111.4,114.3z"/>
		<path class="st9" d="M153.7,153.1c-0.4-1.9-0.1-3.8-0.3-5.7c-0.3-3.1-16.7-30.6-19-32.7c-2.4-2-5.6-2.8-8.7-2.2
			c-1.3,0.3-2.6,0.9-3.7,1.6c-1.6,0.9-3.1,2-3.9,3.6c-0.5,1.3-0.7,2.6-0.5,4c0.3,2.6,1.2,5.1,2.1,7.6c1.8,4.6,18.7,33.7,21.7,37.5
			c1,1.3,2.4,2.6,4.2,2.6c0.8-0.1,1.6-0.4,2.4-0.8l6.1-3c1.2-0.6,3.6-1.2,3.9-2.6c0.3-1.4-1.2-3.7-1.8-4.8
			C155.1,156.6,154.1,154.9,153.7,153.1L153.7,153.1z"/>
		<path class="st11" d="M225.8,128.8l-1.7,14.6c-0.4,2.6-0.6,5.2-0.6,7.9c0,1.5,0,3.1-0.9,4.2c-0.5,0.5-1.1,0.9-1.7,1
			c-2.1,0.7-4.4,0.1-6.5-0.8c-1.2-0.5-2.4-1.2-2.9-2.4c-0.3-0.8-0.4-1.7-0.4-2.6c0-8.7,0.8-17.8,5.4-25.2c0.4-0.7,0.9-1.4,1.6-1.8
			c1.3-0.8,2.9-0.6,4.4-0.1c0.9,0.3,3.3,0.6,3.8,1.3S225.9,127.8,225.8,128.8L225.8,128.8z"/>
		<path class="st9" d="M179.4,76c10.1,0,18.3-8.1,18.3-18.2s-8.2-18.2-18.3-18.2s-18.3,8.1-18.3,18.2C161.1,67.9,169.3,76,179.4,76z
			"/>
		<path class="st9" d="M174.5,84.9c-0.1,1.4-0.5,2.8-1.1,4c9.3-1.4,18.6-3,27.9-4.7c-3.1-1.6-5.4-4.3-6.5-7.6
			c-0.5-1.8-0.8-3.6-0.8-5.4c-0.1-2.9-0.1-5.8,0.2-8.7c-3.2,0.3-6.3,1.6-9.4,2.6c-3.1,1-6.3,1.9-9.5,2.6c-1.5,0.3-3.1,0.6-4.7,0.9
			c-1.8,0.3-2.7,0.3-1.4,1.9C172.5,74.9,175,79.2,174.5,84.9L174.5,84.9z"/>
		<path class="st12" d="M180.1,82.5c-2.4,0.4-4.9,0.8-6.9,2.2c-0.7,0.6-1.4,1.3-2.1,2c-3.8,3.7-9.2,5.2-13.8,7.8
			c-0.8,0.4-1.4,0.9-2,1.5c-0.5,0.7-0.8,1.6-1.3,2.3c-0.6,0.8-1.6,1.3-2.1,2.2c-0.5,0.9-0.4,1.8-0.4,2.8c-0.1,2.1-0.9,4.1-1.5,6.1
			c-2.8,9.5-1.3,20.2-5.5,29.2c0.4,1.1,1.2,1.9,2.2,2.3c1.1,0.4,2.2,0.6,3.3,0.7l9.4,1.2c1.3,0.2,2.8,0.3,4-0.2
			c-1.1,3.1-1.9,6.3-2.4,9.6c-0.2,2-0.6,4-1.1,5.9c-1.3,4.4-4.6,8.1-8.4,10.7c-0.5,0.3-0.9,0.6-1.2,1.1c-0.5,1,0.2,2.1,0.8,3.1
			c1.5,2.9,1.3,6.3,1.3,9.6c0,3.2,0.3,6.8,2.6,9.1c1.3,1.4,3.2,2.1,5,2.8l14.8,5.9c2.4,1,4.9,1.9,7.5,2.5c3.9,0.9,7.9,0.8,11.9,0.7
			c2.6-0.1,5.3-0.3,7.9-0.5c1,0,2.1-0.3,3-0.8c0.8-0.6,1.4-1.4,1.7-2.4c2.1-4.4,2.7-9.6,5.9-13.4c2.2-2.6,5.6-4.6,5.8-7.9
			c0.1-1.7-0.6-3.3-0.6-5c0-2.1,1.1-4,1-6.1c-0.1-3.3-3.3-5.9-3.8-9.2c-1.3-8.4,3-16.7,5.6-24.8c0.5-1.4,1.1-3,2.5-3.6
			c1.4-0.6,3.3-0.3,3.8-1.7c1.3-3.4,1.6-7.4,1.4-11.1c-0.1-2.1-0.8-4.2-0.8-6.3c0.1-1.5,0.5-2.9,0.7-4.4c0.2-2.2-0.4-4.5-1-6.6
			c-0.2-0.8-0.4-1.5-0.8-2.2c-0.4-0.6-0.8-1.2-1.3-1.8l-2.5-2.9c-1.2-1.4-2.4-2.8-4.1-3.5c-0.5-1.3-2.3-2.3-3.5-3
			c-1.3-0.7-2.5-1.3-3.9-1.9l-14-6.1c-0.5-0.3-1.1-0.4-1.7-0.5c-0.8,0-1.7,0.1-2.5,0.5C189.1,80.2,184.7,81.8,180.1,82.5L180.1,82.5
			z"/>
		<path class="st13" d="M165.3,61c-0.5-1.9-1.9-3.5-2.1-5.5c-0.2-1.7,0.6-3.4,1-5.1s0.4-3.7-0.9-4.9c-0.2-0.2-0.5-0.4-0.6-0.6
			c-0.2-0.5,0.4-1,0.5-1.5c0.3-1-1-2.1-0.5-3.1c0.3-0.5,0.9-0.7,1.5-0.9c2.2-0.6,4.4-2.1,4.8-4.3c1.7,0.7,3.5-0.6,4.8-1.9
			c1.3-1.3,2.9-2.8,4.7-2.4l-0.4,0.8c2.8-1,5.8-1,8.6-0.1h-0.9c2.4,0,4.8,0.8,6.8,2.3c-0.2,0-0.2,0.3-0.2,0.5
			c0.7,1.7,2.5,2.5,4.3,2.9c1.1,0.3,2.2,0.4,3,1.2c0.8,0.8,0.8,2.3-0.2,2.7c2.1,0.8,4.1,1.9,5.9,3.2c0.5,0.4,1.1,0.9,1,1.5
			c-0.1,0.3-0.2,0.6-0.3,0.9c-0.1,0.5-0.1,1.1,0.1,1.6l0.6,2.3c0.6,2.6,1.1,5.7-0.8,7.5c1.4,2.7,0.9,6-1.2,8.2
			c0.3,0.9,0.2,1.9-0.3,2.7c-0.5,0.8-1.3,1.4-2.2,1.6c0.6,1,0.1,2.3-0.9,3c-1,0.6-2.2,0.6-3.4,0.5c-1.1-0.1-2.3-0.4-3.5-0.2
			c-1.7,0.3-3.3,1.4-4.9,0.9c-0.6-0.3-1.2-0.6-1.7-0.9c-1.1-0.6-2.4-0.7-3.7-1c-2.1-0.5-4.1-1.3-5.9-2.5c-1.2-0.7-2.1-1.8-2.7-3
			c-1.1-2.8,0.8-6.5-1.2-8.8c-1.2-1.3-3.4-1.4-4.7-0.2c-0.6,0.6-0.7,1.8-1.4,2.2C167.2,61,166.3,61.1,165.3,61L165.3,61z
			 M240.8,124.5c0,0-10.8-6.2-25.1,1.5c-14.3,7.7-16.6,53.4-16.6,53.4s5.8,46.5-16.7,36.1c0,0-41.1-12.7-45.2-9.9c0,0-3.9,0,3.9,1.7
			c7.8,1.7,37.9,11.2,37.9,11.2s9.7,3.4,13.8,0s15.8,0.4,17.3-22.8c1-14.6,2.8-29.2,5.4-43.7l4-11.8L240.8,124.5L240.8,124.5z"/>
		<path class="st13" d="M242.1,196.4c0,0-4.8-47.1,3-64.1c6.8-14.8-19.4-7.9-26.3-5.9c-1.1,0.3-2,1-2.6,1.9
			c-4.1,5.7-18.6,28.4-14.3,58.9c0,0,1.7,27.1-9.1,31.4l33.3-10.7c2.7-0.9,5.4-1.6,8.2-2.2C237.9,204.9,243.6,202.6,242.1,196.4
			L242.1,196.4z"/>
		<path class="st5" d="M109.6,95.8c-1.5,0.7-2.9,1.7-4,3c-1.1,1.3-1.9,2.8-2.3,4.4H82.6c-0.4-1.6-1.2-3.1-2.3-4.4
			c-1.1-1.3-2.4-2.3-4-3H109.6z"/>
		<path class="st8" d="M36.3,89.9v6.5c0,3.6,2.6,6.5,5.9,6.5h100.9c3.2,0,5.9-2.9,5.9-6.5v-6.5C148.9,89.9,36.3,89.9,36.3,89.9z"/>
		<path d="M148.9,18.9c0-1.6-0.6-3-1.7-4.1c-1.1-1.1-2.6-1.7-4.2-1.7H42.2c-1.6,0-3,0.6-4.2,1.7c-1.1,1.1-1.7,2.6-1.7,4.1v72.2
			h112.6V18.9z"/>
		<path class="st1" d="M145.9,21.5v62.1c0,0.8-0.3,1.5-0.8,2c-0.5,0.5-1.3,0.8-2,0.8H42.3c-0.8,0-1.5-0.3-2-0.8
			c-0.5-0.5-0.8-1.3-0.8-2V21.5c0-0.5,0.1-1,0.4-1.4c0.5-0.9,1.5-1.4,2.5-1.4H143c0.8,0,1.5,0.3,2,0.8
			C145.6,20,145.9,20.8,145.9,21.5L145.9,21.5z"/>
		<path class="st14" d="M113.2,23.5c-0.1,0-0.1,0-0.1,0.1c0,0-0.1,0.1-0.1,0.1V39c0,0,0,0.1,0.1,0.1c0,0,0.1,0.1,0.1,0.1H134
			c0.1,0,0.1,0,0.1-0.1c0,0,0.1-0.1,0.1-0.1V23.7c0,0,0-0.1-0.1-0.1c0,0-0.1-0.1-0.1-0.1C134,23.6,113.2,23.6,113.2,23.5z"/>
		<path class="st1" d="M113.6,24.2v14.5h19.9V24.2H113.6z"/>
		<path class="st14" d="M113.2,45.1c-0.1,0-0.1,0-0.1,0.1c0,0-0.1,0.1-0.1,0.1v15.3c0,0,0,0.1,0.1,0.1c0,0,0.1,0.1,0.1,0.1H134
			c0.1,0,0.1,0,0.1-0.1c0,0,0.1-0.1,0.1-0.1V45.3c0-0.1,0-0.1-0.1-0.1c0,0-0.1-0.1-0.1-0.1H113.2z"/>
		<path class="st1" d="M113.6,45.7v14.5h19.9V45.7H113.6z"/>
		<path class="st14" d="M113.2,66.6c-0.1,0-0.1,0-0.1,0.1c0,0-0.1,0.1-0.1,0.1v15.3c0,0.1,0,0.1,0.1,0.1c0,0,0.1,0.1,0.1,0.1H134
			c0.1,0,0.1,0,0.1-0.1c0,0,0.1-0.1,0.1-0.1V66.8c0,0,0-0.1-0.1-0.1c0,0-0.1-0.1-0.1-0.1H113.2z"/>
		<path class="st1" d="M113.6,67.2v14.5h19.9V67.2H113.6z"/>
		<path class="st15" d="M129.8,35.8l-4-2.7h0c-0.1-0.4-0.2-0.9-0.3-1.3c0.4-0.3,0.6-0.8,0.8-1.3c0,0,0,0,0,0c0.3,0.3,1-2.6-0.1-3.2
			c0,0-0.8-1.8-2.4-1.4c-1.6,0.4-2.5,1-2.6,1.6c-0.1,0.6,0,1.5,0,1.5s0.1-0.7,0.6-1c-0.9,1-0.8,2.6,0.2,3.6c0.1,0.1,0.3,0.2,0.4,0.3
			c-0.1,0.4-0.3,0.9-0.4,1.3l-1.2,0.6l-2.6,1.7c0,0-1,1.3-1.4,2.8c0,0.1-0.1,0.2-0.1,0.4h14.1C130.4,37.5,129.8,35.8,129.8,35.8
			L129.8,35.8z"/>
		<path class="st15" d="M128.9,80c0.3-0.2,0.6-0.3,0.9-0.4l-3-3.5l-2-0.5c-0.3-0.2-0.6-0.5-0.8-0.8l1,0l0.4-2.2
			c0.2-0.6,0.1-1.2-0.4-1.7c0.1-0.6-0.2-1-0.9-1.3c-0.7-0.6-1.8-0.8-2.4,0.2c-0.3,0-0.5,0.1-0.7,0.2c-0.2,0.2-0.3,0.4-0.4,0.7
			c-0.6,0.7,0.1,3.2,0.3,4.1l1,0c-0.1,0.4-0.2,0.7-0.5,0.9l0,0l-2.1,1l-3,3.4c0.3,0.1,0.6,0.3,0.8,0.4l-0.3,1.1h2.1l0.6-0.8h0l0,0
			l0.4-0.6c0,0.5,0,0.9,0,1.4h6.6c0-0.4,0-0.8,0-1.2l0.7,1.1c0.1-0.1,0.1-0.2,0.2-0.2l0.1,0.4h1.7l-0.4-1.5
			C129,80.1,128.9,80.1,128.9,80L128.9,80z"/>
		<path class="st15" d="M127.4,55.9l-2.8-1.1c-0.1-0.2-0.1-0.5-0.2-0.7c0.6-0.3,1-0.9,1.2-1.5l0.3-0.3c0.3-0.3,0.5-0.8,0.4-1.2
			c-0.1-0.4-0.3-0.8-0.6-1.1c0.1-0.7-0.2-1.2-1.1-1.5c-0.9-0.7-2.1-0.9-2.9,0.3c-0.3,0-0.6,0.1-0.8,0.3c-0.2,0.2-0.4,0.5-0.4,0.8
			c-0.6,0.7,0,2.2,0.3,3.3c0.1,0.2,0.2,0.3,0.4,0.3c0.2,0.3,0.5,0.6,0.8,0.7c0,0.3,0,0.6-0.1,0.9l0-0.1l-2.1,0.9l0,0l-0.2,0.1
			l-0.3,0.1l0,0l0,0c-0.4,0.3-0.8,0.7-1,1.1l-1.1,3.1h9.6c0.1-0.3,0.2-0.6,0.4-0.9l0,0l0.9,1h2.6C130.6,60.3,127.5,55.9,127.4,55.9z
			"/>
		<path class="st14" d="M80,81.5c3.1,0,5.6-2.5,5.6-5.5s-2.5-5.5-5.6-5.5s-5.6,2.5-5.6,5.5S76.9,81.5,80,81.5L80,81.5z"/>
		<path class="st1" d="M80,80.2c2.4,0,4.3-1.9,4.3-4.2c0-2.3-1.9-4.3-4.3-4.3s-4.3,1.9-4.3,4.2C75.7,78.3,77.6,80.2,80,80.2L80,80.2
			z"/>
		<path class="st6" d="M82.2,78.3c-0.1,0-0.1,0-0.1-0.1L77.7,74c-0.1-0.1-0.1-0.2,0-0.3c0.1-0.1,0.2-0.1,0.3,0l4.3,4.3
			c0.1,0.1,0.1,0.1,0,0.2C82.3,78.3,82.2,78.3,82.2,78.3z M79.9,76.7l-0.6-0.6c0,0,0,0,0,0c0,0,0,0,0,0c0,0.2,0.1,0.3,0.2,0.4
			C79.6,76.6,79.7,76.7,79.9,76.7C79.9,76.7,79.9,76.7,79.9,76.7C79.9,76.7,79.9,76.7,79.9,76.7C79.9,76.7,79.9,76.7,79.9,76.7
			C79.9,76.7,79.9,76.7,79.9,76.7z M80.1,75.3l0.6,0.6c0,0,0,0,0,0c0,0,0,0,0,0c0,0,0,0,0,0c0-0.2-0.1-0.3-0.2-0.4
			C80.4,75.3,80.3,75.2,80.1,75.3C80.1,75.2,80.1,75.2,80.1,75.3C80.1,75.2,80.1,75.2,80.1,75.3C80.1,75.2,80.1,75.3,80.1,75.3
			L80.1,75.3z"/>
		<path class="st6" d="M82.9,76.2c0.1-0.1,0.1-0.3,0-0.4c-0.3-0.5-0.7-0.9-1.2-1.2c-0.5-0.3-1.1-0.5-1.7-0.5c-0.3,0-0.6,0-0.9,0.1
			c0,0,0,0,0,0c0,0,0,0,0,0l0.6,0.6c0,0,0,0,0,0c0.4-0.1,0.8,0,1.1,0.3c0.3,0.3,0.4,0.7,0.3,1.1c0,0,0,0,0,0l0.8,0.8c0,0,0,0,0.1,0
			C82.4,76.9,82.7,76.5,82.9,76.2z M80,77.1c-0.4,0-0.7-0.2-0.9-0.4c-0.2-0.3-0.3-0.6-0.2-1c0,0,0,0,0,0L78,74.9c0,0,0,0-0.1,0
			c-0.3,0.3-0.6,0.6-0.8,0.9c-0.1,0.1-0.1,0.3,0,0.4c0.3,0.5,0.7,0.9,1.2,1.2c0.5,0.3,1.1,0.5,1.7,0.5c0.3,0,0.6,0,0.9-0.1
			c0,0,0,0,0-0.1c0,0,0,0,0,0l-0.6-0.6c0,0,0,0,0,0C80.2,77.1,80.1,77.1,80,77.1L80,77.1z"/>
		<path class="st14" d="M58.7,81.5c3.1,0,5.6-2.5,5.6-5.5s-2.5-5.5-5.6-5.5c-3.1,0-5.6,2.5-5.6,5.5S55.6,81.5,58.7,81.5L58.7,81.5z"
			/>
		<path class="st1" d="M58.7,80.2c2.4,0,4.3-1.9,4.3-4.2c0-2.3-1.9-4.3-4.3-4.3s-4.3,1.9-4.3,4.2C54.4,78.3,56.3,80.2,58.7,80.2
			L58.7,80.2z"/>
		<path class="st6" d="M57.1,78.7c0.2,0,0.6-0.1,1.1-0.4c0.6-0.3,1.2-0.8,1.7-1.3c0.5-0.5,0.9-1,1.3-1.7c0.5-0.8,0.4-1.2,0.3-1.4
			c-0.1-0.2-0.3-0.4-0.4-0.5c-0.1-0.1-0.3-0.1-0.4-0.2c-0.1,0-0.2-0.1-0.3,0c-0.1,0-0.2,0.1-0.3,0.2c-0.3,0.3-0.5,0.6-0.6,0.9
			c-0.1,0.1-0.1,0.2-0.1,0.4c0,0.1,0.1,0.3,0.2,0.4c0,0,0,0,0,0.1c0.1,0.1,0.1,0.2,0.1,0.2c0,0.1-0.2,0.5-0.6,0.8
			c-0.3,0.3-0.7,0.5-0.8,0.5c-0.1,0-0.1,0-0.2-0.1c0,0,0,0-0.1,0c-0.1-0.1-0.2-0.2-0.4-0.2c-0.1,0-0.3,0.1-0.4,0.1
			c-0.2,0.1-0.7,0.4-0.9,0.6c-0.1,0.1-0.1,0.2-0.2,0.3c0,0.1,0,0.2,0,0.3l0,0c0.1,0.1,0.1,0.2,0.2,0.3c0.1,0.2,0.3,0.3,0.5,0.4
			C56.8,78.7,56.9,78.7,57.1,78.7L57.1,78.7z"/>
		<path class="st14" d="M101.5,81.5c3.1,0,5.6-2.5,5.6-5.5s-2.5-5.5-5.6-5.5s-5.6,2.5-5.6,5.5S98.4,81.5,101.5,81.5L101.5,81.5z"/>
		<path class="st1" d="M101.5,80.2c2.4,0,4.3-1.9,4.3-4.2c0-2.3-1.9-4.3-4.3-4.3s-4.3,1.9-4.3,4.2C97.2,78.3,99.1,80.2,101.5,80.2
			L101.5,80.2z"/>
		<path class="st6" d="M102.3,78.5h-1.6c-0.1,0-0.1,0-0.1-0.1c0,0-0.1-0.1-0.1-0.1c0-0.1,0-0.1,0.1-0.1c0,0,0.1-0.1,0.1-0.1h1.6
			c0.1,0,0.1,0,0.1,0.1c0,0,0.1,0.1,0.1,0.1C102.5,78.4,102.4,78.5,102.3,78.5C102.3,78.5,102.3,78.5,102.3,78.5z M101.5,77.5
			c-0.5,0-0.9-0.2-1.2-0.5c-0.3-0.3-0.5-0.8-0.5-1.2v-0.4c0-0.1,0-0.1,0.1-0.1c0.1-0.1,0.2-0.1,0.3,0c0,0,0.1,0.1,0.1,0.1v0.4
			c0,0.4,0.1,0.7,0.4,1c0.5,0.5,1.4,0.5,1.9,0c0.3-0.3,0.4-0.6,0.4-1v-0.4c0-0.1,0.1-0.2,0.2-0.2c0,0,0,0,0,0c0.1,0,0.1,0,0.1,0.1
			c0,0,0.1,0.1,0.1,0.1v0.4c0,0.5-0.2,0.9-0.5,1.2S101.9,77.5,101.5,77.5z"/>
		<path class="st6" d="M101.5,78.5c-0.1,0-0.1,0-0.1-0.1c0,0-0.1-0.1-0.1-0.1v-1c0-0.1,0.1-0.2,0.2-0.2c0.1,0,0.1,0,0.1,0.1
			c0,0,0.1,0.1,0.1,0.1v1c0,0.1,0,0.1-0.1,0.1C101.6,78.5,101.5,78.5,101.5,78.5z M101.5,76.8c-0.5,0-1-0.4-1-1v-1.3
			c0-0.4,0.2-0.7,0.6-0.9c0.1,0,0.2-0.1,0.4-0.1h0c0.3,0,0.5,0.1,0.7,0.3c0.2,0.2,0.3,0.4,0.3,0.7v1.3c0,0.3-0.1,0.5-0.3,0.7
			C102,76.7,101.7,76.8,101.5,76.8L101.5,76.8z"/>
		<path class="st1" d="M52.5,25.2V64h53.6V25.2L52.5,25.2L52.5,25.2z"/>
		<path class="st16" d="M103.7,45.9l-5.6,2.6l5-3.7c-0.8-1.2-1.7-2.4-2.7-3.5l-24.3,6L98,39c-1-0.9-2.1-1.7-3.2-2.4l-37,5.9
			c-3.9,4.8-6.1,10.9-6.1,17.1h55.7C107.4,54.8,106.1,50,103.7,45.9L103.7,45.9z"/>
		<path class="st17" d="M86.7,35.5c-1,2.8-2.4,5.3-5.4,5.3c-3,0-5.2-2.4-5.4-5.3c-0.2-3.8,2.3-5.3,5.4-5.3
			C84.9,30.2,87.9,32.2,86.7,35.5z"/>
		<path class="st17" d="M85.7,34.8h-8.8v12.7h8.8L85.7,34.8L85.7,34.8z"/>
		<path class="st18" d="M80,42c0,0,0.3,4-0.4,4.6s5.8,1.2,5.7,0.5c-0.1-0.7-1.3-5.6-0.9-6.6S80,42,80,42z"/>
		<path class="st19" d="M80,42c0,0,0.3,4-0.4,4.6s5.8,1.2,5.7,0.5c-0.1-0.7-1.3-5.6-0.9-6.6S80,42,80,42z"/>
		<path class="st20" d="M73.8,52.3l-3.4,11.3L70.3,64h-5.7c2.3-6.9,7.9-17.1,7.9-17.1l0.9-0.2L73.8,52.3z"/>
		<path class="st21" d="M73.8,52.3l-3.4,11.3L70.3,64h-5.7c2.3-6.9,7.9-17.1,7.9-17.1l0.9-0.2L73.8,52.3z"/>
		<path class="st18" d="M81.1,43.4c2.3,0,4.2-1.9,4.2-4.2c0-2.3-1.9-4.2-4.2-4.2c-2.3,0-4.2,1.9-4.2,4.2S78.8,43.4,81.1,43.4
			L81.1,43.4z"/>
		<path class="st17" d="M85.6,45.9c0,0-1.5,1.4-3.2,1.1c-1.7-0.3-2.4-2.3-2.4-2.3l-1.6,1.2c0,0-0.5,3.3,1.7,3.7
			c2.2,0.4,5.3,0.5,5.9,0C86.7,49.2,85.6,45.9,85.6,45.9z"/>
		<path class="st15" d="M90.8,50.9l-0.3,0.9L86.7,64H70.3c0-0.2,0.1-0.3,0.1-0.5c0.2-1.7,0.1-6.2,0.1-6.5c0-0.4,1.6-9.6,2-10.2
			c0.1-0.1,0.1-0.1,0.2-0.2c0.4-0.2,1.4-0.5,2.5-0.8l0,0c0.6-0.1,1.2-0.3,1.7-0.4c0.5-0.1,1-0.2,1.4-0.3c0.2,0,0.4-0.1,0.6-0.1
			c0.1,0,0.2,0.1,0.2,0.3c0.1,0.5,0.1,1.6,0.1,1.6c0.1,0.1,0.3,0.3,0.4,0.4c0.4,0.3,0.8,0.5,1.2,0.7c0.4,0.2,0.7,0.3,1.1,0.4
			c0.4,0.1,0.8,0.2,1.2,0.2c0.3,0,0.7,0,1,0h0c1-0.2,1.4-0.8,1.5-1.3c0-0.1,0.1-0.2,0.1-0.3v0c0.1-0.2,0.1-0.4,0.2-0.4
			c0.2,0,2.3,1.8,3.7,3C90.3,50.4,90.8,50.8,90.8,50.9L90.8,50.9L90.8,50.9z"/>
		<path class="st19" d="M90.5,51.7L86.7,64h-1.5c0.1-0.2,0.2-0.4,0.2-0.7c-0.1-0.3,1-3.8,2.1-7.1c0.9-2.9,1.8-5.7,1.8-5.7l0.9,0.4
			C90.1,51,90.3,51.3,90.5,51.7z"/>
		<path class="st15" d="M93.2,62.8c-0.2,0-0.2,0.6-0.2,1.2h-7.3c0.2-0.2,0.3-0.5,0.2-0.8c0-0.3,0.7-3.7,1.4-7c0.6-2.6,1.1-5.1,1.3-6
			l0.1-0.3l0.1,0l0,0l1.9,0.9h0c0,0,2.9,5.5,2,6.8c-0.9,1.3-0.9,1.3-0.6,2C92.6,60.2,93.6,62.8,93.2,62.8z"/>
		<path class="st17" d="M81.3,31.3c1.2,0,2.1-0.9,2.1-2.1c0-1.2-1-2.1-2.1-2.1c-1.2,0-2.1,0.9-2.1,2.1
			C79.2,30.3,80.2,31.3,81.3,31.3z"/>
		<path class="st17" d="M78.8,28c0-0.5,0.2-1,0.6-1.4c0.4-0.4,0.8-0.6,1.4-0.7c-0.6-0.1-1.3,0.2-1.7,0.6c-0.4,0.4-0.6,0.9-0.6,1.5
			c0,0.6,0.2,1.1,0.6,1.5c0.5,0.4,1.1,0.7,1.7,0.6c-0.5-0.1-1-0.3-1.4-0.7C79,29.1,78.8,28.6,78.8,28L78.8,28z M79.8,34
			c0,0,0-0.2-1.8,0.4c-1.7,0.6-2.8,5.4-1.9,8.2c0.3,1.1,0.1,1.9-0.4,2.5c-1.7,2.1-1.1,5.3,1.5,6.4l0.2,0.1l1.1,0.6
			c0,0-1.4-1.8-0.7-4.1c0.6-2,0.7-4,0.2-6c-0.1-0.3-0.2-0.7-0.3-1c-0.9-3-0.4-2.7,2.6-5.7c0,0,1.7,1.3,3.3,1.9
			c1.5,0.6,2.8,1.3,1.7,3.4c-1.1,2.1-3.7,4.1-2,6.9c1.7,2.8,2,1.7,1.7,2.8l-0.2,1.1l1.3-1.3l-0.9,1.7c0,0,2.8,0,3.7-2.1l0.4,0.4
			c0,0,1.7-3-1.5-5.8c0,0-1.1-0.6,0.4-2.8c1.5-2.1,0.4-6.8-1.6-7.6C84.8,33.1,79.8,34,79.8,34z"/>
		<path class="st17" d="M81.1,47.5l-3.6,6.2h0.8v0.8l4.1-7L81.1,47.5L81.1,47.5z"/>
		<path class="st22" d="M50.8,24.1c0-0.1,0.1-0.3,0.2-0.4c0.1-0.1,0.2-0.1,0.4-0.1h55.9c0.1,0,0.3,0.1,0.4,0.1
			c0.1,0.1,0.2,0.2,0.2,0.4v41.1c0,0.1-0.1,0.3-0.2,0.4c-0.1,0.1-0.2,0.1-0.4,0.1H51.4c-0.1,0-0.3-0.1-0.4-0.1
			c-0.1-0.1-0.1-0.2-0.2-0.4V24.1z M56.2,60.3V28.9h46.2v31.5L56.2,60.3L56.2,60.3z"/>
		<path class="st1" d="M92.6,17.2c0.7,0,1.4-0.6,1.4-1.3c0,0,0,0,0,0c0-0.7-0.6-1.3-1.4-1.3l0,0c-0.7,0-1.4,0.6-1.4,1.3c0,0,0,0,0,0
			C91.3,16.6,91.9,17.2,92.6,17.2C92.6,17.2,92.6,17.2,92.6,17.2z"/>
		<path d="M92.6,99.9c1.8,0,3.3-1.5,3.3-3.3c0,0,0,0,0,0c0-1.8-1.5-3.3-3.3-3.3c0,0,0,0,0,0c-1.8,0-3.3,1.5-3.3,3.3c0,0,0,0,0,0
			C89.3,98.5,90.8,99.9,92.6,99.9L92.6,99.9z"/>
	</g>
</g>
</svg>
