<?xml version="1.0" encoding="utf-8"?>
<!-- Generator: Adobe Illustrator 28.0.0, SVG Export Plug-In . SVG Version: 6.00 Build 0)  -->
<svg version="1.1" id="Capa_1" xmlns="http://www.w3.org/2000/svg" xmlns:xlink="http://www.w3.org/1999/xlink" x="0px" y="0px"
	 viewBox="0 0 50 51" style="enable-background:new 0 0 50 51;" xml:space="preserve">
<style type="text/css">
	.st0{fill:#30D7CF;}
</style>
<circle class="st0" cx="32.6" cy="28.2" r="12.4"/>
<path d="M25,40.5c-8.1,0-14.7-6.6-14.7-14.7S16.9,11.2,25,11.2s14.7,6.6,14.7,14.7c0,0,0,0,0,0C39.6,33.9,33.1,40.5,25,40.5z
	 M25,13.4c-6.8,0-12.4,5.5-12.4,12.4S18.2,38.2,25,38.2s12.4-5.5,12.4-12.4C37.4,19,31.8,13.4,25,13.4z"/>
<path d="M16.2,27c-0.6,0-1.1-0.5-1.1-1.1l0,0c0-5.5,4.4-9.9,9.9-9.9c0.6,0,1.1,0.5,1.2,1.1c0,0.6-0.5,1.1-1.1,1.2c0,0,0,0-0.1,0
	c-4.2,0-7.6,3.4-7.6,7.6C17.4,26.5,16.9,27,16.2,27z M25,8.9c-0.6,0-1.1-0.5-1.1-1.1v0V2c0-0.6,0.5-1.1,1.1-1.1s1.1,0.5,1.1,1.1v5.8
	C26.1,8.4,25.6,8.9,25,8.9L25,8.9z M25,50.8c-0.6,0-1.1-0.5-1.1-1.1v-5.8c0-0.6,0.5-1.1,1.1-1.1s1.1,0.5,1.1,1.1v5.8
	C26.1,50.3,25.6,50.8,25,50.8L25,50.8z M7,27H1.1C0.5,27,0,26.5,0,25.8s0.5-1.1,1.1-1.1H7c0.6,0,1.1,0.5,1.1,1.1S7.6,27,7,27z
	 M48.9,27H43c-0.6,0-1.1-0.5-1.1-1.1s0.5-1.1,1.1-1.1h5.8c0.6,0,1.1,0.5,1.1,1.1S49.5,27,48.9,27z M8.1,43.8c-0.6,0-1.1-0.5-1.1-1.1
	c0-0.3,0.1-0.6,0.3-0.8l4.1-4.1c0.4-0.4,1.2-0.4,1.6,0c0.4,0.4,0.4,1.2,0,1.6l-4.1,4.1C8.7,43.7,8.4,43.8,8.1,43.8L8.1,43.8z
	 M37.8,14.2c-0.6,0-1.1-0.5-1.1-1.1c0-0.3,0.1-0.6,0.3-0.8l4.1-4.1c0.4-0.4,1.2-0.4,1.6,0c0.4,0.4,0.4,1.2,0,1.6l-4.1,4.1
	C38.3,14.1,38.1,14.2,37.8,14.2z M41.9,43.8c-0.3,0-0.6-0.1-0.8-0.3L37,39.4c-0.5-0.4-0.5-1.1-0.1-1.6c0.4-0.5,1.1-0.5,1.6-0.1
	c0,0,0,0,0.1,0.1l4.1,4.1c0.4,0.4,0.4,1.2,0,1.6C42.5,43.7,42.2,43.8,41.9,43.8z M12.2,14.2c-0.3,0-0.6-0.1-0.8-0.3L7.3,9.7
	c-0.4-0.4-0.4-1.2,0-1.6c0.4-0.4,1.1-0.4,1.6,0l4.1,4.1c0.4,0.4,0.4,1.2,0,1.6C12.8,14.1,12.5,14.2,12.2,14.2L12.2,14.2z"/>
</svg>
