<?xml version="1.0" encoding="utf-8"?>
<!-- Generator: Adobe Illustrator 28.0.0, SVG Export Plug-In . SVG Version: 6.00 Build 0)  -->
<svg version="1.1" id="Capa_1" xmlns="http://www.w3.org/2000/svg" xmlns:xlink="http://www.w3.org/1999/xlink" x="0px" y="0px"
	 viewBox="0 0 24 25" style="enable-background:new 0 0 24 25;" xml:space="preserve">
<style type="text/css">
	.st0{fill:#790033;}
</style>
<g>
	<path class="st0" d="M12,20.5c-0.3,0-0.5-0.1-0.7-0.3c-0.4-0.4-0.4-1,0-1.4l5.3-5.3H5c-0.6,0-1-0.4-1-1s0.4-1,1-1h11.6l-5.3-5.3
		c-0.4-0.4-0.4-1,0-1.4s1-0.4,1.4,0l7,7c0.1,0.1,0.2,0.2,0.2,0.3c0,0.1,0.1,0.2,0.1,0.4l0,0c0,0,0,0,0,0l0,0c0,0.1,0,0.3-0.1,0.4
		c0,0.1-0.1,0.2-0.2,0.3l-7,7C12.5,20.4,12.3,20.5,12,20.5z"/>
</g>
</svg>
