<?xml version="1.0" encoding="utf-8"?>
<!-- Generator: Adobe Illustrator 28.0.0, SVG Export Plug-In . SVG Version: 6.00 Build 0)  -->
<svg version="1.1" id="Capa_1" xmlns="http://www.w3.org/2000/svg" xmlns:xlink="http://www.w3.org/1999/xlink" x="0px" y="0px"
	 viewBox="0 0 420 222" style="enable-background:new 0 0 420 222;" xml:space="preserve">
<style type="text/css">
	.st0{fill:#30D7CF;}
	.st1{clip-path:url(#SVGID_00000029749643877015010900000008946998719836758943_);}
	.st2{fill:#FFFFFF;}
	.st3{fill-rule:evenodd;clip-rule:evenodd;fill:#950080;}
</style>
<path class="st0" d="M0,0h420v222H0V0z"/>
<g>
	<defs>
		<rect id="SVGID_1_" x="167" y="67" width="87" height="95"/>
	</defs>
	<clipPath id="SVGID_00000036244996423093557140000000705354101529534083_">
		<use xlink:href="#SVGID_1_"  style="overflow:visible;"/>
	</clipPath>
	<g style="clip-path:url(#SVGID_00000036244996423093557140000000705354101529534083_);">
		<path class="st2" d="M219.2,162l-24-23.9c-13.2-13.2-13.3-34.5-0.2-47.6c13.1-13.1,34.4-13,47.7,0.2s13.3,34.5,0.2,47.5L219.2,162
			z"/>
		<path class="st3" d="M183.3,121l18.9,18.9l18.9-18.9c10.4-10.4,10.4-27.3,0-37.7c-10.4-10.4-27.4-10.4-37.8,0
			C172.9,93.7,172.9,110.5,183.3,121z M202.2,151.2l24.6-24.6c13.6-13.6,13.6-35.5,0-49.1c-13.6-13.6-35.6-13.6-49.2,0
			c-13.6,13.6-13.6,35.5,0,49.1L202.2,151.2z"/>
	</g>
</g>
</svg>
