<?xml version="1.0" encoding="utf-8"?>
<!-- Generator: Adobe Illustrator 28.0.0, SVG Export Plug-In . SVG Version: 6.00 Build 0)  -->
<svg version="1.1" id="Capa_1" xmlns="http://www.w3.org/2000/svg" xmlns:xlink="http://www.w3.org/1999/xlink" x="0px" y="0px"
	 viewBox="0 0 24 24" style="enable-background:new 0 0 24 24;" xml:space="preserve">
<style type="text/css">
	.st0{fill:#FFFFFF;}
	.st1{fill:#950080;}
</style>
<g>
	<path class="st0" d="M12,22c5.5,0,10-4.5,10-10S17.5,2,12,2S2,6.5,2,12S6.5,22,12,22z"/>
	<path class="st1" d="M12,22.5C6.2,22.5,1.5,17.8,1.5,12C1.5,6.2,6.2,1.5,12,1.5c5.8,0,10.5,4.7,10.5,10.5
		C22.5,17.8,17.8,22.5,12,22.5z M12,2.5c-5.2,0-9.5,4.3-9.5,9.5s4.3,9.5,9.5,9.5s9.5-4.3,9.5-9.5S17.2,2.5,12,2.5z"/>
</g>
<g>
	<path class="st1" d="M15,16c-0.3,0-0.5-0.1-0.7-0.3L12,13.4l-2.3,2.3c-0.4,0.4-1,0.4-1.4,0s-0.4-1,0-1.4l2.3-2.3L8.3,9.7
		c-0.4-0.4-0.4-1,0-1.4s1-0.4,1.4,0l2.3,2.3l2.3-2.3c0.4-0.4,1-0.4,1.4,0s0.4,1,0,1.4L13.4,12l2.3,2.3c0.4,0.4,0.4,1,0,1.4
		C15.5,15.9,15.3,16,15,16z"/>
</g>
</svg>
