<?xml version="1.0" encoding="utf-8"?>
<!-- Generator: Adobe Illustrator 28.0.0, SVG Export Plug-In . SVG Version: 6.00 Build 0)  -->
<svg version="1.1" id="Capa_1" xmlns="http://www.w3.org/2000/svg" xmlns:xlink="http://www.w3.org/1999/xlink" x="0px" y="0px"
	 viewBox="0 0 244 160" style="enable-background:new 0 0 244 160;" xml:space="preserve">
<style type="text/css">
	.st0{clip-path:url(#SVGID_00000056426869700104939580000009743874978067811258_);}
	.st1{fill:#950080;}
	.st2{fill:#FFB8B8;}
	.st3{fill:#E6E6E6;}
	.st4{fill:#CCCCCC;}
	.st5{fill:#0F0F0F;}
	.st6{fill:#790033;}
	.st7{opacity:0.2;enable-background:new    ;}
	.st8{fill:#3F3D56;}
	.st9{fill:#A0616A;}
	.st10{fill:#30D7CF;}
</style>
<g>
	<defs>
		<rect id="SVGID_1_" x="0.4" width="243.2" height="160"/>
	</defs>
	<clipPath id="SVGID_00000101784921952183183340000009324007629436201892_">
		<use xlink:href="#SVGID_1_"  style="overflow:visible;"/>
	</clipPath>
	<g style="clip-path:url(#SVGID_00000101784921952183183340000009324007629436201892_);">
		<path class="st1" d="M113.8,85.1c-23.5,0-42.6-19.1-42.6-42.6S90.3,0,113.8,0s42.6,19.1,42.6,42.6c0,0,0,0,0,0
			C156.4,66.1,137.3,85.1,113.8,85.1L113.8,85.1z M113.8,1.1C91,1.1,72.4,19.7,72.4,42.6S91,84,113.8,84s41.4-18.5,41.4-41.4
			c0,0,0,0,0,0C155.2,19.7,136.7,1.2,113.8,1.1z"/>
		<path class="st1" d="M119.5,56.3c2.6-0.9,4.7-2.3,6.2-4.2c1.5-1.8,2.4-4,2.7-6.5l5.7-2c-0.1,4-1.3,7.5-3.6,10.5
			c-2.3,3-5.5,5.2-9.4,6.6c-4.2,1.5-8.2,1.6-12.2,0.5c-4-1.2-7.2-3.4-9.8-6.8L93.9,56l-1.2-3.4l4.4-1.6c-0.4-0.9-0.8-1.8-1.1-2.7
			c-0.3-0.9-0.6-1.7-0.8-2.6l-4.4,1.6L89.6,44l5.1-1.8c-0.1-2.8,0.3-5.5,1.3-8.1c1-2.5,2.5-4.8,4.5-6.7c2-1.9,4.4-3.4,7.2-4.4
			c4-1.4,7.8-1.7,11.5-0.8c3.7,0.9,6.8,2.8,9.4,5.9l-5.7,2c-1.8-1.8-3.9-3-6.2-3.5c-2.3-0.5-4.8-0.2-7.5,0.7c-3,1.1-5.3,2.7-6.9,5
			c-1.6,2.3-2.5,4.9-2.5,8l12.5-4.4l1.2,3.3L100.1,44c0.2,0.9,0.4,1.8,0.8,2.6c0.4,1,0.8,1.9,1.2,2.7l13.2-4.7l1.2,3.4l-12.4,4.4
			c1.9,2.2,4.3,3.7,7,4.4C113.8,57.5,116.6,57.3,119.5,56.3z"/>
		<path class="st2" d="M130.7,73.8c0.3-0.5,0.8-0.9,1.3-1.2c1.1-0.6,2.4-0.6,3.5-0.1c0.5,0.3,1,0.7,1.4,1.1l13-4.5l-1.8,7.1
			l-12.1,3.2c-1.6,1.1-3.7,0.9-5-0.5C129.8,77.6,129.6,75.4,130.7,73.8z"/>
		<path class="st3" d="M224.6,159.5c0.8-9,3.1-17.8,6.8-26c1-2.3,2.2-4.5,3.4-6.7c0.3-0.6-0.6-1.1-0.9-0.5c-4.5,8-7.6,16.6-9.3,25.6
			c-0.5,2.5-0.8,5-1,7.6C223.6,160.2,224.6,160.2,224.6,159.5L224.6,159.5z"/>
		<path class="st3" d="M237.3,128.4c3.5,0,6.4-2.8,6.4-6.4c0-3.5-2.8-6.4-6.4-6.4c0,0,0,0,0,0c-3.5,0-6.4,2.8-6.4,6.4
			C230.9,125.6,233.8,128.4,237.3,128.4z M225.3,159.7c0.5-5.8,2-11.5,4.4-16.9c0.7-1.5,1.4-2.9,2.2-4.4c0.1-0.2,0-0.3-0.1-0.4
			c-0.2-0.1-0.3,0-0.4,0.1c-3.7,6.6-6,14-6.7,21.6C224.6,160.1,225.2,160.1,225.3,159.7z"/>
		<path class="st3" d="M233.5,139.5c2.3,0,4.1-1.8,4.1-4.1s-1.8-4.1-4.1-4.1c-2.3,0-4.1,1.8-4.1,4.1
			C229.4,137.7,231.2,139.5,233.5,139.5C233.5,139.5,233.5,139.5,233.5,139.5z M224.5,159.3c-3.2-4.9-5.5-10.3-6.9-16
			c-0.4-1.6-0.7-3.2-0.9-4.8c0-0.2-0.2-0.3-0.4-0.3c-0.2,0-0.3,0.2-0.3,0.4c0.9,5.9,2.7,11.6,5.5,16.8c0.8,1.5,1.6,2.9,2.5,4.3
			C224.2,160.1,224.7,159.6,224.5,159.3z"/>
		<path class="st3" d="M216,139.2c2.3,0,4.1-1.8,4.1-4.1s-1.8-4.1-4.1-4.1s-4.1,1.8-4.1,4.1S213.7,139.2,216,139.2z"/>
		<path class="st2" d="M204.8,99c0.6-2.1-0.7-4.3-2.8-4.8c-0.2-0.1-0.5-0.1-0.7-0.1l-3.5-13.6l-4.9,5.4l4.1,12.1c0,2.2,1.7,4,3.9,4
			C202.7,102,204.3,100.8,204.8,99L204.8,99z"/>
		<path class="st4" d="M185.9,47.9l15.9,41.6l-6.8,1.9l-16.4-43.8l1.2-1.1c1.5-1.5,3.9-1.4,5.4,0.1C185.5,47,185.7,47.5,185.9,47.9z
			"/>
		<path class="st2" d="M143.4,144.7l-3.7-1.9l5.4-15l5.4,2.7L143.4,144.7z"/>
		<path class="st5" d="M137.7,140.5l7,3.6l-2.3,4.4l-11.5-5.8c0.6-1.2,1.6-2.1,2.9-2.5C135.2,139.8,136.5,139.9,137.7,140.5z"/>
		<path class="st2" d="M176.1,155.8l-4.1-0.2l-1.4-15.9l6,0.2L176.1,155.8z"/>
		<path class="st5" d="M169.1,154.4l7.9,0.3l-0.2,5l-12.9-0.5C164,156.4,166.3,154.3,169.1,154.4z"/>
		<path class="st6" d="M140,139.2l5.4,2l23.7-37.4l1.6,48l6.1,1.2c0,0,9-60.4,9.9-65.5c0.9-5.5-9.8-13.2-9.8-13.2l-0.2-0.7
			C168.3,77.9,143.8,130.6,140,139.2L140,139.2z"/>
		<path class="st2" d="M176.8,42.4c5-1.7,7.8-7.2,6.1-12.2c-1.7-5-7.2-7.8-12.2-6.1c-5,1.7-7.8,7.2-6.1,12.2
			C166.3,41.4,171.8,44.1,176.8,42.4L176.8,42.4z"/>
		<path class="st4" d="M190.2,84.2l-4.8-35.2c-0.3-2.2-2.2-3.7-4.4-3.6l-5.4,0.4c-3.1,0.2-5.9,2.2-7.2,5.1
			c-7.3,17.9-7.6,33.5-5.5,37.7C165,92.8,172.5,98.5,190.2,84.2z"/>
		<path class="st7" d="M178.9,62.2c0,0-1,8.3-4.5,14l-12.6,5.3c0,0-0.2-6.6-0.6-10C164.5,67.9,177.1,61.9,178.9,62.2L178.9,62.2z"/>
		<path class="st4" d="M184.3,49.8c-0.4-0.2-0.7-0.3-1.1-0.4c-1.6-0.4-3.3,0-4.6,1.1l-21.5,15.7L140,71.9l3.1,7.3l25.5-6.2l16.9-15
			c1.2-1.1,1.7-2.8,1.5-4.4C186.7,52,185.7,50.5,184.3,49.8L184.3,49.8z"/>
		<path class="st8" d="M237.7,159.9H130.6c-0.2,0-0.4-0.2-0.4-0.4s0.2-0.4,0.4-0.4h107.1c0.2,0,0.4,0.2,0.4,0.4
			S237.9,159.9,237.7,159.9z M107.9,159.9H0.8c-0.2,0-0.4-0.2-0.4-0.4c0-0.1,0-0.2,0.1-0.3c0.1-0.1,0.2-0.1,0.3-0.1h107.1
			c0.2,0,0.4,0.2,0.4,0.4S108.1,159.9,107.9,159.9z"/>
		<path class="st9" d="M69.2,155.6l3.9-1.2l-2.8-15.7l-5.8,1.8C64.6,140.5,69.2,155.6,69.2,155.6z"/>
		<path class="st5" d="M81.8,155.7l-12.3,3.8l-1.5-4.8l7.6-2.3C78.2,151.6,81,153.1,81.8,155.7C81.8,155.7,81.8,155.7,81.8,155.7
			L81.8,155.7z"/>
		<path class="st9" d="M34.4,155.7h4.1l2-15.8h-6.1V155.7z"/>
		<path class="st5" d="M46.4,159.5l-12.9,0v-5l7.9,0C44.2,154.5,46.4,156.7,46.4,159.5L46.4,159.5z"/>
		<path class="st9" d="M35.5,103.1c-0.7-0.6-1.1-1.5-1-2.4c0-0.9,0.4-1.8,1.2-2.3l3.2-40l6.5,1.6l-5.2,39.1c1,1.4,0.6,3.3-0.8,4.3
			C38.1,104.2,36.5,104.1,35.5,103.1z M50.8,43.2c4.5,0,8.2-3.7,8.2-8.2c0-4.5-3.7-8.2-8.2-8.2c0,0,0,0,0,0c-4.5,0-8.2,3.7-8.2,8.2
			C42.6,39.5,46.2,43.2,50.8,43.2z"/>
		<path class="st10" d="M39.5,59.2c-2-2.7-2-6.4,0.1-8.9c1.4-1.7,3.7-3,7.5-3c10.2,0,14.1,8.1,14.1,8.1s4.2,7.8,1.8,14.8
			c-2.5,7-2.5,7.8-2.5,7.8l-16.2-1.4C44.3,76.5,47.1,69.5,39.5,59.2L39.5,59.2z"/>
		<path class="st10" d="M34.5,66.2L38,54.8c0.9-2.9,3.9-4.5,6.8-3.6c0.3,0.1,0.6,0.2,0.9,0.4c2.6,1.3,3.7,4.4,2.5,7l-4.4,10.1
			C43.8,68.7,34.5,66.2,34.5,66.2z"/>
		<path class="st6" d="M60.2,76.1l13.7,71.2l-7.4,2.1l-18-46.9l-8.1,47.9l-7.8,1.1c0,0-3.4-63.4,11.6-75
			C44.3,76.5,60.2,76.1,60.2,76.1z"/>
		<path class="st9" d="M78.6,68.7c-0.1,0.1-0.2,0.3-0.3,0.4L61.7,70l-3.2-9.7L53,62.9l5.2,14.5l20.5-4c1.3,1.4,3.5,1.5,5,0.2
			c1.4-1.3,1.5-3.5,0.2-5c-1.3-1.4-3.5-1.5-5-0.2C78.8,68.5,78.7,68.6,78.6,68.7z"/>
		<path class="st10" d="M50.5,56.4c-0.4-3,1.8-5.7,4.8-6.1c0.3,0,0.7,0,1,0c2.9,0.2,5.1,2.6,5.1,5.5v11l-9.5,1.5
			C51.9,68.2,50.5,56.4,50.5,56.4z"/>
		<path class="st5" d="M52.6,43.3c-1.2,0-2.2-1.3-2.1-2.5c0.1-1.2,0.9-2.3,1.9-3c1-0.7,2.2-1.2,3.3-1.7c1.1-0.5,2.2-1.2,2.9-2.2
			c0.8-1.4,1-3,0.3-4.5c-0.6-1.5-1.7-2.7-3.1-3.4c-2.1-1.2-4.5-1.6-6.8-1.1c-2.3,0.5-5.7,1.9-7.1,3.8l-1.4,3.8
			c-1.4,1.7-0.3,4.3,0.6,6.3c0.9,2.1,2.8,3.6,4.9,4.4c2.1,0.7,4.5,0.8,6.6,0.2"/>
		<path class="st5" d="M45.1,30.5c-0.6-1-1.7-1.6-2.7-1.9c-4.5-1.5-9.4,0.9-10.9,5.4c-0.2,0.7-0.4,1.5-0.4,2.3
			c-0.1,2.1,0.5,4.2,0.9,6.3c0.4,2.1,0.5,4.4-0.7,6.2c-0.9,1.4-2.3,2.2-3.8,2.9c-1.2,0.6-2.5,1.2-3.8,1.1c-1.3-0.1-2.7-1.2-2.6-2.5
			c-0.4,1-0.8,2-0.9,3c-0.1,1.1,0.2,2.2,0.9,2.9c1.1,1.1,2.9,1,4.4,0.8c3.3-0.5,6.6-1.4,9.2-3.5c2.6-2.1,4.3-5.5,3.6-8.8
			c-0.3-1.4-1-2.6-1.5-3.9c-0.5-1.3-1-2.7-0.7-4.1c0.3-1.4,1.2-2.7,2.5-3.3c1.3-0.7,2.8-0.9,4.2-0.6c0.9,0.2,2.1,0.4,2.7-0.4
			c0.3-0.5,0.3-1.1,0-1.6c-0.3-0.5-0.7-0.9-1.2-1.2 M181.1,26.7c4,3.1-7,3.8-13,3.8L170,36c1.5-3,3.8-0.3,4.8,1.5
			c1.5,2.6,5.3,6.3,8.7,0.2C186.9,31.5,183.3,27.8,181.1,26.7L181.1,26.7z"/>
	</g>
</g>
</svg>
