<?xml version="1.0" encoding="utf-8"?>
<!-- Generator: Adobe Illustrator 28.0.0, SVG Export Plug-In . SVG Version: 6.00 Build 0)  -->
<svg version="1.1" id="Capa_1" xmlns="http://www.w3.org/2000/svg" xmlns:xlink="http://www.w3.org/1999/xlink" x="0px" y="0px"
	 viewBox="0 0 202 160" style="enable-background:new 0 0 202 160;" xml:space="preserve">
<style type="text/css">
	.st0{clip-path:url(#SVGID_00000071551958982718926550000012277015405612259470_);}
	.st1{fill:#F2F2F2;}
	.st2{fill:#FFB8B8;}
	.st3{fill:#2F2E41;}
	.st4{fill:#790033;}
	.st5{fill:#380091;}
	.st6{fill:#FFFFFF;}
	.st7{fill:#E6E6E6;}
	.st8{fill:#30D7CF;}
	.st9{fill:#FF007C;}
</style>
<g>
	<defs>
		<rect id="SVGID_1_" x="0.5" width="201" height="160"/>
	</defs>
	<clipPath id="SVGID_00000178193306510195865620000003412866779774445971_">
		<use xlink:href="#SVGID_1_"  style="overflow:visible;"/>
	</clipPath>
	<g style="clip-path:url(#SVGID_00000178193306510195865620000003412866779774445971_);">
		<path class="st1" d="M28.1,94.4c0-29.8,26.2-55,62-62.7c6.1-1.3,12.3-2.1,18.5-2.3c1.5-0.1,3.1-0.1,4.7-0.1c2.7,0,5.4,0.1,8.1,0.3
			c1.5,0.1,2.9,0.2,4.4,0.4c14.1,1.6,27.1,5.8,38.1,12c1.4,0.8,2.7,1.6,4,2.4c2.4,1.5,4.7,3.2,6.9,4.9c14.7,11.7,2.4,36.7-5.2,52.4
			c-20.6,42.4-9.3,57.8-56.3,57.8S28.1,130.4,28.1,94.4z"/>
		<path class="st2" d="M27.9,156.4l3.7,0l1.7-14.2l-5.4,0L27.9,156.4L27.9,156.4z"/>
		<path class="st3" d="M38.7,159.8l-11.5,0v-4.5l7.1,0C36.7,155.3,38.7,157.3,38.7,159.8C38.7,159.8,38.7,159.8,38.7,159.8z"/>
		<path class="st2" d="M57.5,156.4l3.7,0l1.7-14.2l-5.4,0L57.5,156.4L57.5,156.4z"/>
		<path class="st3" d="M68.2,159.8l-11.5,0v-4.5l7.1,0C66.2,155.3,68.2,157.3,68.2,159.8C68.2,159.8,68.2,159.8,68.2,159.8z
			 M27.1,151.2c-0.7,0-1.3-0.5-1.4-1.2l-2.4-29.6c-2.5-25.1,1.8-33.9,1.9-34l0-0.1l0.1,0l20.4,1.2l4.3,14.2l11.4,15.4
			c1.8,2.4,2.8,5.4,2.7,8.4L64,147.8c0,0.8-0.6,1.4-1.3,1.4l-6,0.4c-0.8,0.1-1.5-0.5-1.5-1.3L53.6,124c0,0,0,0,0-0.1l-17-15.8
			c-0.1-0.1-0.3-0.2-0.4-0.1c-0.2,0-0.3,0.1-0.4,0.3l-1.7,41.2c0.1,0.6-0.3,1.2-0.8,1.4c-0.2,0.1-0.4,0.1-0.6,0.1L27.1,151.2
			L27.1,151.2L27.1,151.2z M41.5,55.6c5-2.7,6.8-9,4.1-14s-9-6.8-14-4.1c-5,2.7-6.8,9-4.1,14C30.2,56.5,36.5,58.4,41.5,55.6
			L41.5,55.6z"/>
		<path class="st2" d="M80.7,66.8c-1.4-0.8-3.3-0.3-4.1,1.1c-0.1,0.2-0.2,0.3-0.2,0.5l-6.9,0.4l-0.8,4.2l9.7-0.7
			c1.6,0.4,3.3-0.5,3.7-2.1C82.6,68.9,82,67.5,80.7,66.8z M23.9,101.8c0.6-1.2,0.3-2.7-0.8-3.6c-0.3-0.3-0.7-0.5-1.2-0.6l-0.8-6.8
			l-4.3-0.5l1.3,9.6c-0.3,1.6,0.7,3.2,2.3,3.6C21.9,103.7,23.3,103,23.9,101.8z M36.1,57.6c4.4,0,7.9-3.5,7.9-7.9s-3.5-7.9-7.9-7.9
			c0,0,0,0,0,0c-4.4,0-7.9,3.5-7.9,7.9C28.2,54.1,31.7,57.6,36.1,57.6z"/>
		<path class="st4" d="M37.6,90.2c-4.2,0-7.7-0.3-11.2-1.6c-1.4-0.5-1.6-1.2-1.8-1.9c-0.3-1.2-0.5-16,1.1-20.9
			c0.9-2.7,3.3-4.6,6.1-5c1.6-0.2,6.2-0.8,8.9-1.2c1.3-0.2,2.6,0.1,3.7,0.9c0.7,0.5,1.1,1.1,1.1,1.7l0.7,25c0,1.5-1.1,2.8-2.6,2.9
			C41.6,90.1,39.6,90.2,37.6,90.2L37.6,90.2z"/>
		<path class="st4" d="M16.7,96.3c-0.8,0-1.4-0.7-1.4-1.4c0,0,0,0,0-0.1l0.2-11.5c0.1-1.4,0.5-2.8,1.2-4l9.7-15.6
			c0.6-1,1.7-1.6,2.9-1.6c1.2,0,2.3,0.6,2.9,1.6c0.6,1,0.7,2.3,0.1,3.4l-9.4,17.1l0.6,10.5c0,0.8-0.6,1.5-1.4,1.5c0,0,0,0,0,0
			L16.7,96.3C16.7,96.3,16.7,96.3,16.7,96.3z M74.4,74.8c-0.3,0.3-0.6,0.5-1,0.5l-11.5,0.6c-1.4,0.1-2.8-0.3-4.1-0.9l-16.3-8.5
			c-1.6-0.9-2.3-2.9-1.4-4.5c0.2-0.5,0.6-0.9,1-1.2l0.1,0.1l-0.1-0.1c1-0.7,2.3-0.8,3.4-0.3l17.8,8.1L72.8,67
			c0.8-0.1,1.5,0.5,1.6,1.3c0,0,0,0,0,0l0.4,5.3c0,0,0,0.1,0,0.1C74.8,74.1,74.6,74.5,74.4,74.8L74.4,74.8z"/>
		<path class="st3" d="M30.2,48.6l-2-5.5l9.2-2.7l6.6,2v6.2H30.2z"/>
		<path class="st3" d="M39.9,36.2c-0.5-6.2-6-10.7-12.2-10.2c-3,0.3-5.8,1.7-7.7,4c-1.9,2.4-2.8,5.4-3.5,8.4c-0.7,3-1.1,6-2.4,8.8
			c-1.3,2.8-3.5,5.3-6.5,6c-3,0.7-6.6-0.9-7.2-3.9c0.2,4.1,2.1,7.8,5.1,10.5c2.6,2.2,6.7,1.4,9.3-0.8c2.5-2.3,3.8-5.6,4.9-8.8
			c1.1-3.2,2.1-6.6,4.4-9.1c2.3-2.5,8.8-5.2,11.7-3.5C38.2,39,39,38.1,39.9,36.2L39.9,36.2z"/>
		<path class="st5" d="M196.2,102H84.4c-2.9,0-5.3-2.4-5.3-5.3V39.8c0-2.9,2.4-5.3,5.3-5.3h111.8c2.9,0,5.3,2.4,5.3,5.3v56.9
			C201.5,99.6,199.2,102,196.2,102z"/>
		<path class="st6" d="M194.9,98.1H85.7c-1.5,0-2.7-1.2-2.7-2.7V41.1c0-1.5,1.2-2.7,2.7-2.7h109.3c1.5,0,2.7,1.2,2.7,2.7v54.3
			C197.7,96.9,196.5,98.1,194.9,98.1z"/>
		<path class="st7" d="M183.1,90.3H97.6c-1.4,0-2.6-1.2-2.6-2.6c0-1.4,1.2-2.6,2.6-2.6h85.5c1.4,0,2.5,1.2,2.5,2.6
			C185.5,89.1,184.4,90.2,183.1,90.3z M183.1,79.3H97.6c-1.4,0-2.6-1.2-2.6-2.6s1.2-2.6,2.6-2.6h85.5c1.4,0,2.6,1.2,2.6,2.6
			c0,0.7-0.3,1.3-0.7,1.8C184.4,79.1,183.7,79.3,183.1,79.3z"/>
		<path class="st8" d="M116.2,66.7H97.6c-1.5,0-2.7-1.2-2.7-2.7V50.4c0-1.5,1.2-2.7,2.7-2.7h18.6c1.5,0,2.7,1.2,2.7,2.7v13.6
			C118.9,65.5,117.7,66.7,116.2,66.7z"/>
		<path class="st9" d="M183.1,65.2h-43.4c-1.4,0-2.5-1.2-2.5-2.6c0-1.4,1.1-2.5,2.5-2.5h43.4c1.4,0,2.6,1.2,2.6,2.6
			c0,0.7-0.3,1.3-0.8,1.8C184.5,64.9,183.8,65.2,183.1,65.2z M165.2,54.3h-25.4c-1.4,0-2.5-1.2-2.5-2.6c0-1.4,1.1-2.5,2.5-2.5h25.4
			c1.4,0,2.6,1.2,2.6,2.6S166.6,54.3,165.2,54.3z M80.9,160H17.3c-0.2,0-0.3-0.1-0.3-0.3c0-0.1,0-0.2,0.1-0.2
			c0.1-0.1,0.1-0.1,0.2-0.1h63.6c0.2,0,0.3,0.1,0.3,0.3c0,0.1,0,0.2-0.1,0.2C81.1,160,81,160,80.9,160z"/>
	</g>
</g>
</svg>
