<?xml version="1.0" encoding="utf-8"?>
<!-- Generator: Adobe Illustrator 28.0.0, SVG Export Plug-In . SVG Version: 6.00 Build 0)  -->
<svg version="1.1" id="Capa_1" xmlns="http://www.w3.org/2000/svg" xmlns:xlink="http://www.w3.org/1999/xlink" x="0px" y="0px"
	 viewBox="0 0 230 160" style="enable-background:new 0 0 230 160;" xml:space="preserve">
<style type="text/css">
	.st0{clip-path:url(#SVGID_00000094586682840468528970000005196339927595944627_);}
	.st1{opacity:0.1;fill:#30D7CF;}
	.st2{fill:url(#SVGID_00000070826602962210422200000011648557362968640661_);}
	.st3{fill:#D38884;}
	.st4{fill:#380091;}
	.st5{fill:#B07473;}
	.st6{opacity:0.1;fill:#571AFF;enable-background:new    ;}
	.st7{fill:#FFFFFF;}
	.st8{fill:#571AFF;}
	.st9{fill:#000A2C;}
	.st10{fill:#E1E7EF;}
	.st11{fill:#EAEAEA;}
	.st12{fill:#790033;}
	.st13{fill:url(#SVGID_00000000917241148164759690000016549661948506293178_);}
	.st14{fill:#A27772;}
	.st15{fill:#CC818C;}
	.st16{fill:#30D7CF;}
	.st17{fill:#4D26B9;}
	.st18{fill:#BE707B;}
	.st19{fill:#7A7A7A;}
	.st20{fill:#F6F8FB;}
	.st21{fill:url(#SVGID_00000023975285140014573220000015256717565502941830_);}
	.st22{fill:#950080;}
	.st23{fill:#FBBEBE;}
	.st24{opacity:5.000000e-02;fill:#571AFF;enable-background:new    ;}
	.st25{fill:#7C5C5C;}
	.st26{fill:#865A61;}
	.st27{fill:url(#SVGID_00000005244431503322785580000006335306993703036826_);}
	.st28{fill:#FDC2CC;}
	.st29{fill:#D39999;}
	.st30{fill:#7E5659;}
	.st31{fill:#60454B;}
	.st32{opacity:0.1;}
	.st33{fill:#A8A8A8;}
	.st34{opacity:0.2;fill:#571AFF;enable-background:new    ;}
</style>
<g>
	<defs>
		<rect id="SVGID_1_" x="0.4" width="229.2" height="160"/>
	</defs>
	<clipPath id="SVGID_00000132062003319859773630000009848139785948859325_">
		<use xlink:href="#SVGID_1_"  style="overflow:visible;"/>
	</clipPath>
	<g style="clip-path:url(#SVGID_00000132062003319859773630000009848139785948859325_);">
		<path class="st1" d="M3,81.8c3.6,14.1,11.3,26.3,23.4,32.2c25.2,12.3,82,6,124.4-1.3c21.9-3.8,41.2-14.1,55.2-28.8L3,81.8L3,81.8z
			 M225.3,15.4H202c-1.1,0-2-0.8-2-1.8s0.9-1.8,2-1.8h4c-1.1,0-2-0.8-2-1.8s0.9-1.8,2-1.8h-2.9c-1.1,0-2-0.8-2-1.8s0.9-1.8,2-1.8
			h12.1c-2.7-1.1-5.8-2-9.5-2.4c-33.1-3.9-44.9-1.3-49.1,1.3c-5.2,3.3-11,5.6-17,6.8c-20.4,3.8-58.6,8.5-93.2-1.5
			C29.3,3.7,16.5,12,8.9,26h220.5c-0.3-4.1-1.1-7.8-2.7-11.1C226.2,15.2,225.8,15.4,225.3,15.4L225.3,15.4z M1,52.3
			C0.2,60.5,0.5,68.8,2,77l204.2,6.8c5.6-5.9,10.4-12.5,14.2-19.7L1,52.3z M81.8,69.9h-4c1.1,0,2,0.8,2,1.8c0,1-0.9,1.8-2,1.8H54.5
			c-1.1,0-2-0.8-2-1.8c0-1,0.9-1.8,2-1.8h4c-1.1,0-2-0.8-2-1.8s0.9-1.8,2-1.8h-2.9c-1.1,0-2-0.8-2-1.8s0.9-1.8,2-1.8h23.3
			c1.1,0,2,0.8,2,1.8c0,1-0.9,1.8-2,1.8h2.9c1.1,0,2,0.8,2,1.8S82.9,69.9,81.8,69.9z M229.3,26.1L6.4,31.1c-2.7,6.4-4.5,13.5-5.3,21
			h224.4c1.5-4.4,2.5-8.8,3.2-13.4C229.3,34.3,229.6,30.1,229.3,26.1L229.3,26.1z M46.3,42.3h-4c1.1,0,2,0.8,2,1.8s-0.9,1.8-2,1.8
			H19.1c-1.1,0-2-0.8-2-1.8s0.9-1.8,2-1.8h4c-1.1,0-2-0.8-2-1.8c0-1,0.9-1.8,2-1.8h-2.9c-1.1,0-2-0.8-2-1.8c0-1,0.9-1.8,2-1.8h23.3
			c1.1,0,2,0.8,2,1.8s-0.9,1.8-2,1.8h2.9c1.1,0,2,0.8,2,1.8S47.4,42.3,46.3,42.3z M134.2,154.3c8.4,0,15.1-1.5,15.1-3.4
			s-6.8-3.4-15.1-3.4c-8.4,0-15.1,1.5-15.1,3.4S125.9,154.3,134.2,154.3z M169.4,163.9c15.1,0,27.3-1,27.3-2.2
			c0-1.2-12.2-2.2-27.3-2.2c-15.1,0-27.3,1-27.3,2.2C142.1,162.9,154.3,163.9,169.4,163.9L169.4,163.9z M59.7,161.7
			c15.1,0,27.3-1.5,27.3-3.4c0-1.9-12.2-3.4-27.3-3.4c-15.1,0-27.3,1.5-27.3,3.4C32.4,160.2,44.7,161.7,59.7,161.7z M101.4,144.7
			c11.3,0,20.5-1.5,20.5-3.4s-9.2-3.4-20.5-3.4c-11.3,0-20.5,1.5-20.5,3.4S90,144.7,101.4,144.7z"/>
		
			<linearGradient id="SVGID_00000047751009336045576930000003776547579816091555_" gradientUnits="userSpaceOnUse" x1="97.4527" y1="19.086" x2="97.4527" y2="138.0226" gradientTransform="matrix(1 0 0 -1 0 162)">
			<stop  offset="0" style="stop-color:#808080;stop-opacity:0.25"/>
			<stop  offset="0.54" style="stop-color:#808080;stop-opacity:0.12"/>
			<stop  offset="1" style="stop-color:#808080;stop-opacity:0.1"/>
		</linearGradient>
		<path style="fill:url(#SVGID_00000047751009336045576930000003776547579816091555_);" d="M116.7,60.4c-0.4-2.9-3.1-9.8-3.1-9.8
			c0-0.2-0.1-0.4-0.2-0.6c-1.9-6.5-4.5-7-4.5-7l-9.3-2c0.1,0,0.1,0.1,0.2,0.2c-0.1,0-0.1,0-0.1,0c-0.4-0.5-0.7-1.1-0.8-1.8
			c0-0.1,0-0.2,0-0.3c2.6-2.5,2.7-6.7,0.1-9.3c-0.3-0.3-0.6-0.6-1-0.8c0.4-0.5,0.5-1.1,0.1-1.8c-0.7-1.5-2.3-2.5-4-3
			c-1.3-0.4-2.6-0.5-3.9-0.1c-0.7,0.2-1.4,0.6-2,0.9c-1.2,0.6-2.6,1.1-3.5,2.1c-0.2,0.2-0.4,0.5-0.4,0.9c0,0.2,0.2,0.4,0.4,0.6
			c0.3,0.5,0.2,1,0,1.6c-0.2,0.5-0.4,1-0.6,1.5c-0.1,0.5-0.1,1.1,0.3,1.5c0.2,0.1,0.4,0.3,0.6,0.4c0.2,0.2,0.4,0.4,0.6,0.6
			c0.4,0.5,0.7,1,1.1,1.5c0.5,0.7,1,1.4,1.4,2.1c0.3,0.5,0.5,1.1,0.9,1.6c0.1,0.1,0.2,0.3,0.4,0.4l-0.1,0c0.3,0.3,0.8,0.5,1.2,0.5
			h0.1c0.1,0,0.2,0,0.2-0.1v0.2c0,0.7,0,1.5,0,2.2l-0.1,0c-0.3-0.1-0.6-0.1-0.8,0.1l-8.6,6.9c0,0-1.9,2.6-1.6,7l-1.5,6.6
			c0,0-1.9,5.6-0.4,9.6c1.4,4,2.3,6.3,2.3,6.3s0.6,4.6,1.4,4.9c0.9,0.4,1.2,0.6,1.2,0.6l0.2,1.1c0,0,0.1,0.1,0.2,0.3
			c0.6,1.1,3,5,4.3,4.6c0.2,1.1,0.2,2.1,0.2,3.2l1.3,9.1c0,0,0.9,2.5,0.9,3.8c-0.1,1.3,1.1,3.1,1.1,3.1c-0.7,1.3-0.9,2.8-0.6,4.2
			c0.6,2.4,1.2,13.5,1.2,13.5l1,2.7l0,3.2c-0.1,0.5-0.3,1-0.6,1.4c-0.7,0.7-0.6,1.5-2.2,2.5c-1.6,1-2.6,1.3-2.6,2.6
			c0,0.2,0,0.4,0,0.5c-0.1,0.9-0.4,1.5,2.5,1.7c3.4,0.3,5.7-1.9,5.7-1.9s0.5-0.9,2.8-1.3c0,0,0.8,0,0.8-0.8c0-0.4,0-0.8,0-1.2
			c0-1-0.1-2.1-0.3-2.2c-0.2-0.1-0.4-1.1-0.5-1.4h0.7c0,0,0.6-4.6,0-7.5c-0.6-3-0.1-5-0.1-5l-0.1-7.8c0,0-0.8-0.9-0.2-2.4
			c0.6-1.5,0-9,0-9s0.2-2.7,0.9-3.3c0.7-0.6,0-3.9,0-4.1l1.2,4c0,0,0.5,7.9,1.6,9.3l0.3,3.6c0,0,2.3,3.3,1.8,5.1
			c-0.4,1.8,0.5,8.2,0.5,8.2v6.6c0,0-1,2.6,0.4,3.6l0.6,0c-0.2,0.2-0.4,0.5-0.6,0.7c-0.3,0.3-0.4,1.3-0.5,2.3
			c-0.1,0.8-0.1,1.4-0.1,1.4s0.6,1,1.7,1c1.1,0.1,4.9,2.9,4.9,2.9s3.7,0,4.7-0.2l0.1,0c0.3-0.1,0.6-0.3,0.7-0.6
			c0.2-0.3,0.3-0.7,0.2-1.1c-0.1-0.6-0.6-1.2-1.6-1.7c-2.5-1.3-2.8-2.5-2.8-2.5l-1.6-2.4h0.2c0,0-0.1-2.6,1.6-5.5l-0.1-12.8
			c0,0,0.7-4.4-0.5-6.8c0,0-0.1-2.5,0.7-3.3c0.8-0.8-1.1-8.6-1.1-8.6s-0.4-4.2-0.9-8c2,1.9,4-4.8,4.3-6h0.1l0-0.1l0-0.1
			c0,0-0.4-1.5-0.1-1.2c0.3,0.3,1.1-0.9,1.1-0.9s-0.1-6.4,1.2-9.6S116.7,60.4,116.7,60.4L116.7,60.4z M110.9,64.5L110.9,64.5
			c0.2,3.9,0,12.2,0,12.2s-0.3,1.1-0.6,2.3l-0.2-7.9l-0.2-7.5L110.9,64.5L110.9,64.5z M85.9,61.8c0,0,1,12.3,0,14.1
			c-0.3,0.5-0.5,1.4-0.7,2.4c-0.3-0.9-1-2.9-0.8-3.9c0.3-1.4-0.6-5-0.6-5.1c0-0.1-0.1-2,0.6-3.5c0.7-1.5,0.2-2.1,0.2-2.1
			S85.2,61.3,85.9,61.8L85.9,61.8z"/>
		<path class="st3" d="M88.3,89.6c-0.9,3.8-4.3-1.9-5.1-3.3L83.1,86l0.4-1.7l2-0.8c0.3,0.2,0.6,0.4,0.9,0.6
			C87.4,84.9,89,86.7,88.3,89.6z M114.8,83.4C114.8,83.4,114.8,83.4,114.8,83.4c0,0.1,0,0.1,0,0.2c-0.3,1.2-2.3,7.8-4.3,6
			c-2.1-2-1.1-6.7-1.1-6.7h0l4.4-0.5L114.8,83.4L114.8,83.4L114.8,83.4z"/>
		<path class="st4" d="M112.3,116.1l0.1,12.7c-1.7,2.9-1.6,5.4-1.6,5.4l-5.7,0.2c-1.4-0.9-0.4-3.6-0.4-3.6v-6.5c0,0-0.9-6.4-0.5-8.1
			c0.4-1.8-1.8-5-1.8-5l-0.3-3.6c-1.1-1.4-1.6-9.3-1.6-9.3l-1.2-4c0,0.2,0.6,3.5,0,4.1c-0.6,0.6-0.9,3.3-0.9,3.3s0.6,7.5,0,9
			c-0.6,1.5,0.2,2.4,0.2,2.4l0.1,7.7c0,0-0.5,2.1,0.1,5c0.6,2.9,0,7.5,0,7.5h-6.1l0-3.2l-1-2.7c0,0-0.7-11-1.2-13.4
			c-0.3-1.4-0.1-2.9,0.6-4.2c0,0-1.1-1.8-1.1-3.1c0.1-1.3-0.9-3.7-0.9-3.7l-1.3-9c0-1.7-0.2-3.5-0.7-5.1c-0.8-2.6-1.9-5.9-1.9-5.9
			l1.3,0.1l6.5,0.6c0,0,15.8-1.1,16.5-0.2c0.1,0.3,0.2,0.6,0.3,0.9c0.7,3.2,1.6,13.1,1.6,13.1s1.9,7.8,1.1,8.5
			c-0.8,0.8-0.7,3.3-0.7,3.3C113,111.7,112.3,116.1,112.3,116.1L112.3,116.1z"/>
		<path class="st5" d="M98.9,138.1c0,0.7-0.8,0.7-0.8,0.7c-2.3,0.4-2.8,1.3-2.8,1.3s-2.2,2.2-5.6,1.9c-2.8-0.3-2.6-0.8-2.4-1.7
			c0-0.2,0-0.4,0-0.5c0-1.3,1-1.6,2.5-2.6c1.5-1,1.5-1.8,2.1-2.5c0.6-0.7,0.7-2.1,0.7-2.1c0.7-1.3,2.6,0.2,2.6,0.2
			c0.1,0.4,2.8,0.4,2.8,0.4s0.4,1.5,0.5,1.5c0.1,0.1,0.2,1.2,0.3,2.2C99,137.4,99,137.8,98.9,138.1L98.9,138.1z"/>
		<path class="st6" d="M98.9,138.1c0,0.7-0.8,0.7-0.8,0.7c-2.3,0.4-2.8,1.3-2.8,1.3s-2.2,2.2-5.6,1.9c-2.8-0.3-2.6-0.8-2.4-1.7
			c1.3,0.3,3.7,0.8,5.1,0c2-1.1,3.4-1.8,3.4-1.8l3.1-1.6C99,137.4,99,137.8,98.9,138.1L98.9,138.1z"/>
		<path class="st5" d="M116.3,141.9c-0.2,0.3-0.4,0.5-0.7,0.6l-0.1,0c-0.9,0.2-4.6,0.2-4.6,0.2s-3.7-2.8-4.8-2.9
			c-1.1-0.1-1.7-1-1.7-1s0-0.7,0.1-1.4c0.1-0.9,0.2-2,0.5-2.2c0.5-0.5,0.6-1.2,1.7-0.8c0,0,1.6-2.8,3.4-0.6l1.9,2.9
			c0,0,0.4,1.2,2.8,2.5c1,0.5,1.4,1.1,1.5,1.7C116.6,141.2,116.5,141.6,116.3,141.9z"/>
		<path class="st6" d="M116.3,141.9c-0.2,0.2-0.5,0.4-0.7,0.6l-0.1,0c-0.9,0.2-4.6,0.2-4.6,0.2s-3.7-2.8-4.8-2.9
			c-1.1-0.1-1.7-1-1.7-1s0-0.7,0.1-1.4c1.1,0.3,2.8,0.9,3.3,1.6c0.7,1,2.8,2.3,2.8,2.3s4-0.4,5.8-0.4
			C116.6,141.2,116.5,141.6,116.3,141.9L116.3,141.9z"/>
		<path class="st3" d="M100.8,42.5l-5.3,5.5c0,0-6.4-0.5-5.3-2.3c0.6-1,0.7-3,0.6-4.7c0-1.7-0.2-3.1-0.2-3.1s8.9-4.4,8.2-0.3
			c-0.1,0.8-0.2,1.6,0,2.4C99.3,42.1,100.8,42.5,100.8,42.5z"/>
		<path class="st6" d="M98.9,37.6c-0.1,0.8-0.2,1.6,0,2.4c-1.2,1.2-2.9,2-4.7,2c-1.2,0-2.5-1-3.5-1.6c0-1.7-0.1-2.4-0.1-2.4
			S99.6,33.5,98.9,37.6z"/>
		<path class="st3" d="M100.8,35c0,3.6-2.9,6.6-6.6,6.6c-2.5,0-4.8-1.4-5.9-3.7c-1.6-3.3-0.2-7.2,3.1-8.8c3.3-1.6,7.2-0.2,8.8,3.1
			C100.6,33.1,100.8,34,100.8,35z"/>
		<path class="st6" d="M109.7,84.4c-1.6,3.9-12.2,4-12.2,4v-4.2l-0.6,0c0.3,1.2-0.4,4.2-0.4,4.2c-8.3,1.2-10.4-3.6-10.4-3.6l0.3-1.6
			l6.5,0.6c0,0,15.8-1.1,16.5-0.2C109.6,83.7,109.7,84.1,109.7,84.4z"/>
		<path class="st7" d="M97.6,87.8v-4.2l-0.6,0c0.3,1.2-0.4,4.2-0.4,4.2c-6.3,0.9-9-1.6-9.9-2.9c-0.2-0.2-0.3-0.5-0.4-0.7l2.5-14.3
			l0.6-21.1l0.9-3.7l0.2-1.8v0h0l0.6,0.3l3.9,1.7l4.4-3.3l0.1,0l0.2-0.2l0.4,0.3l0.9,0.7l2.9,18.8c0,0,5,14.4,6,20.3
			c0,0.2,0.1,0.5,0.1,0.7C110.6,87.7,97.6,87.8,97.6,87.8z"/>
		<path class="st8" d="M95.5,46.1c0.2,0,0.4-0.2,0.4-0.4s-0.2-0.4-0.4-0.4s-0.4,0.2-0.4,0.4S95.3,46.1,95.5,46.1L95.5,46.1z
			 M95.7,49.5c0.2,0,0.4-0.2,0.4-0.4s-0.2-0.4-0.4-0.4s-0.4,0.2-0.4,0.4S95.4,49.5,95.7,49.5L95.7,49.5z M96,55
			c0.2,0,0.4-0.2,0.4-0.4s-0.2-0.4-0.4-0.4s-0.4,0.2-0.4,0.4S95.8,55,96,55z M96.6,61c0.2,0,0.4-0.2,0.4-0.4s-0.2-0.4-0.4-0.4
			c-0.2,0-0.4,0.2-0.4,0.4S96.4,61,96.6,61L96.6,61z M97,66.6c0.2,0,0.4-0.2,0.4-0.4s-0.2-0.4-0.4-0.4l0,0c-0.2,0-0.4,0.2-0.4,0.4
			S96.8,66.6,97,66.6z M97.4,72.5c0.2,0,0.4-0.2,0.4-0.4s-0.2-0.4-0.4-0.4S97,71.9,97,72.1S97.2,72.5,97.4,72.5z M97.2,78.4
			c0.2,0,0.4-0.2,0.4-0.4s-0.2-0.4-0.4-0.4s-0.4,0.2-0.4,0.4S97,78.4,97.2,78.4z"/>
		<path class="st6" d="M90.7,71.9c0,0-0.4,5.5-1.2,7.1c-0.8,1.6-1.1,6.1-1.1,6.1l-1.8-0.2c-0.2-0.2-0.3-0.5-0.4-0.7l2.5-14.3
			l0.6-21.1l0.9-3.7l0.2-1.8l0,0c0.2-0.1,0.4-0.1,0.6,0l0.1,0c0,0.1-0.1,0.1-0.1,0.2c-0.7,2.2-1,6.2-1,6.2s1,7.3,1.1,10.8
			C91.4,64,90.7,71.9,90.7,71.9z"/>
		<path class="st6" d="M86.3,84c0,0,0,0.1-0.1,0.1c-0.7,1.2-2.4,1.9-3,2.1L83.1,86l0.4-1.7l2-0.8C85.8,83.6,86.1,83.8,86.3,84z"/>
		<path class="st4" d="M81.6,56.1L80,57l-1.5,6.6c0,0-1.8,5.6-0.4,9.6c0.7,2.1,1.5,4.2,2.2,6.3c0,0,0.6,4.5,1.4,4.9
			c0.9,0.4,1.2,0.6,1.2,0.6l0.2,1.1c0,0,2.3-0.8,3.1-2.2c0.8-1.4-0.6-4.8-0.6-4.8s-1.2-2.9-0.9-4.3c0.3-1.4-0.6-5-0.6-5
			c0-0.1-0.1-2,0.6-3.5c0.7-1.5,0.2-2.1,0.2-2.1l-0.4-4.2C84.5,59.9,81.6,56.1,81.6,56.1z"/>
		<path class="st6" d="M109.9,83.1c0,0-4.3,1.6-5.7,0.2c-1.4-1.4-1.2-8.1-1.2-8.1s-1.3-12.3-2.1-14.3c-0.8-2-0.4-16.6-0.4-16.6
			s-0.6-1.9-1-2.4c0,0-0.1-0.1-0.1-0.1l0.2,0l0.6,0.1l0.9,0.7l2.9,18.8c0,0,5,14.4,6,20.3L109.9,83.1z"/>
		<path class="st6" d="M114.8,83.6L114.8,83.6c-0.6,0.1-5.4,0.6-5.4-0.3c0-0.1,0-0.2,0-0.3l4.4-0.5l0.9,0.9
			C114.8,83.4,114.8,83.4,114.8,83.6C114.8,83.5,114.8,83.6,114.8,83.6z"/>
		<path class="st4" d="M110.3,49.5l3.1,1.6c0,0,2.6,6.8,3,9.7c0,0,1.9,7.8,0.6,11c-1.3,3.2-1.2,9.5-1.2,9.5s-0.8,1.2-1.1,0.9
			s0.1,1.2,0.1,1.2s-5.4,0.7-5.4-0.3c0-1.1,1.2-6.1,1.2-6.1s0.3-12-0.1-13.9C110.1,61.2,110.3,49.5,110.3,49.5z"/>
		<path class="st6" d="M100.9,62.2c0,0-1.8,4.3-2.3,4.6c-0.6,0.3,0.1,1.4,0.1,1.4S101.9,63.8,100.9,62.2z M99.8,47.1
			c0-0.1-2.1,2.1-2.7,2.4C96.6,49.8,99.2,49.5,99.8,47.1z M93.9,61.9c0,0-3.2,2.1-2.8,2.9C91.5,65.7,93.9,61.9,93.9,61.9z
			 M99.8,92.5c0,0,2.8,1.8,7.1,2.2L99.8,92.5z M93.2,96.8c0,0,2.6,3.2,3.7,3.3C98.1,100.2,93.2,96.8,93.2,96.8L93.2,96.8z
			 M96.8,109.4c-0.1,0.1-1.5,2.9-2.8,3C92.6,112.5,96.8,109.4,96.8,109.4z M108.6,115.7c0,0,2.5-0.6,3.1,1.3
			C111.7,116.9,111.6,116.3,108.6,115.7z M106.9,126.1c0,0,3.1-0.6,3.7,0.2C111.3,127.2,106.9,126.1,106.9,126.1z M98.2,127.5
			c0,0-3.1,0.6-3,1c0.1,0.4,3.3,0.3,3.5-0.3C98.7,128,98.5,127.6,98.2,127.5C98.2,127.5,98.2,127.5,98.2,127.5z M105.9,130.2
			c0,0,5.1-0.6,4.8,0.5C110.4,131.8,105.9,130.2,105.9,130.2z M79,66.9c0,0.1,3.4,0.5,3.8,1.6C82.8,68.5,79.5,66.9,79,66.9
			 M83.7,75.7c0,0-2.8,0.9-2.6,2.2C81.3,79.2,80.8,77.3,83.7,75.7L83.7,75.7z M82.4,82.4c0,0,1-1.4,2-1.1
			C85.3,81.5,82.4,82.4,82.4,82.4L82.4,82.4z M98.3,29.9c-0.1,0.1-0.2,0.2-0.3,0.2c-0.8,0.5-1,1.2-1.4,2c-0.4,0.8-0.7,1.6-1.5,2
			C94.2,34.7,93,34.5,92,35c-0.9,0.5-1.4,1.4-1.3,2.4c0.1,0.4,0.2,0.7,0.3,1.1c0.2,0.8,0.3,1.6,0.3,2.4c0,0,0,0,0,0.1
			c-3.2-1.6-4.6-5.6-2.9-8.8s5.6-4.6,8.8-2.9C97.6,29.3,98,29.6,98.3,29.9L98.3,29.9L98.3,29.9z"/>
		<path class="st9" d="M98.2,27.9c-0.7-1.5-2.3-2.5-3.9-2.9c-1.2-0.4-2.6-0.5-3.8-0.1c-0.7,0.2-1.3,0.6-2,0.9
			c-1.2,0.6-2.6,1.1-3.5,2.1c-0.2,0.2-0.4,0.5-0.3,0.9c0,0.2,0.2,0.4,0.3,0.6c0.3,0.5,0.2,1,0,1.5s-0.4,1-0.6,1.5
			c-0.1,0.5-0.1,1.1,0.3,1.5c0.2,0.2,0.4,0.3,0.6,0.4c0.2,0.2,0.4,0.4,0.5,0.6l1.1,1.5c0.5,0.7,1,1.4,1.4,2.1
			c0.3,0.5,0.5,1.1,0.8,1.6c0.4,0.5,0.9,0.9,1.5,0.8c0.1,0,0.2,0,0.2-0.1c0,0,0-0.1,0-0.2c0-0.8-0.1-1.6-0.3-2.4
			c-0.1-0.4-0.2-0.7-0.3-1.1c-0.1-1,0.4-1.9,1.3-2.4c1-0.5,2.2-0.3,3.1-0.8c0.7-0.4,1.1-1.2,1.5-2c0.4-0.8,0.6-1.6,1.4-2
			C98.5,29.5,98.6,28.7,98.2,27.9z"/>
		<path class="st6" d="M95.2,135.4c0,0,1,1.3,0.7,2C95.7,138.1,95.2,135.4,95.2,135.4z M108.8,138.6c0,0,0.2-1.7,1.1-1.7
			c0.9,0,0.9-0.1,1.6,0.2c0.7,0.3,1.3,0.7,1.1,0.7c-0.2,0.1-1.2-1-2.2-0.4C109.9,137.7,109.3,138.1,108.8,138.6z M92.2,47.4l2.8-2
			c0,0-4.1-2.4-4.6-2.1c-0.5,0.3-0.8,3.4-0.8,3.4L92.2,47.4L92.2,47.4z"/>
		<path class="st10" d="M92.2,47.3l2.8-2c0,0-4.1-2.4-4.6-2.1c-0.5,0.3-0.8,3.6-0.8,3.6L92.2,47.3z"/>
		<path class="st11" d="M92.2,47.3l2.8-2c0,0-4.1-2.4-4.6-2.1c-0.5,0.3-0.8,3.6-0.8,3.6L92.2,47.3z"/>
		<path class="st12" d="M90.9,43.2L90.9,43.2c-0.3-0.2-0.7-0.1-0.9,0l-8.4,6.9c0,0-1.8,2.5-1.6,6.9l5,7.1c0,0,0.6-2.4,1.3-1.9
			c0,0,1,12.2,0,14c-1,1.8-1.4,8.4-1.4,8.4l3.3,0.4c0,0,0.3-4.5,1.1-6.1c0.8-1.6,1.2-7.1,1.2-7.1s0.7-8,0.6-11.4
			c-0.1-3.4-1.1-10.8-1.1-10.8S90.1,45.3,90.9,43.2L90.9,43.2z"/>
		<path class="st6" d="M99.3,46.2l-3.5-1.3c0,0,4.5-4.9,5-2.2L99.3,46.2z"/>
		<path class="st10" d="M99.3,46l-3.5-1.3c0,0,4.5-4.9,5-2.2L99.3,46z"/>
		<path class="st11" d="M99.3,46l-3.5-1.3c0,0,4.5-4.9,5-2.2L99.3,46z"/>
		<path class="st6" d="M99.2,41.8c0.1,0,0.1,0,0.1,0L99.2,41.8L99.2,41.8z"/>
		<path class="st12" d="M99.5,41.5l9.3,2c0,0,2.6,0.6,4.4,7s-2.5,14.3-2.5,14.3l-1-0.8l0.5,18.8c0,0-4.3,1.6-5.7,0.2
			s-1.2-8.1-1.2-8.1s-1.3-12.3-2.1-14.3S100.8,44,100.8,44S100,41.4,99.5,41.5z"/>
		<path class="st9" d="M98.1,27.9c-0.5-0.9-1.2-1.6-2.1-2.1c0.7,0.5,1.2,1.1,1.5,1.8c0.4,0.8,0.3,1.6-0.5,2c-0.8,0.4-1,1.2-1.4,2
			c-0.4,0.8-0.7,1.6-1.5,2c-0.9,0.6-2.1,0.4-3.1,0.8c-0.9,0.5-1.4,1.4-1.3,2.4c0.1,0.4,0.2,0.7,0.3,1.1c0.2,0.8,0.3,1.6,0.3,2.4
			c0,0.1,0,0.1,0,0.2c-0.1,0.1-0.1,0.1-0.2,0.1c-0.2,0-0.5,0-0.7-0.1c0.3,0.3,0.8,0.5,1.2,0.5c0.1,0,0.3-0.1,0.3-0.2c0,0,0,0,0-0.1
			c0-0.8-0.1-1.6-0.3-2.4c-0.1-0.4-0.2-0.7-0.3-1.1c-0.1-1,0.4-1.9,1.3-2.4c1-0.5,2.2-0.3,3.1-0.8c0.7-0.4,1.1-1.2,1.5-2
			c0.4-0.8,0.6-1.6,1.4-2C98.4,29.5,98.5,28.7,98.1,27.9z"/>
		
			<linearGradient id="SVGID_00000006683522347206508000000013326908846544119988_" gradientUnits="userSpaceOnUse" x1="135.812" y1="-95962.3984" x2="135.812" y2="-20897.8984" gradientTransform="matrix(1 0 0 -1 0 162)">
			<stop  offset="0" style="stop-color:#808080;stop-opacity:0.25"/>
			<stop  offset="0.54" style="stop-color:#808080;stop-opacity:0.12"/>
			<stop  offset="1" style="stop-color:#808080;stop-opacity:0.1"/>
		</linearGradient>
		<path style="fill:url(#SVGID_00000006683522347206508000000013326908846544119988_);" d="M155.4,53.2c-2.8-0.1-5.2-2-6.6-4.4
			c-0.4-0.6-0.6-1.2-0.7-1.9c0-0.2,0-0.3,0.1-0.5c0.1-0.2,0.2-0.5,0.2-0.7c0-0.1,0-0.2,0-0.3v0c0.1-0.5-0.2-1-0.6-1.4
			c-0.4-0.3-0.8-0.6-1.2-1c-1.2-1-1.6-2.7-1.6-4.3v-0.1c0-0.7,0.1-1.4,0.1-2.1c0-0.4,0-0.8-0.1-1.2c-0.1-1-0.5-2-1.2-2.6
			c-2-1.6-5.3,0.1-7.4-1.5c-0.5-0.4-0.9-0.9-1.5-1.1c-0.5-0.1-0.9,0-1.4,0.2c-1.5,0.5-3.2,1.2-3.8,2.6c-0.3,0.8-0.2,1.8-0.6,2.6
			c-0.2,0.6-0.6,1.1-0.9,1.6c-0.2,0.4-0.3,0.9-0.3,1.3c0,0.2,0,0.5,0.1,0.7c0.1,0.3,0.3,0.5,0.5,0.7c-0.1,0.2-0.2,0.3-0.3,0.5
			c-0.4,0.5-1,0.8-1.4,1.3c-0.7,0.9-0.7,2-0.3,3c0.4,1,1,1.9,1.5,2.9c0.2,0.4,0.4,0.9,0.2,1.3c-0.1,0.3-0.4,0.5-0.7,0.8
			c-0.3,0.4-0.5,0.8-0.6,1.3c-4.5,1-4.5,4.7-4.5,4.7l-2.4,6.2c0,0-0.4,1-0.9,2.4l-2.9-0.5l2,3.4c-0.4,1.4-0.7,2.6-0.6,3.3
			c0,0-0.9,4.2,0.7,5l3.5,1.6c0.2,0.1,0.3,0.2,0.5,0.2l0.1,0.1c0.1,0.1,0.2,0.1,0.3,0h0c0.1,0,0.1,0,0.2,0c0.1,0,0.1-0.1,0.2-0.2
			c0,0,0,0,0,0l1.1-0.3l0.9,1.1c0.4,0.3,0.8,0.5,1.2,0.8L125,92.6c0,0-0.2,18.3-0.9,22.5c-0.2,1.5-0.3,2.6-0.2,3.3l0,0
			c0.2,1.2,0.6,1.4,0.6,1.4v0c0,0,0,0,0,0c0.2-0.5,0.4-1.1,0.7-1.6v0.3c0,1.6-0.1,3.7-0.2,5.1c-0.3,2.4,0.7,10.4,0.7,10.4l0.3,7.2
			c0.1,1.2-0.2,2.5-0.8,3.5c-0.8,1.4-1.8,3.5-1.9,4.4c0,0,0,0.1,0,0.1l-1.7,2.1c0,0-0.7,1,0.8,1.5c0.8,0.2,2.2,0,3.4-0.3
			c1-0.2,1.7-1.1,1.7-2.2c0.3-1,0.8-1.9,1.4-2.7l0.3,1.7l1.9,0.5l0.2-4.6c0.1-0.3,0.1-0.5,0.1-0.8c0.4-3.3-0.9-3-0.9-3
			c0,0,0.1,0.1,0.1,0.1l-0.1-0.1c-0.8-1.5-0.4-4-0.4-4s1-7.2,1.4-9.2c0.2-1.4,0.1-5.8,0.1-8.2c0-0.1,0-0.2,0-0.3
			c2.9,0,6.6-0.1,9.1-0.4v0.3l-0.5,17.1c0,1.1-0.3,2.2-0.7,3.2c0,0,0,0,0,0.1c-0.6,1.4-0.9,2.9-0.9,4.5l-0.2,5.4v0.2
			c-0.4,0.1-1,0.6-1,1.8c0,1.8,3.1,1.2,3.1,1.2c3.1,0,3.2-3.3,3.2-3.3s0.1-3,0.2-5c0.2-2-0.5-1.6-0.5-1.6l0,5.7v0v-5l0-0.7v-0.2
			l0.4-5.9c0,0,2.9-9.8,3.3-11.7c0.3-1.3,0.2-5.4,0.1-7.6c0-0.1,0-0.2,0-0.3c0.9-0.1,1.7-0.1,2-0.1h0.1c0,0-0.1-15.8-0.5-21.7
			c-0.4-5.9-1-11.4-2.5-13c-0.9-1-2.2-4-3-6.3c1.8,0.8,3.6,1.4,5.5,1.8c4.7,1,4.1-3.1,4.1-3.1l-0.5-7.8h0c0-2-0.2-4.1-0.5-6.1
			c-0.3-1.5-0.6-3.1-1.2-4.4c0.5-0.2,1-0.4,1.5-0.6c1.3-0.6,2.7-1.4,2.9-2.8h-0.1C155.4,53.4,155.4,53.3,155.4,53.2L155.4,53.2z
			 M126,64.4c0,0.8,0,2.2-0.1,3.7l-1.5-2l1.5-2.5C125.9,63.7,126,64.4,126,64.4z M146.8,71.6l-2.5-0.8c0.4-0.7,1-1.3,1.6-1.9
			l0.2-0.2l-0.1,0l0.1-0.1l0.1,0l-0.1,0.1l0.1,0c0.2,0.6,0.4,1.2,0.9,1.7C148,71.3,146.8,71.6,146.8,71.6L146.8,71.6L146.8,71.6z"/>
		<path class="st14" d="M131.6,144l-0.3,5.6l-1.9-0.5l-0.4-2.3L131.6,144L131.6,144z"/>
		<path class="st6" d="M131.6,144l-0.3,5.6l-1.9-0.5l-0.4-2.3L131.6,144L131.6,144z"/>
		<path class="st15" d="M138.4,150.3l2.9,0.6l2.1-1.9v-5.3l0-0.7v-0.2l0.4-5.9c0,0,2.9-9.8,3.3-11.6c0.3-1.3,0.2-5.3,0.1-7.6
			c0-0.9-0.1-1.5-0.1-1.5l-6.3-1.5l-0.1,4.8l-0.5,17c0,1.1-0.2,2.2-0.6,3.2l0,0.1c-0.5,1.4-0.9,2.9-0.9,4.5l-0.2,5.4v0.1
			L138.4,150.3L138.4,150.3z"/>
		<path class="st6" d="M138.4,150.3l2.9,0.6l2.1-1.9v-0.4c0,0.2-0.1,0.4-0.3,0.5l0,0c-1,0.5-2.1,0.7-3.2,0.6l-1.1-0.1
			c-0.1,0-0.2,0-0.3,0.1v0.1L138.4,150.3L138.4,150.3z"/>
		<path class="st5" d="M143.1,149.2L143.1,149.2c0.2-0.1,0.3-0.3,0.3-0.5l0-5.7c0,0,0.6-0.4,0.5,1.6c-0.1,2-0.2,5-0.2,5
			s0,3.3-3.1,3.3c0,0-3.1,0.6-3.1-1.2c0-1.8,1.3-1.8,1.3-1.8l1.1,0.1C141,150,142.1,149.7,143.1,149.2L143.1,149.2z"/>
		<path class="st15" d="M123.6,149.1c0.1,1.3,3.8,0.5,3.8,0.5l2.5-4.9c0,0,2.1-1.6,1.1-3.1c-0.1-0.1-0.1-0.2-0.2-0.2l0,0
			c0,0,0-0.1-0.1-0.1c-0.8-1.5-0.4-4-0.4-4s1-7.2,1.3-9.1c0.2-1.3,0.1-5.7,0.1-8.2c0-0.6,0-1.1-0.1-1.7l-6.3-1.7v1.9
			c0,1.5-0.1,3.7-0.2,5.1c-0.3,2.4,0.7,10.3,0.7,10.3l0.3,7.2c0.1,1.2-0.2,2.4-0.8,3.5c-0.8,1.4-1.8,3.5-1.9,4.4
			C123.6,149,123.6,149,123.6,149.1L123.6,149.1z"/>
		<path class="st6" d="M123.6,149.1c0.1,1.3,3.8,0.5,3.8,0.5l2.5-4.9c0,0,2.1-1.6,1.1-3.1c-0.1-0.1-0.1-0.2-0.2-0.2
			c0,0.7-0.9,2.6-0.9,2.6s-2.1,4.2-2.8,5.2s-3.6-0.2-3.7-0.2C123.6,149,123.6,149,123.6,149.1L123.6,149.1z"/>
		<path class="st5" d="M130.8,141.3c0,0,1.2-0.3,0.9,2.9c0,0.7-0.3,1.5-1,1.8c-0.9,0.6-2.3,1.8-2.9,4.1c0,1-0.7,1.9-1.7,2.2
			c-1.1,0.3-2.5,0.5-3.3,0.3c-1.5-0.4-0.8-1.5-0.8-1.5l1.7-2c0,0,3,1.2,3.7,0.2s2.8-5.1,2.8-5.1S131.1,141.5,130.8,141.3
			L130.8,141.3z"/>
		<path class="st6" d="M140.9,115.4l-0.1,4.8c1.7-0.2,2.9-0.4,3.1-0.7c0.4-0.7,2.1-1,3.4-1.1c0-0.9-0.1-1.5-0.1-1.5L140.9,115.4z
			 M125.5,119.1c0.2-0.3,0.4-0.6,0.7-0.8c0.7-0.4,0.6,2.4,0.6,2.4s2.2,0,5,0c0-1-0.1-1.7-0.1-1.7l-6.3-1.7
			C125.5,117.2,125.5,118,125.5,119.1z"/>
		<path class="st16" d="M124.7,119.7c0,0,0.7-2,1.4-2.4s0.6,2.4,0.6,2.4s16.3,0.1,17.1-1.1c0.8-1.3,5.5-1.2,5.5-1.2
			s-0.1-15.7-0.5-21.6c-0.4-5.9-1-11.3-2.4-12.9c-1-1.1-2.3-4.5-3.2-6.7c-0.3-0.7-0.5-1.4-0.8-2.1L127,74.9l-0.1,1.3l-1.6,16.5
			c0,0-0.2,18.2-0.9,22.3S124.7,119.7,124.7,119.7z"/>
		<path class="st6" d="M142.5,118.6c0.8-1.3,5.5-1.2,5.5-1.2s-0.1-15.7-0.5-21.6c-0.4-5.9-1-11.3-2.4-12.9c-1-1.1-2.3-4.5-3.2-6.7
			c-0.3-0.7-0.5-1.4-0.7-2.1l1.2-0.1c0,0,0.3,0.9,0.8,2.1c0.8,2.3,2.2,5.7,3.2,6.7c1.5,1.6,2.1,7,2.4,12.9
			c0.4,5.9,0.5,21.6,0.5,21.6s-4.7-0.1-5.5,1.2c-0.7,1.1-12.7,1.1-16.1,1.1C132.1,119.7,141.9,119.6,142.5,118.6z M124.9,117.4
			c0.3-0.2,0.4,0.3,0.5,0.9c-0.3,0.5-0.5,1-0.7,1.5c0,0-0.4-0.2-0.6-1.4C124.3,117.9,124.6,117.5,124.9,117.4z"/>
		<path class="st17" d="M129.5,36.1c-1.1,1.5,0,3.5-1.1,5c-0.4,0.5-1,0.8-1.4,1.3c-0.7,0.9-0.7,2-0.3,3c0.4,1,1,1.9,1.5,2.9
			c0.2,0.4,0.4,0.9,0.1,1.3c-0.1,0.3-0.4,0.5-0.7,0.8c-0.7,0.8-0.8,2-0.4,3s1.2,1.8,1.9,2.6c0.3,0.3,0.7,0.7,1.2,0.7
			c0.3,0,0.5-0.1,0.7-0.2c3.5-1.8,5-6.1,3.4-9.7c-0.6-1.5-1.7-2.9-1.7-4.5c0-1.3,0.6-2.5,0.8-3.7c0.1-1.5-0.8-3.9-2.6-4.6
			C131.1,34.9,130.1,35.4,129.5,36.1L129.5,36.1z"/>
		<path class="st9" d="M129.5,36.1c-1.1,1.5,0,3.5-1.1,5c-0.4,0.5-1,0.8-1.4,1.3c-0.7,0.9-0.7,2-0.3,3c0.4,1,1,1.9,1.5,2.9
			c0.2,0.4,0.4,0.9,0.1,1.3c-0.1,0.3-0.4,0.5-0.7,0.8c-0.7,0.8-0.8,2-0.4,3s1.2,1.8,1.9,2.6c0.3,0.3,0.7,0.7,1.2,0.7
			c0.3,0,0.5-0.1,0.7-0.2c3.5-1.8,5-6.1,3.4-9.7c-0.6-1.5-1.7-2.9-1.7-4.5c0-1.3,0.6-2.5,0.8-3.7c0.1-1.5-0.8-3.9-2.6-4.6
			C131.1,34.9,130.1,35.4,129.5,36.1L129.5,36.1z"/>
		<path class="st18" d="M140.4,44.9c0,1.7,0.2,3.4,0.4,5.1c0.2,1.2,0.5,2.3,0.9,2.8c1.2,1.4-5.8,3.3-5.8,3.3l-4.1-3.2
			c0,0,3.3-3,1.7-5.9C132.1,44,140.4,44.9,140.4,44.9z"/>
		<path class="st6" d="M126.8,76.2h16.4c-0.5-1.2-0.8-2.1-0.8-2.1L127,74.9L126.8,76.2L126.8,76.2z"/>
		<path class="st19" d="M125.8,75.9h17.5c-0.5-1.8,0-3.4,0.7-4.7c0.5-0.9,1.1-1.7,1.8-2.4l0.1-0.1l6.1-1.4l0.3-0.1
			c0,0,0.1-11.1-3.9-12.7c-3.9-1.5-6.3-3.6-6.3-3.6l-5.4,1.7l-4-2c-1.3,1.4-4.7,0.8-4.7,0.8c-5.6,0.6-5.6,4.8-5.6,4.8
			s3.3,7.6,3.5,7.6C126.3,64,125.8,75.9,125.8,75.9L125.8,75.9z"/>
		<path class="st6" d="M131.8,68.8c0,0-3.6-0.8-4.8-2.2L131.8,68.8z M149.9,64.7l-4.1,3.4c0,0.3,0.1,0.5,0.1,0.8l0.1-0.1l6.1-1.4
			L149.9,64.7L149.9,64.7z M138.6,74.7c0,0,0.9,0.5,2.3,1.2h2.4c-0.5-1.8,0-3.4,0.7-4.7l-4.2-1.4C141.2,71.2,138.6,74.7,138.6,74.7z
			"/>
		<path class="st19" d="M125,55.1l-2.5,1.3l-2.4,6.1c0,0-2.5,6.7-2.3,8.5c0,0-0.9,4.2,0.7,4.9l4.1,1.9c0.2,0.1,0.4,0,0.5-0.2
			c0-0.1,0-0.2,0-0.3c-0.6-1.1-1.2-2.8-0.2-3.8l-1.2-2.5l4.3-7l1.4-2.4L125,55.1L125,55.1z"/>
		<path class="st6" d="M130.5,67.4c0.2,0.9,0.9,2.2,3.3,2.7l2.6,2.1l2.8,1.3l1.1,0.5l0.5-3.5l-1.1-0.6l-1.3-0.7c0,0-2.9-5.2-7.4-3
			C130.6,66.5,130.4,66.9,130.5,67.4L130.5,67.4z"/>
		<path class="st18" d="M130.7,67.1c0.2,0.9,0.9,2.2,3.3,2.7l2.6,2.1l2.8,1.3l1.1,0.5l0.5-3.5l-1.1-0.6l-1.3-0.7c0,0-2.9-5.2-7.4-3
			C130.8,66.2,130.5,66.7,130.7,67.1L130.7,67.1z"/>
		<path class="st6" d="M135.8,49.4c3.5,0,6.4-2.8,6.4-6.4c0-3.5-2.8-6.4-6.4-6.4c0,0,0,0,0,0c-3.5,0-6.4,2.8-6.4,6.4
			C129.4,46.5,132.3,49.4,135.8,49.4z"/>
		<path class="st18" d="M135.8,49.2c3.5,0,6.4-2.8,6.4-6.4c0-3.5-2.8-6.4-6.4-6.4c-3.5,0-6.4,2.8-6.4,6.4
			C129.4,46.4,132.3,49.2,135.8,49.2L135.8,49.2z"/>
		<path class="st6" d="M139.7,56.4l-1.9-3.7c0,0,2.8-1.1,3-2.4c0.2-1.3,2.7,1.5,2.1,2.5C142.4,53.7,139.7,56.4,139.7,56.4z"/>
		<path class="st20" d="M139.7,56.1l-1.9-3.7c0,0,2.8-1.1,3-2.4c0.2-1.3,2.7,1.5,2.1,2.5C142.4,53.4,139.7,56.1,139.7,56.1
			L139.7,56.1z"/>
		<path class="st20" d="M124.1,65.7l10.6,14.2c0,0-3.9,2.1-9.3-1.7l-2.3-2.8l-6.6-11.1L124.1,65.7L124.1,65.7z"/>
		<path class="st18" d="M122,73.5l1,0c0,0,5.9-5.7,7.3-2.8s-3.7,5.6-3.7,5.6l-1.6,0.8l-2,0.6l-1.3-1.7L122,73.5L122,73.5z"/>
		<path class="st6" d="M123.4,76.5c0.1,0.3,0.2,0.7,0,1c0,0.1-0.1,0.1-0.2,0.2c-0.1,0-0.1,0-0.2,0c-0.5,0-1-0.3-1.3-0.7
			c-0.3-0.4-0.6-0.8-0.9-1.2c-0.3-0.5-0.5-1-0.4-1.5c0.1-0.6,0.6-1,1.1-1.3c1-0.6,1,0.1,1.2,0.9C123,74.9,123.2,75.7,123.4,76.5z"/>
		<path class="st20" d="M123.3,76.5c0.1,0.3,0.2,0.7,0,1c0,0.1-0.1,0.1-0.2,0.2c-0.1,0-0.1,0-0.2,0c-0.5,0-1-0.3-1.3-0.7
			c-0.3-0.4-0.6-0.8-0.9-1.2c-0.3-0.5-0.5-1-0.4-1.5c0.1-0.6,0.6-1,1.1-1.3c1-0.6,1,0.1,1.2,0.9C122.8,74.9,123,75.7,123.3,76.5z"/>
		<path class="st6" d="M126.1,64l0.5-0.8l-0.4,1.5L126.1,64L126.1,64z M139.4,73.2l1.1,0.5l0.5-3.5l-1.1-0.6
			C140.7,70.5,140,72.1,139.4,73.2z M143.9,69.2c0,0-3.7,0.2-5.2-0.8L143.9,69.2z"/>
		<path class="st6" d="M143.5,71.5c0.5-0.9,1.1-1.7,1.8-2.4c0.2-0.1,0.4-0.2,0.5-0.3l5.7-1.2l0.3-0.1c0,0,0.1-11.1-3.9-12.7
			c-2.2-0.8-4.3-2-6.1-3.5l0.4-0.1c0,0,2.4,2.1,6.3,3.6c3.9,1.5,3.9,12.7,3.9,12.7h-0.6l-5.8,1.1c0,0-0.3,0.2-0.3,0.3
			c-0.7,0.7-1.4,1.6-1.9,2.5c-0.8,1.4-0.9,3.1-0.5,4.7h-0.6C142.3,74.4,142.8,72.8,143.5,71.5L143.5,71.5z M127.9,51.9
			c0.1,0,0.2,0,0.3,0c0.4,0.1,0.8,0.1,1.2,0.1C128.9,52,128.4,51.9,127.9,51.9L127.9,51.9z M136.3,53l-3.6-1.8
			c0.1-0.1,0.1-0.1,0.2-0.2l3.8,1.9C136.6,52.9,136.3,53,136.3,53z"/>
		<path class="st19" d="M150,64.4l2.4,3l0.5,8c0,0,0.6,4.1-4,3.1s-10.1-4-10.1-4s2.6-3.5,1.2-4.8l6.7,2.2c0,0,1.1-0.2,0.2-1.2
			c-0.9-1-1-2.8-1-2.8L150,64.4L150,64.4z"/>
		<path class="st6" d="M151.1,72.8l1.3,1.5C151.7,74.2,151.2,73.6,151.1,72.8z M148.8,72.6l2.1,2.7l-1,0.2L148.8,72.6L148.8,72.6z
			 M128.2,39.9c-0.2-0.6-0.1-1.2,0.2-1.7c0.3-0.5,0.6-1,0.9-1.6c0.3-0.8,0.2-1.8,0.5-2.6c0.6-1.5,2.2-2.1,3.7-2.6
			c0.4-0.1,0.9-0.3,1.4-0.2c0.6,0.1,1,0.7,1.5,1.1c2,1.5,5.3-0.2,7.3,1.4c0.7,0.6,1.1,1.6,1.2,2.6c0.1,1,0,1.9,0,2.9
			c0,1.7,0.3,3.5,1.6,4.7c0.4,0.3,0.8,0.6,1.2,0.9c0.4,0.3,0.7,0.8,0.6,1.3c0,0.2-0.1,0.5-0.2,0.7c-0.3,0.9,0.1,1.8,0.6,2.6
			c1.4,2.4,3.8,4.3,6.5,4.4c-0.2,1.4-1.6,2.2-2.9,2.7c-1.6,0.7-3.3,1.4-5.1,1.3c-1.8-0.1-3.6-1.2-3.9-3c-0.1-0.6-0.1-1.3-0.6-1.6
			c-0.3-0.2-0.7-0.1-1.1-0.3c-0.5-0.2-0.7-0.8-0.9-1.3c-0.3-1-0.5-2.1-0.5-3.2c0-1.3,0.1-2.7-0.6-3.8c-0.7-1-1.9-1.5-2.7-2.4
			c-0.7-0.8-1.5-1.9-2.7-2C132.6,40.1,129.2,42.3,128.2,39.9L128.2,39.9z"/>
		<path class="st9" d="M128.2,39.6c-0.2-0.6-0.1-1.2,0.2-1.7c0.3-0.5,0.6-1,0.9-1.6c0.3-0.8,0.2-1.8,0.5-2.6
			c0.6-1.5,2.2-2.1,3.7-2.6c0.4-0.1,0.9-0.3,1.4-0.2c0.6,0.1,1,0.7,1.5,1.1c2,1.5,5.3-0.2,7.3,1.4c0.7,0.6,1.1,1.6,1.2,2.6
			c0.1,1,0,1.9,0,2.9c0,1.7,0.3,3.5,1.6,4.7c0.4,0.3,0.8,0.6,1.2,0.9c0.4,0.3,0.7,0.8,0.6,1.3c0,0.2-0.1,0.5-0.2,0.7
			c-0.3,0.9,0.1,1.8,0.6,2.6c1.4,2.4,3.8,4.3,6.5,4.4c-0.2,1.4-1.6,2.2-2.9,2.7c-1.6,0.7-3.3,1.4-5.1,1.3c-1.8-0.1-3.6-1.2-3.9-3
			c-0.1-0.6-0.1-1.3-0.6-1.6c-0.3-0.2-0.7-0.1-1.1-0.3c-0.5-0.2-0.7-0.8-0.9-1.3c-0.3-1-0.5-2.1-0.5-3.2c0-1.3,0.1-2.7-0.6-3.8
			c-0.7-1-1.9-1.5-2.7-2.4c-0.7-0.8-1.5-1.9-2.7-2C132.6,39.8,129.2,42,128.2,39.6L128.2,39.6z"/>
		<path class="st6" d="M132.7,56l3.6-3c0,0-2.5-1.4-2.8-2.5c-0.3-1.2-2.3,0.5-2.1,1.6C131.7,53.1,132.7,56,132.7,56z"/>
		<path class="st20" d="M132.8,55.5l3.6-3c0,0-2.5-1.4-2.8-2.5c-0.3-1.2-2.3,0.5-2.1,1.6S132.8,55.5,132.8,55.5L132.8,55.5z"/>
		<path class="st9" d="M136.6,55.3c0.2,0,0.3-0.1,0.3-0.3s-0.1-0.3-0.3-0.3s-0.3,0.1-0.3,0.3S136.5,55.3,136.6,55.3z M136.6,57
			c0.2,0,0.3-0.1,0.3-0.3s-0.1-0.3-0.3-0.3s-0.3,0.1-0.3,0.3S136.5,57,136.6,57z M136.6,58.6c0.2,0,0.3-0.1,0.3-0.3
			s-0.1-0.3-0.3-0.3s-0.3,0.1-0.3,0.3S136.5,58.6,136.6,58.6z M129.7,35.5c0.3-0.8,0.2-1.7,0.5-2.5c-0.1,0.2-0.2,0.4-0.3,0.6
			c-0.3,0.8-0.2,1.8-0.5,2.6l0,0C129.4,36.1,129.6,35.8,129.7,35.5z M152.7,55.5c-1.6,0.7-3.3,1.4-5.1,1.3s-3.6-1.2-3.9-3
			c-0.1-0.6-0.1-1.3-0.6-1.6c-0.3-0.2-0.7-0.1-1.1-0.3c-0.5-0.2-0.7-0.8-0.9-1.3c-0.3-1-0.5-2.1-0.5-3.2c0-1.3,0.2-2.7-0.6-3.8
			c-0.7-1-1.9-1.5-2.7-2.4c-0.7-0.8-1.5-1.9-2.7-2c-1.6-0.2-5,2-6-0.4c-0.2-0.5-0.1-0.9,0.1-1.4c-0.1,0.1-0.1,0.2-0.2,0.4
			c-0.3,0.5-0.4,1.2-0.2,1.7c1,2.4,4.4,0.1,6,0.4c1.2,0.2,2,1.2,2.7,2c0.8,0.9,2,1.4,2.7,2.4c0.7,1.1,0.6,2.5,0.6,3.8
			c0,1.1,0.2,2.2,0.5,3.2c0.2,0.5,0.4,1,0.9,1.3c0.3,0.1,0.7,0.1,1.1,0.3c0.5,0.3,0.5,1,0.6,1.6c0.3,1.7,2.2,2.9,3.9,3
			c1.8,0.1,3.5-0.6,5.1-1.3c1.2-0.5,2.5-1.2,2.8-2.4C154.6,54.5,153.6,55,152.7,55.5L152.7,55.5z"/>
		
			<linearGradient id="SVGID_00000011740169332181228450000013586492715788187583_" gradientUnits="userSpaceOnUse" x1="170.5322" y1="-97693.7969" x2="170.5322" y2="-28226.2969" gradientTransform="matrix(1 0 0 -1 0 162)">
			<stop  offset="0" style="stop-color:#808080;stop-opacity:0.25"/>
			<stop  offset="0.54" style="stop-color:#808080;stop-opacity:0.12"/>
			<stop  offset="1" style="stop-color:#808080;stop-opacity:0.1"/>
		</linearGradient>
		<path style="fill:url(#SVGID_00000011740169332181228450000013586492715788187583_);" d="M188.2,66.8c-4.3-2.4-5.9-3.1-5.9-3.1
			l-0.1-0.1c-0.5-0.4-0.8-0.8-1.1-1.4c0-0.1,0-0.2,0-0.3c0.1-1.3,1-2.5,1.9-3.5l2.2-2.6c0.3-0.3,0.5-0.6,0.6-0.9
			c0-0.2,0.1-0.4,0.1-0.6v-0.2c0-0.7,0-1.3-0.1-2c0-0.6-0.2-1.3-0.7-1.4c-0.3-0.1-0.7,0-0.8-0.2c-0.1-0.1-0.1-0.2,0-0.3c0,0,0,0,0,0
			v0c0.1-0.4,0.2-0.9,0.2-1.3c0-0.2,0-0.5-0.1-0.7c-0.3-0.9-1.5-1.3-2.5-1.5c-1-0.2-2.1-0.3-2.8-1.1c-0.2-0.3-0.4-0.5-0.6-0.8
			c-0.3-0.3-0.6-0.4-1-0.5c-1.3-0.3-2.6-0.2-3.7,0.3c-0.5,0.2-1,0.5-1.5,0.5c-0.5,0-1-0.4-1.6-0.5c-0.9-0.2-1.7,0.5-2.2,1.3
			c-0.3,0.5-0.4,1-0.4,1.5v0.1c0,0.6,0.2,1.1,0.6,1.5c0.4,0.4,0.9,0.7,1.1,1.2c0.1,0.2,0,0.4,0.1,0.7c0,0,0,0.1,0,0.1l0,0
			c-0.9,1.2-1.4,2.6-1.4,4.1c0,3,1.9,5.6,4.8,6.4v0.2c0,0.8-0.2,1.6-0.9,2.3l-6,2.4c0,0-3.6-0.4-4.9,4.9c-0.2,0.9-0.3,1.8-0.2,2.7
			c0,0.8-0.1,2.2-1,4c-1.5,2.9-1.2,9.6,1.9,10.3c2.9,0.6,4,0.4,4.1,0.3v0.1c0,1.3-0.5,12.1-2.2,13.4c-0.5,0.4-0.4,0.6,0,0.8
			c0,0,0,0.1,0,0.2c-0.1,0.8-0.3,3.8-1.4,5.5c-1.3,2-1.2,13.5-1.2,13.5l-0.9,6.8c0,0,0.5,4.2,0,4.9c-0.5,0.6-1.1,16.1-1.3,19.5h-0.1
			c-0.5,0-1,0.3-1.3,0.8c-0.7,1.2-3.2,3.3-3.2,3.3c-0.5,0.8-2.5,1.5-3.6,1.9c-0.1,0-0.3,0.1-0.4,0.2c-0.4,0.2-0.7,0.6-0.9,1
			c-0.1,0.2-0.2,0.5-0.1,0.8c0.3,0.7,5.9,1.1,7.3,0.5c1.1-0.5,5.6-1.2,7.4-1.5c0.7-0.1,1.2-0.6,1.3-1.3c0-0.2,0-0.5-0.2-0.7
			c-0.4-0.4-0.5-1.6-0.6-2.4c0.1-0.1,0.3-0.1,0.4-0.2c-0.2-2.4,0.2-4.8,1-7.1c1.4-3.6,1.8-10.2,1.4-14.5c0,0,4.1-17.8,7.4-19.5
			c0.1,0.1,1.6,2.1,1.8,8.4c0.2,6.4,2.5,10.6,2.5,10.6s-1,10.8,0,14.9l-1.3,6.4c-0.1,0-0.1-0.1-0.2-0.1c0,0,0,0.2,0.1,0.5l0,0.1
			l0.1,0c0.2,0.8,0.4,2.2,0.3,3c-0.1,0.5-0.2,1.1-0.3,1.7c-0.1,1-0.2,1.9,0.3,2.1c0.8,0.3,5.8,0.8,6.7-0.3c0.2-0.2,0.3-0.5,0.4-0.8
			c0-0.3,0-0.6-0.1-0.9c-0.1-0.2-0.1-0.3-0.2-0.4c0,0-1.3-2.2-0.9-3.7c0.1-0.3,0-0.6-0.2-0.9c0.1-0.7,0.4-4.2,1.1-7.2
			c0.8-3.2,2.6-10.2,1.3-14.8c0-0.2-0.1-0.4-0.2-0.5c-0.8-2.5-1-5.2-0.7-7.8c-0.5-2.2-0.5-4.5,0-6.8c0.8-3.7,1.4-7.4,1.4-7.4
			s0.4-4.9,0.1-7.9c0-0.1,0-0.1,0-0.2l0.2,0c0,0-1.2-5.1-1.6-8.4c-0.1-0.9-0.2-1.9-0.4-2.8c0.4-0.1,0.7-0.2,1.1-0.3
			c3.7-1.3,4.8-12.7,4.8-12.7v-3.6C191.3,74.8,192.5,69.3,188.2,66.8L188.2,66.8z M160.9,155c-0.1,0-0.1-0.1-0.2-0.1L160.9,155z"/>
		<path class="st22" d="M186,132.7c1.6,4.6-0.3,12-1.1,15.3s-1.1,7.3-1.1,7.3c-3.4,0.5-5.8-0.1-5.8-0.1l1.4-6.8c-1-4,0-14.8,0-14.8
			s-2.2-4.2-2.4-10.5c-0.2-6.3-1.7-8.3-1.8-8.3c-3.2,1.7-7.2,19.4-7.2,19.4c0.3,4.3-0.1,10.9-1.4,14.5c-0.8,2.3-1.1,4.7-1,7.1
			c-0.5,0.4-1.1,0.5-1.8,0.3c-1.9-0.3-4.2-1.9-4.2-1.9s0.7-19.3,1.3-20c0.5-0.7,0-4.9,0-4.9l0.9-6.7c0,0-0.1-11.4,1.1-13.4
			c1.1-1.7,1.3-4.7,1.4-5.5v-0.2l1.9-2.3c0,0,18.5-1.4,19.9,0c0.3,0.3,0.6,1.1,0.7,2.1c0.4,3-0.1,7.9-0.1,7.9s-0.6,3.6-1.4,7.3
			c-0.5,2.2-0.5,4.5,0,6.8C185,127.6,185.3,130.2,186,132.7L186,132.7z"/>
		<path class="st14" d="M184.8,161.7c-0.8,1.1-5.7,0.6-6.5,0.3c-0.5-0.2-0.5-1.2-0.3-2.1c0.1-0.6,0.2-1.3,0.3-1.7
			c0.1-1.2-0.4-3.6-0.4-3.6s1.1,1.2,1.4,0c0.1-0.5,0.5-0.8,0.9-0.9c0.6-0.2,1.2-0.1,1.7,0.1c0.9,0.4,2.3,1.2,2,2.2
			c-0.4,1.5,0.9,3.7,0.9,3.7c0.1,0.1,0.2,0.3,0.2,0.4C185.3,160.6,185.2,161.3,184.8,161.7L184.8,161.7z"/>
		<path class="st6" d="M184.8,161.7c-0.8,1.1-5.7,0.6-6.5,0.3c-0.5-0.2-0.5-1.2-0.3-2.1c0.5,0.2,1.4,0.4,2.9,0.3c0.3,0,0.7,0,1,0
			c1.1,0,2.1,0,3.2-0.1C185.3,160.6,185.2,161.3,184.8,161.7L184.8,161.7z M167.9,134c0.3,4.3-0.1,10.9-1.4,14.5
			c-0.8,2.3-1.1,4.7-1,7.1c-0.5,0.4-1.1,0.5-1.8,0.3c0.4-2.8,2.1-14.8,3.2-24.3c1.2-10.8,7-18.3,7-18.3l1.2,1.3
			C171.9,116.3,167.9,134,167.9,134L167.9,134z"/>
		<path class="st23" d="M182.9,64.5l-0.8,4l-4,6.7l-4.9-2.1c0,0-6.6-6.9-2.5-7.9c0.5-0.1,1-0.3,1.4-0.6c0.8-0.6,1.1-1.5,1.1-2.4
			c0-1-0.3-2-0.7-2.8l8.5-2.7c-0.3,1.1-0.6,2.3-0.6,3.5c-0.1,2.3,0.8,3.5,1.5,4C182.2,64.2,182.5,64.4,182.9,64.5L182.9,64.5z"/>
		<path class="st6" d="M181.1,56.5c-0.3,1.1-0.6,2.3-0.6,3.5c-1.8,2.1-4.6,2.9-7.2,2.1c0-1-0.3-2-0.7-2.8L181.1,56.5z"/>
		<path class="st23" d="M182.1,55.5c0,2.7-1.6,5.2-4.2,6.2c-3.4,1.4-7.4-0.2-8.8-3.7c-1.4-3.4,0.2-7.4,3.7-8.8
			c0.8-0.3,1.7-0.5,2.6-0.5C179,48.7,182,51.7,182.1,55.5C182.1,55.4,182.1,55.4,182.1,55.5z"/>
		<path class="st6" d="M182.9,64.5l-0.8,4l-4,6.7l-4.9-2.1c0,0-6.6-6.9-2.5-7.9c0.5-0.1,1-0.3,1.4-0.6c-0.8,2.1,2.4,6.4,2.4,6.4
			c0.4,0.5,1.2,0.2,1.2,0.2c2-0.3,5.7-6.1,6.3-7C182.2,64.2,182.5,64.4,182.9,64.5L182.9,64.5z M186.7,103
			c-1.2,0.3-7.7,1.7-10.1,1.3c-2.7-0.4-8-0.7-8-0.7s-3.4,0.2-4.4-0.3v-0.2l1.9-2.3c0,0,18.5-1.4,19.9,0
			C186.3,101.2,186.6,102,186.7,103z"/>
		<path class="st7" d="M174.5,71c0,0-3.5-4.8-2.2-6.7l-5.9,2.4c0,0-3.5-0.4-4.8,4.9c-0.2,0.9-0.3,1.8-0.2,2.7c0,0.8-0.1,2.2-1,4
			c-1.5,2.9-1.1,9.6,1.9,10.3c3,0.7,4,0.3,4,0.3s-0.4,12.1-2.1,13.5c-1.7,1.4,4.4,1.1,4.4,1.1s5.3,0.3,8,0.7
			c2.7,0.4,10.3-1.4,10.3-1.4s-1.1-5.1-1.5-8.3c-0.4-3.4-0.9-6.8-1.3-10.1l6.7-9.1c0,0,1.2-5.5-3-8c-4.2-2.4-5.7-3-5.7-3
			s-4.2,6.8-6.4,7.2C175.7,71.2,174.8,71.6,174.5,71L174.5,71z"/>
		<path class="st6" d="M166.7,73c0,0-0.1,2.2,0.3,3c0.4,0.9,1.9,5.6,1.9,5.6h-3.3c0,0,1.8-1.9,1.7-2.8C167.1,77.9,166.7,73,166.7,73
			L166.7,73z"/>
		<path class="st23" d="M176.5,89.4c0,0-7.3-1.8-8-3.3c-0.7-1.5-2.6-4.9-2.6-4.9l0.8-1l3.6,2.8c0,0,4.2,3.4,6.2,3.7
			C178.5,87,176.5,89.4,176.5,89.4L176.5,89.4z"/>
		<path class="st24" d="M176.5,89.4c0,0-7.3-1.8-8-3.3c-0.7-1.5-2.6-4.9-2.6-4.9l0.8-1l3.6,2.8c0,0,4.2,3.4,6.2,3.7
			C178.5,87,176.5,89.4,176.5,89.4L176.5,89.4z"/>
		<path class="st23" d="M182.9,80.8v4h-0.6c-3.1,0-6.2,0.8-9,2.3l-1.2,0.7l-0.3,0.2l-2.1-4.6l1.9-1.7h0.1c0.5,0,2.5,0.2,3.4-0.1
			c0.8-0.3,1.8-1.2,4.2-0.5c1.2,0.3,2.2,1.6,3.3,1.2C182.6,82.2,182.9,80.8,182.9,80.8z"/>
		<path class="st6" d="M189.2,73.6l1.3,1.5v3.6c0,0-1.1,11.4-4.7,12.6c-3.6,1.3-10-0.7-10-0.7s-1.6-4.4-0.9-4.6
			c0.8-0.3,6.8-1.9,6.8-1.9s-0.1-6.7,1.2-8.7c0,0-0.9-6.2,2.1-6.4C188.2,69,189.2,73.6,189.2,73.6L189.2,73.6z"/>
		<path class="st7" d="M189.4,73.6l1.3,1.5v3.6c0,0-1.1,11.4-4.7,12.6c-3.6,1.3-10-0.7-10-0.7s-1.6-4.4-0.9-4.6
			c0.8-0.3,6.8-1.9,6.8-1.9s-0.1-6.7,1.2-8.7c0,0-0.9-6.2,2.1-6.4C188.4,69,189.4,73.6,189.4,73.6L189.4,73.6z"/>
		<path class="st6" d="M180.2,58.3c0.1-0.4,0-0.9-0.1-1.3c-0.2-0.4-0.6-0.7-1.1-0.6c-0.6,0.1-0.8,0.9-1.4,1c-0.5,0.2-1-0.2-1.2-0.6
			c-0.2-0.4-0.2-0.9-0.2-1.4v-1.7c0-0.6,0-1.3-0.4-1.7c-0.5-0.6-1.5-0.8-2.3-0.8c-0.5,0-0.9,0.2-1.3,0.5c-0.4,0.3-0.8,0.6-1.4,0.5
			c-0.4-0.1-0.8-0.4-0.9-0.8v0c1.1-1.5,2.9-2.5,4.7-2.7c3.7-0.4,7,2.3,7.4,6c0.2,2.1-0.6,4.1-2.1,5.6
			C180.1,59.7,180.2,59,180.2,58.3L180.2,58.3z"/>
		<path class="st25" d="M170.9,52c-0.4-0.1-0.8-0.4-1-0.8c-0.1-0.2,0-0.4-0.1-0.7c-0.2-0.5-0.7-0.8-1.1-1.2c-0.7-0.8-0.7-2.1-0.2-3
			c0.4-0.8,1.3-1.4,2.1-1.3c0.5,0.1,1,0.5,1.5,0.5c0.5,0,1-0.3,1.5-0.5c1.1-0.5,2.4-0.6,3.7-0.3c0.4,0.1,0.7,0.3,1,0.5
			c0.2,0.2,0.4,0.5,0.5,0.8c0.6,0.8,1.7,0.9,2.7,1.1c1,0.2,2.1,0.6,2.4,1.5c0.2,0.6,0,1.3-0.1,2c0,0.1,0,0.3,0,0.4
			c0.2,0.3,0.5,0.1,0.8,0.2c0.6,0.1,0.7,0.8,0.7,1.4c0,0.7,0,1.3,0.1,2c0,0.2,0,0.5-0.1,0.7c-0.1,0.3-0.3,0.7-0.6,0.9l-2.2,2.6
			c-1,1.2-2,2.5-1.8,4c-0.5,0.2-1-0.2-1.2-0.7s0-1,0.1-1.5c0.2-0.9,0.3-1.7,0.4-2.6c0.1-0.4,0-0.9-0.1-1.3c-0.2-0.4-0.6-0.7-1.1-0.6
			c-0.6,0.1-0.8,0.9-1.4,1c-0.5,0.2-1-0.2-1.2-0.6c-0.2-0.4-0.2-0.9-0.2-1.4v-1.7c0-0.6,0-1.3-0.4-1.7c-0.5-0.6-1.5-0.8-2.3-0.8
			c-0.5,0-0.9,0.2-1.3,0.5C171.9,51.9,171.4,52.1,170.9,52L170.9,52z"/>
		<path class="st6" d="M172.4,72.8l2.1,8.5C174.5,81.3,176.1,81.3,172.4,72.8z M179.5,71.4c0,0-2.7,4.4-1.7,9l0.5,0
			C178.3,80.4,177.4,78.3,179.5,71.4z M181.2,96.5c0,0,3.3-1.1,3.6,1.5C184.8,98,184.1,96.2,181.2,96.5z M171.6,81.8
			c0,0-0.7,4.6,0.5,6.5c0,0-2.4,1-5.8,0.8l-0.4-7.3L171.6,81.8L171.6,81.8z"/>
		<path class="st6" d="M172,87.8l-0.3,0.2l-2.1-4.6l1.9-1.7h0.1C171.6,81.8,171.1,85.8,172,87.8z"/>
		<path class="st7" d="M171.6,81.6c0,0-0.7,4.6,0.5,6.5c0,0-2.4,1-5.8,0.8l-2.3-7.3H171.6z"/>
		<path class="st14" d="M165.9,158.9c-0.1,0.7-0.6,1.2-1.3,1.3c-1.8,0.3-6.1,1-7.2,1.5c-1.4,0.7-6.9,0.2-7.1-0.5
			c-0.1-0.3,0-0.6,0.1-0.8c0.2-0.4,0.5-0.7,0.9-1c0.1-0.1,0.3-0.1,0.4-0.2c1-0.3,3-1.1,3.5-1.8c0,0,2.4-2.1,3.1-3.3
			c0.3-0.5,0.7-0.8,1.3-0.8c0.6,0,1.2,0.3,1.5,1.5c0,0,3.2,1.8,4,0.2c0,0,0.1,2.4,0.7,3.1C165.8,158.4,165.9,158.7,165.9,158.9
			L165.9,158.9z"/>
		<path class="st26" d="M165.9,158.9c-0.1,0.7-0.6,1.2-1.3,1.3c-1.8,0.3-6.1,1-7.2,1.5c-1.4,0.7-6.9,0.2-7.1-0.5
			c-0.1-0.3,0-0.6,0.1-0.8c0.2-0.4,0.5-0.7,0.9-1c0.9,0.6,2.9,1.2,7.3,0.5c4.2-0.7,6.2-1.3,7.2-1.7
			C165.8,158.4,165.9,158.7,165.9,158.9L165.9,158.9z M183.9,50.7L183.9,50.7c0.1-0.5,0.2-1,0.2-1.5c0,0.4-0.1,0.8-0.2,1.2
			C183.9,50.5,183.9,50.6,183.9,50.7z M180,56.9c0.1,0.2,0.2,0.5,0.2,0.8c0-0.4,0-0.7-0.2-1.1c-0.2-0.4-0.6-0.7-1-0.6
			c-0.6,0.1-0.8,0.9-1.4,1c-0.5,0.1-1-0.2-1.2-0.6c-0.2-0.4-0.2-1-0.2-1.4v-1.7c0-0.6,0-1.3-0.4-1.7c-0.5-0.6-1.5-0.8-2.3-0.8
			c-0.5,0-0.9,0.2-1.3,0.5c-0.4,0.3-0.8,0.6-1.4,0.5c-0.4-0.1-0.8-0.4-0.9-0.8c-0.1-0.2,0-0.4-0.1-0.7c-0.2-0.5-0.7-0.8-1.1-1.2
			c-0.3-0.4-0.5-0.9-0.6-1.4c-0.1,0.6,0.1,1.2,0.6,1.7c0.4,0.4,0.9,0.7,1.1,1.2c0.1,0.2,0,0.4,0.1,0.7c0.1,0.4,0.5,0.8,0.9,0.8
			c0.5,0.1,1-0.2,1.4-0.5c0.4-0.3,0.8-0.5,1.3-0.5c0.7,0,1.8,0.2,2.3,0.8c0.4,0.5,0.4,1.1,0.4,1.7v1.7c0,0.5,0,1,0.2,1.4
			s0.7,0.8,1.2,0.6c0.6-0.2,0.8-0.9,1.4-1C179.4,56.2,179.9,56.5,180,56.9z M185.5,55.1c-0.1,0.3-0.3,0.7-0.6,0.9l-2.2,2.6
			c-0.9,1.1-1.9,2.4-1.8,3.8c0.1-1.3,1-2.5,1.8-3.5l2.2-2.6c0.2-0.3,0.4-0.6,0.6-0.9c0.1-0.2,0.1-0.5,0.1-0.7
			C185.5,54.8,185.5,54.9,185.5,55.1z M179.8,62c0-0.1-0.1-0.2-0.1-0.4c0,0.2,0,0.4,0.1,0.7c0.1,0.5,0.7,0.9,1.2,0.7
			c0-0.1,0-0.2,0-0.3C180.5,62.8,179.9,62.4,179.8,62z M157.8,154.8c0,0,0.7,1.2,3.2,0.1L157.8,154.8z M179,155.1
			c0,0,2.2,2.5,4.9,0.8L179,155.1z M185.3,125c0,0-1.5,1-1.6,1.5c0,0.5,0.8-0.4,0.8-0.4L185.3,125z M185.9,132.3
			c-0.5,0.4-1.2,0.7-1.9,0.7c-1.1,0.1-1,1.5-0.3,1.1C184.4,133.7,185.9,132.3,185.9,132.3L185.9,132.3z M186.2,133.2
			c0,0-0.7,3.6-1.3,2.9L186.2,133.2z"/>
		
			<linearGradient id="SVGID_00000072248202071624027360000012993487178810790817_" gradientUnits="userSpaceOnUse" x1="64.5177" y1="-96863.7969" x2="64.5177" y2="-27112.6016" gradientTransform="matrix(1 0 0 -1 0 162)">
			<stop  offset="0" style="stop-color:#808080;stop-opacity:0.25"/>
			<stop  offset="0.54" style="stop-color:#808080;stop-opacity:0.12"/>
			<stop  offset="1" style="stop-color:#808080;stop-opacity:0.1"/>
		</linearGradient>
		<path style="fill:url(#SVGID_00000072248202071624027360000012993487178810790817_);" d="M44.7,160.2c0,0,4.6,1.3,6.8-0.4
			c2.2-1.7,3.2-1.1,3.2-1.1s5.3-0.3,5.7-1.5c0.4-1.2-2-5.8-2-5.8c-0.2-0.4-0.4-0.9-0.5-0.9l0-1.9l0.8-8c1.8-4.5,0-10.4,0-10.4
			l-0.3-1.5c-0.2-0.8-0.1-1.7,0.3-2.4l3.2-6.4c0.2-0.4,0.4-0.8,0.6-1.2c0.4-0.6,0.7-1.3,1.1-1.9c0.4-0.6,0.9-1.3,1.4-2.1
			c1.4-2,2.2-4.4,2.6-6.2l0.2,0.6h0l0,0h0.1l0.1,0h0l1,12.5c0.1,4.9,1.9,7.6,1.9,7.6L70.6,140c0.3,2.6-0.4,6.1-0.7,7.5l-0.8,1.8
			c-0.6,0.3-1,0.9-1.1,1.6c-0.2,1.3-1.5,4.1-1.5,4.1c-0.5,0.7-1.7,2.5-1.7,2.5s-0.5,1.7-0.2,2.4s3.1,0.6,3.1,0.6
			c3.2,0.7,5.6-1,5.5-2.2c-0.2-1.2,0.5-1.5,0.5-1.5c1.3-0.4,1.1-1.3,1.1-1.3c0.3-1.8-0.1-3.6-1-5.1l-0.2,0.5
			c-0.1-0.9,0.1-1.9,0.4-2.7l-0.1,0.1l0,0h0c0.2-1.8,2.1-5,2.1-5c3.4-6,2.2-14.1,2.2-14.1l-0.5-2.5l0-1c-0.1-2.3,0.1-4.5,0.5-6.8
			c0.2-1,0.4-2.2,0.5-3.5c0.3-2.8,1.3-5.7,1.7-6.9l0.1,0h0c0.2,0,0.4-0.1,0.6-0.1h0c0,0,0.1-0.6,0.2-1.6c0.1-0.6,0.1-1.4,0.1-2.4
			c0-2.8-0.4-5.6-1.3-8.3l0.1-0.1c0,0,0.2-0.3,0.7-0.9c1.2-1.5,2.4-3,3.7-4.4c2.8-3.2,2-6.4,2-6.4s-2-7.4-2.9-11.9
			c-0.5-2.5-1.5-4.3-2.2-5.3c0.2-0.7,0.3-1.4,0.3-2.2c0.1-1.3,0-2.7-0.6-3.9c-0.6-1.2-1.9-2.1-3.2-2c-0.2,0-0.4,0-0.6,0
			c-0.2-0.1-0.3-0.2-0.4-0.3c-0.8-1.1-0.8-2.5-0.6-3.8c0.2-1.3,0.7-2.5,1-3.8c0.2-1.3,0.1-2.7-0.7-3.8c-1-1.2-2.7-1.5-3.9-2.5
			c-0.9-0.6-1.6-1.6-2.5-2.1c-0.9-0.6-1.8-0.3-2.8-0.1c-1.7,0.4-3.3,0.5-4.9,1.3c-1.6,0.7-3.1,1.8-4.3,3.1c-0.4,0.4-0.8,0.9-1,1.5
			c-0.4,1.3,0.4,2.7,0.2,4.1c-0.1,1-0.7,1.8-1.1,2.7c-0.5,0.9-0.8,1.9-0.4,2.8c0.6,1.4,2.4,1.7,3.7,2.5c0.2,0.1,0.3,0.2,0.4,0.4
			c0.3,0.6-0.3,1.2-0.8,1.7c-0.2,0.3-0.4,0.6-0.5,1c-1.1,0.5-1.9,1.5-2.2,2.6c-0.5,2,0.2,4.6,0.9,6.3c-0.7,3.8,0.2,5.2,0.8,5.8
			c0.6,0.6,1.1,1.3,1.1,2.2v0.1c0,0.5,0.1,1.1,0.2,1.6c-0.5,1-1.5,3.5-2.1,7.6c-0.1,0.9-0.3,1.8-0.5,2.7c-0.4,1.6-0.5,3.2-0.4,4.8
			l0.1,1.4c-0.1,0-0.2,0-0.3-0.1l0.7,1.3v2.2c0,1-0.2,2-0.5,2.9c0,0.1-0.1,0.3-0.2,0.4c-0.2,0.4-0.3,0.8-0.2,1.2
			c-1.5,2.3-5,15.4-5,15.4c-1.9,4.3,0.2,7,0.2,7s1,11.9,1.2,12.5c0.2,0.6,0.6,7.9,0.6,7.9v0.6c-0.1,0-0.2-0.1-0.3-0.1
			c-1.7-0.1-2.1,2.5-2.1,2.5l-3.4,3.2c0,0-1.5-0.3-3.8,1.4C40.9,158.7,44.7,160.2,44.7,160.2L44.7,160.2z M78.5,91.4L78.5,91.4
			l-0.1,0l0,0l0,0l-1.6-5.5c-0.4-1.5-0.5-3-0.1-4.5l1.2-5.3v-1.3l3.8,10.2C82,86.4,79.7,89.8,78.5,91.4z"/>
		<path class="st28" d="M80.2,108c0,0-1.5,3.8-1.9,7.4c-0.1,1.2-0.3,2.3-0.5,3.5c-0.4,2.2-0.6,4.5-0.5,6.7l0,0.9l0.5,2.5
			c0,0,1.2,8-2.1,13.9c0,0-2,3.5-2,5.2l-1.3,0.5l-2.7-0.8c0,0,1.3-4.7,0.9-8l0.2-10.7c0,0-1.8-2.7-1.8-7.5l-1-13.3
			C67.8,108.4,80.2,108,80.2,108z M67.8,106.1c0,0-0.3,5.2-2.9,8.7c-2.6,3.6-3.1,5.1-3.1,5.1l-3.1,6.4c-0.4,0.7-0.5,1.6-0.3,2.4
			l0.3,1.4c0,0,1.7,5.8,0,10.2l-0.8,8.6h-4.8c0,0-0.4-7.2-0.6-7.8s-1.2-12.4-1.2-12.4s-2-2.7-0.2-7c0,0,4.2-15.8,5.3-15.5
			S67.8,106.1,67.8,106.1z"/>
		<path class="st6" d="M58.2,130.1l-0.3-1.4c-0.2-0.8-0.1-1.7,0.3-2.4l3.1-6.4c0,0,0.5-1.5,3.1-5.1c2.5-3.4,2.9-8.3,2.9-8.7l0.5,0
			c0,0-0.3,5.2-2.9,8.7c-2.6,3.6-3.1,5.1-3.1,5.1l-3.1,6.4c-0.4,0.7-0.5,1.6-0.3,2.4l0.3,1.4c0,0,1.7,5.8,0,10.2l-0.8,8.6h-0.5
			l0.8-8.6C59.9,135.9,58.2,130.1,58.2,130.1L58.2,130.1z M73.1,148.1c0.1-1.7,2-5.2,2-5.2c3.3-5.9,2.1-13.9,2.1-13.9l-0.5-2.5
			l0-0.9c-0.1-2.2,0.1-4.5,0.5-6.7c0.2-1,0.4-2.2,0.5-3.5c0.4-3.5,1.8-7.1,1.9-7.4l0.5,0c0,0-1.5,3.8-1.9,7.4
			c-0.1,1.2-0.3,2.3-0.5,3.5c-0.4,2.2-0.6,4.5-0.5,6.7l0,0.9l0.5,2.5c0,0,1.2,8-2.1,13.9c0,0-2,3.5-2,5.2l-1.3,0.5l-0.3-0.1
			C72,148.5,73.1,148.1,73.1,148.1z"/>
		<path class="st29" d="M71.6,148c0.7,0.3,1.6,0.2,2.2-0.3c-0.4,1.3-0.5,2.7-0.2,4c0.5,2.2-5.1-1.8-5.1-1.8l1.2-2.8
			C69.7,147.2,70.2,148.1,71.6,148L71.6,148z"/>
		<path class="st6" d="M72,148.1c0.6,0.1,1.3,0,1.8-0.4c-0.4,1.3-0.5,2.7-0.2,4c0.5,2.2-5.1-1.8-5.1-1.8l1.2-2.8
			c0,0,0.3,0.7,1.4,0.8C71.4,148,71.7,148.1,72,148.1z"/>
		<path class="st28" d="M58.8,96.9h2.4V83.5l-1.8-0.3L58.8,96.9L58.8,96.9z"/>
		<path class="st24" d="M58.8,96.9h2.4V83.5l-1.8-0.3L58.8,96.9L58.8,96.9z"/>
		<path class="st30" d="M70.2,149c0,0,1.5-0.1,2.2,1.2l0.8,0.6l0.4-0.9c0.9,1.5,1.2,3.3,0.9,5.1c0,0,0.1,0.8-1.1,1.2
			c0,0-0.6,0.3-0.5,1.5s-2.2,2.9-5.4,2.2c0,0-2.7,0.1-3.1-0.6c-0.3-0.6,0.2-2.3,0.2-2.3s1.1-1.8,1.6-2.4c0,0,1.3-2.8,1.5-4
			C68,149.3,69.5,148.3,70.2,149L70.2,149z"/>
		<path class="st29" d="M57.9,150.2l0-1.9c0,0-2.7,0.8-4.9-0.1c0,0,0.2,1.9-0.1,2.2c-0.3,0.3,1,2.7,1,2.7l1.5,1.5l2.5-0.9l0.7-2.2
			C58.6,151.5,58.1,150.2,57.9,150.2L57.9,150.2z"/>
		<path class="st6" d="M57.9,150.2l0-1.9c0,0-2.7,0.8-4.9-0.1c0,0,0.2,1.9-0.1,2.2c-0.3,0.3,1,2.7,1,2.7l1.5,1.5l2.5-0.9l0.7-2.2
			C58.6,151.5,58.1,150.2,57.9,150.2L57.9,150.2z"/>
		<path class="st30" d="M52.7,149.5c0,0,1.4,0.2,1.3,2c-0.2,1.8,0.1,0,0.1,0s1.5,0.6,2.1,1.5s1.5-0.8,1.6-1.2
			c0.1-0.5,0.7-0.7,0.7-0.7s2.4,4.5,2,5.7c-0.4,1.2-5.6,1.5-5.6,1.5s-0.9-0.5-3.1,1.1s-6.7,0.4-6.7,0.4s-3.7-1.5-1.4-3.2
			c2.2-1.7,3.8-1.4,3.8-1.4l3.3-3.2C50.7,152,51.1,149.4,52.7,149.5z"/>
		<path class="st26" d="M70,43.7c0.9,0.6,1.6,1.5,2.4,2.1c1.2,0.9,2.9,1.2,3.9,2.4c0.8,1,0.9,2.4,0.7,3.7c-0.2,1.3-0.7,2.5-0.9,3.8
			c-0.2,1.3-0.2,2.7,0.6,3.8c0.1,0.1,0.2,0.3,0.4,0.3c0.2,0,0.4,0,0.6,0c1.3-0.2,2.5,0.8,3.1,1.9c0.6,1.2,0.6,2.5,0.6,3.8
			c-0.1,1.1-0.2,2.2-0.6,3.1c-0.8,1.6-2.5,2.7-4.1,3.4c-1.1,0.5-2.2,0.9-3.3,1.3c-0.8,0.3-1.6,0.5-2.4,0.4c-1.4-0.2-2.3-1.5-3.7-2
			c-1.1-0.4-2.3-0.3-3.4-0.2c-1,0.1-2.1,0.1-2.7-0.6c-0.9-0.9-0.5-2.4,0-3.5c-1.4-0.1-2.4-1.3-2.4-2.7c0-0.5,0.2-1,0.6-1.5
			c0.4-0.5,1.1-1.1,0.8-1.7c-0.1-0.2-0.3-0.3-0.4-0.4c-1.3-0.7-3.1-1-3.7-2.5c-0.4-0.9,0-1.9,0.4-2.8c0.4-0.9,1-1.7,1.1-2.7
			c0.2-1.4-0.6-2.8-0.2-4.1c0.2-0.6,0.5-1.1,0.9-1.5c1.2-1.3,2.6-2.4,4.2-3.1c1.6-0.7,3.2-0.9,4.9-1.2C68.2,43.3,69.1,43.1,70,43.7z
			"/>
		<path class="st28" d="M61.1,63.9c0,0-3.8-0.2-4.6,3.1c-0.7,3.3,1.6,8,1.6,8L61.1,63.9L61.1,63.9z"/>
		<path class="st24" d="M61.1,63.9c0,0-3.8-0.2-4.6,3.1c-0.7,3.3,1.6,8,1.6,8L61.1,63.9L61.1,63.9z"/>
		<path class="st28" d="M58.7,73.7l1.5,1.2l6.8,0.3l4.2-2.9l4.3-7.4c-2.6-0.7-3.7-2.5-4.1-4.2c-0.3-1.2-0.3-2.3-0.1-3.5
			c0,0-6.9-3.6-6.1,2c0.1,0.7,0.1,1.4,0.1,2.1c-0.4,3.3-3.6,2.7-3.6,2.7l-1.2,1.9l-1.4,4.6C59.1,70.3,58.7,73.7,58.7,73.7z"/>
		<path class="st6" d="M65.2,59.1c0.1,0.7,0.1,1.4,0.1,2.1c2,0.9,4.3,0.7,6.1-0.6c-0.3-1.2-0.3-2.3-0.1-3.5
			C71.3,57.1,64.4,53.5,65.2,59.1z"/>
		<path class="st28" d="M67.9,61.5c3.4,0,6.2-2.7,6.2-6.1c0-3.4-2.7-6.2-6.1-6.2c-0.1,0-0.1,0-0.2,0c-3.4,0-6.1,2.8-6.1,6.2
			C61.8,58.7,64.5,61.4,67.9,61.5z"/>
		<path class="st7" d="M63.5,72.5c0.1,0,0.3,0,0.4,0c0.8,0.1,4.2,0.3,6.1-2c2.1-2.6,5-5.7,5.1-5.8l2.9,0.9c0,0-2.3-0.8-3.8,3.5
			c-0.7,1.8-0.1,3.9,1.5,5.1c0.6,0.4,1.2,0.7,1.9,0.8c0,0,0,0,0,0c0,0,0,0,0,0v1.9L76.4,82c-0.3,1.5-0.3,3,0.1,4.5l1.8,6.4
			c-0.3,0.2-11.5,7.8-19,2.6c0-0.2,1-7.7,0.3-11.4c-0.2-0.9-0.3-1.9-0.3-2.8v-0.1c-0.1-0.8-0.5-1.6-1.1-2.2
			c-0.7-0.6-1.6-2.2-0.7-6.5c0.2-1.1,0.6-2.1,1-3.1l2.5-5.7l2.3,0v0c-0.2,0.2-2.9,3.6-3.2,5.8C59.9,71.6,59.6,72.2,63.5,72.5z"/>
		<path class="st28" d="M80,66.5c0,0,2.3,1.9,3.2,6.4c0.9,4.4,2.9,11.8,2.9,11.8s0.8,3.2-1.9,6.4s-4.6,5.6-4.6,5.6l-1.8,2.7
			c-0.3,0.5-0.8,0.8-1.3,0.9c-0.8,0.2-2.1,0.4-3.2-0.2c-0.8-0.5-1.2-1.5-0.8-2.3l0.4-0.9c0,0-3.7,2.3-4.1,1.1
			c-0.3-1.3,4.3-2.6,4.3-2.6s3.8-0.6,4.6-2.5c0,0,4.1-5.3,3.8-7.1l-4-10.7c0,0-5-0.7-3.3-6.3S80,66.5,80,66.5z"/>
		<path class="st12" d="M56.1,106.9c0,0,9.1,1.8,11.3,1.6l0.2,0.8c0,0,3.5,0.8,11.3-0.5c0.5-0.1,1-0.2,1.6-0.3l0.2,0
			c0,0,0.1-0.6,0.2-1.6c0.2-2.2,0.3-6.6-1.3-11l-1.3-4.1c0,0-8.1,4.9-13.5,4.4c-0.5,0-1-0.1-1.4-0.1c-1.1,0-2.8,0-3.9-0.9L57,95.7
			v6.6c0,1-0.2,1.9-0.5,2.8c0,0.1-0.1,0.3-0.2,0.4C56.1,106,56.1,106.4,56.1,106.9L56.1,106.9z"/>
		<path class="st6" d="M67.6,107.2v2.1c0,0,4,0.9,13.1-0.8c0,0,0.1-0.6,0.2-1.6C78.1,107.4,70.4,108.4,67.6,107.2z"/>
		<path class="st6" d="M56.1,106.9c0,0,9.1,1.8,11.3,1.6l0.2,0.8v-2.1c-1,0.4-8.5-1.4-11.1-2c0,0.1-0.1,0.3-0.2,0.4
			C56.1,106,56.1,106.4,56.1,106.9z"/>
		<path class="st8" d="M78.2,104.6l0.7,4.2c0.5-0.1,1.1-0.2,1.6-0.3c-0.2-1.2-0.7-4-0.5-4.5l-0.9-0.7
			C79.1,103.3,78.2,104.6,78.2,104.6z"/>
		<path class="st22" d="M78.3,104.5l0.7,4.2c0.5-0.1,1.1-0.2,1.6-0.3c-0.2-1.2-0.7-4-0.5-4.5l-0.9-0.7
			C79.2,103.2,78.3,104.5,78.3,104.5z"/>
		<path class="st24" d="M64.2,96.2c-0.5,0-1-0.1-1.4-0.1c-1.1,0-2.7,0-3.8-0.8l0.4-0.1c1.1,0.9,2.8,0.8,3.9,0.9c0.5,0,1,0.1,1.4,0.1
			c0.2,0,0.3,0,0.5,0C64.9,96.3,64.6,96.3,64.2,96.2L64.2,96.2z M78.4,108.8c0.5-0.1,1-0.2,1.6-0.3l0.2,0c0,0,0.1-0.6,0.2-1.6
			c0.2-2.2,0.3-6.6-1.3-11l-1.2-3.8c0.3-0.2,0.4-0.2,0.4-0.2l1.3,4.1c1.6,4.4,1.5,8.8,1.3,11c-0.1,1-0.2,1.6-0.2,1.6l-0.2,0
			c-0.5,0.1-1.1,0.2-1.6,0.3c-3.7,0.6-6.4,0.7-8.2,0.7C73.3,109.4,75.9,109.2,78.4,108.8L78.4,108.8z M66.9,108.5L66.9,108.5l-0.3,0
			C66.8,108.5,66.8,108.5,66.9,108.5z"/>
		<path class="st29" d="M79.4,105.4c0.2,0,0.3-0.3,0.3-0.7s-0.2-0.7-0.3-0.7s-0.3,0.3-0.3,0.7S79.2,105.4,79.4,105.4L79.4,105.4z"/>
		<path class="st28" d="M57.4,90.3c0.6-4.1,1.5-6.6,2.1-7.5c0,0.1,0.1,0.6,0.1,0.7c0.1,0.6,0,1.4,0,2.1l-0.5,9.3l0.7,2.9
			c0.6,2.3-1.8,0.5-1.8,0.5c-0.5,1.1-1.4,1-1.4,1l-0.1-1.7c-0.1-1.6,0-3.2,0.4-4.7C57.1,92.1,57.3,91.2,57.4,90.3L57.4,90.3z"/>
		<path class="st24" d="M57.4,90.3c0.6-4.1,1.5-6.6,2.1-7.5c0,0.1,0.1,0.6,0.1,0.7c0.1,0.6,0,1.4,0,2.1l-0.5,9.3l0.7,2.9
			c0.6,2.3-1.8,0.5-1.8,0.5c-0.5,1.1-1.4,1-1.4,1l-0.1-1.7c-0.1-1.6,0-3.2,0.4-4.7C57.1,92.1,57.3,91.2,57.4,90.3L57.4,90.3z"/>
		<path class="st28" d="M80.5,95.4c-0.4,0.6-0.7,0.9-0.7,0.9L78,98.9c-0.3,0.5-0.8,0.8-1.3,0.9c-0.8,0.2-2.1,0.4-3.2-0.2
			c-0.8-0.5-1.2-1.5-0.8-2.3l0.4-0.9c0,0-3.7,2.3-4.1,1.1c-0.3-1.3,4.3-2.6,4.3-2.6s3.8-0.6,4.6-2.5c0,0,0.3-0.4,0.8-1.1"/>
		<path class="st8" d="M78.2,99.8c0,0-4.4-0.4-5.8-2.9L71.8,99c0,0,4.6,3.2,5.7,2.8L78.2,99.8L78.2,99.8z"/>
		<path class="st22" d="M78.1,99.8c0,0-4.4-0.4-5.8-3l-0.6,2.1c0,0,4.6,3.2,5.7,2.8L78.1,99.8z"/>
		<path class="st8" d="M58.2,98.7c0,0-1.5,0.5-1.8,0.2l0.7,1.3l1.3-1L58.2,98.7z"/>
		<path class="st31" d="M58.2,98.7c0,0-1.5,0.5-1.8,0.2l0.7,1.3l1.3-1L58.2,98.7z M67.6,107.2v-2.7l-0.6,2.7L67.6,107.2z M73.9,52.1
			c-0.4,0.5-1,0.8-1.7,0.9s-1.3,0-1.9,0c-1,0-2.1,0.1-2.9,0.7c-0.5,0.4-0.9,0.9-1.3,1.4c-1.2,1.5-3,2.9-4.9,2.8
			c-0.3,0-0.7-0.1-0.9-0.4C60.1,57.3,60,57,60,56.7c-0.1-1.3,0-2.5,0.1-3.8c0.1-0.8,0.3-1.5,0.6-2.2c0.3-0.7,0.8-1.4,1.4-1.9
			c0.7-0.8,1.5-1.4,2.4-1.9c0.9-0.5,2-0.6,3-0.4c1.2,0.3,2.1,1.2,3.2,1.7C71.9,48.7,75.3,50.1,73.9,52.1L73.9,52.1z"/>
		<path class="st26" d="M73.9,51.8c-0.4,0.5-1,0.8-1.7,0.9s-1.3,0-1.9,0c-1,0-2.1,0.1-2.9,0.7c-0.5,0.4-0.9,0.9-1.3,1.4
			c-1.2,1.5-3,2.9-4.9,2.8c-0.3,0-0.7-0.1-0.9-0.4C60.1,57,60,56.7,60,56.4c-0.1-1.3,0-2.5,0.1-3.8c0.1-0.8,0.3-1.5,0.6-2.2
			c0.3-0.7,0.8-1.4,1.4-1.9c0.7-0.8,1.5-1.4,2.4-1.9c0.9-0.5,2-0.6,3-0.4c1.2,0.3,2.1,1.2,3.2,1.7C71.9,48.4,75.3,49.9,73.9,51.8
			L73.9,51.8z"/>
		<path class="st28" d="M59.4,95.3l0,0.7l-0.2-0.7L59.4,95.3z"/>
		<path class="st24" d="M59.4,95.3l0,0.7l-0.2-0.7L59.4,95.3z M74.9,68.2c-1.7,5.6,3.3,6.3,3.3,6.3l4,10.7c0.3,1.8-3.8,7.1-3.8,7.1
			c-0.3,0.7-1,1.2-1.8,1.6c0.5-0.3,0.8-0.7,1.1-1.2c0,0,4.1-5.3,3.8-7.1l-4-10.7c0,0-5-0.7-3.3-6.3c0.6-1.9,1.4-2.7,2.3-3
			C75.8,66.1,75.3,66.9,74.9,68.2L74.9,68.2z"/>
		<g class="st32">
			<path class="st6" d="M75,73.3c0.2,0.3,0.5,0.5,0.8,0.8c0.6,0.4,1.2,0.7,1.9,0.8v0.2c-0.6-0.1-1.2-0.4-1.7-0.8
				C75.6,74.1,75.2,73.7,75,73.3z M59.5,81.4L59.5,81.4c0.1,1,0.2,2,0.3,2.9c0.6,3.5-0.2,10.4-0.3,11.3l-0.2-0.1
				c0-0.2,1-7.7,0.3-11.4c-0.2-0.9-0.3-1.9-0.3-2.8v-0.1c0-0.6-0.2-1.1-0.5-1.5C59.2,80.1,59.5,80.7,59.5,81.4z M63.2,64l-2,0
				c0,0,0,0,0,0l-2.5,5.7c-0.4,1-0.8,2-1,3.1c-0.7,3.4-0.3,5.2,0.3,6c-0.6-0.7-1.3-2.4-0.5-6.2c0.2-1.1,0.6-2.1,1-3.1l2.5-5.7l2.3,0
				v0C63.4,63.8,63.3,63.9,63.2,64L63.2,64z M78.1,65.5L78.1,65.5L78.1,65.5z"/>
			<path class="st6" d="M77.3,65.5l-2-0.6h0c-0.1,0.1-3,3.3-5.1,5.8c-1.9,2.3-5.3,2.1-6.1,2c-0.1,0-0.3,0-0.4,0
				c-2.2-0.1-3.1-0.4-3.4-1c0.4,0.4,1.3,0.6,3.2,0.7c0.1,0,0.3,0,0.4,0c0.8,0.1,4.2,0.3,6.1-2c2.1-2.6,5-5.7,5.1-5.8l2.9,0.9
				C77.8,65.5,77.6,65.5,77.3,65.5z"/>
		</g>
		<path class="st6" d="M54,152.4c0,0-2.8,0.8-3.3-0.4L54,152.4z M71.6,151.8c0,0-3.2,0.8-4-0.5L71.6,151.8z"/>
		<path class="st1" d="M39.3,145c3,0,5.4-0.4,5.4-0.9c0-0.5-2.4-0.9-5.4-0.9c-3,0-5.4,0.4-5.4,0.9C33.9,144.6,36.3,145,39.3,145
			L39.3,145z M18,158c3,0,5.4-0.4,5.4-0.9c0-0.5-2.4-0.9-5.4-0.9c-3,0-5.4,0.4-5.4,0.9C12.5,157.6,15,158,18,158z"/>
		<path class="st16" d="M12.3,146.8c4.5,0,8.1-0.6,8.1-1.4s-3.6-1.4-8.1-1.4s-8.1,0.6-8.1,1.4S7.8,146.8,12.3,146.8z"/>
		<path class="st16" d="M9,143.2c-0.4-0.3-0.6-0.7-0.8-1.2c-0.1-0.5,0.1-1,0.5-1.2c0.5-0.2,1,0.2,1.4,0.5s0.9,0.7,1.4,0.7
			c-0.5-0.5-0.8-1.2-0.7-2c0-0.1,0.1-0.3,0.2-0.4c0.3-0.3,0.8-0.2,1.1,0.1c1,0.7,1.3,2.2,1.3,3.4c0.1-0.5,0-0.9,0-1.4
			c0-0.5,0.1-1,0.5-1.3c0.2-0.1,0.5-0.2,0.8-0.2c0.5,0,1,0,1.3,0.4c0.4,0.4,0.3,1.1-0.1,1.6s-0.9,0.8-1.4,1.1
			c-0.4,0.2-0.7,0.5-1,0.9c0,0.1-0.1,0.1-0.1,0.2h-2.9C10.1,144.1,9.5,143.7,9,143.2L9,143.2z"/>
		<path class="st1" d="M207.8,152.6c3,0,5.4-0.4,5.4-0.9c0-0.5-2.4-0.9-5.4-0.9c-3,0-5.4,0.4-5.4,0.9
			C202.3,152.2,204.8,152.6,207.8,152.6z"/>
		<path class="st33" d="M204.1,147.5c0,0,3.1-0.1,4-0.8s4.8-1.5,5-0.4c0.2,1.1,4.6,5.3,1.2,5.3c-3.5,0-8.1-0.5-9-1.1
			C204.3,150,204.1,147.5,204.1,147.5z"/>
		<path class="st34" d="M214.3,151.3c-3.5,0-8.1-0.5-9-1.1c-0.7-0.4-1-2-1.1-2.7h-0.1c0,0,0.2,2.5,1.1,3.1c0.9,0.6,5.5,1.1,9,1.1
			c1,0,1.4-0.4,1.3-0.9C215.5,151.1,215.1,151.3,214.3,151.3z"/>
	</g>
</g>
</svg>
