<?xml version="1.0" encoding="utf-8"?>
<!-- Generator: Adobe Illustrator 28.0.0, SVG Export Plug-In . SVG Version: 6.00 Build 0)  -->
<svg version="1.1" id="Capa_1" xmlns="http://www.w3.org/2000/svg" xmlns:xlink="http://www.w3.org/1999/xlink" x="0px" y="0px"
	 viewBox="0 0 306 160" style="enable-background:new 0 0 306 160;" xml:space="preserve">
<style type="text/css">
	.st0{clip-path:url(#SVGID_00000082349007734754919590000011040398775669993354_);}
	.st1{opacity:0.1;}
	.st2{opacity:0.1;fill:#571AFF;enable-background:new    ;}
	.st3{opacity:0.1;fill:#F4ED0F;enable-background:new    ;}
	.st4{opacity:0.1;fill:#30D7CF;enable-background:new    ;}
	.st5{fill:#380091;}
	.st6{fill:#30D7CF;}
	.st7{fill:#950080;}
	.st8{fill:#FFFFFF;}
	.st9{fill:#790033;}
	.st10{fill:url(#SVGID_00000067958493363232369730000016923894956967490448_);}
	.st11{fill:#BE6F72;}
	.st12{fill:#E8E8F0;}
	.st13{fill:#571AFF;}
	.st14{opacity:0.1;fill:none;stroke:#571AFF;stroke-miterlimit:10;enable-background:new    ;}
	.st15{fill:url(#SVGID_00000099644981467100910010000017814737088489786042_);}
	.st16{fill:#FF007C;}
	.st17{fill:#FBBEBE;}
</style>
<g>
	<g>
		<defs>
			<rect id="SVGID_1_" x="0.5" width="305.1" height="160"/>
		</defs>
		<clipPath id="SVGID_00000108290140194883194750000017352357720524189825_">
			<use xlink:href="#SVGID_1_"  style="overflow:visible;"/>
		</clipPath>
		<g style="clip-path:url(#SVGID_00000108290140194883194750000017352357720524189825_);">
			<g class="st1">
				<path class="st2" d="M133.9,105c1.8,0,3.2-1.9,3.2-4.1c0-2.3-1.4-4.1-3.2-4.1s-3.2,1.9-3.2,4.1S132.2,105,133.9,105z"/>
				<path class="st2" d="M136.4,83.1c0.4-0.8,0.7-1.6,0.7-2.5c0-2.3-1.4-4.1-3.2-4.1s-3.2,1.9-3.2,4.2c0,0.9,0.2,1.8,0.7,2.5
					c-0.9,1.6-0.9,3.5,0,5.1c-0.9,1.6-0.9,3.5,0,5.1c-0.4,0.8-0.7,1.6-0.7,2.5c0,2.3,1.4,4.1,3.2,4.1c1.7,0,3.2-1.9,3.2-4.1
					c0-0.9-0.2-1.8-0.7-2.5c0.9-1.6,0.9-3.5,0-5.1C137.3,86.6,137.3,84.6,136.4,83.1L136.4,83.1z"/>
				<path class="st2" d="M133.9,79.6c1.8,0,3.2-1.9,3.2-4.1c0-2.3-1.4-4.1-3.2-4.1s-3.2,1.9-3.2,4.1S132.2,79.6,133.9,79.6z"/>
				<path class="st2" d="M133.9,74.5c1.8,0,3.2-1.9,3.2-4.1s-1.4-4.1-3.2-4.1s-3.2,1.9-3.2,4.1C130.7,72.7,132.2,74.5,133.9,74.5
					L133.9,74.5z"/>
				<path class="st3" d="M122.1,35.7c-0.4-0.5-0.8-1.1-1.2-1.7l8.3-1.4l-9,0.1c-1.7-3.8-1.8-8.1-0.3-12L132,27l-11.1-8.2
					c3.2-5.6,9.6-8.6,16-7.4c8.2,1.5,13.7,9.5,12.2,17.7c-0.5,2.5-1.5,4.8-3.1,6.7c0.7,0.9,1.3,1.8,1.7,2.8l-10.8,5.6l11.5-3.9
					c1.6,4.9,0.7,10.2-2.4,14.3c3.6,4.6,4.3,10.8,1.7,16c-3.7,7.5-12.7,10.7-20.3,7c-3.1-1.5-5.5-4-7-7c-2.5-5.2-1.9-11.4,1.7-16
					C117.7,49,117.7,41.2,122.1,35.7L122.1,35.7L122.1,35.7z"/>
				<path class="st2" d="M149.2,45.1c0,3.4-1.1,6.7-3.2,9.4c3.6,4.6,4.3,10.8,1.7,16c-2.5,5.2-7.8,8.5-13.7,8.5
					c-8.4,0-15.2-6.8-15.2-15.2c0-0.5,0-1.1,0.1-1.6c0.3-2.8,1.4-5.5,3.2-7.8C120,51.9,149.2,43.4,149.2,45.1z"/>
			</g>
			<g class="st1">
				<path class="st2" d="M170.9,95c1.3,0,2.4-1.4,2.4-3.1s-1.1-3.1-2.4-3.1c-1.3,0-2.4,1.4-2.4,3.1S169.6,95,170.9,95L170.9,95z"/>
				<path class="st2" d="M172.8,78.7c0.3-0.6,0.5-1.2,0.5-1.9c0-1.7-1.1-3.1-2.4-3.1c-1.3,0-2.4,1.4-2.4,3.1c0,0.7,0.2,1.3,0.5,1.9
					c-0.7,1.2-0.7,2.6,0,3.8c-0.7,1.2-0.7,2.6,0,3.8c-0.3,0.6-0.5,1.2-0.5,1.9c0,1.7,1.1,3.1,2.4,3.1c1.3,0,2.4-1.4,2.4-3.1
					c0-0.7-0.2-1.3-0.5-1.9c0.7-1.2,0.7-2.6,0-3.8C173.4,81.3,173.4,79.9,172.8,78.7L172.8,78.7z"/>
				<path class="st2" d="M170.9,76.1c1.3,0,2.4-1.4,2.4-3.1s-1.1-3.1-2.4-3.1c-1.3,0-2.4,1.4-2.4,3.1S169.6,76.1,170.9,76.1z"/>
				<path class="st2" d="M170.9,72.3c1.3,0,2.4-1.4,2.4-3.1s-1.1-3.1-2.4-3.1c-1.3,0-2.4,1.4-2.4,3.1S169.6,72.3,170.9,72.3z"/>
				<path class="st3" d="M162,43.3c-0.3-0.4-0.6-0.8-0.9-1.3l6.2-1h-6.7c-1.3-2.8-1.4-6.1-0.2-9l9,4.7l-8.3-6.1
					c2.4-4.2,7.2-6.4,11.9-5.5c3.1,0.6,5.8,2.4,7.5,5.1s2.2,5.9,1.4,9c-0.4,1.5-1.1,2.9-2.1,4.1c0.5,0.6,0.9,1.3,1.3,2.1l-8.1,4.2
					l8.6-2.9c1.2,3.6,0.5,7.6-1.8,10.7c2.7,3.4,3.2,8.1,1.3,12c-1.9,3.9-5.9,6.4-10.2,6.4c-6.3,0-11.3-5.1-11.3-11.3
					c0-0.4,0-0.8,0.1-1.2c0.2-2.1,1-4.1,2.4-5.8C158.8,53.2,158.8,47.4,162,43.3L162,43.3L162,43.3z"/>
				<path class="st2" d="M182.3,50.3c0,2.5-0.9,5-2.4,7c2.7,3.4,3.2,8.1,1.3,12c-2.7,5.6-9.5,8-15.2,5.3c-4.3-2.1-6.8-6.7-6.3-11.4
					c0.2-2.1,1-4.1,2.4-5.8C160.5,55.4,182.3,49,182.3,50.3z"/>
			</g>
			<g class="st1">
				<path class="st2" d="M289.6,93.8c1.8,0,3.2-1.9,3.2-4.1s-1.4-4.1-3.2-4.1c-1.7,0-3.2,1.9-3.2,4.1
					C286.4,92,287.8,93.8,289.6,93.8z"/>
				<path class="st2" d="M287.1,71.9c-0.4-0.8-0.7-1.6-0.7-2.5c0-2.3,1.4-4.1,3.2-4.1c1.8,0,3.2,1.9,3.2,4.1c0,0.9-0.2,1.8-0.7,2.5
					c0.9,1.6,0.9,3.5,0,5.1c0.9,1.6,0.9,3.5,0,5.1c0.4,0.8,0.7,1.6,0.7,2.5c0,2.3-1.4,4.1-3.2,4.1c-1.7,0-3.2-1.9-3.2-4.1
					c0-0.9,0.2-1.8,0.7-2.5c-0.9-1.6-0.9-3.5,0-5.1C286.2,75.4,286.2,73.5,287.1,71.9L287.1,71.9z"/>
				<path class="st2" d="M289.6,68.5c1.8,0,3.2-1.9,3.2-4.1s-1.4-4.1-3.2-4.1c-1.7,0-3.2,1.9-3.2,4.1S287.8,68.5,289.6,68.5z"/>
				<path class="st2" d="M289.6,63.4c1.8,0,3.2-1.9,3.2-4.1c0-2.3-1.4-4.1-3.2-4.1c-1.7,0-3.2,1.9-3.2,4.1S287.8,63.4,289.6,63.4z"
					/>
				<path class="st3" d="M301.4,24.6c0.4-0.5,0.8-1.1,1.2-1.7l-8.3-1.4l9,0.1c1.7-3.8,1.8-8.2,0.3-12l-12.1,6.3l11.1-8.2
					c-2.1-3.7-5.6-6.3-9.7-7.3c-8.2-1.9-16.3,3.2-18.2,11.3c-1.1,4.5,0,9.3,2.9,12.9c-0.7,0.9-1.3,1.8-1.7,2.8l10.8,5.6l-11.5-3.9
					c-1.6,4.9-0.7,10.2,2.4,14.3c-5.2,6.6-4,16.1,2.6,21.3c2.7,2.1,6,3.2,9.4,3.2c5.8,0,11.1-3.3,13.7-8.5c2.5-5.2,1.9-11.4-1.7-16
					C305.8,37.8,305.8,30.1,301.4,24.6L301.4,24.6L301.4,24.6z"/>
				<path class="st2" d="M274.3,33.9c0,3.4,1.1,6.7,3.2,9.4c-5.2,6.6-4,16.1,2.5,21.3c0.4,0.3,0.9,0.6,1.3,0.9
					c7.1,4.4,16.5,2.3,20.9-4.8c1.8-2.9,2.6-6.3,2.2-9.7c-0.3-2.8-1.4-5.5-3.2-7.8C303.5,40.7,274.3,32.2,274.3,33.9L274.3,33.9z"/>
			</g>
			<g class="st1">
				<path class="st2" d="M259,93.4c1.3,0,2.4-1.4,2.4-3.1s-1.1-3.1-2.4-3.1s-2.4,1.4-2.4,3.1S257.7,93.4,259,93.4z"/>
				<path class="st2" d="M257.1,77c-0.3-0.6-0.5-1.2-0.5-1.9c0-1.7,1.1-3.1,2.4-3.1s2.4,1.4,2.4,3.1c0,0.7-0.2,1.3-0.5,1.9
					c0.7,1.2,0.7,2.6,0,3.8c0.7,1.2,0.7,2.6,0,3.8c0.3,0.6,0.5,1.2,0.5,1.9c0,1.7-1.1,3.1-2.4,3.1s-2.4-1.4-2.4-3.1
					c0-0.7,0.2-1.3,0.5-1.9c-0.7-1.2-0.7-2.6,0-3.8C256.5,79.6,256.5,78.2,257.1,77z"/>
				<path class="st2" d="M259,74.4c1.3,0,2.4-1.4,2.4-3.1s-1.1-3.1-2.4-3.1s-2.4,1.4-2.4,3.1S257.7,74.4,259,74.4z"/>
				<path class="st2" d="M259,70.6c1.3,0,2.4-1.4,2.4-3.1s-1.1-3.1-2.4-3.1s-2.4,1.4-2.4,3.1C256.6,69.3,257.7,70.6,259,70.6z"/>
				<path class="st3" d="M267.8,41.6c0.3-0.4,0.6-0.8,0.9-1.3l-6.2-1h6.7c1.3-2.8,1.4-6.1,0.2-9l-9,4.7l8.3-6.1
					c-1.6-2.7-4.2-4.7-7.3-5.4c-6.1-1.4-12.2,2.4-13.6,8.5c-0.8,3.4,0,6.9,2.2,9.6c-0.5,0.6-0.9,1.3-1.3,2.1l8.1,4.2l-8.6-2.9
					c-1.2,3.6-0.5,7.6,1.8,10.7c-2.7,3.4-3.2,8.1-1.3,12s5.9,6.4,10.2,6.4c6.3,0,11.3-5.1,11.3-11.3c0-0.4,0-0.8-0.1-1.2
					c-0.2-2.1-1-4.1-2.4-5.8C271.1,51.5,271.1,45.7,267.8,41.6L267.8,41.6L267.8,41.6z"/>
				<path class="st2" d="M247.6,48.6c0,2.5,0.9,5,2.4,7c-2.7,3.4-3.2,8.1-1.3,12c2.7,5.6,9.5,8,15.2,5.2s8-9.5,5.2-15.2
					c-0.4-0.7-0.8-1.4-1.3-2.1C269.4,53.7,247.6,47.4,247.6,48.6z"/>
			</g>
			<g class="st1">
				<path class="st2" d="M17.6,93.8c1.8,0,3.2-1.9,3.2-4.1s-1.4-4.1-3.2-4.1s-3.2,1.9-3.2,4.1C14.4,92,15.9,93.8,17.6,93.8z"/>
				<path class="st2" d="M20.1,71.9c0.4-0.8,0.7-1.6,0.7-2.5c0-2.3-1.4-4.1-3.2-4.1s-3.2,1.9-3.2,4.1c0,0.9,0.2,1.8,0.7,2.5
					c-0.9,1.6-0.9,3.5,0,5.1c-0.9,1.6-0.9,3.5,0,5.1c-0.4,0.8-0.7,1.6-0.7,2.5c0,2.3,1.4,4.1,3.2,4.1s3.2-1.9,3.2-4.1
					c0-0.9-0.2-1.8-0.7-2.5c0.9-1.6,0.9-3.5,0-5.1C21,75.4,21,73.5,20.1,71.9L20.1,71.9z"/>
				<path class="st2" d="M17.6,68.5c1.8,0,3.2-1.9,3.2-4.1c0-2.3-1.4-4.1-3.2-4.1s-3.2,1.9-3.2,4.1C14.4,66.6,15.9,68.5,17.6,68.5z"
					/>
				<path class="st2" d="M17.6,63.4c1.8,0,3.2-1.9,3.2-4.1c0-2.3-1.4-4.1-3.2-4.1s-3.2,1.9-3.2,4.1C14.4,61.5,15.9,63.4,17.6,63.4z"
					/>
				<path class="st3" d="M5.7,24.6c-0.4-0.6-0.8-1.1-1.2-1.7l8.3-1.4l-9,0.1c-1.7-3.8-1.8-8.1-0.3-12l12.1,6.3L4.5,7.6
					C8.7,0.3,18-2.2,25.3,1.9s9.8,13.4,5.6,20.7c-0.4,0.7-0.8,1.3-1.3,1.9c0.7,0.9,1.3,1.8,1.7,2.8L20.5,33L32,29.1
					c1.6,4.9,0.7,10.2-2.4,14.3c5.2,6.6,4,16.1-2.5,21.3c-5,4-12,4.3-17.4,0.9c-7.1-4.4-9.3-13.8-4.8-20.9c0.3-0.5,0.6-0.9,0.9-1.3
					C1.4,37.8,1.4,30.1,5.7,24.6L5.7,24.6L5.7,24.6z"/>
				<path class="st2" d="M32.8,33.9c0,3.4-1.1,6.7-3.2,9.4c5.2,6.6,4,16.1-2.5,21.3c-2.7,2.1-6,3.2-9.4,3.2
					C9.3,67.8,2.5,61,2.5,52.6c0-0.5,0-1.1,0.1-1.6c0.3-2.8,1.4-5.5,3.2-7.8C3.7,40.7,32.8,32.2,32.8,33.9L32.8,33.9z"/>
			</g>
			<g class="st1">
				<path class="st2" d="M48.2,93.4c1.3,0,2.4-1.4,2.4-3.1s-1.1-3.1-2.4-3.1c-1.3,0-2.4,1.4-2.4,3.1S46.9,93.4,48.2,93.4z"/>
				<path class="st2" d="M50.1,77c0.3-0.6,0.5-1.2,0.5-1.9c0-1.7-1.1-3.1-2.4-3.1c-1.3,0-2.4,1.4-2.4,3.1c0,0.7,0.2,1.3,0.5,1.9
					c-0.7,1.2-0.7,2.6,0,3.8c-0.7,1.2-0.7,2.6,0,3.8c-0.3,0.6-0.5,1.2-0.5,1.9c0,1.7,1.1,3.1,2.4,3.1c1.3,0,2.4-1.4,2.4-3.1
					c0-0.7-0.2-1.3-0.5-1.9c0.7-1.2,0.7-2.6,0-3.8C50.7,79.6,50.7,78.2,50.1,77z"/>
				<path class="st2" d="M48.2,74.4c1.3,0,2.4-1.4,2.4-3.1s-1.1-3.1-2.4-3.1c-1.3,0-2.4,1.4-2.4,3.1S46.9,74.4,48.2,74.4z"/>
				<path class="st2" d="M48.2,70.6c1.3,0,2.4-1.4,2.4-3.1s-1.1-3.1-2.4-3.1c-1.3,0-2.4,1.4-2.4,3.1C45.8,69.3,46.9,70.6,48.2,70.6z
					"/>
				<path class="st3" d="M39.3,41.6c-0.3-0.4-0.6-0.8-0.9-1.3l6.2-1h-6.7c-1.3-2.8-1.4-6.1-0.2-9l9,4.7l-8.3-6.1
					c3.1-5.4,10.1-7.3,15.5-4.2c1.6,0.9,2.9,2.2,3.9,3.8c2.6,4.1,2.3,9.3-0.7,13.1c0.5,0.6,0.9,1.3,1.3,2.1l-8.1,4.2L59,45
					c1.2,3.6,0.5,7.6-1.8,10.7c3.9,4.9,3,12.1-1.9,15.9s-12.1,3-15.9-1.9c-3.2-4.1-3.2-9.9,0-14C36.1,51.5,36.1,45.7,39.3,41.6
					L39.3,41.6z"/>
				<path class="st2" d="M59.6,48.6c0,2.5-0.9,5-2.4,7c3.9,4.9,3,12.1-1.9,15.9c-3.8,3-9,3.2-13,0.7c-5.3-3.3-6.9-10.3-3.6-15.6
					c0.2-0.3,0.5-0.7,0.7-1C37.8,53.7,59.6,47.4,59.6,48.6L59.6,48.6z"/>
			</g>
			<path class="st4" d="M153,139.7c84.2,0,152.5-1.1,152.5-2.5s-68.3-2.5-152.5-2.5S0.5,135.9,0.5,137.3S68.8,139.7,153,139.7
				L153,139.7z M153,160c84.2,0,152.5-1.1,152.5-2.5S237.2,155,153,155S0.5,156.2,0.5,157.5C0.5,158.9,68.8,160,153,160z M153,97.5
				c84.2,0,152.5-1.1,152.5-2.5s-68.3-2.5-152.5-2.5S0.5,93.7,0.5,95S68.8,97.5,153,97.5z M153,118.6c84.2,0,152.5-1.1,152.5-2.5
				s-68.3-2.5-152.5-2.5S0.5,114.8,0.5,116.1C0.5,117.5,68.8,118.6,153,118.6L153,118.6z M225.6,30.7c-1-0.2-2-0.1-3,0.3
				c-1.1,0.5-2.4,0.5-3.5,0c-1.3-0.6-2.9-0.6-4.2,0.1c-0.4,0.2-0.8,0.3-1.2,0.3c-1.7,0-3.1-1.7-3.4-4c0.3-0.2,0.6-0.6,0.8-0.9
				c1-1.6,2.5-2.6,4.3-2.6c1.7,0,3.2,1,4.2,2.6c0.6,1,1.7,1.6,2.8,1.5l0,0C223.9,28.1,225,29.1,225.6,30.7L225.6,30.7z"/>
			<path class="st4" d="M230.7,23.7l-2.7,1.7l1.7-3c-0.5-0.4-1.1-0.6-1.7-0.6l0,0c-0.2,0-0.4,0-0.6,0l-0.9,0.6l0.4-0.7
				c-0.7-0.2-1.2-0.7-1.6-1.2l-1.7,1.1l1-1.9c-1-1.2-2.3-1.9-3.7-1.9c-1.7,0-3.3,1-4.3,2.6c-0.6,1-1.7,1.6-2.8,1.5h-0.1
				c-1.9,0-3.4,2.2-3.4,4.8c0,2.7,1.5,4.8,3.4,4.8c0.4,0,0.8-0.1,1.2-0.3c1.3-0.6,2.8-0.7,4.2-0.1c1.1,0.5,2.4,0.5,3.5,0
				c1.3-0.6,2.8-0.5,4.1,0.1c0.4,0.2,0.8,0.3,1.2,0.3c1.9,0,3.4-2.2,3.4-4.8C231.5,25.6,231.2,24.6,230.7,23.7L230.7,23.7z
				 M109.4,29.2c-0.7-0.1-1.4-0.1-2.1,0.2c-0.8,0.4-1.7,0.4-2.5,0c-0.9-0.4-2-0.4-2.9,0.1c-0.3,0.1-0.5,0.2-0.8,0.2
				c-1.2,0-2.2-1.2-2.4-2.8c0.2-0.2,0.4-0.4,0.6-0.6c0.7-1.1,1.8-1.8,3-1.8s2.3,0.7,3,1.8c0.4,0.7,1.2,1.1,2,1.1l0,0
				C108.2,27.4,109,28.1,109.4,29.2L109.4,29.2z"/>
			<path class="st4" d="M113,24.3l-1.9,1.2l1.2-2.1c-0.3-0.3-0.7-0.4-1.2-0.4l0,0c-0.1,0-0.3,0-0.4,0l-0.6,0.4l0.3-0.5
				c-0.5-0.2-0.9-0.5-1.1-0.9l-1.2,0.7l0.7-1.3c-0.6-0.8-1.6-1.3-2.6-1.3c-1.2,0-2.3,0.7-3,1.8c-0.4,0.7-1.2,1.1-2,1.1h-0.1
				c-1.3,0-2.4,1.5-2.4,3.4s1.1,3.4,2.4,3.4c0.3,0,0.6-0.1,0.8-0.2c0.9-0.4,2-0.5,2.9-0.1c0.4,0.2,0.8,0.3,1.2,0.3
				c0.4,0,0.8-0.1,1.2-0.3c0.9-0.4,2-0.4,2.9,0.1c0.3,0.1,0.5,0.2,0.8,0.2c1.3,0,2.4-1.5,2.4-3.4C113.5,25.6,113.3,24.9,113,24.3z
				 M75.5,51c0.7-0.1,1.4-0.1,2.1,0.2c0.8,0.4,1.7,0.4,2.5,0c0.9-0.4,2-0.4,2.9,0.1c0.3,0.1,0.5,0.2,0.8,0.2c1.2,0,2.2-1.2,2.4-2.8
				c-0.2-0.2-0.4-0.4-0.6-0.6c-0.7-1.1-1.8-1.8-3-1.8s-2.3,0.7-3,1.8c-0.4,0.7-1.2,1.1-2,1.1l0,0C76.7,49.2,75.9,50,75.5,51L75.5,51
				z"/>
			<path class="st4" d="M71.9,46.1l1.9,1.2l-1.2-2.1c0.3-0.3,0.7-0.4,1.2-0.4l0,0c0.1,0,0.3,0,0.4,0l0.6,0.4l-0.3-0.5
				c0.5-0.2,0.9-0.5,1.1-0.9l1.2,0.7l-0.7-1.3c0.6-0.8,1.6-1.3,2.6-1.3c1.2,0,2.3,0.7,3,1.8c0.4,0.7,1.2,1.1,2,1.1h0.1
				c1.3,0,2.4,1.5,2.4,3.4s-1.1,3.4-2.4,3.4c-0.3,0-0.6-0.1-0.8-0.2c-0.9-0.4-2-0.5-2.9-0.1c-0.4,0.2-0.8,0.3-1.2,0.3
				c-0.4,0-0.8-0.1-1.2-0.3c-0.9-0.4-2-0.4-2.9,0.1c-0.3,0.1-0.5,0.2-0.8,0.2c-1.3,0-2.4-1.5-2.4-3.4C71.4,47.5,71.6,46.8,71.9,46.1
				z"/>
			<g>
				<path class="st5" d="M187.1,137.4l-3.5-1.9c0.1-0.3-0.1-1.1-0.9-2l-0.3-0.4c-1-1.2-2.2-2.8-2.2-4.9c0.1-3.2,2.8-4.9,4.8-6.1
					l0.3-0.2c1.2-0.8,2.4-1.7,3.4-2.8c0.4-0.3,0.6-0.7,0.8-1.1s0.2-1.2,0.1-1.8c-0.1-3.1-0.2-6.2-0.5-9.3l4-0.3
					c0.2,3.2,0.4,6.3,0.5,9.5c0,1,0.1,2.4-0.5,3.7c-0.4,0.9-1,1.6-1.6,2.2c-1.2,1.2-2.6,2.3-4.1,3.3l-0.4,0.2
					c-1.4,0.8-2.9,1.8-2.9,2.8c0,0.6,0.7,1.5,1.3,2.3l0.3,0.4C187.7,133.3,188.1,135.6,187.1,137.4z"/>
			</g>
			<path class="st6" d="M194.9,106.7c-0.1-1.2-0.7-2.2-1.7-2.8l-0.8,1.5v-1.8c-1.4-0.4-3,0.1-3.8,1.4c-0.8,1.2-0.8,2.9,0.1,4
				c1.2,1.5,3.3,1.8,4.8,0.6C194.4,108.9,194.9,107.8,194.9,106.7L194.9,106.7z M188.8,129.9c-0.9,1.7-2.9,2.3-4.6,1.5
				c-0.4-0.2-0.8-0.5-1-0.8c-0.5-0.6-0.8-1.3-0.8-2c0-0.5,0.1-0.9,0.2-1.4c0.7-1.8,2.7-2.6,4.4-1.9c0.9,0.4,1.6,1.1,2,2l-2.1,1.7
				l2.4-0.6C189.1,128.9,189,129.4,188.8,129.9z M187.1,123.2c-1.7,0.1-3.3-1.2-3.5-2.9c-0.3-1.7,0.8-3.4,2.5-3.8v1.4l0.8-1.5
				c1.9-0.1,3.5,1.4,3.6,3.3c0,0.9-0.3,1.8-0.9,2.5C188.8,122.8,188,123.2,187.1,123.2L187.1,123.2L187.1,123.2z M195.4,117.7
				c-1.9,0.1-3.5-1.4-3.6-3.2s1.4-3.5,3.2-3.6c0.7,0,1.3,0.1,1.9,0.4l-0.6,1.7l1.2-1.2c1,0.9,1.4,2.4,0.9,3.7
				C198,116.7,196.8,117.6,195.4,117.7L195.4,117.7z"/>
			<path class="st2" d="M194.4,107.6c-0.8,0.1-1.6,0.3-2.4,0.4c-0.8,0.1-1.7-0.1-2.2-0.8c-0.2-0.4-0.4-0.7-0.6-1.1
				c-0.2-0.3-0.5-0.6-0.9-0.8c-0.9,1.7-0.2,3.8,1.5,4.6c0.1,0.1,0.3,0.1,0.4,0.2c0.5,0.2,0.9,0.2,1.4,0.2s1-0.2,1.4-0.4
				c0.9-0.5,1.5-1.3,1.7-2.3C194.7,107.6,194.5,107.6,194.4,107.6L194.4,107.6z M195.4,117.7c-1.2,0.1-2.3-0.5-3-1.5
				s-0.8-2.3-0.2-3.4c0.3,0.2,0.5,0.4,0.7,0.7c0.2,0.4,0.4,0.8,0.7,1.1c0.5,0.6,1.4,0.8,2.3,0.8c0.8,0,1.6-0.3,2.4-0.3
				c0.1,0,0.2,0,0.3,0C198.2,116.5,196.9,117.6,195.4,117.7L195.4,117.7z M187.1,123.2c-1.8,0.1-3.4-1.3-3.6-3.1
				c-0.1-0.6,0-1.2,0.3-1.7c0.3,0.2,0.5,0.4,0.7,0.7c0.2,0.4,0.5,0.8,0.7,1.2c0.6,0.6,1.6,0.9,2.4,0.8s1.7-0.2,2.5-0.3
				C189.8,122.2,188.5,123.2,187.1,123.2z M188.8,129.9c-0.9,1.7-2.9,2.3-4.6,1.5c-0.4-0.2-0.8-0.5-1-0.8c-0.5-0.6-0.8-1.3-0.8-2
				c0-0.5,0.1-0.9,0.2-1.4c0.3,0.2,0.5,0.4,0.8,0.7c0.3,0.4,0.5,0.8,0.9,1.2c0.7,0.7,1.8,1,2.8,1C187.6,130,188.2,129.9,188.8,129.9
				L188.8,129.9z"/>
			<g>
				<path class="st5" d="M17.3,117.4l-3.5-1.9c0.1-0.3-0.1-1.1-0.9-2l-0.3-0.4c-1-1.2-2.2-2.8-2.2-4.9c0.1-3.2,2.8-4.9,4.8-6.1
					l0.4-0.2c1.2-0.8,2.4-1.7,3.4-2.8c0.4-0.3,0.6-0.7,0.8-1.1c0.2-0.4,0.2-1.2,0.1-1.8c-0.1-3.1-0.2-6.2-0.5-9.3l4-0.3
					c0.2,3.1,0.4,6.3,0.5,9.5c0,1,0.1,2.3-0.5,3.7c-0.4,0.9-1,1.6-1.6,2.2c-1.2,1.2-2.6,2.3-4.1,3.3l-0.4,0.2
					c-1.4,0.8-2.9,1.8-2.9,2.8c0,0.6,0.7,1.5,1.3,2.3L16,111C17.9,113.3,18.3,115.5,17.3,117.4z"/>
			</g>
			<path class="st6" d="M25.1,86.6c-0.1-1.2-0.7-2.2-1.7-2.8l-0.8,1.5v-1.8c-1.8-0.5-3.7,0.5-4.3,2.3c-0.5,1.8,0.5,3.7,2.3,4.3
				c1.8,0.5,3.7-0.5,4.3-2.3C25,87.4,25.1,87,25.1,86.6z M19,109.8c-0.9,1.7-2.9,2.3-4.6,1.4c-1.5-0.8-2.2-2.6-1.6-4.2
				c0.5-1.3,1.8-2.2,3.2-2.2s2.7,0.9,3.2,2.2l-2.1,1.7l2.4-0.6C19.3,108.8,19.2,109.4,19,109.8L19,109.8z M17.3,103.2
				c-1.9,0.1-3.5-1.4-3.6-3.3c-0.1-1.6,1-3,2.5-3.5v1.4l0.8-1.5c1.9,0,3.5,1.5,3.5,3.4C20.5,101.5,19.1,103,17.3,103.2L17.3,103.2z
				 M25.6,97.6c-1.9,0.1-3.5-1.4-3.6-3.2c-0.1-1.9,1.4-3.5,3.2-3.6c0.6,0,1.3,0.1,1.9,0.4l-0.6,1.7l1.2-1.2c1.4,1.3,1.5,3.4,0.2,4.8
				C27.3,97.2,26.5,97.6,25.6,97.6L25.6,97.6L25.6,97.6z"/>
			<path class="st2" d="M24.6,87.6c-0.8,0.1-1.6,0.3-2.4,0.4s-1.7-0.1-2.2-0.8c-0.2-0.4-0.4-0.7-0.6-1.1c-0.2-0.3-0.5-0.6-0.9-0.8
				c-0.9,1.7-0.2,3.8,1.5,4.6s3.8,0.2,4.6-1.5c0.1-0.3,0.2-0.5,0.3-0.8C24.9,87.5,24.7,87.5,24.6,87.6L24.6,87.6z M25.6,97.6
				c-1.9,0.1-3.5-1.4-3.6-3.3c0-0.6,0.1-1.1,0.3-1.6c0.3,0.2,0.5,0.4,0.7,0.7c0.2,0.4,0.4,0.8,0.7,1.1c0.5,0.6,1.4,0.8,2.3,0.8
				c0.8,0,1.6-0.3,2.5-0.3c0.1,0,0.2,0,0.3,0C28.4,96.5,27.1,97.6,25.6,97.6L25.6,97.6z M17.3,103.2c-1.8,0.1-3.4-1.3-3.6-3.1
				c-0.1-0.6,0-1.2,0.3-1.7c0.3,0.2,0.5,0.4,0.7,0.7c0.2,0.4,0.5,0.8,0.7,1.2c0.6,0.6,1.5,0.9,2.4,0.8c0.9,0,1.7-0.2,2.5-0.3
				C20,102.1,18.7,103.1,17.3,103.2z M19,109.8c-0.7,1.4-2.3,2.1-3.8,1.8c-1.8-0.4-3-2.2-2.6-4.1c0-0.2,0.1-0.3,0.1-0.5
				c0.3,0.2,0.5,0.4,0.8,0.7c0.3,0.4,0.5,0.8,0.9,1.2c0.7,0.7,1.8,1,2.8,1C17.8,109.9,18.4,109.9,19,109.8L19,109.8z"/>
			<g>
				<path class="st5" d="M126.9,94.5c-1-1.8-0.6-4.1,1.2-6.4l0.3-0.4c0.7-0.8,1.3-1.7,1.3-2.3c0-1-1.6-1.9-2.9-2.8l-0.4-0.2
					c-1.5-1-2.9-2.1-4.2-3.4c-0.6-0.5-1.1-1.3-1.5-2.1c-0.6-1.4-0.6-2.7-0.6-3.7c0.1-3.2,0.2-6.4,0.5-9.5l4,0.3
					c-0.2,3.1-0.4,6.2-0.5,9.3c0,0.7,0,1.4,0.2,1.9c0.1,0.3,0.4,0.6,0.7,0.9c1.1,1.1,2.3,2.1,3.5,2.8l0.3,0.2c2,1.2,4.8,3,4.8,6.1
					c0,2.1-1.2,3.6-2.2,4.9l-0.3,0.4c-0.8,1.1-1,1.8-0.9,2L126.9,94.5z"/>
			</g>
			<path class="st6" d="M119.1,63.7c0.1-1.2,0.7-2.2,1.7-2.8l0.8,1.5v-1.8c1.7-0.5,3.6,0.4,4.2,2.1c0.5,1.3,0.1,2.8-0.9,3.7
				s-2.5,1.2-3.8,0.6C119.9,66.4,119.1,65.1,119.1,63.7z M125.3,86.9c0.9,1.7,2.9,2.3,4.6,1.5c1.7-0.9,2.3-2.9,1.5-4.6
				c-0.9-1.7-2.9-2.3-4.6-1.5c-0.8,0.4-1.3,1.1-1.6,1.9l2.1,1.7l-2.4-0.6C124.9,85.9,125,86.4,125.3,86.9z M127,80.3
				c1.9,0.1,3.5-1.4,3.6-3.3c0-0.7-0.2-1.4-0.5-2c-0.5-0.7-1.2-1.2-2-1.5v1.4l-0.8-1.5c-1.9-0.1-3.5,1.4-3.6,3.3
				c0,0.4,0,0.8,0.1,1.2C124.3,79.2,125.5,80.2,127,80.3z M118.6,74.7c1.9,0.1,3.5-1.4,3.6-3.2c0-0.3,0-0.7-0.1-1
				c-0.2-1-1-1.9-2-2.4c-1-0.4-2.1-0.4-3.1,0.2l0.6,1.7l-1.2-1.2c-0.9,0.8-1.3,2.1-1,3.3C115.8,73.6,117.1,74.6,118.6,74.7
				L118.6,74.7z"/>
			<path class="st2" d="M119.6,64.6c0.8,0.1,1.6,0.3,2.4,0.4s1.7-0.1,2.2-0.8c0.2-0.4,0.4-0.7,0.6-1.1c0.2-0.3,0.5-0.6,0.9-0.8
				c0.9,1.7,0.2,3.8-1.5,4.6c-0.1,0.1-0.3,0.1-0.4,0.2c-1.8,0.6-3.7-0.3-4.4-2.1c-0.1-0.1-0.1-0.3-0.1-0.4
				C119.4,64.6,119.5,64.6,119.6,64.6z M118.6,74.7c1.9,0.1,3.5-1.4,3.6-3.3c0-0.6-0.1-1.1-0.3-1.6c-0.3,0.2-0.5,0.4-0.7,0.7
				c-0.2,0.4-0.4,0.8-0.7,1.1c-0.5,0.6-1.4,0.8-2.3,0.8s-1.6-0.3-2.4-0.3c-0.1,0-0.2,0-0.3,0C115.8,73.6,117.1,74.6,118.6,74.7
				L118.6,74.7z M127,80.3c1.8,0.1,3.4-1.3,3.6-3.1c0.1-0.6,0-1.2-0.3-1.7c-0.3,0.2-0.5,0.4-0.7,0.7c-0.2,0.4-0.5,0.8-0.7,1.2
				c-0.6,0.6-1.6,0.9-2.4,0.8c-0.9,0-1.7-0.2-2.5-0.3C124.3,79.2,125.5,80.2,127,80.3z M125.3,86.9c0.9,1.7,2.9,2.3,4.6,1.5
				c0.7-0.4,1.3-1,1.6-1.7c0.3-0.8,0.4-1.7,0-2.5c-0.3,0.2-0.5,0.4-0.8,0.7c-0.3,0.4-0.6,0.8-0.9,1.2c-0.7,0.7-1.8,1-2.8,1
				C126.4,87,125.8,87,125.3,86.9z"/>
			<path class="st7" d="M217.5,94.1c15.4,0,27.8-12.5,27.8-27.8c0-15.4-12.5-27.8-27.8-27.8c-15.4,0-27.8,12.5-27.8,27.8
				C189.7,81.7,202.1,94.1,217.5,94.1z"/>
			<path class="st8" d="M229.4,73.5c-1-1-3.3-2.4-4.5-3c-1.3-0.6-1.8-0.6-2.8,0.1c-0.8,0.6-1.3,1.1-2.2,0.9s-2.7-1.5-4.4-3.3
				c-1.7-1.7-3.1-3.5-3.3-4.4s0.3-1.4,0.9-2.2c0.7-0.9,0.7-1.4,0.1-2.8c-0.6-1.2-2-3.5-3-4.5s-1.2-0.8-1.7-0.6
				c-0.6,0.2-1.1,0.5-1.6,0.8c-1,0.7-1.5,1.2-1.9,2s-0.8,2.3,1.4,6.3c1.6,3,3.7,5.8,6.2,8.2c2.4,2.4,5.2,4.5,8.2,6.2
				c3.9,2.2,5.5,1.8,6.3,1.4s1.4-0.9,2-1.9c0.3-0.5,0.6-1,0.8-1.6C230.2,74.7,230.4,74.5,229.4,73.5z"/>
			<path class="st2" d="M217.5,38.5c-15.4,0-27.8,12.4-27.9,27.8c0,7.4,2.9,14.5,8.2,19.7c8,8,19.9,10.3,30.3,6
				c14.2-5.9,20.9-22.2,15.1-36.4C238.9,45.3,228.8,38.5,217.5,38.5z"/>
			<path class="st7" d="M153.6,136.4c15.4,0,27.8-12.5,27.8-27.8c0-15.4-12.5-27.8-27.8-27.8c-15.4,0-27.8,12.5-27.8,27.8
				S138.2,136.4,153.6,136.4z"/>
			<path class="st8" d="M169.4,100.2l-8.3,8.5c0,0,0,0,0,0.1s0,0.1,0,0.2l5.8,6.2c0.1,0.1,0.2,0.3,0.3,0.5c0.1,0.4-0.1,0.8-0.4,1
				c-0.4,0.3-0.9,0.2-1.3-0.1l-5.8-6.2h-0.1h-0.1l-1.4,1.4c-1.8,1.8-4.5,2.4-6.9,1.4c-0.8-0.3-1.5-0.8-2.1-1.4l-1.4-1.4
				c-0.1-0.1-0.2-0.1-0.2,0l-5.8,6.2c-0.4,0.4-1,0.4-1.4,0s-0.4-1,0-1.4l0,0l5.8-6.2c0.1-0.1,0.1-0.2,0-0.2l-8.3-8.5
				c0,0-0.1-0.1-0.2,0c0,0-0.1,0-0.1,0.1v0.1v17c0,1.4,1.1,2.5,2.5,2.5h27.2c1.4,0,2.5-1.1,2.5-2.5v-16.9v-0.1
				C169.6,100.1,169.5,100.1,169.4,100.2C169.4,100.1,169.4,100.2,169.4,100.2L169.4,100.2z"/>
			<path class="st8" d="M153.6,111.6c1.1,0,2.2-0.4,3-1.3L168.8,98c-0.4-0.4-1-0.6-1.5-0.6H140c-0.6,0-1.1,0.2-1.5,0.6l12.1,12.4
				C151.4,111.2,152.4,111.6,153.6,111.6L153.6,111.6z"/>
			<path class="st2" d="M153.2,80.7c-15.4,0-27.8,12.4-27.9,27.8c0,1.8,0.2,3.7,0.5,5.4c3,15.1,17.7,24.9,32.7,21.9
				s24.9-17.7,21.9-32.7C177.9,90.1,166.5,80.8,153.2,80.7z"/>
			<path class="st9" d="M87.5,115.6c15.4,0,27.8-12.5,27.8-27.8S102.9,60,87.5,60S59.7,72.5,59.7,87.8S72.2,115.6,87.5,115.6z"/>
			<path class="st7" d="M87.5,60c-11.3,0-21.4,6.8-25.7,17.2c-5.9,14.2,0.9,30.5,15.1,36.4c1.7,0.7,3.4,1.2,5.2,1.6
				c15.1,3,29.7-6.8,32.7-21.9c0.4-1.8,0.5-3.6,0.5-5.4C115.4,72.4,102.9,60,87.5,60z"/>
			
				<linearGradient id="SVGID_00000071560003190303029830000005266747823362804920_" gradientUnits="userSpaceOnUse" x1="214.0055" y1="1076.6549" x2="214.0055" y2="1028.7174" gradientTransform="matrix(1 0 0 1 0 -918)">
				<stop  offset="0" style="stop-color:#808080;stop-opacity:0.25"/>
				<stop  offset="0.54" style="stop-color:#808080;stop-opacity:0.12"/>
				<stop  offset="1" style="stop-color:#808080;stop-opacity:0.1"/>
			</linearGradient>
			<path style="fill:url(#SVGID_00000071560003190303029830000005266747823362804920_);" d="M220.1,122.8c-0.3-0.6-0.5-1.2-0.8-1.8
				c-0.2-0.6-0.5-1.2-0.9-1.6c-0.2-0.2-0.3-0.3-0.6-0.4c-0.2-0.1-0.5-0.1-0.7-0.1c-0.4,0-0.8-0.1-1.1,0c-0.2,0-0.3-0.1-0.5-0.2
				c1.7-0.4,2.9-1.9,3-3.7v-0.2c0-1.1-0.4-2.1-1.1-2.8c-0.7-0.7-1.7-1.2-2.8-1.2c-0.7,0-1.5,0.2-2.1,0.6c-1.7-0.4-3.4,0.5-4.2,2
				c-0.5,0.4-0.8,1-1.1,1.6c-0.2,0.6-0.4,1.2-0.4,1.9v0.2c0.1,2.2,1.5,3.9,3.2,4.1c-0.2,0.1-0.4,0.2-0.5,0.3
				c-0.5,0.5-0.6,1.3-0.7,2.1v0.6l-0.9,0.3c-0.1,0-0.1,0.1-0.1,0.2l0,0c0,0,0,0.1,0.1,0.1l0.9,0.6v0.2c0,0.1,0,0.1,0,0.2
				c-0.2,0.1-0.3,0.3-0.3,0.5c-0.1,0.3-0.1,0.6-0.1,0.9v0.8c0,0.6,0.1,1.2,0.2,1.7c0.1,0.3,0.6,1.2,1,1.2c-0.3,1.5-0.4,4.8-0.4,4.8
				s0.1,0.1,0.3,0.1c0.2,1.5,0.9,5.8,2,7.7c0.2,0.6,0.3,1.2,0.4,1.9c0,0,0.3,4.1,0.8,5.3c0.4,1,0.7,3.6,0.7,4.3
				c-0.2,0-0.3,0.2-0.3,0.3c-0.2,0.7-1.6,1.7-1.6,1.7c-0.4,0.2-0.9,0.5-1.2,0.8c-0.4,0.4-0.4,0.8,1.6,0.5c3.8-0.4,4.5-1.7,4.5-1.7
				s-0.1-0.2-0.2-0.5c-0.1-0.4-0.3-0.8-0.5-1.2c-0.1-0.1-0.1,0-0.2,0.2c-0.3-1.8-0.4-3.6-0.3-5.4c0,0,0.1-1.9-0.4-3.2
				c-0.1-0.7-0.1-1.4,0-2.1c0.2-0.9-0.9-5.2-0.9-5.2l-0.6-3.2c0.1,0.1,0.1,0.2,0.2,0.4v0.1v0.1v0.1c0.4,1.8,1.6,6.7,1.6,7.4
				c0,0.9,1.1,3.1,1.1,3.1s0.4,3.7,1.2,5.1c0.6,1.1,0.6,2.7,0.6,3.4c0,0-0.1,0.9-0.4,1.1c-0.2,0.2-0.3,0.5-0.4,0.7v0.1
				c0,0-0.3,0.7-0.1,0.8c0.8,0.3,1.7,0.4,2.6,0.3c0,0,0.4-0.6,0.4-0.8c0-0.1,0-0.3-0.1-0.4c-0.1-0.5-0.2-0.9-0.2-1.4
				c0.1-0.4-0.3-1.3-0.3-1.3l-0.1-3.1c0.2-2.1-0.1-4.2-0.8-6.2c0,0-0.6-2-0.4-2.5c0.1-0.6-0.2-6.4-0.2-6.4v-0.1c0-0.4,0-0.8,0-1.2
				c0.1-1.3-0.3-4.1-0.4-4.2c-0.1-0.3-0.1-0.6-0.2-0.9c0-0.2,0.1-0.9,0.2-1.7c1.1,0,2.2-0.1,3.2-0.3c0.1,0,0.2,0,0.3-0.1
				c0-0.1,0.1-0.1,0.1-0.2C221.3,126,220.7,124.4,220.1,122.8L220.1,122.8z M217.9,126.3c0.1-0.8,0.2-1.6,0.4-2.1v0.1
				c0.2,0.6,0.4,1.2,0.5,1.8C218.5,126.2,218.2,126.3,217.9,126.3z"/>
			<path class="st11" d="M209.3,135.3c0,0,0.7,5.9,2.1,8.2c0.2,0.6,0.3,1.2,0.4,1.9c0,0,0.3,4,0.8,5.3c0.4,1.2,0.8,4.5,0.8,4.5
				s1.5,1.7,2.1,0.3c-0.3-1.9-0.5-3.8-0.3-5.7c0,0,0.1-1.9-0.4-3.2c-0.1-0.7-0.1-1.4,0-2.1c0.2-0.9-0.9-5.1-0.9-5.1l-0.9-4.3
				L209.3,135.3L209.3,135.3z"/>
			<path d="M216.2,156.5c0,0-0.7,1.2-4.5,1.6c-2,0.2-2-0.1-1.6-0.5c0.4-0.3,0.8-0.6,1.2-0.8c0,0,1.4-1,1.6-1.6c0.2-0.7,1-0.1,1-0.1
				c1.1,1.6,1.3-0.4,1.5-0.2c0.2,0.4,0.4,0.8,0.5,1.2C216.2,156.3,216.2,156.5,216.2,156.5L216.2,156.5z"/>
			<path class="st2" d="M216.2,156.5c0,0-0.7,1.2-4.5,1.6c-2,0.2-2-0.1-1.6-0.5c0.3,0.2,0.9,0.3,2.2-0.2c1.2-0.5,2.4-0.9,3.7-1.3
				C216.2,156.3,216.2,156.5,216.2,156.5L216.2,156.5z M215.1,149.8c0,0,0.1-1.9-0.4-3.2c-0.1-0.7-0.1-1.4,0-2.1
				c0.2-0.9-0.9-5.1-0.9-5.1l-0.9-4.3h-0.8l0.9,4.2c0,0,1.1,4.3,0.9,5.1c-0.1,0.7-0.1,1.4,0,2.1c0.6,1.3,0.4,3.2,0.4,3.2
				c-0.1,1.9,0,3.8,0.3,5.7c-0.1,0.2-0.2,0.3-0.3,0.5c0.4,0.2,0.8,0.2,1.1-0.5C215.1,153.6,215,151.7,215.1,149.8L215.1,149.8z"/>
			<path d="M214.4,111.3c-0.7,0-1.4,0.2-2.1,0.6c-1.7-0.4-3.4,0.4-4.2,2c-0.9,0.9-1.4,2.1-1.4,3.4c0,2.3,1.6,4.2,3.5,4.2
				c1.4,0,2.6-1,3.2-2.4c0.3,0.1,0.7,0.1,1,0.1c2.2,0,3.9-1.8,3.9-3.9C218.4,113.1,216.6,111.3,214.4,111.3L214.4,111.3L214.4,111.3
				z"/>
			<path class="st11" d="M217.6,135.9l0.3,0.9c0,0,0.3,5.8,0.2,6.3s0.4,2.5,0.4,2.5c0.7,2,1,4.1,0.8,6.1l0.1,3.1
				c0,0,0.4,1.2,0.2,1.4s-1.9-0.2-1.9-0.2s0.2-2.3-0.6-3.7s-1.2-5-1.2-5s-1.1-2.2-1.1-3.1s-1.8-8-1.8-8L217.6,135.9L217.6,135.9z"/>
			<path class="st12" d="M209.1,135.8c0,0,0.1-3.9,0.6-5.1c0.2-0.6,0.4-1.1,0.5-1.7c0,0,6.6,1.2,7.2,0.8c0,0,0.1,1.5,0.2,1.6
				c0.1,0.1,0.6,2.8,0.4,4.2c-0.1,1.3,0,1.3,0,1.3s-4.5,0.7-4.6,0s-0.4-0.7-0.4-0.7S208.9,136,209.1,135.8z"/>
			<path class="st2" d="M212.7,135.8c0,0-2.8-0.1-3.6-0.2v0.2c-0.2,0.2,3.8,0.3,3.8,0.3c0.1,0,0.1,0,0.1,0.1
				C213,135.8,212.7,135.8,212.7,135.8L212.7,135.8z M217.5,131.3c-0.1-0.1-0.2-1.6-0.2-1.6c-0.1,0-0.1,0.1-0.2,0.1
				c0,0.5,0.1,1.2,0.2,1.2c0.1,0.1,0.6,2.8,0.4,4.2c-0.1,1.3,0,1.3,0,1.3s-3.5,0.5-4.4,0.2c0,0,0,0.1,0,0.2c0.1,0.7,4.6,0,4.6,0
				s-0.1,0,0-1.3C218.1,134.1,217.6,131.4,217.5,131.3z"/>
			<path class="st11" d="M213.9,118.2c0.1,0.2,0.2,0.4,0.4,0.5c0.1,0.1,0.2,0.1,0.4,0.2c-0.2,0.1-0.5,0.2-0.8,0.4
				c-0.4,0.3-0.8,0.5-1.1,0.8c-0.4,0.3-0.8,0.5-1.3,0.5c0.3-0.4,0.4-1,0.2-1.6c-0.1-0.2-0.2-0.3-0.2-0.5c0-0.3,0.3-0.6,0.5-0.7
				s0.4-0.3,0.6-0.4c0.2-0.1,0.4-0.3,0.6-0.3c0.2,0,0.2,0.2,0.3,0.4C213.7,117.7,213.8,118,213.9,118.2z"/>
			<path class="st2" d="M213.9,118.2c0.1,0.2,0.2,0.4,0.4,0.5c0.1,0.1,0.2,0.1,0.4,0.2c-0.2,0.1-0.5,0.2-0.8,0.4
				c-0.4,0.3-0.8,0.5-1.1,0.8c-0.4,0.3-0.8,0.5-1.3,0.5c0.3-0.4,0.4-1,0.2-1.6c-0.1-0.2-0.2-0.3-0.2-0.5c0-0.3,0.3-0.6,0.5-0.7
				s0.4-0.3,0.6-0.4c0.2-0.1,0.4-0.3,0.6-0.3c0.2,0,0.2,0.2,0.3,0.4C213.7,117.7,213.8,118,213.9,118.2z"/>
			<path class="st11" d="M216.5,124.6c1.4,0,2.5-1.1,2.5-2.5s-1.1-2.5-2.5-2.5s-2.5,1.1-2.5,2.5S215.1,124.6,216.5,124.6z"/>
			<path d="M220.1,157.8c0,0.2-0.4,0.8-0.4,0.8c-0.9,0.1-1.8,0-2.6-0.3c-0.2-0.1,0.1-0.8,0.1-0.8v-0.1c0.1-0.3,0.2-0.5,0.4-0.7
				s0.3-1.1,0.3-1.1c0.7-1.1,1.9,0.5,1.9,0.5s0.2,0.8,0.2,1.3C220,157.6,220.1,157.8,220.1,157.8L220.1,157.8z"/>
			<path class="st2" d="M220.1,157.8c0,0.2-0.4,0.8-0.4,0.8c-0.9,0.1-1.8,0-2.6-0.3c-0.2-0.1,0.1-0.8,0.1-0.8v-0.1
				c0.7,0.3,1.6,0.5,2.4,0.5l0.5-0.5C220,157.6,220.1,157.8,220.1,157.8L220.1,157.8z"/>
			<path class="st11" d="M211.5,119.3c1.4,0,2.5-1.1,2.5-2.5s-1.1-2.5-2.5-2.5l0,0c-1.4,0-2.5,1.1-2.5,2.5
				C209,118.2,210.1,119.3,211.5,119.3z M209.5,121.8c-0.5,0.5-0.6,1.3-0.7,2.1l-0.1,1.1c0,0.3,0,0.6,0,0.9c0,0.2,0,0.4,0.1,0.6
				s0,0.4,0,0.7v1.6c0,0.3,0,0.7,0.2,1c0.1,0.1,0.2,0.3,0.4,0.3c0.2,0.1,0.3,0.1,0.5,0s0.3-0.3,0.3-0.5c0.3-0.7,0.5-1.3,0.6-2
				c0-0.2,0-0.5,0-0.7s0.1-0.5,0.1-0.7c0.2-1,0.2-2.1,0.3-3.1c0-0.3,0.3-1.5-0.1-1.6c-0.2-0.1-0.6,0.1-0.8,0.2
				C210,121.4,209.7,121.6,209.5,121.8L209.5,121.8z"/>
			<path class="st2" d="M209.5,121.8c-0.5,0.5-0.6,1.3-0.7,2.1l-0.1,1.1c0,0.3,0,0.6,0,0.9c0,0.2,0,0.4,0.1,0.6s0,0.4,0,0.7v1.6
				c0,0.3,0,0.7,0.2,1c0.1,0.1,0.2,0.3,0.4,0.3c0.2,0.1,0.3,0.1,0.5,0s0.3-0.3,0.3-0.5c0.3-0.7,0.5-1.3,0.6-2c0-0.2,0-0.5,0-0.7
				s0.1-0.5,0.1-0.7c0.2-1,0.2-2.1,0.3-3.1c0-0.3,0.3-1.5-0.1-1.6c-0.2-0.1-0.6,0.1-0.8,0.2C210,121.4,209.7,121.6,209.5,121.8
				L209.5,121.8z"/>
			<path class="st9" d="M214.6,118.5c0,0-1.9,1.4-3,1.8c0,0-0.6,0.7-0.8,0.9c-0.1,0.2-0.3,2.1-0.6,2.6c-0.2,0.4-0.8,1.4,0,2.4
				c0,0,0.2,1,0.1,1.3c-0.1,0.3-0.5,1.5-0.1,1.6s1.5,0.8,2.4,0.6c1-0.2,4.7,0.8,4.7,0.8s0.6-5.6,1-6.6l-1-0.3c0,0-2.7-1.6-1.1-4.2
				C216.3,119.3,214.8,119,214.6,118.5L214.6,118.5z"/>
			<path class="st13" d="M207.8,125.1l2.3,1.6h0.1h0.1l0.6-0.5c0,0,0,0,0-0.1c0,0,0,0,0-0.1c0,0,0,0,0-0.1c0,0,0,0,0-0.1l-1.7-1.5
				c0,0-0.1-0.1-0.2,0l-1.1,0.4C207.7,124.8,207.7,124.9,207.8,125.1C207.7,125,207.7,125,207.8,125.1
				C207.7,125,207.8,125,207.8,125.1z"/>
			<path class="st11" d="M208.6,129.9c-0.2-0.6-0.2-1.1-0.2-1.7v-0.8c0-0.3,0-0.6,0.1-0.9c0.2-0.4,0.5-0.7,0.9-0.8
				c0.4-0.1,0.9-0.1,1.3-0.1c0.1,0,0.1,0,0.2,0c0,0,0.1,0.1,0.1,0.2c0.1,0.2,0.1,0.5,0.1,0.8c-0.1,0.1-0.2,0.2-0.3,0.3
				c-0.3,0.2-0.7,0.4-0.9,0.6c-0.1,0-0.1,0.1-0.1,0.2s0,0.1,0,0.2c0,0.2,0.1,0.3,0.1,0.4s0.1,0.1,0.1,0.2c0.1,0,0.1,0.1,0.2,0.1
				c0.1,0.1,0.4,0.2,0.4,0.4c0,0.6-0.4,1.2-0.5,1.7C209.6,131.7,208.7,130.3,208.6,129.9L208.6,129.9z"/>
			<path class="st2" d="M212.1,129.6L212.1,129.6c0.2,0,0.4,0,0.7,0h0.1C212.6,129.6,212.3,129.6,212.1,129.6z M217.8,123.7
				c-0.4,0.9-1,5.7-1.1,6.6c0.4,0.1,0.6,0.2,0.6,0.2s0.6-5.6,1-6.6L217.8,123.7z"/>
			<path class="st11" d="M216.6,122.2c0,0.2,0.2,0.4,0.4,0.5c0.2,0.2,0.4,0.4,0.6,0.6c0.3,0.4,0.5,0.8,0.6,1.3
				c0.2,0.6,0.4,1.1,0.5,1.7c-1.4,0.6-3,0.6-4.5,1c-0.6,0.2-1.2,0.5-1.7,1c-0.5,0.5-0.7,1.1-0.6,1.8v0.1c0,0.1,0.1,0.1,0.2,0.1
				c0.4,0,0.7-0.1,1-0.4c0.3-0.2,0.6-0.5,0.8-0.8c0.1-0.2,0.3-0.3,0.6-0.4c0.8-0.2,1.7-0.2,2.5-0.2c1.2,0,2.5-0.1,3.7-0.3
				c0.1,0,0.2,0,0.2-0.1c0.1-0.1,0.1-0.2,0.1-0.2c0.1-1.6-0.5-3.2-1.1-4.8c-0.3-0.6-0.5-1.2-0.8-1.8c-0.2-0.6-0.5-1.1-0.9-1.6
				c-0.2-0.2-0.3-0.3-0.6-0.4c-0.2-0.1-0.5-0.1-0.7-0.1c-0.4-0.1-0.8-0.1-1.2,0c-0.1,0.2-0.1,0.4-0.1,0.6c0,0.8,0.4,1.5,0.7,2.1
				C216.4,122.1,216.5,122.1,216.6,122.2L216.6,122.2z"/>
			<path class="st14" d="M212.1,123.6c-0.2,0.3-0.3,0.7-0.3,1.1c0,0.1,0,0.3,0.1,0.4c0.2,0.4,0.5,0.7,0.9,0.8"/>
			<path d="M213.5,114.5c-0.1,0-0.3,0-0.4,0.1c-0.4-0.6-1.2-0.9-2.2-0.9c-1.3,0-2.4,0.7-2.4,1.5s1.1,1.5,2.4,1.5
				c0.5,0,1-0.1,1.4-0.3c0.3,0.7,1.1,0.9,1.8,0.6s0.9-1.1,0.6-1.8C214.5,114.8,214,114.5,213.5,114.5L213.5,114.5z"/>
			<path class="st2" d="M213.7,116.8c-0.5,0-1-0.3-1.2-0.7c-0.5,0.2-0.9,0.3-1.4,0.3c-1.3,0-2.4-0.7-2.4-1.5c0-0.1,0-0.1,0-0.2
				c-0.1,0.1-0.1,0.3-0.1,0.5c0,0.8,1.1,1.5,2.4,1.5c0.5,0,1-0.1,1.4-0.3c0.2,0.5,0.8,0.8,1.4,0.7c0.6-0.1,1-0.5,1.1-1.1
				C214.6,116.5,214.2,116.8,213.7,116.8L213.7,116.8z"/>
			<path class="st2" d="M208.2,114.5c0.8-1.6,2.5-2.4,4.2-2c0.6-0.4,1.2-0.6,1.9-0.6c2.1-0.1,3.9,1.5,4.1,3.6v-0.3
				c0-2.2-1.8-3.9-3.9-3.9c-0.7,0-1.4,0.2-2.1,0.6c-1.7-0.4-3.4,0.4-4.2,2c-0.9,0.9-1.4,2.1-1.4,3.4v0.3
				C206.8,116.4,207.3,115.3,208.2,114.5L208.2,114.5z"/>
			<g>
				<path class="st5" d="M235,116.3l-3.5-1.9c0.1-0.2-0.1-1-0.9-2l-0.3-0.4c-1-1.2-2.2-2.8-2.2-4.9c0-3.1,2.8-4.9,4.8-6.1l0.4-0.2
					c1.2-0.8,2.4-1.7,3.4-2.8c0.4-0.4,0.6-0.7,0.8-1.1s0.2-1.2,0.1-1.8c-0.1-3.1-0.2-6.2-0.5-9.3l4-0.3c0.2,3.1,0.4,6.3,0.5,9.5
					c0,1,0.1,2.4-0.5,3.7c-0.4,0.9-1,1.6-1.6,2.2c-1.2,1.2-2.6,2.3-4.1,3.3l-0.4,0.2c-1.4,0.8-2.9,1.8-2.9,2.8
					c0,0.6,0.7,1.5,1.3,2.3l0.3,0.4C235.6,112.2,236,114.5,235,116.3z"/>
			</g>
			<path class="st6" d="M242.8,85.5c-0.1-1.2-0.7-2.2-1.7-2.8l-0.8,1.5v-1.8c-1.8-0.5-3.7,0.5-4.3,2.3c-0.5,1.8,0.5,3.7,2.3,4.3
				c1.8,0.5,3.7-0.5,4.3-2.3C242.8,86.3,242.8,85.9,242.8,85.5z M236.7,108.7c-0.7,1.4-2.4,2.2-4,1.7c-1.6-0.4-2.6-1.9-2.5-3.5
				c0.1-1.9,1.7-3.3,3.6-3.2c1.4,0.1,2.5,1,3,2.2l-2.1,1.7l2.4-0.6C237,107.7,236.9,108.3,236.7,108.7L236.7,108.7z M235,102.1
				c-1.9,0.1-3.5-1.4-3.6-3.3c0-0.7,0.2-1.4,0.5-2c0.5-0.7,1.2-1.2,2-1.5v1.4l0.8-1.5c1.9-0.1,3.5,1.4,3.6,3.3
				c0.1,1.4-0.7,2.7-2,3.3C235.9,102,235.4,102.1,235,102.1L235,102.1L235,102.1z M243.3,96.6c-1.7,0.1-3.1-1-3.5-2.6s0.5-3.3,2-3.9
				c1-0.4,2.1-0.4,3.1,0.2l-0.6,1.7l1.2-1.2c0.7,0.6,1.1,1.5,1.1,2.4c0,0.3,0,0.6-0.1,0.9C246.1,95.4,244.8,96.5,243.3,96.6z"/>
			<path class="st2" d="M242.3,86.5c-0.8,0.1-1.6,0.3-2.4,0.4c-0.8,0.1-1.7-0.1-2.2-0.8c-0.2-0.4-0.4-0.7-0.6-1.1
				c-0.2-0.3-0.5-0.6-0.9-0.8c-0.9,1.7-0.2,3.8,1.5,4.6c1.5,0.8,3.3,0.3,4.3-1c0.3-0.4,0.5-0.8,0.6-1.3
				C242.6,86.4,242.4,86.4,242.3,86.5L242.3,86.5z M243.3,96.6c-1.9,0.1-3.4-1.3-3.6-3.2c0-0.6,0.1-1.2,0.3-1.7
				c0.3,0.2,0.5,0.4,0.7,0.7c0.2,0.4,0.4,0.8,0.7,1.1c0.5,0.6,1.4,0.8,2.3,0.8c0.8,0,1.6-0.3,2.4-0.3c0.1,0,0.2,0,0.3,0
				C246.1,95.4,244.8,96.5,243.3,96.6L243.3,96.6z M235,102.1c-1.9,0.1-3.5-1.4-3.6-3.3c0-0.5,0.1-1.1,0.3-1.6
				c0.3,0.2,0.5,0.4,0.7,0.7c0.3,0.4,0.4,0.8,0.7,1.2c0.6,0.6,1.6,0.9,2.4,0.9c0.9,0,1.7-0.2,2.5-0.3
				C237.7,101.1,236.4,102,235,102.1z M236.7,108.7c-0.9,1.7-3,2.3-4.6,1.4c-1.5-0.8-2.2-2.6-1.6-4.2c0.3,0.2,0.5,0.4,0.8,0.7
				c0.3,0.4,0.5,0.8,0.9,1.2c0.7,0.7,1.8,1,2.8,1C235.5,108.8,236.1,108.8,236.7,108.7L236.7,108.7z"/>
			<g>
				<path class="st7" d="M279.3,158.6l-3.5-1.9c0.1-0.2,0-0.9-0.9-2l-0.3-0.4c-1-1.2-2.2-2.8-2.2-4.9c0-3.1,2.8-4.9,4.8-6.1l0.4-0.2
					c1.2-0.8,2.4-1.7,3.4-2.8c0.4-0.4,0.6-0.7,0.8-1.1c0.2-0.4,0.2-1.2,0.1-1.8c-0.1-3.1-0.2-6.2-0.5-9.3l4-0.3
					c0.2,3.2,0.4,6.3,0.5,9.5c0,1,0.1,2.4-0.5,3.6c-0.4,0.9-1,1.6-1.6,2.2c-1.2,1.2-2.6,2.3-4.1,3.3l-0.4,0.2
					c-1.4,0.8-2.9,1.8-2.9,2.8c0,0.6,0.7,1.5,1.3,2.3l0.3,0.4C279.9,154.5,280.3,156.8,279.3,158.6z"/>
			</g>
			<path class="st6" d="M287,127.9c-0.1-1.2-0.7-2.2-1.7-2.8l-0.8,1.5v-1.8c-0.4-0.1-0.7-0.2-1.1-0.1c-0.7,0-1.3,0.3-1.9,0.7
				c-1.5,1.1-1.8,3.3-0.7,4.8c1.1,1.5,3.3,1.8,4.8,0.7C286.6,130.1,287.1,129,287,127.9L287,127.9L287,127.9z M280.9,151.1
				c-0.9,1.7-2.9,2.3-4.6,1.5s-2.3-2.9-1.5-4.6c0.5-1,1.4-1.7,2.5-1.8c1.6-0.2,3.2,0.7,3.7,2.2l-2,1.6l2.4-0.6
				C281.3,150,281.2,150.6,280.9,151.1L280.9,151.1z M279.2,144.4c-1.7,0.1-3.3-1.2-3.5-2.9c-0.3-1.7,0.8-3.4,2.5-3.8v1.4l0.8-1.5
				c1.9-0.1,3.5,1.4,3.6,3.3l0,0c0.1,1.4-0.7,2.7-2,3.3C280.1,144.3,279.7,144.4,279.2,144.4L279.2,144.4L279.2,144.4z M287.6,138.9
				c-1.7,0.1-3.1-1-3.5-2.6s0.4-3.3,2-3.9c1-0.4,2.1-0.4,3.1,0.2l-0.6,1.7l1.2-1.2c0.9,0.8,1.3,2.1,1,3.3
				C290.4,137.7,289.1,138.8,287.6,138.9L287.6,138.9z"/>
			<path class="st2" d="M286.6,128.8c-0.8,0.1-1.6,0.3-2.4,0.4c-0.8,0.1-1.7-0.1-2.2-0.8c-0.2-0.4-0.4-0.7-0.6-1.1
				c-0.2-0.3-0.5-0.6-0.9-0.8c-0.9,1.7-0.2,3.7,1.5,4.6s3.7,0.2,4.6-1.5c0.1-0.3,0.2-0.5,0.3-0.8
				C286.8,128.8,286.7,128.8,286.6,128.8L286.6,128.8z M287.6,138.9c-1.2,0.1-2.3-0.5-3-1.5s-0.8-2.3-0.2-3.4
				c0.3,0.2,0.5,0.4,0.7,0.7c0.2,0.4,0.4,0.8,0.7,1.1c0.5,0.6,1.4,0.8,2.3,0.8s1.6-0.3,2.5-0.3c0.1,0,0.2,0,0.3,0
				C290.4,137.7,289.1,138.8,287.6,138.9L287.6,138.9z M279.2,144.4c-1.9,0.1-3.5-1.4-3.6-3.3c0-0.5,0.1-1.1,0.3-1.6
				c0.3,0.2,0.5,0.4,0.7,0.7c0.3,0.4,0.4,0.8,0.7,1.2c0.6,0.6,1.6,0.9,2.4,0.9c0.9,0,1.7-0.2,2.5-0.3
				C281.9,143.4,280.7,144.3,279.2,144.4L279.2,144.4z M280.9,151.1c-0.8,1.6-2.8,2.2-4.4,1.5s-2.4-2.6-1.8-4.3
				c0.3,0.2,0.5,0.4,0.8,0.7c0.3,0.4,0.6,0.8,0.9,1.2c0.7,0.7,1.8,1,2.8,1C279.8,151.2,280.4,151.1,280.9,151.1z"/>
			
				<linearGradient id="SVGID_00000151524220591595943270000017144708075842432682_" gradientUnits="userSpaceOnUse" x1="114.8367" y1="19579.6992" x2="114.8367" y2="16744" gradientTransform="matrix(1 0 0 1 0 -918)">
				<stop  offset="0" style="stop-color:#808080;stop-opacity:0.25"/>
				<stop  offset="0.54" style="stop-color:#808080;stop-opacity:0.12"/>
				<stop  offset="1" style="stop-color:#808080;stop-opacity:0.1"/>
			</linearGradient>
			<path style="fill:url(#SVGID_00000151524220591595943270000017144708075842432682_);" d="M133.5,118.4c0-0.9-0.4-1.7-1.1-2.2
				c0-1.6-1.1-2.9-2.7-3.1c-0.2-1.1-1-2-2.1-2.4c-0.1,0-0.3-0.1-0.4-0.1h-0.5c-1.5,0-2.8,1.2-3,2.7c-1-0.2-1.9,0.1-2,0.7
				c0,0.2,0,0.3,0,0.5c0.2,0.5,0.7,0.9,1.4,1.2h0.1h0.1l0,0c-0.2,0.3-0.2,0.7-0.2,1.1c0,0.9,0.5,1.8,1.3,2.2h-0.1
				c-0.1,0.1-0.2,0.2-0.2,0.3c-0.2,0.3-0.3,0.6-0.4,1c-0.1,0.3-0.1,0.6-0.2,0.9c-0.2,0.5-0.6,1-0.6,1.6c0,0.2,0,0.6-0.2,0.7
				l-0.1,0.1c-0.1,0.1-0.2,0.2-0.3,0.3c-0.1,0.1-0.1,0.2-0.2,0.3c-0.2,0.1-0.4,0.1-0.5,0.3c-0.1,0.2,0.1,0.4,0.1,0.6
				s-0.2,0.2-0.3,0.4c-0.1,0.2-0.2,0.3-0.3,0.6c-0.5,0.1-1.1,0-1.5-0.4c0.1,0.2,0.1,0.4,0.2,0.6c-0.2-0.2-0.5-0.3-0.8-0.4
				c-0.3-0.2-0.6-0.4-0.9-0.6l0.5-0.1l-2-3.1L116,122l0.5,1l-0.1,0.1l-0.1,0.1c0,0.1,0,0.2,0,0.4c0,0.3,0.1,0.6,0.1,0.8l0.2,0.7
				c0,0.1,0,0.1,0.1,0.2c-0.2,0-0.4,0-0.6,0.1c-0.4-0.1-0.8-0.3-1.3-0.3c-0.1,0-0.2,0-0.3,0c-0.1,0-0.2,0.1-0.3,0.2
				c-0.4,0.4-0.7,0.8-0.9,1.3c-1.1,1.9-2.6,3.6-3.9,5.3c-0.9,0.4-1.9,0.7-2.9,1.1l-2.1,0.8c-0.4,0.2-0.8,0.3-1.3,0.3
				c-0.2,0-0.4,0-0.6,0.1c-0.1,0.1-0.1,0.2-0.1,0.3h-0.2c-0.1-0.3-0.3-0.6-0.5-0.9c-0.1,0-0.2,0.1-0.2,0.2c-0.1,0.1-0.1,0.2-0.1,0.3
				c-0.1,0.2-0.3,0.2-0.4,0.4c-0.1,0.1-0.2,0.3-0.4,0.5c-0.2,0.2-0.4,0.2-0.7,0.3c-0.4,0.1-0.7,0.2-1.1,0.4
				c-0.1,0.1-0.3,0.1-0.4,0.2c-0.2,0-0.3,0-0.5,0l-1.1-0.1c-0.1,0-0.2,0-0.3,0c-0.2,0.1-0.4,0.3-0.3,0.6c0,0.2,0.2,0.5,0.3,0.6
				c0.2,0.1,0.4,0.2,0.6,0.3c0.9,0.4,1.9,0.7,2.9,0.9v0.2c0.7,0.3,1.5,0.5,2.2,0.5c0.1,0,0.1,0,0.2,0c0.1-0.1,0.1-0.1,0.1-0.2
				c0.2-0.7,0.4-1.4,0.4-2.1c0.1,0,0.3,0,0.4-0.1c0.4-0.1,0.7,0.2,1.1,0.2c0.5,0.1,0.9-0.2,1.4-0.4l0.2-0.1
				c-0.1,0.2-0.3,0.3-0.5,0.4c-0.2,0.1-0.4,0.2-0.6,0.4c-0.2,0.1-0.3,0.3-0.5,0.4c-0.1,0.1-0.2,0.1-0.4,0.1
				c-0.2,0.1-0.4,0.2-0.5,0.3s-0.3,0.2-0.4,0.4s-0.1,0.3,0,0.5c0.1,0.1,0.2,0.2,0.4,0.3c0.1,0,0.3,0,0.4,0c0.6,0,1.2-0.1,1.8-0.2
				c0.2,0,0.5-0.1,0.7-0.1c0.1,0,0.3-0.1,0.4-0.1c0.2-0.1,0.4-0.1,0.7-0.1c0.1,0,0.1,0,0.2,0s0.2,0.2,0.4,0.2c0.1,0,0.2,0,0.3,0
				c0.4-0.1,0.9-0.1,1.3-0.1c0.2,0,0.4,0,0.5-0.2s-0.1-0.5-0.1-0.7s-0.1-0.3-0.1-0.5c0-0.4-0.1-0.8-0.3-1.1
				c-0.1-0.2-0.2-0.3-0.2-0.5c0.8-0.3,1.6-0.7,2.4-1.2c0.4-0.3,0.9-0.5,1.4-0.7c0.6-0.1,1.2,0,1.7,0.2c1.3,0.4,2.7,0.8,3.9,1.4
				c0.6,0.3,1.2,0.5,1.9,0.7c0.2,0.2,0.4,0.5,0.7,0.6c0.4,0.2,0.9,0.4,1.4,0.4c0.7,0.1,1.3,0.1,2,0.1c0.5,0,1-0.1,1.5-0.3
				c0.1-0.1,0.2-0.1,0.3-0.2c0.4,0,0.7-0.1,1-0.4c0.4-0.3,0.6-0.7,0.8-1.2c0.2-0.6,0-1.4,0.4-1.9c0.1-0.1,0.2-0.2,0.3-0.4
				s0.2-0.4,0.2-0.6l0,0c0.1-0.2,0.1-0.4,0.2-0.6c0-0.2,0.1-0.3,0.2-0.5c0.2-0.5,0.4-1,0.5-1.5c0.1-0.3,0.2-0.7,0.2-1
				s0.1-0.6,0.1-0.8c0-0.4,0.1-0.9,0.3-1.3c0.3-1,0.5-2,0.6-3.1v-0.1c1.1-0.1,1.9-1,1.8-2.1c0-0.3-0.1-0.6-0.2-0.9
				C133.4,119.4,133.5,118.9,133.5,118.4L133.5,118.4z M123.6,130.5c0,0.1,0.1,0.2,0.1,0.3c-0.2-0.2-0.3-0.3-0.5-0.5
				c0.1,0,0.1,0,0.2,0.1C123.4,130.4,123.5,130.5,123.6,130.5L123.6,130.5L123.6,130.5z M122.8,130c-1-0.8-2.1-1.5-3.1-2.3
				c0.5,0.3,1.1,0.6,1.6,0.9c0.6,0.4,1.2,0.7,1.9,1C123,129.7,122.9,129.8,122.8,130L122.8,130L122.8,130z M123.2,127.9L123.2,127.9
				v0.3L123,128C123,128,123.1,127.9,123.2,127.9L123.2,127.9z M114.7,130.1c0.4-0.4,0.7-0.9,1-1.5c0.4,0.7,1,1.1,1.5,1.7
				C116.4,130.2,115.6,130.2,114.7,130.1z"/>
			<path class="st16" d="M116.1,122l0.6,0.1l2.1,3.1l-0.9,0.1L116.1,122z"/>
			<path class="st17" d="M101.4,134.4c0.2,0.5,0.4,1.1,0.6,1.6c0.7-0.1,1.4-0.3,2-0.6c-0.1-0.2-0.3-0.4-0.4-0.6
				c-0.2-0.2-0.4-0.3-0.6-0.4c-0.2-0.1-0.5-0.1-0.7,0C102,134.4,101.7,134.4,101.4,134.4L101.4,134.4z"/>
			<path class="st9" d="M103,135.2c-0.3-0.1-0.6-0.4-0.7-0.8c-0.1-0.3-0.3-0.7-0.5-0.9c-0.1,0-0.1,0-0.1,0.1l-0.1,0.1
				c-0.1,0.1-0.1,0.2-0.1,0.3c-0.1,0.2-0.3,0.2-0.4,0.4s-0.2,0.3-0.4,0.5c-0.2,0.2-0.4,0.2-0.7,0.3c-0.4,0.1-0.8,0.2-1.1,0.4
				c-0.1,0.1-0.3,0.1-0.4,0.2c-0.2,0-0.3,0-0.5,0l-1.1-0.1c-0.1,0-0.2,0-0.3,0c-0.2,0.1-0.4,0.3-0.3,0.6c0,0.2,0.2,0.5,0.3,0.6
				c0.2,0.1,0.4,0.2,0.6,0.3c1,0.4,1.9,0.6,2.9,0.8v0.2c0.7,0.3,1.5,0.5,2.2,0.5c0.1,0,0.1,0,0.2,0c0.1-0.1,0.1-0.1,0.1-0.2
				c0.3-0.8,0.4-1.6,0.5-2.4c0-0.2,0-0.4,0-0.6C103,135.2,103.2,135.3,103,135.2"/>
			<path class="st13" d="M124,131.1c-3.3,0.2-6.5-0.8-9.7-0.9c-0.4,0-0.8,0-1.2,0.1c-0.4,0.1-0.8,0.3-1.2,0.5
				c-1.7,0.8-3.6,1.5-5.4,2.2l-2.1,0.8c-0.4,0.2-0.8,0.3-1.3,0.3c-0.2,0-0.4,0-0.6,0.1c-0.3,0.5-0.2,1.2,0,1.8
				c0.1,0.2,0.2,0.4,0.4,0.4c0.1,0,0.3,0,0.4-0.1c0.4-0.1,0.8,0.2,1.1,0.2c0.5,0.1,0.9-0.2,1.4-0.4c0.8-0.3,1.6-0.3,2.4-0.4
				c1.3-0.2,2.6-0.8,3.7-1.5c0.4-0.3,0.9-0.5,1.4-0.7c0.6-0.1,1.2,0,1.7,0.2c1.3,0.4,2.7,0.8,4,1.4c0.7,0.3,1.4,0.5,2.1,0.8
				c1.5,0.4,3.2,0.3,4.7-0.3c0.5-0.2,1.1-0.6,1.1-1.1c0-0.3-0.2-0.6-0.4-0.9c-0.1-0.2-0.2-0.4-0.3-0.5
				C125.7,132.1,125,131,124,131.1L124,131.1z"/>
			<path class="st9" d="M124,131.1c-3.3,0.2-6.5-0.8-9.7-0.9c-0.4,0-0.8,0-1.2,0.1c-0.4,0.1-0.8,0.3-1.2,0.5
				c-1.7,0.8-3.6,1.5-5.4,2.2l-2.1,0.8c-0.4,0.2-0.8,0.3-1.3,0.3c-0.2,0-0.4,0-0.6,0.1c-0.3,0.5-0.2,1.2,0,1.8
				c0.1,0.2,0.2,0.4,0.4,0.4c0.1,0,0.3,0,0.4-0.1c0.4-0.1,0.8,0.2,1.1,0.2c0.5,0.1,0.9-0.2,1.4-0.4c0.8-0.3,1.6-0.3,2.4-0.4
				c1.3-0.2,2.6-0.8,3.7-1.5c0.4-0.3,0.9-0.5,1.4-0.7c0.6-0.1,1.2,0,1.7,0.2c1.3,0.4,2.7,0.8,4,1.4c0.7,0.3,1.4,0.5,2.1,0.8
				c1.5,0.4,3.2,0.3,4.7-0.3c0.5-0.2,1.1-0.6,1.1-1.1c0-0.3-0.2-0.6-0.4-0.9c-0.1-0.2-0.2-0.4-0.3-0.5
				C125.7,132.1,125,131,124,131.1L124,131.1z"/>
			<path class="st17" d="M107.6,134.6c0.5,0.2,1,0.3,1.5,0.5c0.3-0.5,0.8-0.8,1-1.4c0,0,0,0,0-0.1c0,0,0,0-0.1-0.1
				c-0.4-0.2-0.8-0.3-1.2-0.4c-0.3,0-0.5,0.3-0.6,0.6C108.1,133.9,107.7,134.6,107.6,134.6L107.6,134.6z"/>
			<path class="st9" d="M108.3,134.2c-0.3-0.1-0.6-0.2-0.7-0.5c-0.1-0.1-0.1-0.3-0.3-0.3c-0.1,0-0.2,0.2-0.2,0.3
				c-0.1,0.5-0.2,1-0.4,1.4c-0.2,0.5-0.5,0.9-0.9,1.2c-0.2,0.1-0.4,0.2-0.6,0.4c-0.2,0.1-0.3,0.3-0.5,0.4c-0.1,0.1-0.2,0.1-0.4,0.1
				c-0.2,0.1-0.4,0.2-0.5,0.3c-0.2,0.1-0.3,0.2-0.4,0.4c-0.1,0.1-0.1,0.3,0,0.5c0.1,0.1,0.2,0.2,0.4,0.2c0.1,0,0.3,0,0.4,0
				c0.6,0,1.2-0.1,1.8-0.1c0.2,0,0.5-0.1,0.7-0.1l0.4-0.1c0.2-0.1,0.4-0.1,0.7-0.1c0.1,0,0.1,0,0.2,0s0.2,0.2,0.4,0.2
				c0.1,0,0.2,0,0.3,0c0.4-0.1,0.9-0.1,1.3-0.1c0.2,0,0.4-0.1,0.5-0.2c0.1-0.2-0.1-0.5-0.1-0.7c0-0.1-0.1-0.3-0.1-0.5
				c0-0.4-0.1-0.7-0.3-1.1c-0.2-0.3-0.4-0.6-0.2-0.9c0.1-0.1,0.1-0.2,0.1-0.3C109.7,134.1,108.6,134.3,108.3,134.2L108.3,134.2z"/>
			<path class="st17" d="M119.2,125.9c-0.6-0.3-1-0.7-1.3-1.3c-0.1-0.1-0.1-0.3-0.2-0.4c-0.2-0.4-0.4-0.8-0.8-1.1
				c-0.1-0.1-0.2-0.1-0.3-0.1c-0.1,0-0.1,0-0.1,0.1l-0.1,0.1c0,0.1,0,0.2,0,0.3c0,0.3,0.1,0.5,0.1,0.8l0.2,0.7
				c0,0.1,0.1,0.2,0.1,0.3c0.1,0.1,0.2,0.2,0.3,0.3c0.1,0.1,0.3,0.3,0.4,0.4s0.2,0.1,0.3,0.2c0.2,0.1,0.3,0.1,0.5,0.1
				c0.7,0.1,1.3,0.3,1.8,0.7v-0.5c0-0.1-0.1-0.3-0.1-0.4C119.8,126.1,119.5,126,119.2,125.9L119.2,125.9z"/>
			<path class="st2" d="M119.2,125.9c-0.6-0.3-1-0.7-1.3-1.3c-0.1-0.1-0.1-0.3-0.2-0.4c-0.2-0.4-0.4-0.8-0.8-1.1
				c-0.1-0.1-0.2-0.1-0.3-0.1c-0.1,0-0.1,0-0.1,0.1l-0.1,0.1c0,0.1,0,0.2,0,0.3c0,0.3,0.1,0.5,0.1,0.8l0.2,0.7
				c0,0.1,0.1,0.2,0.1,0.3c0.1,0.1,0.2,0.2,0.3,0.3c0.1,0.1,0.3,0.3,0.4,0.4s0.2,0.1,0.3,0.2c0.2,0.1,0.3,0.1,0.5,0.1
				c0.7,0.1,1.3,0.3,1.8,0.7v-0.5c0-0.1-0.1-0.3-0.1-0.4C119.8,126.1,119.5,126,119.2,125.9L119.2,125.9z"/>
			<path class="st13" d="M125.8,120.4c0.4,0,0.8-0.4,0.8-0.8s-0.4-0.8-0.8-0.8l0,0c-0.4,0-0.8,0.4-0.8,0.8l0,0
				C125,120,125.3,120.4,125.8,120.4z"/>
			<path class="st13" d="M125.3,119.1c-0.2-0.1-0.4,0-0.6,0.1c-0.1,0.1-0.2,0.2-0.2,0.3c-0.2,0.3-0.3,0.6-0.4,1
				c-0.1,0.3-0.1,0.6-0.2,0.9c-0.2,0.5-0.6,1-0.6,1.5c0,0.2,0,0.5-0.2,0.7l-0.1,0.1c-0.1,0.1-0.2,0.2-0.3,0.3
				c-0.1,0.1-0.1,0.2-0.2,0.3c-0.2,0.1-0.4,0.1-0.5,0.3c-0.1,0.2,0.1,0.4,0.1,0.6s-0.2,0.2-0.3,0.3c-0.1,0.2-0.3,0.3-0.3,0.6
				c-0.5,0.1-1.1,0-1.5-0.4c0.2,0.6,0.3,1.1,0.2,1.7c0,0.2,0,0.4-0.1,0.5c0.6,0,1.2,0.2,1.9,0.3c0.3,0.1,0.5,0.1,0.8,0
				c0.1-0.1,0.3-0.2,0.4-0.3c0.3-0.3,0.7-0.7,0.8-1.2c0-0.3,0-0.5,0-0.8s0.1-0.7,0.2-1c0.2-0.7,0.3-1.3,0.4-2c0-0.4,0.4-0.8,0.6-1.1
				c0.4-0.7,0.7-1.4,0.7-2.2C125.6,119.5,125.5,119.1,125.3,119.1z"/>
			<path class="st9" d="M125.3,119.1c-0.2-0.1-0.4,0-0.6,0.1c-0.1,0.1-0.2,0.2-0.2,0.3c-0.2,0.3-0.3,0.6-0.4,1
				c-0.1,0.3-0.1,0.6-0.2,0.9c-0.2,0.5-0.6,1-0.6,1.5c0,0.2,0,0.5-0.2,0.7l-0.1,0.1c-0.1,0.1-0.2,0.2-0.3,0.3
				c-0.1,0.1-0.1,0.2-0.2,0.3c-0.2,0.1-0.4,0.1-0.5,0.3c-0.1,0.2,0.1,0.4,0.1,0.6s-0.2,0.2-0.3,0.3c-0.1,0.2-0.3,0.3-0.3,0.6
				c-0.5,0.1-1.1,0-1.5-0.4c0.2,0.6,0.3,1.1,0.2,1.7c0,0.2,0,0.4-0.1,0.5c0.6,0,1.2,0.2,1.9,0.3c0.3,0.1,0.5,0.1,0.8,0
				c0.1-0.1,0.3-0.2,0.4-0.3c0.3-0.3,0.7-0.7,0.8-1.2c0-0.3,0-0.5,0-0.8s0.1-0.7,0.2-1c0.2-0.7,0.3-1.3,0.4-2c0-0.4,0.4-0.8,0.6-1.1
				c0.4-0.7,0.7-1.4,0.7-2.2C125.6,119.5,125.5,119.1,125.3,119.1z"/>
			<path class="st9" d="M124.5,131.8c-0.7-0.3-1.2-0.9-1.7-1.4c-1-1-2.3-1.7-3.4-2.6c-0.7-0.6-1.4-1.3-2.2-1.8
				c-0.7-0.4-1.5-0.7-2.3-0.8c-0.1,0-0.2,0-0.3,0c-0.1,0-0.2,0.1-0.3,0.2c-0.4,0.4-0.7,0.8-0.9,1.3c-1.4,2.4-3.4,4.4-5,6.6
				c0,0-0.1,0.1-0.1,0.2c0,0.1,0,0.2,0.1,0.2l0.3,0.7c0.2,0.4,0.5,0.8,0.9,0.7c0.2-0.1,0.3-0.2,0.5-0.3l1.5-1.4l1.6-1.5
				c0.9-0.9,1.9-1.8,2.5-2.9c0.5,0.8,1.3,1.3,1.9,2.1c0.2,0.3,0.4,0.6,0.6,0.9c0.3,0.5,0.7,0.9,1,1.4l1.8,2.3
				c0.2,0.3,0.5,0.6,0.8,0.8c0.4,0.2,0.9,0.4,1.4,0.4c0.7,0.1,1.4,0.1,2,0.1c0.5,0,1-0.1,1.5-0.3s0.8-0.7,0.8-1.2
				c0-0.3-0.1-0.5-0.3-0.8C126.6,133.3,125.8,132.4,124.5,131.8z"/>
			<path class="st12" d="M126.3,120.8c0.3,0,0.6-0.3,0.6-0.6c0-0.3-0.3-0.6-0.6-0.6s-0.6,0.3-0.6,0.6
				C125.7,120.5,125.9,120.8,126.3,120.8z"/>
			<path class="st17" d="M126.1,119.7c0.1,0.3,0.2,0.6,0.1,0.9s-0.2,0.6-0.4,0.8c-0.1,0.3-0.3,0.5-0.5,0.7c0.9,0,1.9-0.3,2.7-0.8
				c0.7-0.4,1.3-0.8,1.7-1.5c-0.2,0.1-0.4,0-0.6-0.1c-0.2-0.1-0.3-0.3-0.5-0.4l-0.5-0.5c-0.1-0.1-0.2-0.2-0.3-0.4
				c-0.1-0.2-0.1-0.4-0.1-0.6c-0.2,0.2-0.4,0.4-0.6,0.5c-0.3,0.2-0.7,0.4-1,0.6c-0.1,0.1-0.4,0.2-0.3,0.4
				C125.8,119.4,126,119.5,126.1,119.7L126.1,119.7z"/>
			<path class="st2" d="M126.1,119.7c0.1,0.3,0.2,0.6,0.1,0.9s-0.2,0.6-0.4,0.8c-0.1,0.3-0.3,0.5-0.5,0.7c0.9,0,1.9-0.3,2.7-0.8
				c0.7-0.4,1.3-0.8,1.7-1.5c-0.2,0.1-0.4,0-0.6-0.1c-0.2-0.1-0.3-0.3-0.5-0.4l-0.5-0.5c-0.1-0.1-0.2-0.2-0.3-0.4
				c-0.1-0.2-0.1-0.4-0.1-0.6c-0.2,0.2-0.4,0.4-0.6,0.5c-0.3,0.2-0.7,0.4-1,0.6c-0.1,0.1-0.4,0.2-0.3,0.4
				C125.8,119.4,126,119.5,126.1,119.7L126.1,119.7z"/>
			<path class="st12" d="M126.1,119.8c-0.2,0.3-0.2,0.6,0,0.9c0,0,0.1,0.2,0.2,0.2c0,0,0,0,0.1,0l0,0c0.2-0.2,0.4-0.5,0.6-0.7
				s0.5-0.4,0.8-0.5c0.4,0,0.7,0.1,1,0.3c0.1,0.1,0.3,0.2,0.4,0.3c0.1,0.1,0.1,0.3,0.1,0.4c0.1,0.8,0.1,1.7,0.1,2.5
				c0,0.6,0,1.2-0.1,1.8c-0.1,0.3-0.1,0.6-0.2,0.9c0,0.3,0,0.6,0,0.8v1.2c0,0.2,0,0.4,0,0.6c0.1,0.3,0.2,0.5,0.3,0.7
				c0.1,0.3,0.1,0.6,0.2,0.9l0.2,1.2c0.1,0.4,0.1,0.8-0.1,1.1c-0.1,0.1-0.2,0.2-0.3,0.4c-0.4,0.5-0.3,1.2-0.4,1.9
				c-0.1,0.5-0.4,0.9-0.8,1.2c-0.3,0.3-0.6,0.4-1,0.4c-0.5-0.1-0.8-0.6-0.9-1.1s-0.2-1-0.5-1.4c-0.3-0.3-0.6-0.6-0.9-0.8
				c-0.4-0.2-0.6-0.5-0.7-0.9c0-0.2,0-0.4,0-0.5c-0.1-0.5-0.4-0.8-0.8-1c-0.3-0.1-0.6-0.1-0.7-0.4c0.4-0.2,0.6-0.6,0.7-1
				s0.2-0.8,0.2-1.2l0.1-1.4c0-0.6,0.1-1.2,0.3-1.8c0.1-0.3,0.3-0.5,0.4-0.7c0.2-0.3,0.3-0.7,0.4-1.1c0.2-0.6,0.4-1.1,0.6-1.7
				c0.1-0.3,0.2-0.6,0.3-0.8C125.6,120.1,125.9,119.8,126.1,119.8L126.1,119.8z"/>
			<path class="st9" d="M123,128.9h0.4l0.1-0.6c0-0.1,0-0.2,0.1-0.3c0.1-0.1,0.1-0.2,0.2-0.3c0.4-0.5,0.3-1.2,0.4-1.8
				c0.2-0.8,0.4-1.6,0.8-2.4l0.7-1.6c0.1-0.1,0.1-0.3,0.2-0.4c0-0.2,0-0.3,0-0.5s0.1-1.2,0.1-1.4c0-0.1-0.2,0-0.2-0.1
				c-0.1-0.2-0.2,0.3-0.4,0.4c-0.2,0.1-0.3,0.3-0.3,0.5c-0.2,0.4-0.2,0.8-0.4,1.2c-0.1,0.4-0.4,0.8-0.7,1.1
				c-0.1,0.1-0.3,0.2-0.5,0.4c-0.4,0.4-0.5,1.1-0.5,1.8C123,125.2,123,128.9,123,128.9L123,128.9z M128.4,119.1
				c-0.3,0.2-0.6,0.5-0.7,0.9s-0.2,0.8-0.3,1.1c-0.5,0.8-1.6,1-1.9,1.9c-0.1,0.3-0.1,0.6-0.1,0.9c-0.1,0.6-0.3,1.2-0.3,1.8
				c0,0.5,0,0.9,0,1.4l0.4,4.8c0.1,0.7,0,1.4-0.1,2.1c0.4,0.1,0.8,0,1.2-0.2c0.4-0.2,0.7-0.4,1.1-0.6c0.6-0.3,1.3-0.6,1.9-1
				c0.1-0.1,0.2-0.2,0.3-0.3c0.1-0.2,0.1-0.4,0.2-0.6c0-0.2,0.1-0.3,0.2-0.5c0.2-0.5,0.4-1,0.5-1.5c0.1-0.3,0.2-0.7,0.2-1
				s0.1-0.6,0.1-0.8c0-0.4,0.1-0.9,0.3-1.3c0.3-1,0.5-2,0.6-3c0-0.1,0-0.3,0-0.4c-0.1-0.2-0.1-0.3-0.2-0.5c-0.2-0.3-0.3-0.7-0.4-1
				c-0.4-0.7-1-1.3-1.6-1.7C129.1,119.2,128.7,119,128.4,119.1z"/>
			<path class="st17" d="M120,126.9c-0.3-0.2-0.5-0.3-0.8-0.6c-0.1-0.1-0.2-0.2-0.3-0.4c-0.3-0.3-0.6-0.5-1-0.6s-0.7-0.1-1.1-0.1
				c-0.3,0-0.5,0-0.7,0.1s-0.4,0.3-0.5,0.5c0,0.3,0.1,0.6,0.4,0.8c0.2,0.2,0.5,0.3,0.7,0.4c0.2,0,0.4,0.1,0.7,0.1
				c1.3,0.1,2.5,0.9,3.7,1.5c1,0.6,2.1,1.1,3.1,1.6c0-0.3,0.1-0.6,0.1-1c0-0.2,0-0.6-0.2-0.7c-0.3-0.1-0.7-0.2-1-0.3
				c-0.7-0.2-1.4-0.5-2-0.8C120.7,127.3,120.3,127.1,120,126.9z M125.8,119.4c1.3,0,2.4-1.1,2.4-2.4s-1.1-2.4-2.4-2.4l0,0
				c-1.3,0-2.4,1.1-2.4,2.4l0,0C123.4,118.3,124.5,119.4,125.8,119.4z"/>
			<path class="st9" d="M129,121.8c-0.2,0.3-0.3,0.6-0.5,0.9c-0.3,0.6-0.8,1.1-1,1.8c-0.2,0.6-0.2,1.5-0.7,2
				c-0.1,0.1-0.2,0.2-0.2,0.3c0,0.1,0,0.1,0,0.2c-0.1,0.2-0.4,0.2-0.4,0.4c0,0.1,0,0.1,0,0.2s-0.2,0.1-0.3,0.2
				c-0.2,0.2-0.2,0.5-0.3,0.7c-0.1,0.2-0.4,0.3-0.6,0.2c-0.2,0-0.4-0.1-0.6-0.2c-0.1,0-0.1-0.1-0.2-0.1s-0.2,0-0.3,0.1
				c-0.4,0.3-0.7,0.8-0.6,1.4c0,0.5,0.2,1,0.4,1.5c0,0.1,0.1,0.2,0.1,0.2c0.2,0.1,0.4,0.1,0.6,0s0.4-0.2,0.6-0.3
				c0.4-0.1,0.7,0.2,1.1,0.2c0.3,0,0.5-0.2,0.7-0.3c0.4-0.2,0.7-0.5,1-0.8c0.2-0.2,0.3-0.5,0.4-0.7c0.2-0.3,0.4-0.5,0.6-0.8l1.4-1.7
				c0.1-0.2,0.3-0.3,0.4-0.5c0.1-0.2,0.2-0.5,0.3-0.8c0.1-0.4,0.2-0.9,0.3-1.4c0-0.4,0-0.8-0.1-1.1c0-0.4-0.1-0.7-0.3-1.1
				C130.3,121.7,129.6,121.2,129,121.8L129,121.8z"/>
			<path d="M133.8,118.7c0-0.9-0.4-1.7-1.1-2.2c0-1.6-1.2-2.9-2.7-3.1c-0.3-1.5-1.6-2.5-3.1-2.5c-1.5,0-2.8,1.2-3,2.6
				c-1-0.2-1.9,0.1-2.1,0.7s0.5,1.4,1.6,1.7c0.3,0.1,0.7,0.1,1,0.1c0.5,0.7,1.3,1.2,2.1,1.3c0.3,1.2,1.2,2.1,2.3,2.4
				c0.2,0.4,0.4,0.7,0.7,1v0.2c0,0.5,0.2,1,0.6,1.4c0.4,0.4,0.9,0.6,1.4,0.6c1.1,0,2-0.9,2-2l0,0c0-0.3-0.1-0.6-0.2-0.9
				C133.7,119.7,133.8,119.2,133.8,118.7L133.8,118.7z"/>
			<path class="st2" d="M122.6,114.4c0.2-0.6,1.1-0.9,2.1-0.7c0.2-1.5,1.5-2.6,3.1-2.6h0.2c-0.3-0.1-0.6-0.1-0.9-0.1
				c-1.5,0-2.8,1.1-3.1,2.6c-1-0.2-1.9,0.1-2.1,0.7s0.5,1.4,1.6,1.7c0.2,0.1,0.4,0.1,0.6,0.1C123.1,115.7,122.4,115,122.6,114.4z
				 M130.3,121.1c0-0.1,0-0.2,0-0.2c-0.3-0.3-0.6-0.6-0.7-1c-1.2-0.3-2.1-1.2-2.3-2.4c-0.9-0.1-1.6-0.6-2.1-1.3c-0.2,0-0.4,0-0.6,0
				c0.5,0.7,1.2,1.1,2,1.2c0.3,1.2,1.2,2.1,2.3,2.4c0.2,0.4,0.4,0.7,0.7,1v0.2c0,1.1,0.9,2.1,2,2.1
				C130.8,122.7,130.3,122,130.3,121.1z"/>
			<path class="st17" d="M126.9,117.9c0.2-0.1,0.2-0.4,0-0.6s-0.4-0.3-0.6-0.2c-0.2,0.1-0.2,0.4,0,0.6
				C126.4,117.9,126.7,118,126.9,117.9z"/>
			<path class="st8" d="M99.7,101v-3c0-3.3-2.6-5.9-5.9-5.9H81.9c-3.3,0-5.9,2.6-5.9,5.9v3"/>
			<path class="st8" d="M87.8,86.2c3.3,0,5.9-2.6,5.9-5.9s-2.6-5.9-5.9-5.9s-5.9,2.6-5.9,5.9S84.6,86.2,87.8,86.2z"/>
		</g>
	</g>
</g>
</svg>
