<?xml version="1.0" encoding="utf-8"?>
<!-- Generator: Adobe Illustrator 28.0.0, SVG Export Plug-In . SVG Version: 6.00 Build 0)  -->
<svg version="1.1" id="Capa_1" xmlns="http://www.w3.org/2000/svg" xmlns:xlink="http://www.w3.org/1999/xlink" x="0px" y="0px"
	 viewBox="0 0 186 160" style="enable-background:new 0 0 186 160;" xml:space="preserve">
<style type="text/css">
	.st0{clip-path:url(#SVGID_00000156557655778339501300000008257710359773115029_);}
	.st1{fill:#F2F2F2;}
	.st2{fill:#FFFFFF;}
	.st3{fill:#790033;}
	.st4{fill:#333333;}
	.st5{fill:#FFB8B8;}
	.st6{fill:#30D7CF;}
	.st7{fill:#950080;}
	.st8{fill:#380091;}
	.st9{fill-rule:evenodd;clip-rule:evenodd;fill:#380091;}
</style>
<g>
	<defs>
		<rect id="SVGID_1_" x="0.9" width="184.1" height="160"/>
	</defs>
	<clipPath id="SVGID_00000071534976895295215350000018082995386955124886_">
		<use xlink:href="#SVGID_1_"  style="overflow:visible;"/>
	</clipPath>
	<g style="clip-path:url(#SVGID_00000071534976895295215350000018082995386955124886_);">
		<path class="st1" d="M185.1,77.7c0,35.6-31.3,65.6-74,74.8c-7.3,1.6-14.7,2.5-22.1,2.8c-1.8,0.1-3.7,0.1-5.6,0.1
			c-3.3,0-6.5-0.1-9.7-0.3c-1.8-0.1-3.5-0.3-5.2-0.5c-16.9-1.9-32.4-6.9-45.5-14.3c-1.6-0.9-3.2-1.9-4.8-2.9
			c-2.9-1.8-5.6-3.8-8.3-5.9C-7.6,117.5,7,87.7,16.1,69C40.7,18.4,27.2,0,83.4,0S185.1,34.8,185.1,77.7z"/>
		<path class="st2" d="M144.8,32c-17.5-0.3-17.5-26.3,0-26.6C162.3,5.8,162.3,31.7,144.8,32z M111.8,70.7
			c-17.5-0.3-17.5-26.3,0-26.6C129.3,44.5,129.2,70.4,111.8,70.7L111.8,70.7z M146.2,110c-17.5-0.3-17.5-26.3,0-26.6
			C163.7,83.7,163.7,109.7,146.2,110z"/>
		<path class="st3" d="M144.8,32c-17.5-0.3-17.5-26.3,0-26.6C162.3,5.8,162.3,31.7,144.8,32z M144.8,6.3c-16.4,0.3-16.4,24.7,0,25
			C161.2,30.9,161.2,6.6,144.8,6.3z"/>
		<path class="st4" d="M68.4,154.5c0-0.1-0.1-0.3-0.1-0.4l-5.1-28.9c-0.1-1.2-1-2.1-2.2-2.3L32.1,123c-1.1-0.2-2.2,0.4-2.7,1.4
			c-0.5,1-0.9,2-1.4,3c-1.9,4.2-3.6,8.5-5,12.9c13.1,7.4,28.6,12.5,45.5,14.3L68.4,154.5L68.4,154.5z"/>
		<path class="st5" d="M96.6,77.1c-0.1,0.3-0.1,0.6-0.1,0.9L71.6,92.4l-6.1-3.5l-6.4,8.4l10.1,7.2c1.7,1.2,3.9,1.1,5.6-0.1
			l25.7-20.3c3.1,1.2,6.6-0.4,7.8-3.6c0.2-0.5,0.3-0.9,0.3-1.4c0.3-2.5-1-4.9-3.3-6.1c-3-1.5-6.7-0.4-8.2,2.6
			C96.9,76.1,96.7,76.6,96.6,77.1z"/>
		<path class="st6" d="M71.3,90.9c-0.2-0.7-0.6-1.4-1.3-1.8l-11.4-6.4c-3.2-2.4-7.7-1.9-10.1,1.3c-2.4,3.2-1.9,7.7,1.3,10.2l9.1,9.5
			c0.8,0.8,2.1,1,3.1,0.5c0.3-0.2,0.6-0.4,0.9-0.7l1.8-2.3l0.6-0.8l5.7-7.3c0.2-0.3,0.4-0.6,0.4-0.9C71.3,91.7,71.3,91.3,71.3,90.9z
			"/>
		<path class="st5" d="M54.7,71.4c5.6-5.6,5.6-14.6,0-20.1c-5.6-5.6-14.6-5.6-20.1,0c-5.6,5.6-5.6,14.6,0,20.1
			C40.2,77,49.2,77,54.7,71.4z"/>
		<path class="st6" d="M62.7,115.3c0.6-0.9,4.2-6.6,2.8-13.4c-0.1-0.5-0.2-1-0.4-1.5c-0.6-2-1.7-3.9-3-5.6c0-0.5,0-0.9,0-1.3v0
			c-0.4-6.4-5.5-11.5-11.8-11.9l-15.9-1.2c-4.2-0.3-8.2,1.4-10.9,4.6c-0.3,0.4-0.6,0.7-0.8,1.1h0v0l0,0c-2,3.1-2.6,6.9-1.6,10.4
			l0.1,0.6l1.7,7.4l2.8,12.5l2.4,10.4l0.3,1.1c0.3,1.3,1.6,2.2,3,2l30.8-5.1c0.7-0.1,1.3-0.5,1.7-1.1c0.4-0.6,0.5-1.3,0.4-2
			C64.1,122.3,62.7,115.3,62.7,115.3z"/>
		<path class="st5" d="M2,157.3c-1.6-2.3-1.5-5.4,0.3-7.6c0.6-0.7,1.3-1.3,2.1-1.6l17.5-53.9L32.2,99L13,151.5
			c1.1,3-0.1,6.3-2.9,7.8C7.3,160.8,3.8,159.9,2,157.3z"/>
		<path class="st6" d="M32.1,81.4c-3.9-1.2-8,0.9-9.5,4.7h0v0c-0.1,0.2-0.1,0.3-0.2,0.5l-1.5,3.2l-4.5,9.5c-0.7,1.4-0.1,3.1,1.3,3.7
			c0.1,0.1,0.3,0.1,0.4,0.1l0.9,0.3l3.7,1.1l6.7,2l2.2,0.7c1.2,0.4,2.5-0.1,3.1-1.2c0.2-0.3,0.4-0.7,0.4-1.1l2-13.9
			C38.5,86.9,36.2,82.6,32.1,81.4z"/>
		<path class="st4" d="M57.7,56.2c-5.1,4.4-12.9,5.5-18.9,2.5c2.7,3.2,7.9,19.1,7.9,19.1s-14.6-1.5-16.6-2
			c-12.2-2.6-7.7-34.1,5.2-33.9c2.2,0,4.1,0.3,5.6,1.9c1-2.7,4.1-4.3,6.9-4.1c2.9,0.2,5.5,1.9,7.3,4.2c3,3.6,4.2,8.4,3.4,13
			C58.5,56.9,57.7,56.2,57.7,56.2z"/>
		<path class="st7" d="M111.8,70.7c-17.5-0.3-17.5-26.3,0-26.6C129.3,44.5,129.2,70.4,111.8,70.7L111.8,70.7z M111.8,45
			c-16.4,0.3-16.4,24.7,0,25C128.2,69.6,128.2,45.2,111.8,45z M146.2,110c-17.5-0.3-17.5-26.3,0-26.6
			C163.7,83.7,163.7,109.7,146.2,110z M146.2,84.2c-16.4,0.3-16.4,24.7,0,25C162.6,108.9,162.6,84.5,146.2,84.2z"/>
		<path class="st8" d="M147.6,11.9c-3.3,0.1-9.6-1.1-9.6,4c0.1,3.3-1.1,9.6,4,9.7c3.3-0.1,9.6,1.1,9.6-4
			C151.5,18.3,152.7,11.9,147.6,11.9L147.6,11.9z"/>
		<path class="st2" d="M148.5,15.9c-1.1,0-1.1-1.7,0-1.7C149.6,14.2,149.6,15.9,148.5,15.9z M144.8,16.5c2.9,0,2.9,4.6,0,4.5
			C141.9,21.1,141.9,16.4,144.8,16.5L144.8,16.5z M144.8,15.3c-4.4-0.1-4.4,6.9,0,6.8C149.2,22.2,149.2,15.3,144.8,15.3z"/>
		<path class="st3" d="M122.3,99c-0.2,0-0.3-0.1-0.4-0.2c-0.1-0.1,0-0.3,0.1-0.4l1.3-1.4c0.1-0.1,0.1-0.2,0-0.3l-1.4-1.3
			c-0.1-0.1-0.2-0.3-0.1-0.4c0.1-0.2,0.3-0.3,0.5-0.2c0,0,0.1,0,0.1,0.1l1.9,1.8c0.1,0.1,0.1,0.2,0.1,0.3c0,0.1,0,0.2-0.1,0.3
			l-1.8,1.9C122.5,98.9,122.4,99,122.3,99z M120.8,96.9c0,0-0.1,0.1-0.2,0.1l-4.5,0.1c-0.1,0-0.2-0.1-0.2-0.1c0,0,0-0.1,0-0.1
			c0-0.1,0-0.1,0.1-0.2c0,0,0.1-0.1,0.2-0.1l4.5-0.1c0.1,0,0.2,0.1,0.2,0.2C120.9,96.7,120.9,96.8,120.8,96.9z M87.8,59.7
			c-0.2,0-0.4-0.2-0.4-0.4c0-0.1,0-0.2,0.1-0.3l1.3-1.4c0.1-0.1,0.1-0.2,0-0.3c0,0,0,0,0,0l-1.4-1.3c-0.2-0.2-0.1-0.4,0-0.6
			c0.2-0.1,0.4-0.1,0.5,0l1.9,1.8c0.2,0.1,0.2,0.4,0,0.6c0,0,0,0,0,0l-1.8,1.9C88,59.6,87.9,59.7,87.8,59.7z M86.3,57.6
			c0,0-0.1,0.1-0.2,0.1l-4.5,0.1c-0.1,0-0.2-0.1-0.3-0.2c0-0.1,0.1-0.2,0.2-0.3l0,0l4.5-0.1c0.1,0,0.2,0.1,0.3,0.2
			C86.4,57.5,86.4,57.6,86.3,57.6L86.3,57.6z M120.8,21c-0.2,0-0.3-0.1-0.4-0.2c-0.1-0.1,0-0.3,0.1-0.4l1.3-1.4
			c0.1-0.1,0.1-0.2,0-0.3c0,0,0,0,0,0l-1.4-1.3c-0.1-0.1-0.2-0.3-0.1-0.4c0.1-0.2,0.3-0.3,0.5-0.2c0,0,0.1,0,0.1,0.1l1.9,1.8
			c0.1,0.1,0.2,0.3,0.1,0.4c0,0,0,0.1-0.1,0.1l-1.8,1.9C121,20.9,120.9,21,120.8,21z M119.3,18.9c0,0-0.1,0.1-0.2,0.1l-4.5,0.1
			c-0.1,0-0.2-0.1-0.2-0.1c0-0.1,0-0.1,0-0.2c0-0.1,0.1-0.1,0.1-0.1c0,0,0.1,0,0.1,0l4.5-0.1c0.1,0,0.2,0.1,0.2,0.2
			C119.4,18.8,119.4,18.9,119.3,18.9z"/>
		<path class="st2" d="M116.2,146.6c-1.2,2.4-3,4.3-5.2,6c-7.3,1.6-14.7,2.5-22.1,2.8c-1.8,0.1-3.7,0.1-5.6,0.1
			c-3.3,0-6.5-0.1-9.7-0.3c-0.1-0.7-0.1-1.5-0.1-2.2c0.4-2.9,2.5-5.5,5.4-6.1c2.8-0.6,6.1,1.1,6.9,3.9c0.5-5.3,1-10.9,3.9-15.5
			c2.6-4.1,7-7.1,11.8-7.6c2.8-0.3,5.7,0.2,8.2,1.5c1.8,0.9,3.4,2.2,4.7,3.8C117.6,136.7,118.3,142.2,116.2,146.6L116.2,146.6z"/>
		<path class="st1" d="M110.6,129.5c0,0.1,0,0.3-0.2,0.3c-8.5,7-15.5,15.7-20.5,25.5c-0.3,0-0.7,0-1,0c0.4-0.9,0.9-1.8,1.4-2.6
			c2.4-4.5,5.3-8.8,8.6-12.7c3.3-4,6.9-7.6,10.9-10.8c0,0,0.1,0,0.1-0.1c0.3-0.1,0.6,0,0.7,0.3C110.6,129.4,110.6,129.4,110.6,129.5
			z"/>
		<path class="st8" d="M153.4,93.4c0,0-1.1,1.3-1.3,1.3c-0.6,6.5-4.6,8-7.9,8c-2.3,0-4.3-0.8-4.2-1c3.5,0.1,3.8-1.3,3.8-1.3
			c-2-0.3-2.4-1.6-2.4-1.6c0.4,0.2,0.8,0.1,1.1-0.3c-2.2-0.6-1.9-2.7-1.9-2.7c0.4,0.3,0.8,0.5,1.3,0.5c-0.2-0.3-2.3-2.7-1.1-4
			c0.1,0.2,2.2,3.1,5.7,2.9c-0.3-1.5,0.7-3,2.2-3.4c0.2,0,0.4-0.1,0.6-0.1c1.9,0,2.3,1.1,2.3,1.1l1.3-0.8c0,0-0.2,1.3-0.8,1.6
			L153.4,93.4L153.4,93.4z"/>
		<path class="st9" d="M119.1,57.5c0,3.6-2.6,6.7-6.2,7.3v-5.2h1.7l0.3-2.1h-2c-0.1-1.8-0.1-2.8,2.1-2.5v-1.8
			c-3.4-0.8-4.8,1-4.4,4.4h-1.9v2.1h1.9v5.2c-8.8-1.4-7.8-14.7,1.2-14.7C115.8,50.1,119.1,53.4,119.1,57.5
			C119.1,57.5,119.1,57.5,119.1,57.5z"/>
	</g>
</g>
</svg>
