<?xml version="1.0" encoding="utf-8"?>
<!-- Generator: Adobe Illustrator 28.0.0, SVG Export Plug-In . SVG Version: 6.00 Build 0)  -->
<svg version="1.1" id="Capa_1" xmlns="http://www.w3.org/2000/svg" xmlns:xlink="http://www.w3.org/1999/xlink" x="0px" y="0px"
	 viewBox="0 0 833.7 554" style="enable-background:new 0 0 833.7 554;" xml:space="preserve">
<style type="text/css">
	.st0{fill:#F2F2F2;}
	.st1{fill:#E6E6E6;}
	.st2{fill:#30D7CF;}
	.st3{fill:#FFFFFF;}
	.st4{fill:#950080;}
	.st5{fill:#FFB6B6;}
	.st6{fill:#0B0B0C;}
	.st7{fill:#FF007C;}
	.st8{fill:#3F3D56;}
	.st9{fill:#FFB8B8;}
	.st10{fill:#790033;}
	.st11{fill:#2F2E41;}
</style>
<g>
	<circle class="st0" cx="512.4" cy="148.9" r="36"/>
	<circle class="st0" cx="298.4" cy="82.9" r="30"/>
	<circle class="st0" cx="200.4" cy="366.9" r="30"/>
	<path class="st1" d="M169.9,412.9c8.7,10.3,18.1,84.6,28.1,93.5l470.6,1c10-9,19.4-83.2,28.1-93.5L169.9,412.9L169.9,412.9z"/>
	<path d="M316.6,325.6v102.6h71.8V325.6c0-1.5-1-2.9-2.4-3.3c-0.3-0.1-0.7-0.2-1-0.2h-64.9C318.2,322.2,316.6,323.7,316.6,325.6
		L316.6,325.6z M344.6,360.9c0-4.2,3.5-7.6,7.7-7.6s7.6,3.4,7.6,7.6v11.9c0,4.2-3.5,7.7-7.7,7.6c-4.2,0-7.6-3.4-7.6-7.6V360.9z"/>
	<path d="M203.6,171.1v187.3c0,5,4,9,9,9h277.5c5,0,9-4,9-9V171.1c0-5-4-9-9-9H212.6C207.6,162.1,203.6,166.2,203.6,171.1z"/>
	<path class="st2" d="M210.1,173.5v182.6c0,2.7,2.2,4.8,4.8,4.8h272.9c2.7,0,4.8-2.2,4.8-4.8V173.5c0-2.7-2.2-4.8-4.8-4.8H214.9
		C212.2,168.6,210.1,170.8,210.1,173.5z"/>
	<path d="M265.7,439.1c0.6,0.7,1.4,1.1,2.3,1.1h162.3c1.6,0,3-1.3,3-3c0-0.2,0-0.4-0.1-0.6l-2.5-12c-0.2-1-0.9-1.8-1.9-2.2
		c-0.3-0.1-0.7-0.2-1.1-0.2H270.5c-0.4,0-0.7,0.1-1.1,0.2c-0.9,0.4-1.6,1.2-1.9,2.2l-2.5,12C264.9,437.5,265.2,438.4,265.7,439.1z"
		/>
	<path class="st3" d="M223.7,193.8H479c0.6,0,1-0.5,1-1s-0.4-1-1-1H223.7c-0.6,0-1,0.5-1,1S223.1,193.8,223.7,193.8z"/>
	<path class="st4" d="M795.9,392.2v-0.1c-0.4-1-0.8-2.1-1.4-3c-2.9-5.5,0.2-13.9-3.1-23.2c-5.3-15-11.8-23.9-21.2-31.9
		c-0.3-0.2-0.6-0.5-0.8-0.7l0,0c-6.3-5.2-13.9-10-23.4-16.1c-2-1.3-8.8,2.4-8.6-3.9c0.2-6.9,0.4-14.1-3-18.6l-0.2-0.3l-0.4-0.1
		c-11.7-2.3-23.5-3.2-35.4-2.7l0,0c-5,0.2-10,0.9-14.9,2.2c-0.4,0.1-0.7,0.2-1.1,0.3c-0.3,0.1-0.5,0.2-0.8,0.2l-0.2,0.1l-0.2,0.2
		c-3.3,3.3-4,9.2-4.4,15.3l0,0c-0.1,1.1-0.1,2.2-0.2,3.4c-0.3,6-14.7,10.8-20.2,13.5c-10.3,5.1-8.8,17-8.9,17
		c0,0-17.4,35.7-17.6,71.8c0,2,0,4,0,6.1c-0.1,16.8-0.4,33.9-1.7,49.5c-0.6,6.7-1.3,13.1-2.2,19.1c-4.6,29.2-25.5,5-35.6,24.4
		c0.3,1.9,0.9,3.8,1.7,5.5c1.2,0.7,2.3,1.3,3.5,2c5.2,2.9,10.5,5.6,15.9,8.1c0.3,0.1,0.6,0.3,0.9,0.4c9.9,4.6,20.1,8.5,30.5,11.6
		c2,0.6,4.1,1.2,6.1,1.8c18.1,5,36.8,7.8,55.6,8.3c0.1,0,0.2,0,0.2,0c22.2-0.6,44.3-3.8,65.8-9.5c0.3-0.1,0.6-0.2,0.9-0.2
		c1.4-0.4,2.8-0.8,4.2-1.2c12.4-3.5,24.5-7.9,36.3-13c0,0.4,0.1,0.9,0.1,1.3c0,0.1,0,0.3,0.1,0.4c0-0.2,0-0.3,0-0.5
		c0.1-0.5,0.1-1,0.2-1.4C818.4,468.7,805.7,418,795.9,392.2z"/>
	<circle class="st5" cx="707.4" cy="228.4" r="58.1"/>
	<path class="st6" d="M711.7,287.5c8.9-1.6,17.6-3.9,26-7c8.3-3.4,24.9-21.4,28.6-31l0,0c2.8-7.1,3.4-17.5,3.4-25
		c0.2-20-8.1-39.1-22.8-52.7c-2.8-2.8-6.4-4.8-10.3-5.8c-0.3-0.1-0.7-0.1-1-0.1c-5.5-0.4-10.7-2.3-15.1-5.7
		c-0.8-0.7-1.7-1.3-2.7-1.9c-4.7-2.6-9.9-4.1-15.2-4.3c-8.7-0.6-20.2,3.9-34.2,13.4c-7,4.8-15.7,5.2-22.4,5.1
		c-0.8,0-1.5,0.4-1.9,1.1c-2.2,3.1-5.6,5.3-9.4,6c-2.3,0.6-4.1,4.2-6.2,9c-0.5,1.1-1,2.3-1.5,3.1l-0.3-1.3l-1,1.7
		c-5.3,8.7-2.5,20.1,6.2,25.4c2.3,1.4,5,2.3,7.7,2.6c2.4,0.2,4.9,0.1,7.3-0.3c1.5-0.2,3-0.3,4.5-0.3c9.8,0.1,18.8,5.3,23.8,13.8
		c2.1,3.5,6.5,4.6,10,2.5c0.5-0.3,1-0.7,1.5-1.2c2.6-3,6.5-4.5,10.4-4.1c1.7,0.6,3.2,1.7,4.2,3.3c1.2,1.7,2.8,3,4.8,3.8
		c6.4,1.9,9.5,15.2,9.5,26.7c0.1,11.1-2.4,19.7-6.1,20.8c-2.8,0.9-3.1,1.1-3.2,1.7l-0.1,0.5l0.4,0.4
		C708.3,288.1,710.1,288,711.7,287.5z"/>
	<ellipse cx="506.2" cy="460.6" rx="20.1" ry="6.4"/>
	<ellipse cx="506.2" cy="456.3" rx="20.1" ry="6.4"/>
	<path d="M502.7,460.7h3l-0.8-56c-0.2-18.6,9.4-35.9,25.4-45.5l57.3-34.2l-1.5-2.6l-57.3,34.2c-16.9,10.1-27.1,28.4-26.8,48.1
		L502.7,460.7z"/>
	<path class="st7" d="M586,350.1L586,350.1c-4,0-7.3-3.3-7.3-7.3v-45.4c0-4,3.3-7.3,7.3-7.3l0,0c4,0,7.3,3.3,7.3,7.3v45.4
		C593.2,346.9,590,350.1,586,350.1z"/>
	<path class="st5" d="M490.7,384.6c2.5,9.2,12.1,14.7,21.3,12.1c1-0.3,1.9-0.6,2.9-1.1l43.2,43.9l6.7-31.3l-42-36.9
		c-4.7-8.4-15.3-11.4-23.7-6.7C492,368.6,488.6,376.8,490.7,384.6L490.7,384.6L490.7,384.6z"/>
	<path class="st4" d="M716.3,338.7l-0.3-0.2l-31.5-10.8c-8.1-2.8-17-2-24.4,2.3c-1.7,1-3.3,2.1-4.8,3.4l0,0
		c-4.9,4.3-8.3,10-9.7,16.4l-16.5,78.5l-33.3-17.9l-13.5-3.2L570,394.8l-30.8-12.5l-1.7,2L522,402.8l-1.2,1.5l34.1,49.4l15.3,1.7
		l4.3,7.6l0.3,0.1l12.5,5.7l53.5,24.1l25.9-19.8l4.1-3.1c33.5-31,49.2-56,55.7-75c3.5-10,4.4-18.4,4-25.2
		C729.4,348.8,716.8,339.1,716.3,338.7z"/>
	<path class="st8" d="M745.9,357.9h-15c-43.4,0-78.5,35.1-78.5,78.5l0,0c-14,17.3-13.1,39,0,64.4l-43-17.9
		c-6.1-2.5-13.1,0.4-15.7,6.5c-2.5,6.1,0.4,13.1,6.4,15.7l52.2,21.8v4.1c0,12.7,10.3,23,23,23h126c12.7,0,23-10.3,23-23
		c9.3-34.3,15.2-67.5,0-94.5C824.4,393,789.3,357.9,745.9,357.9z"/>
	<path class="st9" d="M78.7,407.6c-1,0-1.9,0.1-2.9,0.3L59.9,307.2l15.9-96.9c2.2-13.3-6.8-25.9-20.1-28c-12-2-23.6,5.2-27.3,16.8
		l0,0c-6,19.1-8.9,39-8.8,59.1l0.6,66.1l42.4,101.5c1.1,8.9,9.1,15.2,18,14.1s15.2-9.1,14.1-18C93.8,413.7,86.9,407.6,78.7,407.6
		L78.7,407.6z"/>
	<path class="st10" d="M49.5,175.8c-21.2,0-38.4,17.2-38.4,38.4L19,293l0.7,7.1h0.4l27.4,1.4l0,0l13.3,0.7l2.3,0.1l2.6-9.2L88,214.3
		C87.9,193,70.7,175.8,49.5,175.8z"/>
	<path class="st11" d="M50.7,554l-12.6-38.7c0,0-23.1-23.5,6.5-85.8c0.6-1.4,1.3-2.8,2-4.2c1.2-2.5,2.6-5,4-7.7
		c2.1-3.8,4.3-7.7,6.8-11.8l2.2,0.4l2.1,0.4l7.2,1.3l0,0l105,18.5c0,0-1.9,8.6-3,17.9c-0.8,7.6-1.1,15.3,0.9,18.5
		c4.2,7.3-1.5,26.9-1.5,26.9s0.3,1.9,0.9,5.3l0,0c0.5,3.3,1.3,7.9,2.1,13.5c0,0.4,0.1,0.8,0.1,1.1c1.3,9.1,2.9,20.6,4.3,32.9
		c0.4,3.8,0.9,7.6,1.3,11.5C179.2,554,50.7,554,50.7,554z"/>
	<path class="st10" d="M20.8,196.2c2.6-7.3,8.8-12.7,16.3-14.4c5.5-1.6,11.2-2.2,16.9-1.9c16.7,0.7,12.5-36.8,29.1-34.4
		c0,0,15.6-5.6,27.8,4.6c11.1,9.3,18.7,34.4,21.6,33c0.6-0.3,2.1-0.3,4.1,0c23.7,3.1,40.8,24.4,39.4,48.3l-1.2,20.4
		c0,0,8.5,12.8-3.8,35.5L155.3,357c0,0,39,77.2,21,93s-88.4-8.9-88.4-8.9s-39.5-12.2-47.8-17.5C22.5,412.5,45,387,58.9,388.2
		c0.7-3-0.2-6.1-2.5-8.1c-3.8-2.5,0.5-8,0.8-8.5c-0.4,0.4-3.3,3.4-5.5-3s4.6-14.5,4.6-14.5l-19.4-41.7l-15.2-32.9l-1.9-3.8l3.2-20.5
		l-0.3-0.6c-6.8-14.1-8.3-30.2-4.2-45.3C20,203.7,21,198.6,20.8,196.2z"/>
	<path class="st11" d="M179.2,554h-6.7c1.9-4,3.7-7.8,5.4-11.5C178.3,546.3,178.8,550.1,179.2,554z"/>
	<path class="st9" d="M310.3,321.1c-0.6,0.8-1.1,1.6-1.6,2.5l-89.3-49.1l-66.9-71.9c-9.2-9.9-24.6-10.4-34.5-1.3
		c-8.9,8.3-10.4,21.9-3.4,31.8l0,0c11.5,16.4,25.4,31,41.3,43.1l52.6,40l106.2,28.6c7.7,4.6,17.6,2.1,22.2-5.6s2.1-17.6-5.6-22.2
		C324.4,312.9,315.3,314.6,310.3,321.1z"/>
	<path class="st10" d="M189.4,301.6l26.5-30.9l1.5-1.7l-54.3-73.6c-2.3-1.8-4.9-3.4-7.6-4.6l0,0c-19.3-8.8-42.1-0.2-50.8,19.1
		C97.2,226,102,245.1,116,256l15.9,9.9l57.2,35.9L189.4,301.6z"/>
	<path class="st5" d="M141.8,111.9c-13.5,24.8-44.6,33.9-69.3,20.3S38.6,87.6,52.1,62.9S96.7,29,121.5,42.6
		c10.4,5.7,18.5,14.8,22.9,25.8c0.2,0.6,0.4,1.2,0.7,1.8C150,83.9,148.8,99.1,141.8,111.9z"/>
	<path class="st6" d="M149.1,70.2c-2.2-6.2-1.2-2.9-3.5-9.1c1.5,5.4-0.8,8.5-0.6,9.1H84.2V34.8c17.8-7.1,35.2-13.1,45.8,0
		c19.5,0,35.4,15.8,35.4,35.4C165.3,70.2,149.1,70.2,149.1,70.2z"/>
	<path class="st6" d="M127.6,168.5c0-0.7-0.1-1.3-0.2-2c-0.8-4.8-2.1-9.5-4-14c-1.8-4.9-3.5-9.9-5.3-14.8c2.3,9,1.6,18.4-2,26.9
		c-10.3-8-3.8-26.3-17.2-26.3c-32.3,0-65.5-26.2-65.5-58.5s13.8-56.4,46.1-56.4s58.5,14.8,59.1,47.1
		C98.9,79.8,135.1,165.2,127.6,168.5z"/>
	<circle class="st6" cx="37.4" cy="37.4" r="37.4"/>
	<ellipse class="st3" cx="234.7" cy="180.3" rx="4.5" ry="4.6"/>
	<ellipse class="st3" cx="250.3" cy="180.3" rx="4.5" ry="4.6"/>
	<ellipse class="st3" cx="265.9" cy="180.3" rx="4.5" ry="4.6"/>
	<path class="st3" d="M283.7,184c-0.1,0-0.3-0.1-0.4-0.2l-3-3.1c-0.2-0.2-0.2-0.5,0-0.7l3-3.1c0.2-0.2,0.5-0.2,0.8,0
		c0.2,0.2,0.2,0.5,0,0.8l-2.7,2.7l2.7,2.7c0.2,0.2,0.2,0.5,0,0.8C284,183.9,283.9,184,283.7,184L283.7,184z"/>
	<path class="st3" d="M288.9,184c-0.1,0-0.3-0.1-0.4-0.2c-0.2-0.2-0.2-0.5,0-0.8l2.7-2.7l-2.7-2.7c-0.2-0.2-0.2-0.5,0-0.8
		c0.2-0.2,0.5-0.2,0.8,0l3,3.1c0.2,0.2,0.2,0.5,0,0.7l-3,3.1C289.1,183.9,289,184,288.9,184L288.9,184z"/>
	<path class="st3" d="M458.3,176.2h-5.7c-0.6,0-1.2,0.5-1.2,1.2v5.7c0,0.6,0.5,1.2,1.2,1.2h5.7c0.6,0,1.2-0.5,1.2-1.2v-5.7
		C459.5,176.7,459,176.2,458.3,176.2z"/>
	<path class="st3" d="M444.4,176.2h-5.7c-0.6,0-1.2,0.5-1.2,1.2v5.7c0,0.6,0.5,1.2,1.2,1.2h5.7c0.6,0,1.2-0.5,1.2-1.2v-5.7
		C445.6,176.7,445.1,176.2,444.4,176.2z"/>
	<path class="st3" d="M471.4,176.5h-5.7c-0.6,0-1.2,0.5-1.2,1.2v5.7c0,0.6,0.5,1.2,1.2,1.2h5.7c0.6,0,1.2-0.5,1.2-1.2v-5.7
		C472.6,177,472,176.5,471.4,176.5z"/>
	<path class="st3" d="M377.2,178.6h-49.9c-0.8,0-1.4,0.6-1.4,1.4s0.6,1.4,1.4,1.4h49.9c0.8,0,1.4-0.6,1.4-1.4S378,178.6,377.2,178.6
		z"/>
</g>
</svg>
