<?xml version="1.0" encoding="utf-8"?>
<!-- Generator: Adobe Illustrator 28.0.0, SVG Export Plug-In . SVG Version: 6.00 Build 0)  -->
<svg version="1.1" id="Capa_1" xmlns="http://www.w3.org/2000/svg" xmlns:xlink="http://www.w3.org/1999/xlink" x="0px" y="0px"
	 viewBox="0 0 217 227" style="enable-background:new 0 0 217 227;" xml:space="preserve">
<style type="text/css">
	.st0{clip-path:url(#SVGID_00000087400882759366069200000008671874939358289562_);}
	.st1{opacity:0.7;fill:url(#SVGID_00000179611448252265442530000013108505294377388478_);enable-background:new    ;}
	.st2{fill:#571AFF;}
	.st3{fill:#790033;}
	.st4{opacity:0.1;enable-background:new    ;}
	.st5{fill:#EEEEEE;}
	.st6{fill:none;stroke:#E0E0E0;stroke-width:8;stroke-miterlimit:10;}
	.st7{opacity:0.7;fill:url(#SVGID_00000027578795055640973290000010193921396836933001_);enable-background:new    ;}
	.st8{fill:none;stroke:#BDBDBD;stroke-width:5;stroke-miterlimit:10;}
	.st9{fill:#170042;}
	.st10{fill:#380091;}
	.st11{fill:#F4F4F4;}
	.st12{fill:#0C0C0C;}
	.st13{opacity:5.000000e-02;enable-background:new    ;}
	.st14{fill:#FDA57D;}
	.st15{fill:url(#SVGID_00000111153109718964050020000010981901621516540047_);}
	.st16{fill:#E0E0E0;}
	.st17{fill:#535461;}
	.st18{opacity:0.7;fill:url(#SVGID_00000147918555040099788130000007303217206384251326_);enable-background:new    ;}
	.st19{fill:#3E3F49;}
</style>
<g>
	<g>
		<defs>
			<rect id="SVGID_1_" width="217" height="227"/>
		</defs>
		<clipPath id="SVGID_00000153703143628421606730000002527574786114675848_">
			<use xlink:href="#SVGID_1_"  style="overflow:visible;"/>
		</clipPath>
		<g style="clip-path:url(#SVGID_00000153703143628421606730000002527574786114675848_);">
			
				<linearGradient id="SVGID_00000165205913356128753630000007845586657579988612_" gradientUnits="userSpaceOnUse" x1="189.7" y1="953.6" x2="189.7" y2="935.1" gradientTransform="matrix(1 0 0 1 0 -852)">
				<stop  offset="0" style="stop-color:#808080;stop-opacity:0.25"/>
				<stop  offset="0.535" style="stop-color:#808080;stop-opacity:0.12"/>
				<stop  offset="1" style="stop-color:#808080;stop-opacity:0.1"/>
			</linearGradient>
			<path style="opacity:0.7;fill:url(#SVGID_00000165205913356128753630000007845586657579988612_);enable-background:new    ;" d="
				M195.8,86.4v-3.3h-16.5v15.3c0,1.8,1.4,3.2,3.2,3.2l0,0h10.1c1.8,0,3.2-1.4,3.2-3.2V95c2.4,0,4.3-1.9,4.3-4.3
				C200.1,88.3,198.2,86.4,195.8,86.4L195.8,86.4L195.8,86.4z M195.8,93.3V88c1.5,0,2.6,1.2,2.6,2.6c0,0.7-0.3,1.4-0.8,1.9
				C197.2,93.1,196.5,93.3,195.8,93.3z"/>
			<path class="st2" d="M195.3,86.9c-2.2,0-4,1.7-4,3.9c0,2.2,1.7,4,3.9,4h0.1c2.2,0,3.9-1.8,3.9-3.9
				C199.2,88.7,197.4,86.9,195.3,86.9L195.3,86.9z M195.3,93.3c-1.3,0-2.4-1.1-2.4-2.4s1.1-2.4,2.4-2.4s2.4,1.1,2.4,2.4
				S196.6,93.3,195.3,93.3z"/>
			<path class="st3" d="M195.3,86.9c-2.2,0-4,1.7-4,3.9c0,2.2,1.7,4,3.9,4h0.1c2.2,0,3.9-1.8,3.9-3.9
				C199.2,88.7,197.4,86.9,195.3,86.9L195.3,86.9z M195.3,93.3c-1.3,0-2.4-1.1-2.4-2.4s1.1-2.4,2.4-2.4s2.4,1.1,2.4,2.4
				S196.6,93.3,195.3,93.3z"/>
			<path class="st3" d="M180.2,83.9h15.1v13.9c0,1.6-1.3,3-3,3l0,0h-9.2c-1.6,0-3-1.3-3-3L180.2,83.9L180.2,83.9z"/>
			<path class="st4" d="M192.6,83.9v14c0,1.6-1.3,2.9-2.9,2.9l0,0h1.5c1.6,0,2.9-1.3,2.9-2.9l0,0v-14H192.6z"/>
			<path class="st5" d="M183.1,72.7c-0.3,0-0.5,0.1-0.7,0.3c-0.2,0.4,0.2,0.8,0.5,1c0.6,0.5,1.2,0.9,1.7,1.5
				c0.4,0.6,0.5,1.5,0.1,2.1c-0.6,0.8-2,1-2.1,1.9c-0.1,0.6,0.5,1.2,1,1.5c1.4,0.8,3.1,1,4.1,2.2c0.4-0.8,1.3-1.3,2.2-1.5
				s1.9-0.2,2.8-0.3c0.3,0,0.6-0.2,0.8-0.4c0.3-0.5-0.5-1.1-0.2-1.7c0.2-0.4,0.8-0.4,1.2-0.5c0.7-0.3,1-1.1,0.8-1.8
				c-0.2-0.7-0.7-1.2-1.3-1.7c-1.5-1.2-3.4-1.9-5.2-2.4c-0.9-0.2-1.9-0.6-2.8-0.6C185,72.2,184,72.5,183.1,72.7L183.1,72.7z"/>
			<path class="st6" d="M77.2,104.4l-31.6,98.3"/>
			
				<linearGradient id="SVGID_00000160879900571557130630000016363354130891336832_" gradientUnits="userSpaceOnUse" x1="53.2" y1="187924" x2="53.2" y2="18079.5938" gradientTransform="matrix(1 0 0 1 0 -852)">
				<stop  offset="0" style="stop-color:#808080;stop-opacity:0.25"/>
				<stop  offset="0.535" style="stop-color:#808080;stop-opacity:0.12"/>
				<stop  offset="1" style="stop-color:#808080;stop-opacity:0.1"/>
			</linearGradient>
			<path style="opacity:0.7;fill:url(#SVGID_00000160879900571557130630000016363354130891336832_);enable-background:new    ;" d="
				M101.6,213.7c-3.9,0.2-7.3,3.5-7.3,3.5l-1.7-4.1h-0.1c0.8-3.6,17.4-77.3,0.8-83.6c-12.8-4.9-26.4-10.9-37-10.7v-17.4h14.9v-0.6
				H83c2.3-1.6-1-2.7-4.7-3.4c0.2-0.2,0.3-0.4,0.4-0.6l18.9-33.9c0,0,4.3-7.1,1.6-10.5c-2.8-3.4-6.8,8.7-6.8,8.7L76.8,83.4
				c0,0-15.7-16.3-25.6-24.4c-1.1-1.1-2.4-2-3.7-2.8c-1.8-1.2-3.2-1.9-3.9-1.6l0,0C42.1,54.2,40.5,54,39,54h-1.2v-2.5
				c5.6-1.9,10.1-6.1,12.3-11.7c3.5-5.9,4.2-13.1,1.8-19.5c0.2,0,0.4-0.1,0.5-0.2c0.6-0.4,0.6-1.2,0.6-1.8c-0.4-4.5-3-8.6-7-10.8
				c-1.6-0.9-3.4-1.5-4.5-2.8c-1-1.2-1.4-2.8-2.6-3.8c-1.4-1.1-3.5-0.9-5.3-0.4c-2,0.6-3.8,1.4-5.5,2.6c-1.9,1.3-3.6,3-5.8,3.7
				c-1.6,0.5-3.2,0.5-4.8,1c-2.4,0.8-4.4,2.6-5.2,5.1c-0.4,1.3-0.5,2.6-0.4,4c-1,1.6-1.7,3.3-2.2,5.1c-0.1,0.1-0.2,0.1-0.4,0.2
				L9.6,22c-2.4,8.2,0,17,6.3,22.8c2.4,3.2,5.8,5.5,9.5,6.8v3.1c-2.7,0.6-5.3,1.6-7.6,3.1l0,0c0,0-0.2,0.1-0.5,0.3L17,58
				c-2.3,1.6-10,7.3-9.7,13.4c0,0.2,0,0.5,0,0.7c-0.4,1.8-0.6,3.6-0.6,5.4v44.6c0,4.9,1.7,9.7,4.7,13.6c-6.5,1.5-10.6,3.6-10.6,6.1
				c0,0.2,0,0.4,0,0.6c0,4.4,13.1,7.9,29.2,7.9c1.9,0,3.9-0.1,5.7-0.2L53.8,165l-29.2,46.9c0,0-9.6,7.4-2.2,9.9
				c7.5,2.5,22.7,4.3,22.7,4.3s2.5-4.3-0.9-6.2s-8.1-0.9-8.1-0.9l0.6-3.7c0,0,50.6-43.4,40-58.3c-2-2.8-4-5.8-6.1-8.7l8,0.7
				l1.8,68.2l0.2-0.1c-0.5,1.3-3.7,11.4,3.5,9.7c7.6-1.8,21.5-8.3,21.5-8.3S105.5,213.5,101.6,213.7L101.6,213.7z M71.2,96.4
				l-14.9-4.3V79.3l16.2,17.2C71.7,96.4,71.2,96.4,71.2,96.4z"/>
			<path d="M31.3,51.9c12.1,0,21.9-9.8,21.9-21.8S43.4,8.2,31.3,8.2S9.5,18,9.5,30S19.3,51.9,31.3,51.9z"/>
			<path class="st3" d="M56.2,80.1l16.7,17.7c1.2,1.3,3.3,1.4,4.6,0.1c0.2-0.2,0.4-0.5,0.6-0.8L96.6,64l-5.2-1.8L76.3,84
				c0,0-28.5-29.7-32.5-28.2S56.2,80.1,56.2,80.1L56.2,80.1z"/>
			<path class="st8" d="M24.4,141.4l-24.6,63.7 M36.5,141.4l24.6,63.7"/>
			<path class="st9" d="M30.4,149.6c15.8,0,28.5-3.5,28.5-7.7s-12.8-7.7-28.5-7.7c-15.8,0-28.5,3.5-28.5,7.7S14.7,149.6,30.4,149.6
				L30.4,149.6z"/>
			<path class="st10" d="M30.4,149c15.8,0,28.5-3.5,28.5-7.7s-12.8-7.7-28.5-7.7c-15.8,0-28.5,3.5-28.5,7.7S14.7,149,30.4,149
				L30.4,149z"/>
			<path class="st8" d="M18.4,155.4l26.9,8.3 M42.4,155.4l-26.9,8.3"/>
			<path class="st11" d="M30.8,55.2h8.5c4.5,0,8.8,1.8,12,5s5,7.5,5,12v44.9H7.7V78.3c0-6.1,2.4-12,6.8-16.3
				C18.8,57.7,24.6,55.2,30.8,55.2L30.8,55.2z"/>
			<path class="st12" d="M7.7,117.1h48.6v26.4h-27c-5.7,0-11.2-2.3-15.2-6.3s-6.3-9.5-6.3-15.2C7.7,122,7.7,117.1,7.7,117.1z"/>
			<path class="st13" d="M8.3,73.4L38,101.6h32.8v-4.2l-28.2-8.2L18.4,59.4C18.4,59.4,7.5,66.2,8.3,73.4L8.3,73.4z"/>
			<path class="st3" d="M8.3,72.8L38,101h32.8v-4.2l-28.2-8.2L18.4,58.8C18.4,58.8,7.5,65.6,8.3,72.8L8.3,72.8z"/>
			<path class="st14" d="M70.8,96.8c0,0,15.8,1.2,11.5,4.2H70.8V96.8z M91.4,62.2c0,0,3.9-11.8,6.7-8.5C100.9,57,96.6,64,96.6,64
				L91.4,62.2L91.4,62.2z"/>
			<path class="st13" d="M7.7,117.1v1.4l48.6,0.1v-1.5H7.7z"/>
			<path class="st12" d="M45.4,145.2l32.7,3l1.8,66.7l11.7-3.8c0,0,17.5-75.5,0.8-81.9c-16.7-6.4-34.7-14.8-45.5-7.9
				C36.2,128,45.4,145.2,45.4,145.2z"/>
			<path class="st4" d="M47.4,124.7c0,0,17.9,9.1,20.3,19.4L47.4,124.7L47.4,124.7z"/>
			<path class="st12" d="M28.3,143.2l25.5,20.6l-28.5,45.8l11.8,3.3c0,0,49.5-42.5,39.2-57C66,141.3,55.7,124.3,42.9,124
				C30.1,123.8,28.3,143.2,28.3,143.2L28.3,143.2z"/>
			<path class="st13" d="M68.4,76.2l6.4,10.9l1.5-3L68.4,76.2z"/>
			<path class="st12" d="M25.3,209.6c0,0-9.4,7.3-2.1,9.7s22.2,4.2,22.2,4.2s2.4-4.2-0.9-6.1c-3.3-1.8-7.9-0.9-7.9-0.9l0.6-3.6
				L25.3,209.6L25.3,209.6z M80.2,214.6c0,0-4.1,11.5,3.3,9.7c7.5-1.8,21.1-8.1,21.1-8.1s-0.2-4.9-4-4.7s-7.2,3.4-7.2,3.4l-1.6-4.1
				L80.2,214.6L80.2,214.6z"/>
			<path class="st14" d="M31.9,44.6c-3.4,0-6.1,2.7-6.1,6.1l0,0v6.1c0,3.4,2.7,6.1,6.1,6.1s6.1-2.7,6.1-6.1v-6.1
				C38,47.3,35.3,44.6,31.9,44.6L31.9,44.6z"/>
			<path class="st13" d="M31.9,45.2c-3.4,0-6.1,2.7-6.1,6.1v2.1c3.9,1.3,8.2,1.3,12.1,0v-2.1C38,47.9,35.3,45.2,31.9,45.2L31.9,45.2
				L31.9,45.2z"/>
			<path class="st14" d="M31.9,53.7c10.7,0,19.4-8.7,19.4-19.4s-8.7-19.4-19.4-19.4s-19.4,8.7-19.4,19.4S21.2,53.7,31.9,53.7z"/>
			<path class="st13" d="M12.5,33.4c0,0,4.9,1.2,7.6-4.3s4.9-8.5,16.1-5.3c11.2,3.3,13.5,3.7,14,0.6c0.4-2.1-3.6-7.2-6.2-10.3
				c-1.3-1.5-3.3-2.4-5.5-2.4H25.9l-7.6,3.5l-5.8,5L11.3,27C11.3,27.1,12.5,33.4,12.5,33.4z"/>
			<path d="M12.5,32.8c0,0,4.9,1.3,7.6-4.3C22.8,23,25,20,36.2,23.3s13.5,3.7,14,0.6c0.4-2.1-3.6-7.2-6.2-10.3
				c-1.3-1.5-3.3-2.4-5.5-2.4H25.9l-7.6,3.5l-5.8,5l-1.2,6.8C11.3,26.5,12.5,32.8,12.5,32.8z"/>
			<path class="st14" d="M14.5,36.7c1.1,0,2-1.8,2-3.9s-0.9-3.9-2-3.9s-2,1.8-2,3.9S13.4,36.7,14.5,36.7z"/>
			<path d="M13.1,22.6c-0.4-2.5-0.9-5.2-0.1-7.7c0.8-2.4,2.7-4.2,5.1-5c1.5-0.5,3.2-0.5,4.7-1c2.1-0.7,3.8-2.3,5.7-3.6
				c1.6-1.1,3.5-2,5.4-2.5c1.7-0.5,3.7-0.7,5.1,0.4c1.2,0.9,1.6,2.5,2.6,3.7c1.1,1.3,2.9,1.9,4.4,2.8c3.9,2.2,6.5,6.1,6.9,10.6
				c0.1,0.7,0,1.4-0.6,1.8c-0.3,0.2-0.7,0.2-1.1,0.2c-7.8-0.1-15.5-0.2-23.3-0.9c-2.4-0.2-4.8-0.5-7.2-0.4c-3.7,0.1-7.4,1.2-10.6,3"
				/>
			
				<linearGradient id="SVGID_00000026853705428034577210000002753435966584515000_" gradientUnits="userSpaceOnUse" x1="117.35" y1="1419.145" x2="117.35" y2="1416.415" gradientTransform="matrix(1 0 0 1 0 -852)">
				<stop  offset="0" style="stop-color:#808080;stop-opacity:0.25"/>
				<stop  offset="0.535" style="stop-color:#808080;stop-opacity:0.12"/>
				<stop  offset="1" style="stop-color:#808080;stop-opacity:0.1"/>
			</linearGradient>
			<path style="fill:url(#SVGID_00000026853705428034577210000002753435966584515000_);" d="M117.4,124.7c0.2,0,0.4-0.2,0.4-0.5
				c0-0.2-0.2-0.4-0.4-0.5c-0.3,0-0.5,0.2-0.5,0.5C117,124.5,117.2,124.7,117.4,124.7z"/>
			<path class="st6" d="M184.3,104.4l31.6,112.3"/>
			<path class="st16" d="M216,101.1H45.5v6.6H216V101.1z"/>
			<path class="st17" d="M113.4,99.5h-24c-1.1,0-2,0.8-2,1.9s0.8,2,1.9,2h0.1h24c1.1,0,2-0.9,2-2S114.5,99.5,113.4,99.5z"/>
			
				<linearGradient id="SVGID_00000170252667277884364090000005350107615498054814_" gradientUnits="userSpaceOnUse" x1="139.15" y1="17272.5" x2="139.15" y2="9689.0303" gradientTransform="matrix(1 0 0 1 0 -852)">
				<stop  offset="0" style="stop-color:#808080;stop-opacity:0.25"/>
				<stop  offset="0.535" style="stop-color:#808080;stop-opacity:0.12"/>
				<stop  offset="1" style="stop-color:#808080;stop-opacity:0.1"/>
			</linearGradient>
			<path style="opacity:0.7;fill:url(#SVGID_00000170252667277884364090000005350107615498054814_);enable-background:new    ;" d="
				M165.3,55.5H113c-4.7,0-8.6,3.8-8.6,8.6v30.8c0,4.7,3.8,8.6,8.6,8.6h52.3c4.7,0,8.6-3.8,8.6-8.6V64.1
				C173.9,59.4,170.1,55.5,165.3,55.5L165.3,55.5z"/>
			<path class="st19" d="M163.3,56.4h-49.5c-4.5,0-8.1,3.6-8.1,8.1v30.8c0,4.5,3.6,8.1,8.1,8.1l0,0h49.5c4.5,0,8.1-3.6,8.1-8.1l0,0
				V64.6C171.5,60.1,167.8,56.4,163.3,56.4z"/>
			<path class="st17" d="M164.3,56.4h-49.5c-4.5,0-8.1,3.6-8.1,8.1v30.8c0,4.5,3.6,8.1,8.1,8.1l0,0h49.5c4.5,0,8.1-3.6,8.1-8.1l0,0
				V64.6C172.4,60.1,168.7,56.4,164.3,56.4z"/>
			<path class="st16" d="M142.6,81.8c1.2,0,2.1-0.9,2.1-2.1s-0.9-2.1-2.1-2.1s-2.1,0.9-2.1,2.1S141.4,81.8,142.6,81.8L142.6,81.8z"
				/>
		</g>
	</g>
</g>
</svg>
