<?xml version="1.0" encoding="utf-8"?>
<!-- Generator: Adobe Illustrator 28.0.0, SVG Export Plug-In . SVG Version: 6.00 Build 0)  -->
<svg version="1.1" id="Capa_1" xmlns="http://www.w3.org/2000/svg" xmlns:xlink="http://www.w3.org/1999/xlink" x="0px" y="0px"
	 viewBox="0 0 1382 754" style="enable-background:new 0 0 1382 754;" xml:space="preserve">
<style type="text/css">
	.st0{clip-path:url(#SVGID_00000137129935067691061700000014254114425100186240_);}
	.st1{opacity:0.25;fill:#380091;}
	.st2{fill:#380091;}
	.st3{fill:#950080;}
	.st4{opacity:0.25;fill:#790033;}
	.st5{fill:#790033;}
</style>
<g>
	<defs>
		<rect id="SVGID_1_" x="-257" y="-264" width="1896" height="1282"/>
	</defs>
	<clipPath id="SVGID_00000041979223731885908570000010096270415783971002_">
		<use xlink:href="#SVGID_1_"  style="overflow:visible;"/>
	</clipPath>
	<g style="clip-path:url(#SVGID_00000041979223731885908570000010096270415783971002_);">
		<path class="st1" d="M712,743l265.8-91.5l51.7,150l-265.8,91.5L712,743z"/>
		<path class="st2" d="M649,713.5L914.8,622l51.7,150l-265.8,91.5L649,713.5z"/>
		<path class="st3" d="M236,84.7L501.8-6.9l51.7,150l-265.8,91.5L236,84.7z M603.2,728L302,831.7l58.5,170L661.7,898L603.2,728z"/>
		<path class="st4" d="M1151.5,472.3l265.8-91.5l51.7,150l-265.8,91.5L1151.5,472.3z"/>
		<path class="st5" d="M1088.5,442.8l265.8-91.5l51.7,150l-265.8,91.5L1088.5,442.8z M-233,22.5L32.8-69L84.4,81l-265.8,91.5
			L-233,22.5z"/>
		<path class="st4" d="M665.8-21l265.8-91.5l51.7,150l-265.8,91.5L665.8-21z"/>
		<path class="st5" d="M602.8-50.5L868.6-142L920.2,8L654.5,99.5L602.8-50.5z"/>
		<path class="st1" d="M-81,502l265.8-91.5l51.7,150l-265.8,91.5L-81,502z"/>
		<path class="st2" d="M-144,472.5L121.8,381l51.7,150l-265.8,91.5L-144,472.5z"/>
		<path class="st3" d="M1639.2,502L1338,605.7l58.5,170L1697.7,672L1639.2,502z"/>
	</g>
</g>
</svg>
