<?xml version="1.0" encoding="utf-8"?>
<!-- Generator: Adobe Illustrator 28.0.0, SVG Export Plug-In . SVG Version: 6.00 Build 0)  -->
<svg version="1.1" id="Capa_1" xmlns="http://www.w3.org/2000/svg" xmlns:xlink="http://www.w3.org/1999/xlink" x="0px" y="0px"
	 viewBox="0 0 524 685" style="enable-background:new 0 0 524 685;" xml:space="preserve">
<style type="text/css">
	.st0{clip-path:url(#SVGID_00000124162338688885357690000009003028781099462817_);}
	.st1{fill:#380091;}
	.st2{fill:#790033;}
	.st3{fill:#950080;}
</style>
<g>
	<defs>
		<rect id="SVGID_1_" width="524" height="685"/>
	</defs>
	<clipPath id="SVGID_00000101096988913631085180000012459037973252258968_">
		<use xlink:href="#SVGID_1_"  style="overflow:visible;"/>
	</clipPath>
	<g style="clip-path:url(#SVGID_00000101096988913631085180000012459037973252258968_);">
		<path class="st1" d="M404.1,120.3L99.4,38.7L50.9,219.9l304.6,81.6L404.1,120.3z"/>
		<path class="st2" d="M727.2,207.7L422.6,126L374,307.3l304.6,81.6L727.2,207.7z M254.8,293.4l-304.6-81.6L-98.4,393l304.6,81.6
			L254.8,293.4z"/>
		<path class="st3" d="M100.7,464.7L-204,383.1l-48.6,181.2l304.6,81.6L100.7,464.7z M83.1,34.3l-304.6-81.6l-48.6,181.2l304.6,81.6
			L83.1,34.3z M748.7,639.3l-304.6-81.6l-48.6,181.2l304.6,81.6L748.7,639.3z M273.7,724.6L-31,643l-48.6,181.2l304.6,81.6
			L273.7,724.6z M577.1,380.2l-304.6-81.6l-48.6,181.2l304.6,81.6L577.1,380.2z"/>
		<path class="st1" d="M428.2,553.4l-304.6-81.6L75,653l304.6,81.6L428.2,553.4z"/>
	</g>
</g>
</svg>
