<?xml version="1.0" encoding="utf-8"?>
<!-- Generator: Adobe Illustrator 28.0.0, SVG Export Plug-In . SVG Version: 6.00 Build 0)  -->
<svg version="1.1" id="Capa_1" xmlns="http://www.w3.org/2000/svg" xmlns:xlink="http://www.w3.org/1999/xlink" x="0px" y="0px"
	 viewBox="0 0 62 59" style="enable-background:new 0 0 62 59;" xml:space="preserve">
<style type="text/css">
	.st0{fill:none;stroke:#000000;stroke-width:4.167;stroke-linecap:round;stroke-linejoin:round;}
	.st1{fill-rule:evenodd;clip-rule:evenodd;fill:#950080;}
</style>
<path class="st0" d="M8.3,8.3h33.3c2.3,0,4.2,1.9,4.2,4.2v25c0,2.3-1.9,4.2-4.2,4.2H8.3c-2.3,0-4.2-1.9-4.2-4.2v-25
	C4.2,10.2,6,8.3,8.3,8.3z"/>
<path class="st0" d="M45.8,12.5L25,27.1L4.2,12.5"/>
<path class="st1" d="M46.7,57.7c8.5,0,15.3-6.9,15.3-15.3C62,33.9,55.1,27,46.7,27c-8.5,0-15.3,6.9-15.3,15.3
	C31.3,50.8,38.2,57.7,46.7,57.7z M53.4,39.7c0.4-0.4,0.4-1,0-1.4c-0.4-0.4-1-0.4-1.4,0c0,0,0,0,0,0l-7.6,7.3l-3.1-3
	c-0.4-0.4-1-0.4-1.4,0c-0.4,0.4-0.4,1,0,1.4l3.8,3.6c0.4,0.4,1,0.4,1.4,0L53.4,39.7L53.4,39.7z"/>
</svg>
