<?xml version="1.0" encoding="utf-8"?>
<!-- Generator: Adobe Illustrator 28.0.0, SVG Export Plug-In . SVG Version: 6.00 Build 0)  -->
<svg version="1.1" id="Capa_1" xmlns="http://www.w3.org/2000/svg" xmlns:xlink="http://www.w3.org/1999/xlink" x="0px" y="0px"
	 viewBox="0 0 262 162" style="enable-background:new 0 0 262 162;" xml:space="preserve">
<style type="text/css">
	.st0{opacity:0.1;fill:#30D7CF;}
	.st1{opacity:0.1;fill:#571AFF;enable-background:new    ;}
	.st2{opacity:0.1;}
	.st3{opacity:0.2;fill:#571AFF;enable-background:new    ;}
	.st4{opacity:0.1;fill:#000A2C;enable-background:new    ;}
	.st5{fill:url(#SVGID_1_);}
	.st6{fill:#DFE6F5;}
	.st7{fill:#37384D;}
	.st8{fill:#865A61;}
	.st9{fill:#FDC2CC;}
	.st10{fill:#790033;}
	.st11{fill:#CBCDDA;}
	.st12{opacity:5.000000e-02;fill:#000A2C;enable-background:new    ;}
	.st13{fill:#54576B;}
	.st14{fill:#380091;}
	.st15{fill:#FFFFFF;}
	.st16{clip-path:url(#SVGID_00000017518816317285397880000001808693226892406412_);}
	.st17{opacity:0.3;fill:#525252;enable-background:new    ;}
</style>
<path class="st0" d="M110.3,149.7c15.4-8.4,39.8-5.2,57-1.5c26.2-5.2,48.2,13.6,54.1-25.9c10.1-67.5-32.3-85.4-32.3-85.4
	s-28.2-2.3-44.9-11.2C120.5,13,93.4,11.4,69.5,22.1c-15.2,6.8-27.8,16.4-29.9,29.5c-6,36.6,3.9,56.7-14.6,68.7
	c-13.2,8.6,2.3,29.1,16.5,28c14.1-1.1,41-14.4,53.4,0C99.4,153.3,104.9,152.7,110.3,149.7L110.3,149.7z"/>
<path class="st1" d="M183,45h-63v4h63V45z M183,63h-63v5h63V63z M183,83h-63v5h63V83z M130,33h-4v12h4V33z"/>
<path class="st1" d="M130,35h-4v1h4V35z M130,41h-4v1h4V41z M135,33h-3v12h3V33z"/>
<path class="st1" d="M135,35h-3v1h3V35z M135,41h-3v1h3V41z M141,33h-4v12h4V33z"/>
<path class="st1" d="M141,35h-4v1h4V35z M141,41h-4v1h4V41z M147,33h-4v12h4V33z"/>
<path class="st1" d="M147,35h-4v1h4V35z M147,41h-4v1h4V41z M153,33h-4v12h4V33z"/>
<path class="st1" d="M153,35h-4v1h4V35z M153,41h-4v1h4V41z M159,33h-4v12h4V33z"/>
<path class="st1" d="M159,35h-4v1h4V35z M159,41h-4v1h4V41z M165,33h-4v12h4V33z"/>
<path class="st1" d="M165,35h-4v1h4V35z M165,41h-4v1h4V41z M163,71.5l-3.6,1.8l5.1,10.1l3.6-1.8L163,71.5z"/>
<path class="st1" d="M163.8,73.1l-3.6,1.8l0.4,0.7l3.6-1.8L163.8,73.1z M166.6,78.6l-3.6,1.8l0.4,0.7l3.6-1.8L166.6,78.6L166.6,78.6
	z M130,52h-4v12h4V52z"/>
<path class="st1" d="M130,54h-4v1h4V54z M130,60h-4v1h4V60z M135,52h-3v12h3V52z"/>
<path class="st1" d="M135,54h-3v1h3V54z M135,60h-3v1h3V60z M141,52h-4v12h4V52z"/>
<path class="st1" d="M141,54h-4v1h4V54z M141,60h-4v1h4V60z M166,52h-4v12h4V52z"/>
<path class="st1" d="M166,54h-4v1h4V54z M166,60h-4v1h4V60z M172,52h-4v12h4V52z"/>
<path class="st1" d="M172,54h-4v1h4V54z M172,60h-4v1h4V60z M178,52h-4v12h4V52z"/>
<path class="st1" d="M178,54h-4v1h4V54z M178,60h-4v1h4V60z M130,72h-4v11h4V72z"/>
<path class="st1" d="M130,80h-4v1h4V80z M135,72h-3v11h3V72z"/>
<path class="st1" d="M135,80h-3v1h3V80z M141,72h-4v11h4V72z"/>
<path class="st1" d="M141,80h-4v1h4V80z M147,72h-4v11h4V72z"/>
<path class="st1" d="M147,80h-4v1h4V80z M153,72h-4v11h4V72z"/>
<path class="st1" d="M153,80h-4v1h4V80z M159,72h-4v11h4V72z"/>
<path class="st1" d="M159,80h-4v1h4V80z M171,34.8V45h-4V34C168.3,34.2,169.7,34.5,171,34.8z"/>
<path class="st1" d="M171,35h-4v1h4V35z M171,41h-4v1h4V41z M177,36v9h-4V35c0.5,0.1,1,0.2,1.6,0.4C175.4,35.5,176.2,35.8,177,36z"
	/>
<path class="st1" d="M177,35.8V36h-4v-1h1.6C175.4,35.2,176.2,35.5,177,35.8z M177,41h-4v1h4V41z"/>
<g class="st2">
	<path class="st1" d="M149.5,59.5c0,0-1.2-0.4-1.8,0.7c-0.2,0.3-0.2,0.6-0.2,0.9c0,0.3,0.1,0.6,0.3,0.9c0.4,0.7,1.2,1.6,2.7,1.5
		c1.3-0.1,1.7-1,1.8-1.9c0.1-1.1-0.6-2-1.6-2.2C150.2,59.4,149.9,59.4,149.5,59.5L149.5,59.5z"/>
	<path class="st1" d="M148,62.2c-0.2-0.3-0.2-0.6-0.3-0.9c0-0.3,0.1-0.6,0.2-0.9c0.6-1.1,1.8-0.7,1.8-0.7l0.1,0c0.5-0.2,1-0.2,1.4,0
		c-0.5-0.3-1.1-0.4-1.7-0.2l-0.1,0c0,0-1.2-0.4-1.8,0.7c-0.3,0.6-0.3,1.3,0,1.9c0.3,0.6,0.8,1,1.4,1.3C148.7,63,148.3,62.6,148,62.2
		z"/>
	<path class="st3" d="M148.9,60c0,0,0.4,0.4,1.5,0H148.9z"/>
	<path class="st1" d="M148.8,57.5c0,0,0.8,2.1,0.7,2.6l0.6-0.1c0,0-1-1.8-0.8-2.6L148.8,57.5L148.8,57.5z"/>
	<path class="st3" d="M148.8,57.5c0,0,0.8,2.1,0.7,2.6l0.6-0.1c0,0-1-1.8-0.8-2.6L148.8,57.5L148.8,57.5z"/>
	<path class="st1" d="M151.9,57.7c0,0-1.2-0.6-1.8-0.1s-0.6,1.8-0.6,1.8S151.5,59.6,151.9,57.7z"/>
	<path class="st1" d="M151.9,57.7c0,0-1.2-0.6-1.8-0.1s-0.6,1.8-0.6,1.8S151.5,59.6,151.9,57.7z"/>
	<path class="st1" d="M149.6,59.4c0,0,0.3-1.5,2.4-1.7L149.6,59.4L149.6,59.4z"/>
</g>
<g class="st2">
	<path class="st1" d="M175,79.2c0,0-1.2-0.4-1.8,0.7c-0.3,0.6-0.3,1.3,0,1.9c0.4,0.7,1.2,1.6,2.7,1.5c1.3-0.1,1.7-1,1.8-1.9
		c0.1-1.1-0.6-2-1.6-2.2C175.7,79,175.4,79.1,175,79.2L175,79.2z"/>
	<path class="st1" d="M173.5,81.8c-0.3-0.6-0.3-1.3,0-1.9c0.6-1.1,1.8-0.7,1.8-0.7l0.1,0c0.5-0.2,1-0.2,1.4,0
		c-0.5-0.3-1.1-0.4-1.7-0.2l-0.1,0c0,0-1.2-0.4-1.8,0.7c-0.3,0.6-0.3,1.3,0,1.9c0.3,0.6,0.8,1,1.4,1.3
		C174.2,82.7,173.8,82.3,173.5,81.8L173.5,81.8z"/>
	<path class="st3" d="M174.4,79.7c0,0,0.4,0.4,1.5,0H174.4z"/>
	<path class="st1" d="M174.3,77.2c0,0,0.8,2.1,0.7,2.6l0.6-0.1c0,0-1-1.8-0.8-2.6L174.3,77.2L174.3,77.2z"/>
	<path class="st3" d="M174.3,77.2c0,0,0.8,2.1,0.7,2.6l0.6-0.1c0,0-1-1.8-0.8-2.6L174.3,77.2L174.3,77.2z"/>
	<path class="st1" d="M177.4,77.3c0,0-1.2-0.6-1.7-0.1s-0.6,1.8-0.6,1.8S177,79.3,177.4,77.3L177.4,77.3z"/>
	<path class="st1" d="M177.4,77.3c0,0-1.2-0.6-1.7-0.1s-0.6,1.8-0.6,1.8S177,79.3,177.4,77.3L177.4,77.3z"/>
	<path class="st1" d="M175.1,79c0,0,0.3-1.5,2.4-1.7L175.1,79z"/>
</g>
<path class="st4" d="M215.5,140c5.8,0,10.5-1.8,10.5-4s-4.7-4-10.5-4s-10.5,1.8-10.5,4S209.7,140,215.5,140z M188.5,129
	c5.8,0,10.5-1.8,10.5-4s-4.7-4-10.5-4s-10.5,1.8-10.5,4S182.7,129,188.5,129z"/>
<linearGradient id="SVGID_1_" gradientUnits="userSpaceOnUse" x1="135" y1="9" x2="135" y2="135.9998" gradientTransform="matrix(1 0 0 -1 0 164)">
	<stop  offset="0" style="stop-color:#808080;stop-opacity:0.25"/>
	<stop  offset="0.54" style="stop-color:#808080;stop-opacity:0.12"/>
	<stop  offset="1" style="stop-color:#808080;stop-opacity:0.1"/>
</linearGradient>
<path class="st5" d="M243.6,145.1l-61.7-32.6h-12.9l3.4-27.8c0.1-1.2-0.2-2.5-1-3.4c-0.8-1-1.9-1.6-3.1-1.7l-0.3,0h0l-47.1,0.7
	c-1.2-0.1-2.4,0.3-3.4,1c-1,0.7-1.7,1.7-1.9,2.9l-2.2,16l-0.3-0.5l-0.2-0.2c1.2-0.8-1.1-5.2-3.1-8.5l-0.2-0.3c0.9-0.4,1.7-0.7,2.6-1
	l-3-1.9c0,0-2.8-4-5.7-7.3c2-12.4-2.2-26.8-2.3-27l-0.1,0c0.6-0.9,0.9-2,0.9-3.1c0-1.7-0.7-3.3-2-4.5c-0.1-1.1-0.3-2.2-0.5-3.3
	c0-0.2-0.1-0.4-0.1-0.6c-0.2-1-0.5-2-0.8-3c-0.2-0.7-0.5-1.4-0.8-2c-1.6-3.3-4.8-5.7-8.4-6.5c-1.8-0.4-3.7,0.2-5.4-0.1
	c-0.9-0.2-1.6-1-2.5-1.3c-1.1-0.4-2.2-0.6-3.3-0.8c-1.4-0.2-2.8-0.5-4.2-0.2c-2.3,0.5-4,2.3-5.3,4.3c-1.3,2-2.3,4.1-3.9,5.8
	c-1.1,1.2-2.4,2.1-3.3,3.3c-1.4,1.8-1.9,4.2-2.3,6.4c-0.6,2.8-1.1,5.6-1.1,8.5c0,0.7,0,1.3,0.1,2c0.1,1.7,0.5,3.4,0.6,5.1
	c0,0.2,0,0.4,0,0.5c0,3.1-0.9,6.2-1.9,9.1c-0.3,1-0.6,1.9-0.9,2.8c-1.8,0.2-3.6,0.5-4.9,1.2c-4.9,2.6-8.7,8.4-8.7,8.4L35,92.2
	c0,0,2.8,1.3,4.1,3.6c0,0.1,0.1,0.2,0.2,0.2l-0.1,0.2l-4.2,9.7c0,0,2.6,1.9,6.6,1.5c0.6-0.1,1.3,0,1.9,0.1c0,0.1,0,0.2,0,0.4
	c-0.2,5.5-0.4,17.6,2.5,25.8l-6.5,7.5l-13,3.8L26,155h218L243.6,145.1z M56.7,108.1c0.6,0.1,1.1,0.3,1.6,0.5v6.9
	c-0.3-2.4-0.8-4.9-1.5-7C56.8,108.3,56.7,108.2,56.7,108.1z M94.1,121.3L94.1,121.3c0-0.3,0-0.6,0.1-0.8c0.1-0.4,0.3-0.7,0.5-1
	c0.5-0.5,1-1,1.5-1.6c0.3,0.8,0.7,1.5,1.3,2.1c0.6,0.7,2.1,1.3,4.1,1.9C99.1,121.7,96.6,121.5,94.1,121.3z M110.4,120.4l-6.5,1.9
	c-3.1-0.7-5.3-1.5-6.1-2.4c-0.6-0.7-1-1.4-1.3-2.2c2.3-2.7,4.6-6.3,5.1-11.2c0-0.1,0-0.3,0-0.4c0.7-0.4,1.4-0.9,2-1.4l0.1,0.3
	c1.8,4,4.2,7.6,7.3,10.6C111,115.6,110.4,120.4,110.4,120.4z M100.7,53.8c0.5,1.8,4,14.9,2.2,26.3c-1.1-1.2-2.2-2.2-3.2-2.9
	c-0.2-0.2-0.5-0.3-0.7-0.4c-0.2-2.1-0.3-4.3-0.3-6.4c0-2.7,0.2-5.3,0.4-7.8c0.2-2.7,0.5-5.2,0.7-7.7
	C100.2,54.5,100.5,54.2,100.7,53.8L100.7,53.8z"/>
<path class="st6" d="M97.8,57H96V45h1.8c1.4,0,2.7,0.5,3.7,1.5c1,0.9,1.5,2.2,1.5,3.5v2c0,0.7-0.1,1.3-0.4,1.9
	c-0.3,0.6-0.6,1.2-1.1,1.6c-0.5,0.5-1.1,0.8-1.7,1.1C99.2,56.9,98.5,57,97.8,57L97.8,57z"/>
<path class="st7" d="M96.2,57h0.5c0.7,0,1.2-0.5,1.2-1.2v-9.5c0-0.7-0.6-1.2-1.2-1.2h-0.5c-0.7,0-1.2,0.5-1.2,1.2v9.5
	C95,56.5,95.6,57,96.2,57z"/>
<g class="st2">
	<path class="st4" d="M97.9,56.9h-1.7V45.2h1.7c1.3,0,2.5,0.5,3.5,1.4c0.9,0.9,1.4,2.2,1.4,3.5v2c0,1.3-0.5,2.5-1.4,3.5
		C100.5,56.4,99.2,56.9,97.9,56.9z"/>
	<path class="st4" d="M96,56.9h0.5c0.7,0,1.2-0.5,1.2-1.2v0v-9.3c0-0.7-0.5-1.2-1.2-1.2c0,0,0,0,0,0H96c-0.7,0-1.2,0.5-1.2,1.2v9.3
		C94.8,56.4,95.3,56.9,96,56.9z"/>
</g>
<path class="st8" d="M99,51H69v31h30V51z"/>
<path class="st4" d="M99,47H69v31h30V47z"/>
<path class="st9" d="M98,77.1l-1.8,13l-0.9,6.1L95,98.5l-2.6,5.1l-4.8,9.3l-9.3,1.1L61.8,91.1c0,0-8.6-16.3,4.5-14.8
	c7.3,0.8,9.1-5.7,9.2-11.5c0-3-0.2-5.9-0.8-8.8l13.1,6.3c-0.3,1.3-0.5,2.6-0.7,3.9c-0.6,4.8-0.1,7.8,1,9.6C91,80.6,98,77.1,98,77.1z
	"/>
<path class="st4" d="M88,62.4c-0.3,1.3-0.5,2.6-0.7,4C86,66.8,84.6,67,83.2,67c-2.6,0-5.1-0.7-7.4-2c0-3-0.2-6.1-0.8-9L88,62.4z"/>
<path class="st9" d="M83,66c8.3,0,15-6.7,15-15s-6.7-15-15-15s-15,6.7-15,15S74.7,66,83,66z"/>
<path class="st10" d="M103,136.2L41,141l10.1-11.6c10.8-6.5,10.7-15.5,9.3-21.1c-0.4-1.8-1.1-3.5-2-5.1l21.4,0.1h0.2l1.8,4l0.1,0.2
	l1.3,3l4.5-7.9l1.6-2.5l0.9-1.4c0,0,12.8-3,13,4.6c0,0.9,0,1.7-0.1,2.6c-0.6,6.1-4,10.1-6.8,12.9C92.9,121.8,103,136.2,103,136.2z"
	/>
<path class="st10" d="M95.6,119.8c-0.5,1.8,0.7,4.9,2.2,7.9c-7.3,0.8-15.2,0.4-15.2,0.4l-8.2,2.2l-23,6.7c-1-1.3-1.8-2.9-2.5-4.8
	l2.3-2.7c7.2-4.4,9.5-9.9,9.9-14.7c0.1-2.2-0.1-4.4-0.6-6.5c-0.4-1.8-1.1-3.5-2-5.2l21.3,0.1H80l1.8,4l0.1,0.2l1.3,3l4.4-8l1.5-2.5
	l0.9-1.4c0,0,12.8-3,13,4.6c0,0.9,0,1.7-0.1,2.6c-0.6,6.1-4,10.2-6.8,13C95.9,119.1,95.7,119.4,95.6,119.8L95.6,119.8z"/>
<path class="st11" d="M242,144H29l21.3-6.3l53.3-15.7l34-10h43.8L242,144z M29.6,144L29,154h213l-0.4-10H29.6L29.6,144z"/>
<path class="st4" d="M29.6,144L29,154h213l-0.4-10H29.6L29.6,144z"/>
<path class="st9" d="M145,102.8c-1.7,10-15.1,21.7-15.1,21.7s-0.6,2.8-11.9-4.5c-5.7-3.7-10.2-9-13-15.2c-0.4-1-0.8-2-1.1-3l7.8-5.8
	l2.3,3.5l7.5,11.6l6,4C127.6,115.1,140.9,96,145,102.8z"/>
<path class="st4" d="M114,99.6c-0.1,0.2-0.4,0.3-0.8,0.2c-3.7-0.6-7.9,5-7.9,5l-0.2,0.2c-0.4-1-0.8-2-1.1-3.1l7.7-5.9L114,99.6z
	 M102.9,106c-1.8,1-4.3,1.7-6.3-0.2c-3.4-3.3-9.3-2.9-9.6-2.8c0.6-0.1,1.1-1.3,1.6-2.9l0.9-1.4c0,0,13.3-3,13.5,4.8
	C103,104.2,103,105.1,102.9,106z"/>
<path class="st4" d="M96,90l-1.2,8.1l-2.7,4.9c-1.7-0.4-3.4-0.6-5.1-0.4c1.9-0.2,3.1-11.3,3.1-11.3l0.1,0L96,90z"/>
<path class="st10" d="M113,99.4c-3.8-0.6-8.1,4.9-8.1,4.9s-5.1,4.9-8.5,1.5c-3.3-3.3-9.1-2.8-9.4-2.8c1.9-0.3,3.1-11.9,3.1-11.9
	l0.1,0l18.1-4c0,0,1.1,1.6,2.3,3.7C112.8,94.5,115.5,99.8,113,99.4z"/>
<path class="st4" d="M108,91.6c0.2,0.4-2.9,2.1-4.3,1.6c-1.4-0.5-5,2.3-5.3,2.7C98,96.3,90,95.4,90,95.4c0.3-1.5,0.6-3,0.7-4.6
	l17.1-3.8c0,0,1,1.6,2.2,3.6C108.9,91,107.9,91.5,108,91.6z"/>
<path class="st4" d="M98,77.3L96.2,90l-0.8,6C93,95.8,90,95.5,90,95.5s3.1-12.8-2-19.5c0,0,0.1,0,0.3,0C91.2,80.7,98,77.3,98,77.3z"
	/>
<path class="st10" d="M88,75.1c0,0,9.4-0.8,13.1,1.9c3.7,2.6,9,10.5,9,10.5l2.9,1.9c0,0-4.6,1.7-4.4,2.1c0.2,0.4-2.9,2.2-4.4,1.7
	s-5.1,2.4-5.5,2.8c-0.4,0.4-8.6-0.6-8.6-0.6S93.1,82,88,75.1z"/>
<path class="st4" d="M98,127.8c-7.3,0.8-15.3,0.4-15.3,0.4l-8.2,2.2L51.5,137c-1-1.3-1.8-2.9-2.5-4.7l2.3-2.6
	c7.2-4.4,9.5-9.8,9.9-14.6c0.6,4.8,0.7,9.1,0.7,9.1l9.3-0.9l13.5-3.2c0.9-0.2,1.9-0.3,2.8-0.3c1.8,0,4.9,0,8.2,0.2
	C95.3,121.6,96.5,124.7,98,127.8z"/>
<path class="st4" d="M107.5,125.4c-4.3,4.9-26.1,3.8-26.1,3.8l-8.2,2.2l-23,6.6c-0.1-0.1-0.2-0.3-0.3-0.4l53.5-15.6
	C106.9,122.7,109,123.7,107.5,125.4z"/>
<path class="st9" d="M107.6,125.4c-4.2,4.9-25.8,3.8-25.8,3.8l-8,2.2L51,138c-5.3-6.9-5.2-23.4-4.9-30c0.1-1.8,0.2-2.9,0.2-2.9
	s7.7-4.8,11.2,0c0.6,0.8,1.1,2,1.6,3.4c2,6.3,2.3,16.7,2.3,16.7l9.1-0.9l13.3-3.2c0.9-0.2,1.9-0.3,2.8-0.3
	C92,120.8,111.2,121.2,107.6,125.4z"/>
<path class="st4" d="M59,108.2c-1.2-0.2-2.6-0.2-4.5,0.6c-3.9,1.5-6.8,1.2-6.8,1.2s0.2-1.8-1.6-2.3c0.1-1.7,0.2-2.7,0.2-2.7
	s7.7-4.5,11.2,0C58,105.8,58.6,106.9,59,108.2z M82,108.2c-0.1,0-1.8,0.3-5.1-0.4c-3.4-0.7-4.8,0.7-6.7,1.4
	c-1.9,0.7-6.8,1.1-8.8,0.4c-0.5-0.2-0.9-0.4-1.4-0.6c-0.5-1.8-1.1-3.4-2-5l21.9,0.1l2,3.9L82,108.2z"/>
<path class="st10" d="M82,107.7c0,0-1.7,0.4-5.1-0.4s-4.7,0.8-6.6,1.5s-6.8,1.1-8.6,0.4c-1.9-0.8-3.8-2.3-7.7-0.6
	c-3.9,1.7-6.9,1.3-6.9,1.3s0.4-3-3.6-2.6c-3.9,0.4-6.6-1.5-6.6-1.5l4.2-9.7l1.3-2.9L73.8,91H74L82,107.7z"/>
<path class="st4" d="M77,99c-2-3.5-12.7-0.4-12.7-0.4s-5.1,1.6-6.2-1.4c-1.1-3-9-1-9-1s-5.7,2.3-7.1,0.1l1.2-3L73.9,91L77,99z"/>
<path class="st10" d="M68,76.8c0,0-10.3-2-15.2,0.6c-4.9,2.6-8.6,8.2-8.6,8.2L37,91.9c0,0,2.8,1.3,4.1,3.5c1.3,2.2,7.3,0,7.3,0
	s8.1-1.8,9.2,0.9c1.1,2.7,6.4,1.3,6.4,1.3s10.9-2.9,13,0.4L68,76.8z"/>
<path class="st4" d="M79.4,29.3c-1.4-0.2-2.8-0.5-4.2-0.2c-2.3,0.5-4,2.3-5.2,4.3c-1.3,1.9-2.2,4.1-3.8,5.8c-1,1.1-2.3,2.1-3.3,3.3
	c-1.4,1.8-1.8,4.2-2.3,6.4c-0.6,3.3-1.3,6.6-1,10c0.1,1.7,0.5,3.3,0.6,5c0.2,3.4-0.8,6.7-1.8,10c-0.7,2.3-1.4,4.5-2.7,6.5
	c-0.9,1.3-2,2.3-3.1,3.4c-0.3,0.2-0.5,0.5-0.6,0.8c-0.2,1,0.9,1.6,1.8,2c2.7,1.4,4.5,4,6.6,6.2c2.1,2.2,5.1,4.1,8,3.2
	c0.9-0.3,1.7-0.8,2.6-0.7c0.6,0,1.2,0.3,1.7,0.5c1.4,0.5,2.9,0.8,4.4,0.7c0.3,0,0.7,0,1-0.2c0.4-0.3,0.5-0.9,0.6-1.5
	c0.3-3.4,0.6-6.8,0.4-10.2c-0.4-7.7-7.5-16.6-4.8-23.8c1.2-3.1,3.3-5.9,4.5-9c1.2-3.3,5.6-6,6.5-9.4c0.1-0.4,0.2-0.8,0.6-1
	c0.5-0.3,1.1,0,1.5,0.3c2.5,1.8,3.3,5,4.3,8c0.7,2.4,1.7,4.7,2.7,6.9c0.6,1.2,1.9,2.6,3,1.9c-0.6,5.1-3.8,9.5-4.6,14.6
	c-0.7,4.9,1,10,0.3,14.9c-0.4,3.2-1.9,6.1-4.1,8.5c2.5,0.5,5.1,0.5,7.6,0.1c2.5-0.5,5.3-1.7,6.2-4.1c1-2.7-0.5-5.5-1.3-8.3
	c-1.9-6.6-1.7-14.4-1.1-21.3c0.6-7,1.5-13.2,0-20.1c-0.4-1.7-0.8-3.4-1.5-5c-1.5-3.3-4.7-5.7-8.2-6.5c-1.8-0.4-3.6,0.2-5.3-0.1
	c-0.8-0.2-1.6-1-2.4-1.3C81.7,29.7,80.5,29.5,79.4,29.3L79.4,29.3z"/>
<path class="st8" d="M102.7,91.6c-0.9,2.4-3.6,3.6-6.2,4c-2.5,0.4-5.1,0.4-7.6-0.1c2.2-2.3,3.6-5.2,4.1-8.3
	c0.7-4.9-1.1-9.8-0.3-14.7c0.7-5,4-9.4,4.6-14.4c-1.1,0.7-2.4-0.7-3-1.8c-1.1-2.2-2-4.5-2.7-6.8c-0.9-2.9-1.7-6.2-4.3-7.9
	c-0.4-0.3-1-0.6-1.5-0.3c-0.3,0.2-0.5,0.6-0.6,1c-0.9,3.4-5.3,6-6.5,9.3c-1.2,3.1-3.3,5.8-4.5,8.9c-2.7,7.1,4.4,15.9,4.8,23.4
	c0.2,3.3-0.1,6.7-0.4,10c0,0.5-0.1,1.1-0.6,1.4c-0.3,0.2-0.6,0.2-1,0.2c-1.5,0-3-0.2-4.4-0.7c-0.6-0.2-1.1-0.4-1.7-0.5
	c-0.9,0-1.7,0.5-2.6,0.7c-2.9,0.9-5.9-1-8-3.1c-2.1-2.1-3.9-4.8-6.6-6.1c-0.9-0.4-2-1.1-1.8-2c0.1-0.3,0.3-0.6,0.6-0.8
	c1.1-1.1,2.2-2.1,3.1-3.4c1.3-1.9,2-4.2,2.7-6.4c1-3.2,2-6.5,1.8-9.9c-0.1-1.7-0.5-3.3-0.6-5c-0.3-3.3,0.4-6.6,1-9.9
	c0.4-2.2,0.9-4.5,2.3-6.3c0.9-1.2,2.2-2.1,3.3-3.3c1.6-1.7,2.5-3.8,3.8-5.7c1.3-1.9,3-3.7,5.2-4.2c1.4-0.3,2.8-0.1,4.2,0.2
	c1.1,0.2,2.2,0.4,3.3,0.8c0.8,0.3,1.6,1.1,2.4,1.3c1.7,0.3,3.5-0.3,5.3,0.1c3.5,0.8,6.7,3.1,8.2,6.4c0.3,0.6,0.6,1.3,0.8,2
	c0.3,1,0.5,1.9,0.7,2.9c0,0.2,0.1,0.4,0.1,0.6c1.4,6.5,0.5,11.2-0.1,17.9c-0.6,6.7-0.7,15.7,1.1,22.2
	C102.1,86.2,103.7,89,102.7,91.6L102.7,91.6z"/>
<path class="st12" d="M81,103c0,0,1.7,2.9,1.7,5c0,0,1.3-5,2.3-5"/>
<path class="st13" d="M76.6,137H61.4c-0.8,0-1.4,0.6-1.4,1.3v0.5c0,0.7,0.6,1.3,1.4,1.3h15.2c0.8,0,1.4-0.6,1.4-1.3v-0.5
	C78,137.6,77.4,137,76.6,137z"/>
<path class="st4" d="M69.5,118c0.3,0,0.5-0.2,0.5-0.5s-0.2-0.5-0.5-0.5s-0.5,0.2-0.5,0.5S69.2,118,69.5,118z"/>
<path class="st14" d="M153.8,34c-0.7,0-1.5,0.3-2,0.8c-0.5,0.5-0.8,1.2-0.8,2V57c0,0.7,0.3,1.4,0.8,2c0.5,0.5,1.2,0.8,2,0.8h2.1
	c0.5,0,0.9,0.2,1.2,0.5c0.3,0.3,0.5,0.8,0.5,1.2v10c0,0.2,0.1,0.4,0.3,0.5c0.2,0.1,0.4,0,0.6-0.1l10.8-11.5c0.3-0.4,0.8-0.6,1.3-0.6
	h71.6c0.7,0,1.5-0.3,2-0.8c0.5-0.5,0.8-1.2,0.8-2V36.8c0-0.7-0.3-1.4-0.8-2c-0.5-0.5-1.2-0.8-2-0.8H153.8z"/>
<path class="st15" d="M179,41h59v3h-59V41z M179,48h40v3h-40V48z"/>
<g>
	<defs>
		<rect id="SVGID_00000072984621523570335550000014369317285053371571_" x="155" y="37" width="22" height="19"/>
	</defs>
	<clipPath id="SVGID_00000021809892119033600030000011269428861804671382_">
		<use xlink:href="#SVGID_00000072984621523570335550000014369317285053371571_"  style="overflow:visible;"/>
	</clipPath>
	<g style="clip-path:url(#SVGID_00000021809892119033600030000011269428861804671382_);">
		<path class="st15" d="M171.5,43.5c0-1.6-0.6-3.1-1.6-4.2c-1-1.1-2.4-1.7-3.9-1.7c-1.5,0-2.9,0.6-3.9,1.7c-1,1.1-1.6,2.6-1.6,4.2
			c0,6.8-2.8,8.8-2.8,8.8h16.5C174.2,52.3,171.5,50.3,171.5,43.5z M168.2,54.4c-0.2,0.5-0.5,0.9-0.9,1.1c-0.4,0.3-0.8,0.4-1.3,0.4
			c-0.5,0-0.9-0.2-1.3-0.4c-0.4-0.3-0.7-0.7-0.9-1.1"/>
	</g>
</g>
<path class="st9" d="M146.4,97.8l-4.7,3.7l2.5,2.3c0.3-0.3,2.6-3.3,3.2-4.5C148.1,98.1,147,97.8,146.4,97.8z"/>
<path class="st17" d="M132.5,109l2-2.5l6,1L132.5,109z"/>
</svg>
