<?xml version="1.0" encoding="utf-8"?>
<!-- Generator: Adobe Illustrator 28.0.0, SVG Export Plug-In . SVG Version: 6.00 Build 0)  -->
<svg version="1.1" id="Capa_1" xmlns="http://www.w3.org/2000/svg" xmlns:xlink="http://www.w3.org/1999/xlink" x="0px" y="0px"
	 viewBox="0 0 163 175" style="enable-background:new 0 0 163 175;" xml:space="preserve">
<style type="text/css">
	.st0{fill:#950080;}
	.st1{clip-path:url(#SVGID_00000068647314708533829250000012446068197901577640_);}
	.st2{fill-rule:evenodd;clip-rule:evenodd;fill:#FFFFFF;}
	.st3{fill:#FFB9B9;}
	.st4{fill:#FFB8B8;}
	.st5{fill:#000A2C;}
	.st6{fill:#777777;}
	.st7{fill:#380091;}
	.st8{opacity:0.1;enable-background:new    ;}
</style>
<path class="st0" d="M60,0c21,0,38,13.7,38,30.6c0,7.3-3.2,14-8.5,19.3c1.9,7.4,8.1,14,8.1,14.1c0.3,0.3,0.4,0.8,0.2,1.3
	c-0.2,0.4-0.6,0.7-1.1,0.7c-9.8,0-17.2-4.7-20.9-7.6c-5.1,1.9-10.5,2.9-15.9,2.9c-21,0-38-13.7-38-30.6S39,0,60,0z"/>
<g>
	<defs>
		<rect id="SVGID_1_" x="46" y="17" width="28" height="27.9"/>
	</defs>
	<clipPath id="SVGID_00000062193411257233429510000012039510806293831835_">
		<use xlink:href="#SVGID_1_"  style="overflow:visible;"/>
	</clipPath>
	<g style="clip-path:url(#SVGID_00000062193411257233429510000012039510806293831835_);">
		<path class="st2" d="M46.3,17.3c0.5-0.5,1.2-0.5,1.7,0l25.7,25.6c0.5,0.5,0.5,1.2,0,1.6c-0.5,0.5-1.2,0.5-1.7,0L46.3,19
			C45.9,18.5,45.9,17.8,46.3,17.3C46.3,17.3,46.3,17.3,46.3,17.3z M64.5,29.3c0.3-0.6,1-0.8,1.6-0.5c1,0.5,2,1.1,2.9,1.9
			c0.5,0.4,0.6,1.1,0.1,1.6c-0.4,0.5-1.2,0.5-1.6,0.1c-0.7-0.6-1.5-1.2-2.4-1.6C64.4,30.6,64.2,29.9,64.5,29.3
			C64.5,29.3,64.5,29.3,64.5,29.3z"/>
		<path class="st2" d="M59,28.6c0.1,0.6-0.3,1.2-1,1.3c0,0,0,0,0,0c-2,0.3-3.9,1.2-5.5,2.5c-0.5,0.4-1.2,0.3-1.6-0.1
			c-0.4-0.5-0.3-1.2,0.1-1.6c0,0,0,0,0,0c1.9-1.6,4.2-2.6,6.6-3C58.3,27.6,58.9,28,59,28.6z M65.5,24.9c-2.2-0.7-4.6-1-6.9-0.8
			c-0.6,0.1-1.2-0.4-1.3-1.1c-0.1-0.6,0.4-1.2,1.1-1.3c2.7-0.2,5.3,0.1,7.9,0.9c2.5,0.8,4.9,2.2,6.9,3.9c0.5,0.4,0.5,1.2,0.1,1.6
			c-0.4,0.5-1.2,0.5-1.6,0.1C69.8,26.8,67.7,25.6,65.5,24.9z M54.2,23.7c0.2,0.6-0.1,1.3-0.7,1.5c0,0,0,0,0,0
			c-1.9,0.7-3.6,1.8-5.1,3.1c-0.5,0.4-1.2,0.4-1.6-0.1c-0.4-0.5-0.4-1.2,0.1-1.6c0,0,0,0,0,0c1.7-1.5,3.7-2.7,5.8-3.6
			C53.3,22.8,54,23.1,54.2,23.7z M60,35.6c-1.2,0-2.4,0.4-3.4,1.1c-0.5,0.4-1.3,0.2-1.6-0.3c-0.4-0.5-0.3-1.2,0.3-1.6c0,0,0,0,0,0
			c2.8-2,6.6-2,9.5,0c0.5,0.4,0.6,1.1,0.3,1.6c-0.4,0.5-1.1,0.6-1.6,0.3C62.4,36,61.2,35.6,60,35.6z M58.8,40.2
			c0-0.6,0.5-1.2,1.2-1.2h0c0.6,0,1.2,0.5,1.2,1.2s-0.5,1.2-1.2,1.2h0C59.4,41.4,58.8,40.9,58.8,40.2z"/>
	</g>
</g>
<path class="st3" d="M113.7,77c0-1.4-0.6-2.7-1.5-3.6c-1-0.9-2.3-1.4-3.7-1.3c-2.7,0.2-4.8,2.5-4.6,5.2c0,0.1,0,0.2,0,0.4L89.7,96.1
	c-1.2,2.5-0.9,5.4,0.9,7.5l1.1,1.3l5.1-1l5.8-5.1l-0.7-5.8l7.1-11.2l0,0C111.7,81.7,113.7,79.6,113.7,77z"/>
<path class="st4" d="M15.2,167.1l-2.3-8.6l32-13l3.4,12.7L15.2,167.1L15.2,167.1z"/>
<path class="st5" d="M7.4,171.5L0,143.9l0.3-0.1c5.9-1.6,12.1,1.9,13.7,7.9c0,0,0,0,0,0l4.5,16.9C18.6,168.5,7.4,171.5,7.4,171.5z"
	/>
<path class="st4" d="M59.2,165.7l-7.2-5.2l16.7-30.2l10.6,7.7L59.2,165.7L59.2,165.7z"/>
<path class="st5" d="M56,174l-23.2-16.8l0.2-0.3c3.6-5,10.6-6.1,15.6-2.5c0,0,0,0,0,0v0l14.1,10.3L56,174z"/>
<path class="st6" d="M120.3,123.6L102.2,106c-3.3-3.2-8.4-3.5-12-0.7l-34.1,37.9l3.1,4.8l32.6-22.1l22.1,28.9l21-10.5L120.3,123.6
	L120.3,123.6z"/>
<path class="st3" d="M112.5,127.3l-13.2-1l-9.6-2.3c-1.5-2.3-4.5-3-6.8-1.5c-1.2,0.8-2,2-2.2,3.4c-0.4,2.7,1.5,5.2,4.2,5.6
	c1.4,0.2,2.8-0.2,3.9-1.1l0,0l5.8,2.4l24.8,8.5l3.1-2.4L112.5,127.3L112.5,127.3z"/>
<path class="st6" d="M144.4,163.9l-7.5,4.8h-8.8L87,153.4l-60.1,10.9l-1.7-12.9l55-24.1l48.2,16L144.4,163.9L144.4,163.9z"/>
<path class="st3" d="M128.4,81.5c7.3,0,13.2-5.9,13.2-13.2S135.7,55,128.4,55s-13.2,5.9-13.2,13.2S121.1,81.5,128.4,81.5z"/>
<path class="st7" d="M162.7,121.1c0,8-1.3,15.9-3.7,23.5l-1,3l-4.8,21.7l-5.1,1.4l-3.7-4.8l-7.5-5.4l-5.4-8.8l-4.7-7.8l-1.5-2.4
	l-5.1-25.5l-19.3-10.9l-6.4-1l1.4-3.7l5.8-7.8l5.8-0.7l1.7-1.4l1.4,0.7l7.5,2.9l24.3-10.3l3.6,0.6L158,94.7
	C161.1,103.1,162.7,112.1,162.7,121.1L162.7,121.1z"/>
<path class="st8" d="M159,118.1l-12.9,8.5L126.8,144l-1.5-2.4l-4.1-20.4h1l10.5-19.3L159,118.1z"/>
<path class="st7" d="M132.8,99.8l-10.5,19.3l-6.1,6.8l-5.4,1.4l14.6,16l20.7-18.7l12.9-8.5L132.8,99.8L132.8,99.8z"/>
<path class="st5" d="M118.1,58.4l-1.4,0.6c-0.4-0.3-0.7-0.8-0.8-1.3c-0.1-0.5,0-1.1,0.3-1.5l0,0l-2.7-0.1c3.4-4.6,8.7-7.5,14.4-7.9
	c5.7-0.5,11.4,1.6,15.5,5.5c0.1-0.4,1.4,0.4,2,1.2c0.2-0.7,1.4,2.6,1.9,4.9c0.2-0.8,1,0.5,0.3,1.7c0.4-0.1,0.6,1,0.3,1.7
	c0.5-0.2,0.4,1.1-0.1,2c0.7-0.1-0.1,13.8-10.2,12.8c-0.7-3.2-0.5-3-1.3-7.2c-0.4-0.4-0.8-0.8-1.2-1.2l-2.3-2
	c-2.6-2.3-5.1-5.2-8.6-6.1c-2.4-0.6-4-0.7-2.6-3.5c-1.2,0.5-2.3,1.2-3.5,1.7C118,59.2,118.1,58.8,118.1,58.4z"/>
<path class="st3" d="M135,72.1c1.3,0,2.4-1.1,2.4-2.4c0-1.3-1.1-2.4-2.4-2.4c0,0,0,0,0,0c-1.3,0-2.4,1.1-2.4,2.4
	C132.7,71.1,133.7,72.1,135,72.1L135,72.1z"/>
</svg>
