<?xml version="1.0" encoding="utf-8"?>
<!-- Generator: Adobe Illustrator 28.0.0, SVG Export Plug-In . SVG Version: 6.00 Build 0)  -->
<svg version="1.1" id="Capa_1" xmlns="http://www.w3.org/2000/svg" xmlns:xlink="http://www.w3.org/1999/xlink" x="0px" y="0px"
	 viewBox="0 0 246 145" style="enable-background:new 0 0 246 145;" xml:space="preserve">
<style type="text/css">
	.st0{fill:#EEEEEE;}
	.st1{fill:#FFFFFF;}
	.st2{fill:#F2F2F2;}
	.st3{fill:#101011;}
	.st4{fill:#3F3D56;}
	.st5{fill:#380091;}
	.st6{fill:#790033;}
	.st7{fill:#950080;}
	.st8{fill:#30D7CF;}
</style>
<ellipse class="st0" cx="123" cy="72" rx="123" ry="64"/>
<path class="st1" d="M28.5,92h76l12-69h-63C32.3,23,27,40.3,27,49v42L28.5,92z"/>
<path class="st2" d="M82.6,65.2c5,0,9.1-4.1,9.1-9.1S87.6,47,82.6,47s-9.1,4.1-9.1,9.1C73.5,61.1,77.6,65.2,82.6,65.2z"/>
<path class="st2" d="M54.6,24.7h62.6v3.4H62.6c-3.2,0-6.4,0.6-9.4,1.9c-3,1.2-5.7,3-7.9,5.3c-2.3,2.3-4.1,5-5.3,8
	c-1.2,3-1.9,6.2-1.9,9.4v39h-6.9c-0.6,0-1.1-0.5-1.1-1.1c0,0,0,0,0,0V49.2c0-3.2,0.6-6.4,1.9-9.4c1.2-3,3-5.7,5.3-8
	c2.3-2.3,5-4.1,7.9-5.3C48.2,25.4,51.4,24.7,54.6,24.7L54.6,24.7z"/>
<path class="st3" d="M66.6,143.7V91.5h15.2v52.2c0,0.7-0.6,1.3-1.3,1.3H67.9C67.2,145,66.6,144.4,66.6,143.7L66.6,143.7z"/>
<path class="st4" d="M26.9,90.5V48.1c0-6.7,2.7-13.2,7.4-18c4.8-4.8,11.2-7.5,18-7.5h64.6V92H28.4C27.5,92,26.9,91.3,26.9,90.5
	C26.9,90.5,26.9,90.5,26.9,90.5z M116.3,23.2h-64c-6.6,0-12.9,2.6-17.5,7.3c-4.7,4.7-7.3,11-7.3,17.6v42.4c0,0.5,0.4,0.9,0.9,0.9
	h87.9C116.3,91.4,116.3,23.2,116.3,23.2z"/>
<path class="st5" d="M82.6,60.8c-1.4,0-2.7-0.6-3.7-1.5c-1-1-1.5-2.3-1.5-3.7V17.6c0-0.5-0.4-0.9-0.9-0.9H55.9
	c-0.8,0-1.5-0.7-1.5-1.5c0,0,0,0,0,0V1.5c0-0.8,0.7-1.5,1.5-1.5h30.5c0.8,0,1.5,0.7,1.5,1.5c0,0,0,0,0,0v54.1c0,1.4-0.6,2.7-1.5,3.7
	C85.3,60.3,84,60.8,82.6,60.8L82.6,60.8z"/>
<path class="st3" d="M119.2,22c4.4,0,8.7,1.7,11.8,4.9c3.1,3.1,4.9,7.4,4.9,11.8V87h32.8c1.3,0,2.6,0.5,3.5,1.5
	c0.9,0.9,1.5,2.2,1.5,3.5h-71.2V38.7c0-4.4,1.8-8.7,4.9-11.8C110.6,23.8,114.8,22,119.2,22z"/>
<path class="st1" d="M149.4,54.8l2.6,0.5c0.3,0.1,0.6,0,0.9-0.2l2.1-1.6C154.9,53.5,149.4,54.8,149.4,54.8z"/>
<path class="st1" d="M152,43.4l3.5,14.3l67.7-16.4l-3.5-14.3c-0.1-0.5-0.6-0.8-1.1-0.8L179.5,5.8c-0.5-0.2-1.1-0.1-1.4,0.3
	l-18.9,26.4l-7.1,9.9c0,0,0,0,0,0.1c0,0,0,0,0,0.1C152,42.8,152,43.1,152,43.4L152,43.4z"/>
<path class="st4" d="M152.2,42.6C152.2,42.6,152.2,42.6,152.2,42.6c0.1,0.1,0.1,0.1,0.2,0.1c0,0,0.1,0,0.1-0.1l0,0l0.4-0.5l6.7-9.4
	l18.9-26.3c0.2-0.3,0.6-0.4,1-0.2l38.8,20.1l0.3,0.2c0,0,0,0,0,0c0,0,0.1,0,0.1,0c0.1,0,0.1-0.1,0.1-0.2c0,0,0,0,0-0.1c0,0,0,0,0,0
	l0,0L179.5,5.8c-0.5-0.2-1.1-0.1-1.4,0.3l-18.9,26.4l-7.1,9.9C152.2,42.4,152.2,42.5,152.2,42.6C152.1,42.5,152.1,42.5,152.2,42.6
	L152.2,42.6z"/>
<path class="st6" d="M172.5,44l1.5,0.2l11.2,1.2l7.4,0.8l0.4,0l9.2-7.2l0.4-0.3l2.2-1.7l7.8-6.1l0-0.4l2.8-25
	c0.1-0.7-0.4-1.4-1.2-1.4L177.3,0c-0.7-0.1-1.4,0.4-1.4,1.2c0,0,0,0,0,0L174,18.8l-1.1,9.8l-1,8.8l-0.4,4.1l-0.1,1.2
	C171.2,43.3,171.8,43.9,172.5,44L172.5,44z"/>
<path class="st1" d="M182.6,22.1l16,1.8l5.7,0.6c1.1,0.1,2-0.6,2.1-1.7c0,0,0,0,0,0c0.1-1.1-0.6-2-1.7-2.1l-7-0.8L183,18.3
	c-1.1-0.1-2,0.6-2.1,1.7c0,0,0,0,0,0C180.8,21,181.6,22,182.6,22.1C182.6,22.1,182.6,22.1,182.6,22.1L182.6,22.1z M181.7,29.2
	c0,0,0.1,0,0.1,0l18.6,2.1l3.1,0.3c1.1,0.1,2-0.6,2.1-1.7c0,0,0,0,0,0c0.1-1.1-0.6-2-1.7-2.1l-4.5-0.5l-14.7-1.6l-2.5-0.3
	c-1-0.1-2,0.6-2.1,1.6C180,28,180.7,29,181.7,29.2z M179.6,35.5c0.3,0.5,0.8,0.9,1.4,0.9l7.6,0.8l13.5,1.5h0l0.4,0l2.2-1.7
	c0.1-1-0.7-2-1.7-2.1l-1.9-0.2l-7.5-0.8l-5.4-0.6l-6.9-0.8c-0.7-0.1-1.4,0.3-1.8,0.9C179.2,34.1,179.2,34.8,179.6,35.5L179.6,35.5z
	 M190.3,13.4l4,0.4l1.8,0.2l2.7,0.3c0.5,0.1,1-0.1,1.4-0.4c0.8-0.7,1-1.9,0.3-2.7c-0.3-0.4-0.8-0.6-1.3-0.7l-8.4-0.9
	c-1.1-0.1-2,0.7-2.1,1.8C188.6,12.4,189.3,13.3,190.3,13.4L190.3,13.4z"/>
<path class="st7" d="M157.8,24.1l4.8,20.1l8.1,1.5l7.5,1.4l8,1.5l2.6,0.5c0.3,0.1,0.6,0,0.9-0.2l2.1-1.6l1.3-1l9.2-7.2l-5.9-24.4
	c-0.2-0.7-0.9-1.1-1.6-1l-36.1,8.8C158,22.7,157.6,23.4,157.8,24.1C157.8,24.1,157.8,24.1,157.8,24.1z"/>
<path class="st1" d="M168.9,40c0.2,1,1.3,1.7,2.3,1.4c0,0,0,0,0,0l21.2-5.1c1-0.3,1.7-1.3,1.4-2.3c0,0,0,0,0-0.1
	c-0.1-0.5-0.4-0.9-0.9-1.1c-0.4-0.3-0.9-0.3-1.4-0.2l-21.2,5.1C169.3,38,168.6,39,168.9,40C168.9,40,168.9,40,168.9,40L168.9,40z
	 M170.7,45.7l7.5,1.4l15.9-3.8c1-0.3,1.7-1.3,1.4-2.3c-0.1-0.5-0.4-0.9-0.9-1.2c-0.4-0.3-1-0.3-1.4-0.2L172,44.7
	c-0.4,0.1-0.8,0.4-1.1,0.7C170.8,45.5,170.8,45.6,170.7,45.7L170.7,45.7z M173.2,29.3c0.3,1,1.3,1.7,2.3,1.4l8.2-2
	c1-0.2,1.7-1.3,1.4-2.3s-1.3-1.7-2.3-1.4l-8.2,2C173.5,27.2,172.9,28.2,173.2,29.3L173.2,29.3z"/>
<path class="st1" d="M178.2,47.1l8,1.5l2.6,0.5c0.3,0.1,0.6,0,0.9-0.2l2.1-1.6l-0.7,0.2l-1.5,1.2c-0.2,0.1-0.4,0.2-0.6,0.2l-1.9-0.4
	l-8-1.5C178.9,46.9,178.2,47.1,178.2,47.1z M202.2,38.7l0.1,0.3l0.4-0.3L202.2,38.7z M178.2,47.1l8,1.5l2.6,0.5
	c0.3,0.1,0.6,0,0.9-0.2l2.1-1.6l-0.7,0.2l-1.5,1.2c-0.2,0.1-0.4,0.2-0.6,0.2l-1.9-0.4l-8-1.5C178.9,46.9,178.2,47.1,178.2,47.1z
	 M178.2,47.1l8,1.5l2.6,0.5c0.3,0.1,0.6,0,0.9-0.2l2.1-1.6l-0.7,0.2l-1.5,1.2c-0.2,0.1-0.4,0.2-0.6,0.2l-1.9-0.4l-8-1.5
	C178.9,46.9,178.2,47.1,178.2,47.1z M152,43.4l9.1,37.5c0.1,0.6,0.7,0.9,1.3,0.8L228,65.8c0.6-0.1,0.9-0.7,0.8-1.3c0,0,0,0,0,0
	l-9.1-37.5c-0.1-0.6-0.7-0.9-1.3-0.8c-0.2,0-0.3,0.1-0.4,0.2l-5.4,4.2l-7.8,6.1l-2.6,2v0h0l-9.6,7.5l-1.6,1.2l-1.5,1.2
	c-0.2,0.1-0.4,0.2-0.6,0.2l-1.9-0.4l-8-1.5l-8-1.5L153.3,42c-0.2,0-0.3,0-0.5,0c-0.3,0.1-0.5,0.2-0.7,0.5
	C152,42.8,152,43.1,152,43.4L152,43.4z M178.2,47.1l8,1.5l2.6,0.5c0.3,0.1,0.6,0,0.9-0.2l2.1-1.6l-0.7,0.2l-1.5,1.2
	c-0.2,0.1-0.4,0.2-0.6,0.2l-1.9-0.4l-8-1.5C178.9,46.9,178.2,47.1,178.2,47.1z M178.2,47.1l8,1.5l2.6,0.5c0.3,0.1,0.6,0,0.9-0.2
	l2.1-1.6l-0.7,0.2l-1.5,1.2c-0.2,0.1-0.4,0.2-0.6,0.2l-1.9-0.4l-8-1.5C178.9,46.9,178.2,47.1,178.2,47.1z M178.2,47.1l8,1.5l2.6,0.5
	c0.3,0.1,0.6,0,0.9-0.2l2.1-1.6l-0.7,0.2l-1.5,1.2c-0.2,0.1-0.4,0.2-0.6,0.2l-1.9-0.4l-8-1.5C178.9,46.9,178.2,47.1,178.2,47.1z"/>
<path class="st4" d="M178.2,47.1l8,1.5l2.6,0.5c0.3,0.1,0.6,0,0.9-0.2l2.1-1.6l-0.7,0.2l-1.5,1.2c-0.2,0.1-0.4,0.2-0.6,0.2l-1.9-0.4
	l-8-1.5C178.9,46.9,178.2,47.1,178.2,47.1z M202.2,38.7l0.1,0.3l0.4-0.3L202.2,38.7z M178.2,47.1l8,1.5l2.6,0.5
	c0.3,0.1,0.6,0,0.9-0.2l2.1-1.6l-0.7,0.2l-1.5,1.2c-0.2,0.1-0.4,0.2-0.6,0.2l-1.9-0.4l-8-1.5C178.9,46.9,178.2,47.1,178.2,47.1z
	 M178.2,47.1l8,1.5l2.6,0.5c0.3,0.1,0.6,0,0.9-0.2l2.1-1.6l-0.7,0.2l-1.5,1.2c-0.2,0.1-0.4,0.2-0.6,0.2l-1.9-0.4l-8-1.5
	C178.9,46.9,178.2,47.1,178.2,47.1z M152.5,42.6L152.5,42.6C152.5,42.6,152.5,42.6,152.5,42.6c0.2-0.2,0.5-0.3,0.8-0.2l17.5,3.3
	l7.5,1.4l8,1.5l2.6,0.5c0.3,0.1,0.6,0,0.9-0.2l2.1-1.6l-0.7,0.2l-1.5,1.2c-0.2,0.1-0.4,0.2-0.6,0.2l-1.9-0.4l-8-1.5l-8-1.5L153.3,42
	c-0.2,0-0.3,0-0.5,0C152.8,42.1,152.5,42.6,152.5,42.6z M152,43.4l9.1,37.5c0.1,0.6,0.7,0.9,1.3,0.8L228,65.8
	c0.6-0.1,0.9-0.7,0.8-1.3c0,0,0,0,0,0l-9.1-37.5c-0.1-0.6-0.7-0.9-1.3-0.8c-0.2,0-0.3,0.1-0.4,0.2l-5.4,4.2l-7.8,6.1l-2.6,2v0h0
	l-9.6,7.5l-1.6,1.2l-1.5,1.2c-0.2,0.1-0.4,0.2-0.6,0.2l-1.9-0.4l-8-1.5l-8-1.5L153.3,42c-0.2,0-0.3,0-0.5,0
	c-0.3,0.1-0.5,0.2-0.7,0.5C152,42.8,152,43.1,152,43.4L152,43.4z M152.3,43.3c-0.1-0.2,0-0.5,0.2-0.7c0,0,0,0,0,0
	c0.2-0.2,0.4-0.3,0.7-0.2l17.5,3.3l7.5,1.4l8,1.5l2.6,0.5c0.3,0.1,0.6,0,0.9-0.2l2.1-1.6l1.3-1l9.2-7.2l0.4-0.3l2.2-1.7l7.8-6.1
	l5.6-4.4c0.3-0.2,0.8-0.2,1,0.1c0.1,0.1,0.1,0.2,0.2,0.3l9.1,37.5c0,0.2,0,0.4-0.1,0.6c-0.1,0.2-0.3,0.3-0.5,0.3l-65.6,15.9
	c-0.4,0.1-0.8-0.2-0.9-0.6c0,0,0,0,0,0L152.3,43.3L152.3,43.3z M178.2,47.1l8,1.5l2.6,0.5c0.3,0.1,0.6,0,0.9-0.2l2.1-1.6l-0.7,0.2
	l-1.5,1.2c-0.2,0.1-0.4,0.2-0.6,0.2l-1.9-0.4l-8-1.5C178.9,46.9,178.2,47.1,178.2,47.1z M178.2,47.1l8,1.5l2.6,0.5
	c0.3,0.1,0.6,0,0.9-0.2l2.1-1.6l-0.7,0.2l-1.5,1.2c-0.2,0.1-0.4,0.2-0.6,0.2l-1.9-0.4l-8-1.5C178.9,46.9,178.2,47.1,178.2,47.1z
	 M178.2,47.1l8,1.5l2.6,0.5c0.3,0.1,0.6,0,0.9-0.2l2.1-1.6l-0.7,0.2l-1.5,1.2c-0.2,0.1-0.4,0.2-0.6,0.2l-1.9-0.4l-8-1.5
	C178.9,46.9,178.2,47.1,178.2,47.1z"/>
<path class="st8" d="M210.9,58.4c-0.3-1.3,0.5-2.6,1.8-2.9l8.3-2c0.6-0.1,1.3,0,1.8,0.3c1.1,0.7,1.5,2.1,0.8,3.3
	c-0.3,0.5-0.9,0.9-1.5,1.1l-8.3,2C212.5,60.4,211.2,59.7,210.9,58.4z"/>
<path class="st1" d="M82.6,57.6c1.1,0,2.1-0.9,2.1-2.1c0,0,0,0,0,0c0-1.1-0.9-2.1-2.1-2.1c0,0,0,0,0,0c-1.1,0-2.1,0.9-2.1,2.1
	S81.5,57.6,82.6,57.6z"/>
</svg>
